<svg width="247" height="137" viewBox="0 0 247 137" fill="none" xmlns="http://www.w3.org/2000/svg">
<mask id="mask0_29_2" style="mask-type:luminance" maskUnits="userSpaceOnUse" x="7" y="10" width="232" height="117">
<path d="M7.9808 10.96H238.972V126.04H7.9808V10.96Z" fill="white"/>
</mask>
<g mask="url(#mask0_29_2)">
<path d="M60.8018 125.388C60.6887 125.098 59.1056 121.398 57.2831 117.167C55.4595 112.935 53.9205 109.354 53.8621 109.209C53.7859 109.022 54.0241 108.945 54.6828 108.945H55.6119L58.3373 115.368C59.837 118.9 61.0806 121.77 61.102 121.745C61.1234 121.721 62.3539 118.83 63.8345 115.323L66.529 108.945H68.3479L67.5319 110.895C66.0346 114.471 61.4022 125.214 61.2033 125.567C61.0341 125.869 60.9805 125.845 60.8018 125.388ZM142.131 119.562L137.73 113.314L137.674 119.14L137.617 124.966H135.935V116.534C135.935 111.896 135.977 108.102 136.029 108.102C136.081 108.102 138.1 110.906 140.516 114.332L144.908 120.562L144.965 114.754L145.021 108.945H146.703V117.378C146.703 122.016 146.663 125.809 146.617 125.809C146.57 125.809 144.551 122.998 142.131 119.562ZM214.132 125.149C211.988 124.897 210.438 123.849 209.74 122.18C209.561 121.749 209.413 121.346 209.413 121.284C209.413 121.222 209.836 121.173 210.353 121.173C211.219 121.173 211.32 121.23 211.641 121.906C212.162 123 213.194 123.54 214.981 123.653C216.908 123.776 218.171 123.432 219.06 122.545C219.638 121.967 219.758 121.687 219.758 120.924C219.758 120.416 219.609 119.788 219.427 119.529C218.961 118.865 217.426 118.139 215.325 117.587C210.893 116.425 209.291 114.696 210.046 111.893C210.375 110.673 211.57 109.525 213.012 109.047C214.503 108.554 217.189 108.691 218.418 109.324C219.328 109.794 220.492 111.026 220.67 111.712C220.76 112.053 220.651 112.107 219.88 112.107C219.133 112.107 218.936 112.017 218.692 111.561C217.824 109.94 213.389 109.676 212.147 111.172C211.691 111.719 211.532 112.985 211.83 113.695C212.207 114.598 213.128 115.117 215.706 115.88C220.387 117.267 221.447 118.147 221.447 120.643C221.447 123.893 218.562 125.671 214.131 125.149H214.132ZM191.22 124.772C189.655 124.273 188.776 123.714 187.632 122.491C183.84 118.434 185.073 111.913 190.098 109.459C191.248 108.897 191.556 108.842 193.576 108.841C195.62 108.84 195.901 108.891 197.166 109.492C199.619 110.658 201.169 112.631 201.726 115.298C202.994 121.366 197.126 126.658 191.22 124.772ZM195.599 123.181C198.67 122.271 200.702 118.999 200.147 115.854C199.738 113.536 197.973 111.424 195.856 110.723C194.433 110.251 191.906 110.387 190.726 111.001C189.581 111.597 188.196 113.063 187.692 114.215C185.419 119.412 190.164 124.793 195.599 123.181ZM7.98199 116.955V108.945H9.67107V123.28H15.372V124.966H7.98199V116.955ZM21.7662 124.703C23.3528 120.752 28.5701 108.162 28.6702 108.045C28.7464 107.955 29.6743 109.995 30.7321 112.578C31.791 115.16 33.3681 119.003 34.2377 121.119L35.8195 124.966H33.9982L33.1061 122.748L32.2127 120.529L28.7095 120.587L25.2074 120.644L24.3534 122.804L23.5005 124.964L22.5809 124.965C21.9282 124.966 21.6911 124.89 21.7662 124.703ZM31.1942 117.957C29.4492 113.451 28.7881 111.911 28.6618 112.051C28.5236 112.204 25.9281 118.771 25.9281 118.969C25.9281 119.021 27.2098 119.064 28.7762 119.064H31.6231L31.1942 117.957ZM75.9701 116.955V108.945H77.6592V124.966H75.9701V116.955ZM86.7383 116.955V108.945H96.239V110.421H88.4273V116.112H96.0282V117.799H88.4273V123.49H96.239V124.966H86.7383V116.955ZM117.354 116.955V108.945H126.856V110.421H119.043V116.112H126.645V117.799H119.043V123.49H126.856V124.966H117.354V116.955ZM167.606 116.955V108.945L170.826 108.947C173.765 108.95 174.14 108.992 175.117 109.447C177.628 110.614 178.614 113.315 177.445 115.821C176.865 117.064 175.842 117.929 174.381 118.412L173.365 118.748L175.354 121.277C176.447 122.669 177.534 124.068 177.767 124.387L178.192 124.966L177.069 124.959L175.946 124.951L173.624 121.804L171.301 118.658L170.299 118.65L169.296 118.643V124.966H167.606V116.955ZM174.807 116.477C176.736 115.191 176.705 112.1 174.752 110.956C174.169 110.613 173.642 110.54 171.723 110.534L169.4 110.525L169.342 113.741L169.285 116.955H171.686C173.833 116.955 174.166 116.904 174.807 116.476V116.477ZM229.471 116.955V108.945H238.973V110.421H231.16V116.112H238.762V117.799H231.16V123.49H238.973V124.966H229.471V116.955ZM98.6583 94.6513C96.5022 93.2968 96.0972 90.7459 97.7589 88.9799C98.8631 87.8061 101.041 87.5968 102.559 88.5197C103.259 88.9442 103.263 88.9561 102.865 89.3545C102.466 89.7517 102.447 89.7517 101.585 89.326C98.7226 87.9119 96.5308 91.9054 99.2586 93.5668C100.114 94.0865 100.794 94.0876 101.762 93.5691C102.506 93.1719 102.54 93.1707 102.88 93.5454C103.211 93.9105 103.192 93.9604 102.541 94.423C101.587 95.1021 99.5647 95.221 98.6583 94.6525V94.6513ZM106.164 91.4345V87.837L106.744 87.9036C107.311 87.969 107.326 88.0059 107.387 89.4984L107.449 91.0266H111.001L111.063 89.4984C111.124 88.0059 111.138 87.969 111.706 87.9036L112.286 87.837V95.0319H111.02V92.0814H107.43V95.0319H106.164V91.4345ZM115.046 94.8737C115.055 94.7869 115.748 93.1981 116.585 91.3429C117.955 88.308 118.165 87.9631 118.669 87.9048C119.114 87.8525 119.299 87.9726 119.564 88.484C119.822 88.9823 121.531 92.8318 122.354 94.7691C122.43 94.9475 122.252 95.0319 121.8 95.0319C121.237 95.0319 121.084 94.9165 120.825 94.2946L120.515 93.5561H116.925L116.572 94.2946C116.293 94.8797 116.097 95.0319 115.625 95.0319C115.299 95.0319 115.038 94.9605 115.046 94.8737ZM119.776 91.8519C119.699 91.6093 119.426 90.9362 119.169 90.3546L118.702 89.2986L118.04 90.7947L117.377 92.2919H118.647C119.837 92.2919 119.907 92.2634 119.776 91.8519ZM125.166 91.4487V87.8644H126.21L126.269 90.8684L126.328 93.8724L127.858 93.9342C129.326 93.9937 129.389 94.0175 129.389 94.5146C129.389 95.0295 129.38 95.0319 127.277 95.0319H125.166V91.4487ZM132.346 91.4404V87.8501L134.826 87.9096L137.307 87.969V88.4959C137.307 89.0156 137.281 89.0239 135.354 89.0834L133.401 89.144V90.797L135.142 90.8589C136.868 90.9195 136.885 90.9255 136.952 91.4999L137.019 92.079H133.401V93.9771H135.407C137.406 93.9771 137.413 93.9782 137.413 94.5039V95.0307H132.346V91.4404ZM46.9629 92.1325C47.2773 91.5819 47.6144 91.0408 47.7109 90.9302C48.0992 90.4902 47.7967 90.4046 45.618 90.3475C43.3691 90.288 43.3477 90.2833 43.2965 89.7612C43.2607 89.3949 45.3703 85.5513 50.1802 77.2183L57.1152 65.2023L53.5488 65.0965C49.8479 64.987 49.3952 64.8634 49.6978 64.0428C49.9277 63.4196 66.0989 35.475 66.305 35.3465C66.4206 35.2728 66.6707 35.2549 66.8613 35.3061C67.0555 35.3572 70.8326 41.6935 75.4996 49.7957C83.0028 62.8262 83.858 64.4448 83.4959 64.9252C83.4792 64.949 81.8378 65.0192 79.8486 65.0846L76.2322 65.2023L79.2149 70.4159C80.8563 73.2832 82.3024 75.5927 82.4286 75.5475C82.5549 75.5023 85.8723 73.4175 89.8008 70.913L96.943 66.3618H95.5505C94.5666 66.3618 94.0604 66.2643 93.8269 66.03C93.6434 65.8481 93.4957 65.6352 93.4981 65.5567C93.5005 65.477 96.6714 59.9114 100.546 53.1863L107.591 40.9597L103.997 40.8551C100.974 40.7659 100.368 40.6945 100.184 40.4043C100.011 40.1296 101.586 37.2457 107.955 26.1751C112.35 18.539 116.129 12.0244 116.355 11.6986C116.617 11.3216 116.918 11.1313 117.186 11.1717C117.761 11.2609 134.056 39.4458 133.98 40.2224L133.929 40.7492L130.286 40.8075C128.284 40.8384 126.645 40.911 126.645 40.9669C126.645 41.0227 129.78 46.5135 133.612 53.1672C137.444 59.8222 140.58 65.4068 140.58 65.5781C140.58 65.9527 140.197 66.2893 139.653 66.3915C139.391 66.4415 141.236 67.7259 145.037 70.1388C148.218 72.1581 150.928 73.892 151.06 73.9919C151.224 74.1168 152.599 71.9203 155.441 66.9933C157.719 63.045 159.583 59.7699 159.583 59.7152C159.583 59.6605 158.034 59.6165 156.141 59.6165C152.632 59.6165 152.193 59.5237 152.193 58.7804C152.193 58.5997 155.879 52.0493 160.387 44.2242C167.617 31.6718 168.645 29.9902 169.123 29.9343C169.634 29.8737 170.142 30.699 177.926 44.2051C182.47 52.091 186.186 58.6853 186.186 58.8601C186.186 59.4702 185.381 59.6165 181.999 59.6165H178.628L185.707 71.8822C191.168 81.345 192.739 84.2241 192.578 84.4774C192.42 84.7307 191.853 84.8318 190.152 84.9127L187.933 85.0185L190.227 89.0239L192.522 93.0292L191.868 93.097C191.508 93.1327 191.1 93.1208 190.959 93.0649C190.819 93.0114 189.578 91.0016 188.199 88.5981C186.224 85.1553 185.74 84.1552 185.91 83.8852C186.079 83.6152 186.601 83.5189 188.328 83.4357L190.532 83.331L183.503 71.1271C179.637 64.4162 176.476 58.866 176.477 58.7959C176.479 58.7245 176.57 58.5235 176.681 58.3499C176.84 58.0966 177.587 58.0134 180.434 57.9289L183.987 57.8231L176.694 45.147C172.683 38.1757 169.309 32.4472 169.195 32.4198C169.082 32.3913 165.691 38.0948 161.659 45.0959L154.329 57.8231L157.794 57.9289C160.652 58.0157 161.32 58.0954 161.61 58.3856C161.938 58.7138 161.651 59.2763 157.301 66.8185C154.738 71.2626 152.706 74.9624 152.786 75.0408C152.866 75.1193 159.203 79.1841 166.867 84.0743C174.532 88.9632 180.85 93.0114 180.908 93.0685C180.967 93.1267 180.444 93.1398 179.747 93.097L178.479 93.0209L148.358 73.7874C131.792 63.2103 118.14 54.5551 118.022 54.5551C117.904 54.5551 104.196 63.2353 87.5614 73.8433C57.7119 92.8806 57.3034 93.1327 56.2516 93.1327C55.3463 93.1327 55.2331 93.0899 55.4964 92.8485C55.6667 92.6915 61.4355 88.9811 68.3157 84.5999C75.1959 80.22 80.8253 76.5559 80.8253 76.4584C80.8253 76.3597 79.3411 73.7041 77.527 70.5574C75.7128 67.4107 74.181 64.6564 74.1238 64.4376C73.8856 63.5255 74.3275 63.4089 78.0189 63.4089C80.1404 63.4089 81.4674 63.3304 81.4245 63.2068C81.2744 62.7774 66.7791 37.7 66.679 37.6976C66.5599 37.6941 51.8991 63.0664 51.8991 63.2745C51.8991 63.3483 53.4547 63.4089 55.357 63.4089C59.0056 63.4089 59.4737 63.529 59.2414 64.4091C59.1878 64.6124 56.0407 70.1662 52.2493 76.7498C48.4566 83.3346 45.3536 88.7658 45.3536 88.8193C45.3536 88.8729 46.2482 88.9157 47.3429 88.9157C48.4363 88.9157 49.481 88.9739 49.6644 89.0441C50.2005 89.2498 50.0599 89.8778 49.101 91.5558C48.2053 93.1267 48.2041 93.1279 47.2976 93.1303L46.3911 93.1327L46.9629 92.1325ZM108.701 58.8577C114.096 55.4149 117.958 53.0792 118.165 53.1339C118.358 53.1851 122.553 55.8026 127.487 58.9505C135.97 64.3627 136.512 64.6755 137.452 64.6755H138.447L133.26 55.6634C130.409 50.7067 127.271 45.254 126.289 43.5451C125.159 41.5805 124.528 40.264 124.571 39.9619C124.638 39.4886 124.677 39.4827 128.28 39.4256C130.284 39.3947 131.923 39.3162 131.923 39.252C131.923 39.1152 117.374 13.8332 117.174 13.6216C117.099 13.5419 113.692 19.2811 109.604 26.3749L102.171 39.2734L105.843 39.3305C109.314 39.3852 109.524 39.4113 109.652 39.8133C109.752 40.1284 107.976 43.3834 102.802 52.3704C98.9608 59.0444 95.8173 64.5423 95.8173 64.5898C95.8173 64.6362 96.6654 64.6755 97.7029 64.6755H99.5874L108.701 58.8577ZM134.247 87.0735C134.247 86.9855 134.473 86.6335 134.748 86.2898C135.215 85.7083 135.291 85.6833 135.843 85.9342L136.436 86.2042L135.815 86.7096C135.229 87.1877 134.244 87.416 134.247 87.0735Z" fill="#F3EDEA"/>
</g>
</svg>
