<svg xmlns="http://www.w3.org/2000/svg" xmlns:xlink="http://www.w3.org/1999/xlink" width="1080" zoomAndPan="magnify" viewBox="0 0 810 449.999984" height="600" preserveAspectRatio="xMidYMid meet" version="1.0"><defs><clipPath id="ffc87e93ab"><path d="M 26.171875 36 L 783.671875 36 L 783.671875 414 L 26.171875 414 Z M 26.171875 36 " clip-rule="nonzero"/></clipPath></defs><rect x="-81" width="972" fill="#ffffff" y="-44.999998" height="539.99998" fill-opacity="1"/><rect x="-81" width="972" fill="#3f5141" y="-44.999998" height="539.99998" fill-opacity="1"/><g clip-path="url(#ffc87e93ab)"><path fill="#fff7f5" d="M 199.425781 411.929688 C 199.054688 410.976562 193.859375 398.820312 187.882812 384.917969 C 181.902344 371.015625 176.855469 359.25 176.660156 358.773438 C 176.410156 358.160156 177.195312 357.910156 179.355469 357.910156 L 182.402344 357.910156 L 191.34375 379.007812 C 196.261719 390.613281 200.339844 400.039062 200.410156 399.957031 C 200.480469 399.878906 204.515625 390.382812 209.375 378.859375 L 218.210938 357.910156 L 224.175781 357.910156 L 221.5 364.316406 C 216.589844 376.0625 201.394531 411.351562 200.742188 412.515625 C 200.1875 413.507812 200.011719 413.429688 199.425781 411.929688 Z M 466.183594 392.789062 L 451.75 372.261719 L 451.5625 391.402344 L 451.378906 410.542969 L 445.863281 410.542969 L 445.863281 382.839844 C 445.863281 367.605469 446 355.140625 446.171875 355.140625 C 446.339844 355.140625 452.964844 364.347656 460.886719 375.605469 L 475.296875 396.074219 L 475.664062 357.910156 L 481.183594 357.910156 L 481.183594 385.613281 C 481.183594 400.847656 481.050781 413.3125 480.902344 413.3125 C 480.746094 413.3125 474.125 404.078125 466.183594 392.789062 Z M 702.347656 411.144531 C 695.320312 410.316406 690.238281 406.875 687.945312 401.390625 C 687.355469 399.972656 686.871094 398.648438 686.871094 398.445312 C 686.871094 398.242188 688.257812 398.078125 689.953125 398.078125 C 692.796875 398.078125 693.128906 398.269531 694.183594 400.492188 C 695.886719 404.082031 699.273438 405.855469 705.136719 406.230469 C 711.453125 406.628906 715.597656 405.503906 718.511719 402.585938 C 720.410156 400.691406 720.804688 399.769531 720.804688 397.261719 C 720.804688 395.59375 720.316406 393.53125 719.71875 392.679688 C 718.191406 390.5 713.152344 388.109375 706.261719 386.300781 C 691.726562 382.480469 686.472656 376.800781 688.949219 367.59375 C 690.027344 363.582031 693.949219 359.816406 698.679688 358.246094 C 703.566406 356.621094 712.375 357.074219 716.410156 359.15625 C 719.394531 360.695312 723.207031 364.746094 723.796875 367 C 724.089844 368.117188 723.734375 368.296875 721.203125 368.296875 C 718.753906 368.296875 718.109375 368 717.308594 366.503906 C 714.457031 361.175781 699.914062 360.3125 695.835938 365.226562 C 694.34375 367.023438 693.824219 371.179688 694.796875 373.515625 C 696.039062 376.480469 699.058594 378.1875 707.511719 380.695312 C 722.863281 385.246094 726.34375 388.140625 726.34375 396.339844 C 726.34375 407.019531 716.878906 412.859375 702.347656 411.144531 Z M 627.199219 409.90625 C 622.0625 408.265625 619.183594 406.429688 615.429688 402.410156 C 602.992188 389.078125 607.035156 367.65625 623.515625 359.597656 C 627.289062 357.75 628.300781 357.570312 634.929688 357.566406 C 641.632812 357.5625 642.554688 357.730469 646.703125 359.707031 C 654.746094 363.535156 659.832031 370.019531 661.65625 378.777344 C 665.816406 398.71875 646.570312 416.101562 627.199219 409.90625 Z M 641.5625 404.679688 C 651.632812 401.6875 658.296875 390.933594 656.480469 380.609375 C 655.136719 372.992188 649.347656 366.054688 642.40625 363.75 C 637.734375 362.199219 629.449219 362.648438 625.578125 364.664062 C 621.824219 366.617188 617.28125 371.4375 615.628906 375.222656 C 608.171875 392.296875 623.734375 409.972656 641.5625 404.679688 Z M 26.171875 384.226562 L 26.171875 357.910156 L 31.714844 357.910156 L 31.714844 405.003906 L 50.414062 405.003906 L 50.414062 410.542969 L 26.171875 410.542969 Z M 71.386719 409.675781 C 76.589844 396.695312 93.703125 355.335938 94.03125 354.953125 C 94.28125 354.65625 97.328125 361.359375 100.796875 369.839844 C 104.269531 378.324219 109.441406 390.953125 112.296875 397.902344 L 117.484375 410.542969 L 111.511719 410.542969 L 105.652344 395.964844 L 94.164062 396.15625 L 82.671875 396.347656 L 77.078125 410.535156 L 74.058594 410.539062 C 71.921875 410.542969 71.144531 410.289062 71.386719 409.675781 Z M 102.3125 387.515625 C 96.585938 372.710938 94.421875 367.652344 94.007812 368.113281 C 93.550781 368.617188 85.039062 390.191406 85.039062 390.839844 C 85.039062 391.011719 89.242188 391.152344 94.378906 391.152344 L 103.71875 391.152344 Z M 249.175781 384.226562 L 249.175781 357.910156 L 254.714844 357.910156 L 254.714844 410.542969 L 249.175781 410.542969 Z M 284.496094 384.226562 L 284.496094 357.910156 L 315.660156 357.910156 L 315.660156 362.757812 L 290.035156 362.757812 L 290.035156 381.457031 L 314.96875 381.457031 L 314.96875 386.996094 L 290.035156 386.996094 L 290.035156 405.695312 L 315.660156 405.695312 L 315.660156 410.542969 L 284.496094 410.542969 Z M 384.917969 384.226562 L 384.917969 357.910156 L 416.082031 357.910156 L 416.082031 362.757812 L 390.457031 362.757812 L 390.457031 381.457031 L 415.390625 381.457031 L 415.390625 386.996094 L 390.457031 386.996094 L 390.457031 405.695312 L 416.082031 405.695312 L 416.082031 410.542969 L 384.917969 410.542969 Z M 549.746094 384.226562 L 549.746094 357.910156 L 560.304688 357.914062 C 569.945312 357.921875 571.175781 358.066406 574.378906 359.558594 C 582.613281 363.390625 585.851562 372.265625 582.015625 380.496094 C 580.113281 384.582031 576.761719 387.421875 571.964844 389.007812 L 568.632812 390.113281 L 575.15625 398.421875 C 578.742188 402.996094 582.304688 407.589844 583.074219 408.640625 L 584.464844 410.542969 L 580.785156 410.515625 L 577.101562 410.492188 L 569.484375 400.15625 L 561.863281 389.820312 L 555.285156 389.765625 L 555.285156 410.542969 L 549.746094 410.542969 Z M 573.363281 382.652344 C 579.6875 378.425781 579.589844 368.273438 573.183594 364.511719 C 571.269531 363.386719 569.542969 363.148438 563.25 363.128906 L 555.632812 363.101562 L 555.441406 373.664062 L 555.25 384.222656 L 563.128906 384.222656 C 570.167969 384.222656 571.261719 384.058594 573.363281 382.652344 Z M 752.664062 384.226562 L 752.664062 357.910156 L 783.828125 357.910156 L 783.828125 362.757812 L 758.203125 362.757812 L 758.203125 381.457031 L 783.136719 381.457031 L 783.136719 386.996094 L 758.203125 386.996094 L 758.203125 405.695312 L 783.828125 405.695312 L 783.828125 410.542969 L 752.664062 410.542969 Z M 323.597656 310.949219 C 316.519531 306.5 315.195312 298.121094 320.648438 292.316406 C 324.269531 288.460938 331.410156 287.773438 336.390625 290.804688 C 338.683594 292.199219 338.699219 292.238281 337.394531 293.546875 C 336.085938 294.851562 336.023438 294.851562 333.195312 293.457031 C 323.808594 288.808594 316.617188 301.929688 325.5625 307.382812 C 328.371094 309.09375 330.601562 309.097656 333.777344 307.394531 C 336.214844 306.085938 336.328125 306.085938 337.441406 307.316406 C 338.53125 308.515625 338.46875 308.679688 336.332031 310.199219 C 333.199219 312.429688 326.570312 312.820312 323.597656 310.953125 Z M 348.210938 300.382812 L 348.210938 288.5625 L 350.117188 288.78125 C 351.976562 288.996094 352.023438 289.117188 352.222656 294.023438 L 352.425781 299.042969 L 364.078125 299.042969 L 364.28125 294.023438 C 364.480469 289.117188 364.53125 288.996094 366.390625 288.78125 L 368.296875 288.5625 L 368.296875 312.199219 L 364.140625 312.199219 L 364.140625 302.503906 L 352.367188 302.503906 L 352.367188 312.199219 L 348.210938 312.199219 Z M 377.347656 311.679688 C 377.375 311.394531 379.648438 306.175781 382.394531 300.082031 C 386.890625 290.109375 387.574219 288.980469 389.230469 288.785156 C 390.691406 288.613281 391.296875 289.007812 392.167969 290.6875 C 393.011719 292.324219 398.617188 304.96875 401.320312 311.335938 C 401.566406 311.921875 400.984375 312.199219 399.5 312.199219 C 397.652344 312.199219 397.152344 311.820312 396.300781 309.777344 L 395.285156 307.351562 L 383.507812 307.351562 L 382.351562 309.777344 C 381.4375 311.699219 380.792969 312.199219 379.25 312.199219 C 378.175781 312.199219 377.320312 311.964844 377.347656 311.679688 Z M 392.863281 301.753906 C 392.609375 300.957031 391.714844 298.746094 390.871094 296.835938 L 389.339844 293.363281 L 384.996094 303.199219 L 389.160156 303.199219 C 393.0625 303.199219 393.292969 303.105469 392.863281 301.75 Z M 410.542969 300.425781 L 410.542969 288.652344 L 413.964844 288.652344 L 414.15625 298.523438 L 414.351562 308.390625 L 419.371094 308.59375 C 424.1875 308.789062 424.390625 308.867188 424.390625 310.5 C 424.390625 312.191406 424.359375 312.199219 417.46875 312.199219 L 410.542969 312.199219 Z M 434.089844 300.402344 L 434.089844 288.605469 L 450.363281 288.996094 L 450.363281 290.726562 C 450.363281 292.433594 450.273438 292.460938 443.957031 292.65625 L 437.550781 292.855469 L 437.550781 298.289062 L 443.265625 298.488281 C 448.925781 298.6875 448.980469 298.707031 449.199219 300.597656 L 449.417969 302.5 L 437.550781 302.5 L 437.550781 308.734375 L 444.128906 308.734375 C 450.6875 308.734375 450.710938 308.738281 450.710938 310.464844 L 450.710938 312.195312 L 434.089844 312.195312 Z M 154.035156 302.675781 C 155.066406 300.863281 156.167969 299.089844 156.488281 298.726562 C 157.761719 297.277344 156.765625 297 149.621094 296.8125 C 142.246094 296.617188 142.175781 296.597656 142.007812 294.882812 C 141.890625 293.683594 148.8125 281.054688 164.585938 253.675781 L 187.332031 214.199219 L 175.636719 213.851562 C 163.496094 213.496094 162.011719 213.085938 163.003906 210.390625 C 163.757812 208.34375 216.800781 116.539062 217.476562 116.113281 C 217.855469 115.875 218.675781 115.816406 219.300781 115.980469 C 219.9375 116.152344 232.328125 136.964844 247.632812 163.585938 C 272.246094 206.394531 275.050781 211.710938 273.859375 213.292969 C 273.804688 213.371094 268.421875 213.597656 261.898438 213.8125 L 250.035156 214.199219 L 259.820312 231.328125 C 265.203125 240.75 269.945312 248.335938 270.363281 248.1875 C 270.777344 248.039062 281.65625 241.1875 294.542969 232.964844 L 317.96875 218.011719 L 313.402344 218.011719 C 310.171875 218.011719 308.515625 217.691406 307.746094 216.921875 C 307.148438 216.324219 306.664062 215.621094 306.667969 215.363281 C 306.675781 215.105469 317.078125 196.820312 329.789062 174.726562 L 352.894531 134.558594 L 341.105469 134.210938 C 331.1875 133.921875 329.199219 133.6875 328.601562 132.734375 C 328.03125 131.828125 333.199219 122.355469 354.089844 85.984375 C 368.503906 60.898438 380.902344 39.496094 381.640625 38.429688 C 382.5 37.1875 383.484375 36.5625 384.363281 36.695312 C 386.25 36.988281 439.699219 129.582031 439.449219 132.132812 L 439.28125 133.867188 L 427.335938 134.054688 C 420.765625 134.160156 415.390625 134.394531 415.390625 134.582031 C 415.390625 134.765625 425.671875 152.800781 438.242188 174.664062 C 450.8125 196.527344 461.097656 214.871094 461.097656 215.433594 C 461.097656 216.664062 459.839844 217.773438 458.058594 218.109375 C 457.199219 218.273438 463.25 222.492188 475.71875 230.417969 C 486.152344 237.050781 495.039062 242.75 495.472656 243.078125 C 496.011719 243.484375 500.523438 236.273438 509.84375 220.085938 C 517.316406 207.113281 523.425781 196.351562 523.425781 196.175781 C 523.425781 195.996094 518.347656 195.847656 512.140625 195.847656 C 500.628906 195.847656 499.1875 195.542969 499.1875 193.105469 C 499.1875 192.507812 511.28125 170.988281 526.066406 145.285156 C 549.78125 104.042969 553.152344 98.519531 554.71875 98.335938 C 556.394531 98.136719 558.0625 100.847656 583.59375 145.222656 C 598.496094 171.125 610.691406 192.789062 610.691406 193.367188 C 610.691406 195.371094 608.046875 195.847656 596.953125 195.847656 L 585.898438 195.847656 L 609.117188 236.148438 C 627.027344 267.234375 632.179688 276.691406 631.652344 277.527344 C 631.132812 278.355469 629.273438 278.691406 623.695312 278.957031 L 616.414062 279.300781 L 623.941406 292.460938 L 631.472656 305.621094 L 629.324219 305.84375 C 628.144531 305.957031 626.804688 305.917969 626.34375 305.738281 C 625.882812 305.5625 621.808594 298.957031 617.289062 291.0625 C 610.8125 279.753906 609.222656 276.46875 609.78125 275.578125 C 610.335938 274.695312 612.046875 274.375 617.714844 274.101562 L 624.941406 273.757812 L 601.886719 233.667969 C 589.207031 211.617188 578.835938 193.386719 578.84375 193.152344 C 578.847656 192.917969 579.148438 192.261719 579.507812 191.691406 C 580.03125 190.859375 582.480469 190.582031 591.820312 190.304688 L 603.472656 189.960938 L 579.550781 148.3125 C 566.394531 125.410156 555.328125 106.59375 554.957031 106.5 C 554.585938 106.40625 543.464844 125.148438 530.238281 148.144531 L 506.191406 189.960938 L 517.558594 190.304688 C 526.933594 190.589844 529.125 190.851562 530.078125 191.808594 C 531.152344 192.886719 530.210938 194.730469 515.945312 219.507812 C 507.535156 234.109375 500.871094 246.265625 501.132812 246.523438 C 501.398438 246.78125 522.179688 260.136719 547.320312 276.199219 C 572.460938 292.265625 593.183594 305.5625 593.375 305.75 C 593.566406 305.9375 591.851562 305.980469 589.566406 305.839844 L 585.410156 305.59375 L 486.613281 242.40625 C 432.273438 207.65625 387.496094 179.222656 387.105469 179.222656 C 386.71875 179.222656 341.761719 207.738281 287.199219 242.589844 C 189.292969 305.128906 187.949219 305.957031 184.5 305.957031 C 181.53125 305.957031 181.160156 305.820312 182.023438 305.027344 C 182.582031 304.511719 201.503906 292.320312 224.070312 277.929688 C 246.640625 263.539062 265.105469 251.5 265.105469 251.179688 C 265.105469 250.855469 260.234375 242.132812 254.285156 231.796875 C 248.332031 221.457031 243.308594 212.410156 243.121094 211.6875 C 242.339844 208.691406 243.789062 208.308594 255.898438 208.308594 C 262.855469 208.308594 267.207031 208.050781 267.066406 207.644531 C 266.574219 206.238281 219.03125 123.847656 218.703125 123.839844 C 218.3125 123.832031 170.226562 207.183594 170.226562 207.871094 C 170.226562 208.109375 175.328125 208.308594 181.566406 208.308594 C 193.535156 208.308594 195.066406 208.703125 194.308594 211.59375 C 194.132812 212.261719 183.808594 230.507812 171.371094 252.140625 C 158.933594 273.769531 148.753906 291.613281 148.753906 291.789062 C 148.753906 291.964844 151.691406 292.109375 155.277344 292.109375 C 158.867188 292.109375 162.292969 292.296875 162.894531 292.527344 C 164.652344 293.203125 164.191406 295.265625 161.046875 300.78125 C 158.105469 305.941406 158.101562 305.945312 155.132812 305.949219 L 152.160156 305.957031 Z M 356.535156 193.359375 C 374.230469 182.046875 386.898438 174.375 387.578125 174.554688 C 388.207031 174.722656 401.96875 183.320312 418.152344 193.664062 C 445.976562 211.445312 447.757812 212.46875 450.839844 212.46875 L 454.101562 212.46875 L 437.089844 182.863281 C 427.734375 166.578125 417.445312 148.664062 414.222656 143.050781 C 410.515625 136.597656 408.445312 132.269531 408.585938 131.277344 C 408.808594 129.726562 408.933594 129.707031 420.757812 129.519531 C 427.328125 129.414062 432.703125 129.15625 432.703125 128.949219 C 432.703125 128.5 384.984375 45.4375 384.328125 44.742188 C 384.078125 44.484375 372.90625 63.339844 359.496094 86.644531 L 335.117188 129.015625 L 347.164062 129.207031 C 358.546875 129.382812 359.234375 129.46875 359.652344 130.789062 C 359.980469 131.824219 354.15625 142.519531 337.1875 172.046875 C 324.585938 193.96875 314.277344 212.03125 314.277344 212.1875 C 314.277344 212.34375 317.058594 212.46875 320.460938 212.46875 L 326.644531 212.46875 Z M 440.324219 286.054688 C 440.328125 285.765625 441.066406 284.609375 441.972656 283.480469 C 443.5 281.566406 443.75 281.488281 445.558594 282.3125 L 447.503906 283.195312 L 445.472656 284.859375 C 443.550781 286.429688 440.316406 287.179688 440.324219 286.050781 Z M 440.324219 286.054688 " fill-opacity="1" fill-rule="nonzero"/><path fill="#fff7f5" d="M 199.425781 411.929688 C 199.054688 410.976562 193.859375 398.820312 187.882812 384.917969 C 181.902344 371.015625 176.855469 359.25 176.660156 358.773438 C 176.410156 358.160156 177.195312 357.910156 179.355469 357.910156 L 182.402344 357.910156 L 191.34375 379.007812 C 196.261719 390.613281 200.339844 400.039062 200.410156 399.957031 C 200.480469 399.878906 204.515625 390.382812 209.375 378.859375 L 218.210938 357.910156 L 224.175781 357.910156 L 221.5 364.316406 C 216.589844 376.0625 201.394531 411.351562 200.742188 412.515625 C 200.1875 413.507812 200.011719 413.429688 199.425781 411.929688 Z M 466.183594 392.789062 L 451.75 372.261719 L 451.5625 391.402344 L 451.378906 410.542969 L 445.863281 410.542969 L 445.863281 382.839844 C 445.863281 367.605469 446 355.140625 446.171875 355.140625 C 446.339844 355.140625 452.964844 364.347656 460.886719 375.605469 L 475.296875 396.074219 L 475.664062 357.910156 L 481.183594 357.910156 L 481.183594 385.613281 C 481.183594 400.847656 481.050781 413.3125 480.902344 413.3125 C 480.746094 413.3125 474.125 404.078125 466.183594 392.789062 Z M 702.347656 411.144531 C 695.320312 410.316406 690.238281 406.875 687.945312 401.390625 C 687.355469 399.972656 686.871094 398.648438 686.871094 398.445312 C 686.871094 398.242188 688.257812 398.078125 689.953125 398.078125 C 692.796875 398.078125 693.128906 398.269531 694.183594 400.492188 C 695.886719 404.082031 699.273438 405.855469 705.136719 406.230469 C 711.453125 406.628906 715.597656 405.503906 718.511719 402.585938 C 720.410156 400.691406 720.804688 399.769531 720.804688 397.261719 C 720.804688 395.59375 720.316406 393.53125 719.71875 392.679688 C 718.191406 390.5 713.152344 388.109375 706.261719 386.300781 C 691.726562 382.480469 686.472656 376.800781 688.949219 367.59375 C 690.027344 363.582031 693.949219 359.816406 698.679688 358.246094 C 703.566406 356.621094 712.375 357.074219 716.410156 359.15625 C 719.394531 360.695312 723.207031 364.746094 723.796875 367 C 724.089844 368.117188 723.734375 368.296875 721.203125 368.296875 C 718.753906 368.296875 718.109375 368 717.308594 366.503906 C 714.457031 361.175781 699.914062 360.3125 695.835938 365.226562 C 694.34375 367.023438 693.824219 371.179688 694.796875 373.515625 C 696.039062 376.480469 699.058594 378.1875 707.511719 380.695312 C 722.863281 385.246094 726.34375 388.140625 726.34375 396.339844 C 726.34375 407.019531 716.878906 412.859375 702.347656 411.144531 Z M 627.199219 409.90625 C 622.0625 408.265625 619.183594 406.429688 615.429688 402.410156 C 602.992188 389.078125 607.035156 367.65625 623.515625 359.597656 C 627.289062 357.75 628.300781 357.570312 634.929688 357.566406 C 641.632812 357.5625 642.554688 357.730469 646.703125 359.707031 C 654.746094 363.535156 659.832031 370.019531 661.65625 378.777344 C 665.816406 398.71875 646.570312 416.101562 627.199219 409.90625 Z M 641.5625 404.679688 C 651.632812 401.6875 658.296875 390.933594 656.480469 380.609375 C 655.136719 372.992188 649.347656 366.054688 642.40625 363.75 C 637.734375 362.199219 629.449219 362.648438 625.578125 364.664062 C 621.824219 366.617188 617.28125 371.4375 615.628906 375.222656 C 608.171875 392.296875 623.734375 409.972656 641.5625 404.679688 Z M 26.171875 384.226562 L 26.171875 357.910156 L 31.714844 357.910156 L 31.714844 405.003906 L 50.414062 405.003906 L 50.414062 410.542969 L 26.171875 410.542969 Z M 71.386719 409.675781 C 76.589844 396.695312 93.703125 355.335938 94.03125 354.953125 C 94.28125 354.65625 97.328125 361.359375 100.796875 369.839844 C 104.269531 378.324219 109.441406 390.953125 112.296875 397.902344 L 117.484375 410.542969 L 111.511719 410.542969 L 105.652344 395.964844 L 94.164062 396.15625 L 82.671875 396.347656 L 77.078125 410.535156 L 74.058594 410.539062 C 71.921875 410.542969 71.144531 410.289062 71.386719 409.675781 Z M 102.3125 387.515625 C 96.585938 372.710938 94.421875 367.652344 94.007812 368.113281 C 93.550781 368.617188 85.039062 390.191406 85.039062 390.839844 C 85.039062 391.011719 89.242188 391.152344 94.378906 391.152344 L 103.71875 391.152344 Z M 249.175781 384.226562 L 249.175781 357.910156 L 254.714844 357.910156 L 254.714844 410.542969 L 249.175781 410.542969 Z M 284.496094 384.226562 L 284.496094 357.910156 L 315.660156 357.910156 L 315.660156 362.757812 L 290.035156 362.757812 L 290.035156 381.457031 L 314.96875 381.457031 L 314.96875 386.996094 L 290.035156 386.996094 L 290.035156 405.695312 L 315.660156 405.695312 L 315.660156 410.542969 L 284.496094 410.542969 Z M 384.917969 384.226562 L 384.917969 357.910156 L 416.082031 357.910156 L 416.082031 362.757812 L 390.457031 362.757812 L 390.457031 381.457031 L 415.390625 381.457031 L 415.390625 386.996094 L 390.457031 386.996094 L 390.457031 405.695312 L 416.082031 405.695312 L 416.082031 410.542969 L 384.917969 410.542969 Z M 549.746094 384.226562 L 549.746094 357.910156 L 560.304688 357.914062 C 569.945312 357.921875 571.175781 358.066406 574.378906 359.558594 C 582.613281 363.390625 585.851562 372.265625 582.015625 380.496094 C 580.113281 384.582031 576.761719 387.421875 571.964844 389.007812 L 568.632812 390.113281 L 575.15625 398.421875 C 578.742188 402.996094 582.304688 407.589844 583.074219 408.640625 L 584.464844 410.542969 L 580.785156 410.515625 L 577.101562 410.492188 L 569.484375 400.15625 L 561.863281 389.820312 L 555.285156 389.765625 L 555.285156 410.542969 L 549.746094 410.542969 Z M 573.363281 382.652344 C 579.6875 378.425781 579.589844 368.273438 573.183594 364.511719 C 571.269531 363.386719 569.542969 363.148438 563.25 363.128906 L 555.632812 363.101562 L 555.441406 373.664062 L 555.25 384.222656 L 563.128906 384.222656 C 570.167969 384.222656 571.261719 384.058594 573.363281 382.652344 Z M 752.664062 384.226562 L 752.664062 357.910156 L 783.828125 357.910156 L 783.828125 362.757812 L 758.203125 362.757812 L 758.203125 381.457031 L 783.136719 381.457031 L 783.136719 386.996094 L 758.203125 386.996094 L 758.203125 405.695312 L 783.828125 405.695312 L 783.828125 410.542969 L 752.664062 410.542969 Z M 323.597656 310.949219 C 316.519531 306.5 315.195312 298.121094 320.648438 292.316406 C 324.269531 288.460938 331.410156 287.773438 336.390625 290.804688 C 338.683594 292.199219 338.699219 292.238281 337.394531 293.546875 C 336.085938 294.851562 336.023438 294.851562 333.195312 293.457031 C 323.808594 288.808594 316.617188 301.929688 325.5625 307.382812 C 328.371094 309.09375 330.601562 309.097656 333.777344 307.394531 C 336.214844 306.085938 336.328125 306.085938 337.441406 307.316406 C 338.53125 308.515625 338.46875 308.679688 336.332031 310.199219 C 333.199219 312.429688 326.570312 312.820312 323.597656 310.953125 Z M 348.210938 300.382812 L 348.210938 288.5625 L 350.117188 288.78125 C 351.976562 288.996094 352.023438 289.117188 352.222656 294.023438 L 352.425781 299.042969 L 364.078125 299.042969 L 364.28125 294.023438 C 364.480469 289.117188 364.53125 288.996094 366.390625 288.78125 L 368.296875 288.5625 L 368.296875 312.199219 L 364.140625 312.199219 L 364.140625 302.503906 L 352.367188 302.503906 L 352.367188 312.199219 L 348.210938 312.199219 Z M 377.347656 311.679688 C 377.375 311.394531 379.648438 306.175781 382.394531 300.082031 C 386.890625 290.109375 387.574219 288.980469 389.230469 288.785156 C 390.691406 288.613281 391.296875 289.007812 392.167969 290.6875 C 393.011719 292.324219 398.617188 304.96875 401.320312 311.335938 C 401.566406 311.921875 400.984375 312.199219 399.5 312.199219 C 397.652344 312.199219 397.152344 311.820312 396.300781 309.777344 L 395.285156 307.351562 L 383.507812 307.351562 L 382.351562 309.777344 C 381.4375 311.699219 380.792969 312.199219 379.25 312.199219 C 378.175781 312.199219 377.320312 311.964844 377.347656 311.679688 Z M 392.863281 301.753906 C 392.609375 300.957031 391.714844 298.746094 390.871094 296.835938 L 389.339844 293.363281 L 384.996094 303.199219 L 389.160156 303.199219 C 393.0625 303.199219 393.292969 303.105469 392.863281 301.75 Z M 410.542969 300.425781 L 410.542969 288.652344 L 413.964844 288.652344 L 414.15625 298.523438 L 414.351562 308.390625 L 419.371094 308.59375 C 424.1875 308.789062 424.390625 308.867188 424.390625 310.5 C 424.390625 312.191406 424.359375 312.199219 417.46875 312.199219 L 410.542969 312.199219 Z M 434.089844 300.402344 L 434.089844 288.605469 L 450.363281 288.996094 L 450.363281 290.726562 C 450.363281 292.433594 450.273438 292.460938 443.957031 292.65625 L 437.550781 292.855469 L 437.550781 298.289062 L 443.265625 298.488281 C 448.925781 298.6875 448.980469 298.707031 449.199219 300.597656 L 449.417969 302.5 L 437.550781 302.5 L 437.550781 308.734375 L 444.128906 308.734375 C 450.6875 308.734375 450.710938 308.738281 450.710938 310.464844 L 450.710938 312.195312 L 434.089844 312.195312 Z M 154.035156 302.675781 C 155.066406 300.863281 156.167969 299.089844 156.488281 298.726562 C 157.761719 297.277344 156.765625 297 149.621094 296.8125 C 142.246094 296.617188 142.175781 296.597656 142.007812 294.882812 C 141.890625 293.683594 148.8125 281.054688 164.585938 253.675781 L 187.332031 214.199219 L 175.636719 213.851562 C 163.496094 213.496094 162.011719 213.085938 163.003906 210.390625 C 163.757812 208.34375 216.800781 116.539062 217.476562 116.113281 C 217.855469 115.875 218.675781 115.816406 219.300781 115.980469 C 219.9375 116.152344 232.328125 136.964844 247.632812 163.585938 C 272.246094 206.394531 275.050781 211.710938 273.859375 213.292969 C 273.804688 213.371094 268.421875 213.597656 261.898438 213.8125 L 250.035156 214.199219 L 259.820312 231.328125 C 265.203125 240.75 269.945312 248.335938 270.363281 248.1875 C 270.777344 248.039062 281.65625 241.1875 294.542969 232.964844 L 317.96875 218.011719 L 313.402344 218.011719 C 310.171875 218.011719 308.515625 217.691406 307.746094 216.921875 C 307.148438 216.324219 306.664062 215.621094 306.667969 215.363281 C 306.675781 215.105469 317.078125 196.820312 329.789062 174.726562 L 352.894531 134.558594 L 341.105469 134.210938 C 331.1875 133.921875 329.199219 133.6875 328.601562 132.734375 C 328.03125 131.828125 333.199219 122.355469 354.089844 85.984375 C 368.503906 60.898438 380.902344 39.496094 381.640625 38.429688 C 382.5 37.1875 383.484375 36.5625 384.363281 36.695312 C 386.25 36.988281 439.699219 129.582031 439.449219 132.132812 L 439.28125 133.867188 L 427.335938 134.054688 C 420.765625 134.160156 415.390625 134.394531 415.390625 134.582031 C 415.390625 134.765625 425.671875 152.800781 438.242188 174.664062 C 450.8125 196.527344 461.097656 214.871094 461.097656 215.433594 C 461.097656 216.664062 459.839844 217.773438 458.058594 218.109375 C 457.199219 218.273438 463.25 222.492188 475.71875 230.417969 C 486.152344 237.050781 495.039062 242.75 495.472656 243.078125 C 496.011719 243.484375 500.523438 236.273438 509.84375 220.085938 C 517.316406 207.113281 523.425781 196.351562 523.425781 196.175781 C 523.425781 195.996094 518.347656 195.847656 512.140625 195.847656 C 500.628906 195.847656 499.1875 195.542969 499.1875 193.105469 C 499.1875 192.507812 511.28125 170.988281 526.066406 145.285156 C 549.78125 104.042969 553.152344 98.519531 554.71875 98.335938 C 556.394531 98.136719 558.0625 100.847656 583.59375 145.222656 C 598.496094 171.125 610.691406 192.789062 610.691406 193.367188 C 610.691406 195.371094 608.046875 195.847656 596.953125 195.847656 L 585.898438 195.847656 L 609.117188 236.148438 C 627.027344 267.234375 632.179688 276.691406 631.652344 277.527344 C 631.132812 278.355469 629.273438 278.691406 623.695312 278.957031 L 616.414062 279.300781 L 623.941406 292.460938 L 631.472656 305.621094 L 629.324219 305.84375 C 628.144531 305.957031 626.804688 305.917969 626.34375 305.738281 C 625.882812 305.5625 621.808594 298.957031 617.289062 291.0625 C 610.8125 279.753906 609.222656 276.46875 609.78125 275.578125 C 610.335938 274.695312 612.046875 274.375 617.714844 274.101562 L 624.941406 273.757812 L 601.886719 233.667969 C 589.207031 211.617188 578.835938 193.386719 578.84375 193.152344 C 578.847656 192.917969 579.148438 192.261719 579.507812 191.691406 C 580.03125 190.859375 582.480469 190.582031 591.820312 190.304688 L 603.472656 189.960938 L 579.550781 148.3125 C 566.394531 125.410156 555.328125 106.59375 554.957031 106.5 C 554.585938 106.40625 543.464844 125.148438 530.238281 148.144531 L 506.191406 189.960938 L 517.558594 190.304688 C 526.933594 190.589844 529.125 190.851562 530.078125 191.808594 C 531.152344 192.886719 530.210938 194.730469 515.945312 219.507812 C 507.535156 234.109375 500.871094 246.265625 501.132812 246.523438 C 501.398438 246.78125 522.179688 260.136719 547.320312 276.199219 C 572.460938 292.265625 593.183594 305.5625 593.375 305.75 C 593.566406 305.9375 591.851562 305.980469 589.566406 305.839844 L 585.410156 305.59375 L 486.613281 242.40625 C 432.273438 207.65625 387.496094 179.222656 387.105469 179.222656 C 386.71875 179.222656 341.761719 207.738281 287.199219 242.589844 C 189.292969 305.128906 187.949219 305.957031 184.5 305.957031 C 181.53125 305.957031 181.160156 305.820312 182.023438 305.027344 C 182.582031 304.511719 201.503906 292.320312 224.070312 277.929688 C 246.640625 263.539062 265.105469 251.5 265.105469 251.179688 C 265.105469 250.855469 260.234375 242.132812 254.285156 231.796875 C 248.332031 221.457031 243.308594 212.410156 243.121094 211.6875 C 242.339844 208.691406 243.789062 208.308594 255.898438 208.308594 C 262.855469 208.308594 267.207031 208.050781 267.066406 207.644531 C 266.574219 206.238281 219.03125 123.847656 218.703125 123.839844 C 218.3125 123.832031 170.226562 207.183594 170.226562 207.871094 C 170.226562 208.109375 175.328125 208.308594 181.566406 208.308594 C 193.535156 208.308594 195.066406 208.703125 194.308594 211.59375 C 194.132812 212.261719 183.808594 230.507812 171.371094 252.140625 C 158.933594 273.769531 148.753906 291.613281 148.753906 291.789062 C 148.753906 291.964844 151.691406 292.109375 155.277344 292.109375 C 158.867188 292.109375 162.292969 292.296875 162.894531 292.527344 C 164.652344 293.203125 164.191406 295.265625 161.046875 300.78125 C 158.105469 305.941406 158.101562 305.945312 155.132812 305.949219 L 152.160156 305.957031 Z M 356.535156 193.359375 C 374.230469 182.046875 386.898438 174.375 387.578125 174.554688 C 388.207031 174.722656 401.96875 183.320312 418.152344 193.664062 C 445.976562 211.445312 447.757812 212.46875 450.839844 212.46875 L 454.101562 212.46875 L 437.089844 182.863281 C 427.734375 166.578125 417.445312 148.664062 414.222656 143.050781 C 410.515625 136.597656 408.445312 132.269531 408.585938 131.277344 C 408.808594 129.726562 408.933594 129.707031 420.757812 129.519531 C 427.328125 129.414062 432.703125 129.15625 432.703125 128.949219 C 432.703125 128.5 384.984375 45.4375 384.328125 44.742188 C 384.078125 44.484375 372.90625 63.339844 359.496094 86.644531 L 335.117188 129.015625 L 347.164062 129.207031 C 358.546875 129.382812 359.234375 129.46875 359.652344 130.789062 C 359.980469 131.824219 354.15625 142.519531 337.1875 172.046875 C 324.585938 193.96875 314.277344 212.03125 314.277344 212.1875 C 314.277344 212.34375 317.058594 212.46875 320.460938 212.46875 L 326.644531 212.46875 Z M 440.324219 286.054688 C 440.328125 285.765625 441.066406 284.609375 441.972656 283.480469 C 443.5 281.566406 443.75 281.488281 445.558594 282.3125 L 447.503906 283.195312 L 445.472656 284.859375 C 443.550781 286.429688 440.316406 287.179688 440.324219 286.050781 Z M 440.324219 286.054688 " fill-opacity="1" fill-rule="nonzero"/></g></svg>