<svg xmlns="http://www.w3.org/2000/svg" xmlns:xlink="http://www.w3.org/1999/xlink" width="1011" zoomAndPan="magnify" viewBox="0 0 758.25 379.499984" height="506" preserveAspectRatio="xMidYMid meet" version="1.0"><defs><clipPath id="13da708a2e"><path d="M 0.125 1 L 756.628906 1 L 756.628906 378 L 0.125 378 Z M 0.125 1 " clip-rule="nonzero"/></clipPath></defs><g clip-path="url(#13da708a2e)"><path fill="#fff7f5" d="M 173.148438 375.847656 C 172.777344 374.894531 167.589844 362.757812 161.621094 348.871094 C 155.648438 334.988281 150.605469 323.238281 150.414062 322.761719 C 150.164062 322.148438 150.945312 321.898438 153.105469 321.898438 L 156.148438 321.898438 L 165.078125 342.96875 C 169.988281 354.558594 174.0625 363.972656 174.132812 363.890625 C 174.203125 363.8125 178.230469 354.328125 183.082031 342.820312 L 191.90625 321.898438 L 197.867188 321.898438 L 195.195312 328.296875 C 190.289062 340.03125 175.113281 375.273438 174.464844 376.433594 C 173.910156 377.421875 173.734375 377.34375 173.148438 375.847656 Z M 439.554688 356.730469 L 425.140625 336.234375 L 424.953125 355.347656 L 424.769531 374.464844 L 419.261719 374.464844 L 419.261719 346.796875 C 419.261719 331.582031 419.398438 319.132812 419.570312 319.132812 C 419.738281 319.132812 426.351562 328.328125 434.265625 339.574219 L 448.65625 360.011719 L 448.839844 340.957031 L 449.023438 321.898438 L 454.535156 321.898438 L 454.535156 349.5625 C 454.535156 364.78125 454.402344 377.230469 454.253906 377.230469 C 454.097656 377.230469 447.484375 368.003906 439.554688 356.730469 Z M 675.410156 375.0625 C 668.390625 374.234375 663.3125 370.796875 661.027344 365.320312 C 660.433594 363.90625 659.949219 362.585938 659.949219 362.382812 C 659.949219 362.179688 661.335938 362.015625 663.03125 362.015625 C 665.867188 362.015625 666.199219 362.203125 667.253906 364.425781 C 668.957031 368.011719 672.339844 369.78125 678.191406 370.152344 C 684.5 370.554688 688.640625 369.429688 691.550781 366.515625 C 693.445312 364.621094 693.839844 363.703125 693.839844 361.199219 C 693.839844 359.535156 693.355469 357.476562 692.753906 356.621094 C 691.230469 354.445312 686.199219 352.058594 679.316406 350.25 C 664.804688 346.4375 659.554688 340.765625 662.027344 331.570312 C 663.105469 327.5625 667.019531 323.800781 671.746094 322.234375 C 676.625 320.613281 685.425781 321.066406 689.453125 323.144531 C 692.433594 324.679688 696.242188 328.726562 696.832031 330.976562 C 697.121094 332.09375 696.765625 332.273438 694.238281 332.273438 C 691.792969 332.273438 691.148438 331.976562 690.347656 330.480469 C 687.503906 325.160156 672.976562 324.296875 668.90625 329.203125 C 667.414062 331 666.894531 335.152344 667.871094 337.480469 C 669.109375 340.445312 672.125 342.148438 680.566406 344.652344 C 695.898438 349.199219 699.375 352.089844 699.375 360.277344 C 699.375 370.941406 689.921875 376.773438 675.410156 375.0625 Z M 600.355469 373.828125 C 595.230469 372.1875 592.351562 370.355469 588.605469 366.339844 C 576.183594 353.027344 580.222656 331.632812 596.679688 323.582031 C 600.449219 321.738281 601.460938 321.558594 608.078125 321.554688 C 614.773438 321.550781 615.691406 321.71875 619.835938 323.691406 C 627.871094 327.515625 632.949219 333.992188 634.773438 342.738281 C 638.925781 362.652344 619.703125 380.015625 600.355469 373.828125 Z M 614.703125 368.605469 C 624.761719 365.617188 631.417969 354.878906 629.601562 344.566406 C 628.261719 336.960938 622.476562 330.03125 615.546875 327.730469 C 610.882812 326.179688 602.605469 326.628906 598.742188 328.640625 C 594.988281 330.597656 590.453125 335.410156 588.800781 339.1875 C 581.355469 356.238281 596.898438 373.894531 614.703125 368.605469 Z M 0.125 348.179688 L 0.125 321.898438 L 5.65625 321.898438 L 5.65625 368.929688 L 24.332031 368.929688 L 24.332031 374.460938 L 0.125 374.460938 Z M 45.28125 373.597656 C 50.472656 360.632812 67.566406 319.328125 67.894531 318.945312 C 68.144531 318.652344 71.183594 325.34375 74.648438 333.816406 C 78.117188 342.285156 83.285156 354.898438 86.132812 361.839844 L 91.3125 374.460938 L 85.347656 374.460938 L 79.496094 359.90625 L 68.023438 360.09375 L 56.550781 360.285156 L 53.753906 367.371094 L 50.960938 374.453125 L 47.945312 374.457031 C 45.8125 374.460938 45.035156 374.210938 45.28125 373.597656 Z M 76.164062 351.464844 C 70.445312 336.679688 68.28125 331.625 67.867188 332.085938 C 67.414062 332.59375 58.914062 354.140625 58.914062 354.785156 C 58.914062 354.957031 63.113281 355.097656 68.242188 355.097656 L 77.566406 355.097656 Z M 222.832031 348.179688 L 222.832031 321.898438 L 228.367188 321.898438 L 228.367188 374.460938 L 222.832031 374.460938 Z M 258.105469 348.179688 L 258.105469 321.898438 L 289.230469 321.898438 L 289.230469 326.738281 L 263.640625 326.738281 L 263.640625 345.414062 L 288.539062 345.414062 L 288.539062 350.945312 L 263.640625 350.945312 L 263.640625 369.621094 L 289.230469 369.621094 L 289.230469 374.460938 L 258.105469 374.460938 Z M 358.394531 348.179688 L 358.394531 321.898438 L 389.519531 321.898438 L 389.519531 326.738281 L 363.929688 326.738281 L 363.929688 345.414062 L 388.828125 345.414062 L 388.828125 350.945312 L 363.929688 350.945312 L 363.929688 369.621094 L 389.519531 369.621094 L 389.519531 374.460938 L 358.394531 374.460938 Z M 523.007812 348.179688 L 523.007812 321.898438 L 533.554688 321.90625 C 543.179688 321.910156 544.40625 322.054688 547.609375 323.542969 C 555.832031 327.375 559.0625 336.234375 555.234375 344.457031 C 553.335938 348.535156 549.984375 351.375 545.199219 352.957031 L 541.867188 354.058594 L 548.382812 362.359375 C 551.96875 366.925781 555.523438 371.515625 556.289062 372.5625 L 557.683594 374.464844 L 554.003906 374.4375 L 550.328125 374.410156 L 542.71875 364.089844 L 535.109375 353.765625 L 531.824219 353.742188 L 528.539062 353.714844 L 528.539062 374.464844 L 523.007812 374.464844 Z M 546.59375 346.609375 C 552.910156 342.390625 552.8125 332.25 546.414062 328.492188 C 544.503906 327.371094 542.78125 327.128906 536.492188 327.109375 L 528.886719 327.082031 L 528.695312 337.632812 L 528.503906 348.179688 L 536.375 348.179688 C 543.402344 348.179688 544.492188 348.011719 546.59375 346.609375 Z M 725.65625 348.179688 L 725.65625 321.898438 L 756.78125 321.898438 L 756.78125 326.738281 L 731.191406 326.738281 L 731.191406 345.414062 L 756.089844 345.414062 L 756.089844 350.945312 L 731.191406 350.945312 L 731.191406 369.621094 L 756.78125 369.621094 L 756.78125 374.460938 L 725.65625 374.460938 Z M 297.15625 275 C 290.089844 270.558594 288.765625 262.1875 294.210938 256.390625 C 297.828125 252.542969 304.960938 251.855469 309.933594 254.878906 C 312.222656 256.273438 312.238281 256.316406 310.933594 257.621094 C 309.628906 258.925781 309.566406 258.921875 306.742188 257.527344 C 297.367188 252.890625 290.1875 265.992188 299.121094 271.441406 C 301.921875 273.148438 304.148438 273.152344 307.324219 271.449219 C 309.757812 270.144531 309.871094 270.144531 310.984375 271.371094 C 312.070312 272.570312 312.007812 272.734375 309.875 274.25 C 306.746094 276.476562 300.125 276.871094 297.15625 275.003906 Z M 321.738281 264.445312 L 321.738281 252.640625 L 323.640625 252.863281 C 325.5 253.074219 325.546875 253.195312 325.746094 258.09375 L 325.949219 263.109375 L 337.585938 263.109375 L 337.789062 258.09375 C 337.988281 253.195312 338.035156 253.074219 339.894531 252.863281 L 341.796875 252.640625 L 341.796875 276.25 L 337.644531 276.25 L 337.644531 266.566406 L 325.886719 266.566406 L 325.886719 276.25 L 321.738281 276.25 Z M 350.839844 275.730469 C 350.863281 275.445312 353.132812 270.234375 355.878906 264.144531 C 360.367188 254.1875 361.050781 253.058594 362.703125 252.863281 C 364.160156 252.695312 364.769531 253.085938 365.636719 254.765625 C 366.480469 256.402344 372.078125 269.027344 374.777344 275.386719 C 375.023438 275.972656 374.441406 276.25 372.957031 276.25 C 371.117188 276.25 370.617188 275.871094 369.761719 273.828125 L 368.75 271.40625 L 356.988281 271.40625 L 355.835938 273.828125 C 354.917969 275.75 354.277344 276.25 352.734375 276.25 C 351.664062 276.25 350.808594 276.015625 350.839844 275.730469 Z M 366.332031 265.816406 C 366.078125 265.019531 365.183594 262.8125 364.34375 260.90625 L 362.8125 257.4375 L 360.644531 262.347656 L 358.472656 267.257812 L 362.632812 267.257812 C 366.53125 267.257812 366.761719 267.167969 366.332031 265.816406 Z M 383.984375 264.492188 L 383.984375 252.734375 L 387.40625 252.734375 L 387.789062 272.445312 L 392.804688 272.648438 C 397.613281 272.84375 397.820312 272.921875 397.820312 274.550781 C 397.820312 276.242188 397.785156 276.25 390.902344 276.25 L 383.988281 276.25 Z M 407.503906 264.464844 L 407.503906 252.6875 L 415.628906 252.878906 L 423.753906 253.074219 L 423.753906 254.804688 C 423.753906 256.507812 423.667969 256.535156 417.359375 256.730469 L 410.960938 256.929688 L 410.960938 262.355469 L 416.667969 262.558594 C 422.320312 262.757812 422.375 262.777344 422.589844 264.660156 L 422.808594 266.5625 L 410.960938 266.5625 L 410.960938 272.785156 L 417.53125 272.785156 C 424.078125 272.785156 424.101562 272.792969 424.101562 274.515625 L 424.101562 276.246094 L 407.503906 276.246094 Z M 127.816406 266.734375 C 128.847656 264.929688 129.949219 263.15625 130.265625 262.792969 C 131.539062 261.347656 130.546875 261.070312 123.410156 260.878906 C 116.042969 260.683594 115.972656 260.667969 115.804688 258.953125 C 115.691406 257.753906 122.601562 245.144531 138.355469 217.800781 L 161.074219 178.378906 L 149.390625 178.03125 C 137.265625 177.671875 135.78125 177.265625 136.773438 174.574219 C 137.527344 172.53125 190.5 80.847656 191.175781 80.421875 C 191.550781 80.183594 192.371094 80.125 192.996094 80.289062 C 193.632812 80.460938 206.007812 101.246094 221.292969 127.832031 C 245.871094 170.585938 248.675781 175.894531 247.484375 177.472656 C 247.429688 177.550781 242.054688 177.777344 235.539062 177.992188 L 223.691406 178.378906 L 233.464844 195.484375 C 238.839844 204.894531 243.574219 212.46875 243.992188 212.320312 C 244.40625 212.171875 255.273438 205.332031 268.140625 197.117188 L 291.535156 182.183594 L 286.972656 182.183594 C 283.75 182.183594 282.09375 181.863281 281.328125 181.097656 C 280.730469 180.5 280.246094 179.796875 280.25 179.539062 C 280.257812 179.28125 290.648438 161.019531 303.339844 138.957031 L 326.414062 98.839844 L 314.640625 98.496094 C 304.738281 98.203125 302.753906 97.96875 302.152344 97.019531 C 301.585938 96.117188 306.746094 86.65625 327.609375 50.332031 C 342.003906 25.277344 354.382812 3.90625 355.125 2.835938 C 355.984375 1.597656 356.964844 0.972656 357.84375 1.109375 C 359.730469 1.398438 413.105469 93.871094 412.859375 96.421875 L 412.6875 98.148438 L 400.757812 98.339844 C 394.195312 98.441406 388.828125 98.679688 388.828125 98.863281 C 388.828125 99.046875 399.097656 117.0625 411.652344 138.894531 C 424.207031 160.726562 434.476562 179.050781 434.476562 179.609375 C 434.476562 180.839844 433.21875 181.945312 431.441406 182.28125 C 430.582031 182.445312 436.625 186.65625 449.078125 194.574219 C 459.496094 201.199219 468.375 206.890625 468.804688 207.21875 C 469.34375 207.625 473.847656 200.421875 483.15625 184.257812 C 490.621094 171.300781 496.722656 160.554688 496.722656 160.375 C 496.722656 160.199219 491.652344 160.050781 485.449219 160.050781 C 473.957031 160.050781 472.515625 159.746094 472.515625 157.308594 C 472.515625 156.714844 484.59375 135.222656 499.359375 109.550781 C 523.042969 68.367188 526.410156 62.851562 527.972656 62.664062 C 529.648438 62.46875 531.316406 65.175781 556.808594 109.488281 C 571.695312 135.359375 583.871094 156.996094 583.871094 157.574219 C 583.871094 159.574219 581.230469 160.050781 570.152344 160.050781 L 559.113281 160.050781 L 582.300781 200.296875 C 600.1875 231.34375 605.332031 240.789062 604.808594 241.621094 C 604.289062 242.449219 602.429688 242.785156 596.859375 243.046875 L 589.585938 243.394531 L 604.625 269.675781 L 602.480469 269.898438 C 601.304688 270.015625 599.964844 269.976562 599.503906 269.796875 C 599.042969 269.617188 594.976562 263.023438 590.460938 255.140625 C 583.996094 243.84375 582.402344 240.5625 582.960938 239.675781 C 583.519531 238.792969 585.226562 238.472656 590.886719 238.203125 L 598.101562 237.855469 L 575.078125 197.820312 C 562.417969 175.796875 552.058594 157.589844 552.066406 157.359375 C 552.070312 157.125 552.371094 156.46875 552.730469 155.898438 C 553.253906 155.066406 555.699219 154.792969 565.023438 154.515625 L 576.664062 154.167969 L 552.773438 112.578125 C 539.636719 89.703125 528.582031 70.914062 528.214844 70.820312 C 527.84375 70.726562 516.734375 89.441406 503.527344 112.410156 L 479.511719 154.167969 L 490.863281 154.515625 C 500.226562 154.800781 502.414062 155.0625 503.363281 156.015625 C 504.441406 157.09375 503.5 158.933594 489.25 183.679688 C 480.855469 198.261719 474.199219 210.402344 474.460938 210.660156 C 474.722656 210.917969 495.476562 224.253906 520.585938 240.296875 C 545.691406 256.339844 566.390625 269.621094 566.578125 269.808594 C 566.769531 269.996094 565.058594 270.039062 562.777344 269.898438 L 558.625 269.652344 L 459.957031 206.546875 C 405.6875 171.84375 360.96875 143.445312 360.582031 143.445312 C 360.195312 143.445312 315.296875 171.925781 260.804688 206.730469 C 163.027344 269.1875 161.6875 270.015625 158.242188 270.015625 C 155.277344 270.015625 154.90625 269.875 155.769531 269.085938 C 156.324219 268.570312 175.222656 256.394531 197.761719 242.023438 C 220.300781 227.652344 238.742188 215.628906 238.742188 215.308594 C 238.742188 214.988281 233.878906 206.273438 227.933594 195.949219 C 221.992188 185.625 216.976562 176.589844 216.785156 175.871094 C 216.003906 172.878906 217.453125 172.496094 229.546875 172.496094 C 236.492188 172.496094 240.839844 172.238281 240.699219 171.832031 C 240.210938 170.425781 192.726562 88.144531 192.402344 88.136719 C 192.011719 88.128906 143.984375 171.371094 143.984375 172.054688 C 143.984375 172.296875 149.082031 172.496094 155.3125 172.496094 C 167.265625 172.496094 168.796875 172.890625 168.035156 175.777344 C 167.859375 176.441406 157.554688 194.664062 145.132812 216.269531 C 132.707031 237.871094 122.542969 255.6875 122.542969 255.863281 C 122.542969 256.039062 125.476562 256.183594 129.058594 256.183594 C 132.640625 256.183594 136.066406 256.375 136.667969 256.601562 C 138.421875 257.277344 137.960938 259.339844 134.820312 264.84375 C 131.882812 270 131.878906 270 128.914062 270.007812 L 125.945312 270.015625 Z M 330.050781 157.566406 C 347.722656 146.265625 360.371094 138.605469 361.050781 138.785156 C 361.683594 138.953125 375.425781 147.539062 391.589844 157.867188 C 419.375 175.625 421.152344 176.648438 424.230469 176.648438 L 427.488281 176.648438 L 410.5 147.082031 C 401.15625 130.820312 390.878906 112.929688 387.664062 107.324219 C 383.960938 100.878906 381.894531 96.558594 382.035156 95.566406 C 382.253906 94.015625 382.382812 93.996094 394.1875 93.808594 C 400.75 93.703125 406.117188 93.449219 406.117188 93.238281 C 406.117188 92.789062 358.460938 9.839844 357.804688 9.144531 C 357.558594 8.886719 346.402344 27.714844 333.007812 50.988281 L 308.660156 93.308594 L 320.691406 93.496094 C 332.058594 93.671875 332.746094 93.761719 333.164062 95.078125 C 333.492188 96.109375 327.675781 106.792969 310.726562 136.28125 C 298.144531 158.175781 287.847656 176.214844 287.847656 176.367188 C 287.847656 176.523438 290.625 176.648438 294.023438 176.648438 L 300.199219 176.648438 Z M 413.730469 250.136719 C 413.730469 249.851562 414.472656 248.695312 415.375 247.566406 C 416.902344 245.65625 417.152344 245.574219 418.957031 246.398438 L 420.902344 247.285156 L 418.871094 248.945312 C 416.949219 250.515625 413.722656 251.261719 413.730469 250.136719 Z M 413.730469 250.136719 " fill-opacity="1" fill-rule="nonzero"/><path fill="#fff7f5" d="M 173.148438 375.847656 C 172.777344 374.894531 167.589844 362.757812 161.621094 348.871094 C 155.648438 334.988281 150.605469 323.238281 150.414062 322.761719 C 150.164062 322.148438 150.945312 321.898438 153.105469 321.898438 L 156.148438 321.898438 L 165.078125 342.96875 C 169.988281 354.558594 174.0625 363.972656 174.132812 363.890625 C 174.203125 363.8125 178.230469 354.328125 183.082031 342.820312 L 191.90625 321.898438 L 197.867188 321.898438 L 195.195312 328.296875 C 190.289062 340.03125 175.113281 375.273438 174.464844 376.433594 C 173.910156 377.421875 173.734375 377.34375 173.148438 375.847656 Z M 439.554688 356.730469 L 425.140625 336.234375 L 424.953125 355.347656 L 424.769531 374.464844 L 419.261719 374.464844 L 419.261719 346.796875 C 419.261719 331.582031 419.398438 319.132812 419.570312 319.132812 C 419.738281 319.132812 426.351562 328.328125 434.265625 339.574219 L 448.65625 360.011719 L 448.839844 340.957031 L 449.023438 321.898438 L 454.535156 321.898438 L 454.535156 349.5625 C 454.535156 364.78125 454.402344 377.230469 454.253906 377.230469 C 454.097656 377.230469 447.484375 368.003906 439.554688 356.730469 Z M 675.410156 375.0625 C 668.390625 374.234375 663.3125 370.796875 661.027344 365.320312 C 660.433594 363.90625 659.949219 362.585938 659.949219 362.382812 C 659.949219 362.179688 661.335938 362.015625 663.03125 362.015625 C 665.867188 362.015625 666.199219 362.203125 667.253906 364.425781 C 668.957031 368.011719 672.339844 369.78125 678.191406 370.152344 C 684.5 370.554688 688.640625 369.429688 691.550781 366.515625 C 693.445312 364.621094 693.839844 363.703125 693.839844 361.199219 C 693.839844 359.535156 693.355469 357.476562 692.753906 356.621094 C 691.230469 354.445312 686.199219 352.058594 679.316406 350.25 C 664.804688 346.4375 659.554688 340.765625 662.027344 331.570312 C 663.105469 327.5625 667.019531 323.800781 671.746094 322.234375 C 676.625 320.613281 685.425781 321.066406 689.453125 323.144531 C 692.433594 324.679688 696.242188 328.726562 696.832031 330.976562 C 697.121094 332.09375 696.765625 332.273438 694.238281 332.273438 C 691.792969 332.273438 691.148438 331.976562 690.347656 330.480469 C 687.503906 325.160156 672.976562 324.296875 668.90625 329.203125 C 667.414062 331 666.894531 335.152344 667.871094 337.480469 C 669.109375 340.445312 672.125 342.148438 680.566406 344.652344 C 695.898438 349.199219 699.375 352.089844 699.375 360.277344 C 699.375 370.941406 689.921875 376.773438 675.410156 375.0625 Z M 600.355469 373.828125 C 595.230469 372.1875 592.351562 370.355469 588.605469 366.339844 C 576.183594 353.027344 580.222656 331.632812 596.679688 323.582031 C 600.449219 321.738281 601.460938 321.558594 608.078125 321.554688 C 614.773438 321.550781 615.691406 321.71875 619.835938 323.691406 C 627.871094 327.515625 632.949219 333.992188 634.773438 342.738281 C 638.925781 362.652344 619.703125 380.015625 600.355469 373.828125 Z M 614.703125 368.605469 C 624.761719 365.617188 631.417969 354.878906 629.601562 344.566406 C 628.261719 336.960938 622.476562 330.03125 615.546875 327.730469 C 610.882812 326.179688 602.605469 326.628906 598.742188 328.640625 C 594.988281 330.597656 590.453125 335.410156 588.800781 339.1875 C 581.355469 356.238281 596.898438 373.894531 614.703125 368.605469 Z M 0.125 348.179688 L 0.125 321.898438 L 5.65625 321.898438 L 5.65625 368.929688 L 24.332031 368.929688 L 24.332031 374.460938 L 0.125 374.460938 Z M 45.28125 373.597656 C 50.472656 360.632812 67.566406 319.328125 67.894531 318.945312 C 68.144531 318.652344 71.183594 325.34375 74.648438 333.816406 C 78.117188 342.285156 83.285156 354.898438 86.132812 361.839844 L 91.3125 374.460938 L 85.347656 374.460938 L 79.496094 359.90625 L 68.023438 360.09375 L 56.550781 360.285156 L 53.753906 367.371094 L 50.960938 374.453125 L 47.945312 374.457031 C 45.8125 374.460938 45.035156 374.210938 45.28125 373.597656 Z M 76.164062 351.464844 C 70.445312 336.679688 68.28125 331.625 67.867188 332.085938 C 67.414062 332.59375 58.914062 354.140625 58.914062 354.785156 C 58.914062 354.957031 63.113281 355.097656 68.242188 355.097656 L 77.566406 355.097656 Z M 222.832031 348.179688 L 222.832031 321.898438 L 228.367188 321.898438 L 228.367188 374.460938 L 222.832031 374.460938 Z M 258.105469 348.179688 L 258.105469 321.898438 L 289.230469 321.898438 L 289.230469 326.738281 L 263.640625 326.738281 L 263.640625 345.414062 L 288.539062 345.414062 L 288.539062 350.945312 L 263.640625 350.945312 L 263.640625 369.621094 L 289.230469 369.621094 L 289.230469 374.460938 L 258.105469 374.460938 Z M 358.394531 348.179688 L 358.394531 321.898438 L 389.519531 321.898438 L 389.519531 326.738281 L 363.929688 326.738281 L 363.929688 345.414062 L 388.828125 345.414062 L 388.828125 350.945312 L 363.929688 350.945312 L 363.929688 369.621094 L 389.519531 369.621094 L 389.519531 374.460938 L 358.394531 374.460938 Z M 523.007812 348.179688 L 523.007812 321.898438 L 533.554688 321.90625 C 543.179688 321.910156 544.40625 322.054688 547.609375 323.542969 C 555.832031 327.375 559.0625 336.234375 555.234375 344.457031 C 553.335938 348.535156 549.984375 351.375 545.199219 352.957031 L 541.867188 354.058594 L 548.382812 362.359375 C 551.96875 366.925781 555.523438 371.515625 556.289062 372.5625 L 557.683594 374.464844 L 554.003906 374.4375 L 550.328125 374.410156 L 542.71875 364.089844 L 535.109375 353.765625 L 531.824219 353.742188 L 528.539062 353.714844 L 528.539062 374.464844 L 523.007812 374.464844 Z M 546.59375 346.609375 C 552.910156 342.390625 552.8125 332.25 546.414062 328.492188 C 544.503906 327.371094 542.78125 327.128906 536.492188 327.109375 L 528.886719 327.082031 L 528.695312 337.632812 L 528.503906 348.179688 L 536.375 348.179688 C 543.402344 348.179688 544.492188 348.011719 546.59375 346.609375 Z M 725.65625 348.179688 L 725.65625 321.898438 L 756.78125 321.898438 L 756.78125 326.738281 L 731.191406 326.738281 L 731.191406 345.414062 L 756.089844 345.414062 L 756.089844 350.945312 L 731.191406 350.945312 L 731.191406 369.621094 L 756.78125 369.621094 L 756.78125 374.460938 L 725.65625 374.460938 Z M 297.15625 275 C 290.089844 270.558594 288.765625 262.1875 294.210938 256.390625 C 297.828125 252.542969 304.960938 251.855469 309.933594 254.878906 C 312.222656 256.273438 312.238281 256.316406 310.933594 257.621094 C 309.628906 258.925781 309.566406 258.921875 306.742188 257.527344 C 297.367188 252.890625 290.1875 265.992188 299.121094 271.441406 C 301.921875 273.148438 304.148438 273.152344 307.324219 271.449219 C 309.757812 270.144531 309.871094 270.144531 310.984375 271.371094 C 312.070312 272.570312 312.007812 272.734375 309.875 274.25 C 306.746094 276.476562 300.125 276.871094 297.15625 275.003906 Z M 321.738281 264.445312 L 321.738281 252.640625 L 323.640625 252.863281 C 325.5 253.074219 325.546875 253.195312 325.746094 258.09375 L 325.949219 263.109375 L 337.585938 263.109375 L 337.789062 258.09375 C 337.988281 253.195312 338.035156 253.074219 339.894531 252.863281 L 341.796875 252.640625 L 341.796875 276.25 L 337.644531 276.25 L 337.644531 266.566406 L 325.886719 266.566406 L 325.886719 276.25 L 321.738281 276.25 Z M 350.839844 275.730469 C 350.863281 275.445312 353.132812 270.234375 355.878906 264.144531 C 360.367188 254.1875 361.050781 253.058594 362.703125 252.863281 C 364.160156 252.695312 364.769531 253.085938 365.636719 254.765625 C 366.480469 256.402344 372.078125 269.027344 374.777344 275.386719 C 375.023438 275.972656 374.441406 276.25 372.957031 276.25 C 371.117188 276.25 370.617188 275.871094 369.761719 273.828125 L 368.75 271.40625 L 356.988281 271.40625 L 355.835938 273.828125 C 354.917969 275.75 354.277344 276.25 352.734375 276.25 C 351.664062 276.25 350.808594 276.015625 350.839844 275.730469 Z M 366.332031 265.816406 C 366.078125 265.019531 365.183594 262.8125 364.34375 260.90625 L 362.8125 257.4375 L 360.644531 262.347656 L 358.472656 267.257812 L 362.632812 267.257812 C 366.53125 267.257812 366.761719 267.167969 366.332031 265.816406 Z M 383.984375 264.492188 L 383.984375 252.734375 L 387.40625 252.734375 L 387.789062 272.445312 L 392.804688 272.648438 C 397.613281 272.84375 397.820312 272.921875 397.820312 274.550781 C 397.820312 276.242188 397.785156 276.25 390.902344 276.25 L 383.988281 276.25 Z M 407.503906 264.464844 L 407.503906 252.6875 L 415.628906 252.878906 L 423.753906 253.074219 L 423.753906 254.804688 C 423.753906 256.507812 423.667969 256.535156 417.359375 256.730469 L 410.960938 256.929688 L 410.960938 262.355469 L 416.667969 262.558594 C 422.320312 262.757812 422.375 262.777344 422.589844 264.660156 L 422.808594 266.5625 L 410.960938 266.5625 L 410.960938 272.785156 L 417.53125 272.785156 C 424.078125 272.785156 424.101562 272.792969 424.101562 274.515625 L 424.101562 276.246094 L 407.503906 276.246094 Z M 127.816406 266.734375 C 128.847656 264.929688 129.949219 263.15625 130.265625 262.792969 C 131.539062 261.347656 130.546875 261.070312 123.410156 260.878906 C 116.042969 260.683594 115.972656 260.667969 115.804688 258.953125 C 115.691406 257.753906 122.601562 245.144531 138.355469 217.800781 L 161.074219 178.378906 L 149.390625 178.03125 C 137.265625 177.671875 135.78125 177.265625 136.773438 174.574219 C 137.527344 172.53125 190.5 80.847656 191.175781 80.421875 C 191.550781 80.183594 192.371094 80.125 192.996094 80.289062 C 193.632812 80.460938 206.007812 101.246094 221.292969 127.832031 C 245.871094 170.585938 248.675781 175.894531 247.484375 177.472656 C 247.429688 177.550781 242.054688 177.777344 235.539062 177.992188 L 223.691406 178.378906 L 233.464844 195.484375 C 238.839844 204.894531 243.574219 212.46875 243.992188 212.320312 C 244.40625 212.171875 255.273438 205.332031 268.140625 197.117188 L 291.535156 182.183594 L 286.972656 182.183594 C 283.75 182.183594 282.09375 181.863281 281.328125 181.097656 C 280.730469 180.5 280.246094 179.796875 280.25 179.539062 C 280.257812 179.28125 290.648438 161.019531 303.339844 138.957031 L 326.414062 98.839844 L 314.640625 98.496094 C 304.738281 98.203125 302.753906 97.96875 302.152344 97.019531 C 301.585938 96.117188 306.746094 86.65625 327.609375 50.332031 C 342.003906 25.277344 354.382812 3.90625 355.125 2.835938 C 355.984375 1.597656 356.964844 0.972656 357.84375 1.109375 C 359.730469 1.398438 413.105469 93.871094 412.859375 96.421875 L 412.6875 98.148438 L 400.757812 98.339844 C 394.195312 98.441406 388.828125 98.679688 388.828125 98.863281 C 388.828125 99.046875 399.097656 117.0625 411.652344 138.894531 C 424.207031 160.726562 434.476562 179.050781 434.476562 179.609375 C 434.476562 180.839844 433.21875 181.945312 431.441406 182.28125 C 430.582031 182.445312 436.625 186.65625 449.078125 194.574219 C 459.496094 201.199219 468.375 206.890625 468.804688 207.21875 C 469.34375 207.625 473.847656 200.421875 483.15625 184.257812 C 490.621094 171.300781 496.722656 160.554688 496.722656 160.375 C 496.722656 160.199219 491.652344 160.050781 485.449219 160.050781 C 473.957031 160.050781 472.515625 159.746094 472.515625 157.308594 C 472.515625 156.714844 484.59375 135.222656 499.359375 109.550781 C 523.042969 68.367188 526.410156 62.851562 527.972656 62.664062 C 529.648438 62.46875 531.316406 65.175781 556.808594 109.488281 C 571.695312 135.359375 583.871094 156.996094 583.871094 157.574219 C 583.871094 159.574219 581.230469 160.050781 570.152344 160.050781 L 559.113281 160.050781 L 582.300781 200.296875 C 600.1875 231.34375 605.332031 240.789062 604.808594 241.621094 C 604.289062 242.449219 602.429688 242.785156 596.859375 243.046875 L 589.585938 243.394531 L 604.625 269.675781 L 602.480469 269.898438 C 601.304688 270.015625 599.964844 269.976562 599.503906 269.796875 C 599.042969 269.617188 594.976562 263.023438 590.460938 255.140625 C 583.996094 243.84375 582.402344 240.5625 582.960938 239.675781 C 583.519531 238.792969 585.226562 238.472656 590.886719 238.203125 L 598.101562 237.855469 L 575.078125 197.820312 C 562.417969 175.796875 552.058594 157.589844 552.066406 157.359375 C 552.070312 157.125 552.371094 156.46875 552.730469 155.898438 C 553.253906 155.066406 555.699219 154.792969 565.023438 154.515625 L 576.664062 154.167969 L 552.773438 112.578125 C 539.636719 89.703125 528.582031 70.914062 528.214844 70.820312 C 527.84375 70.726562 516.734375 89.441406 503.527344 112.410156 L 479.511719 154.167969 L 490.863281 154.515625 C 500.226562 154.800781 502.414062 155.0625 503.363281 156.015625 C 504.441406 157.09375 503.5 158.933594 489.25 183.679688 C 480.855469 198.261719 474.199219 210.402344 474.460938 210.660156 C 474.722656 210.917969 495.476562 224.253906 520.585938 240.296875 C 545.691406 256.339844 566.390625 269.621094 566.578125 269.808594 C 566.769531 269.996094 565.058594 270.039062 562.777344 269.898438 L 558.625 269.652344 L 459.957031 206.546875 C 405.6875 171.84375 360.96875 143.445312 360.582031 143.445312 C 360.195312 143.445312 315.296875 171.925781 260.804688 206.730469 C 163.027344 269.1875 161.6875 270.015625 158.242188 270.015625 C 155.277344 270.015625 154.90625 269.875 155.769531 269.085938 C 156.324219 268.570312 175.222656 256.394531 197.761719 242.023438 C 220.300781 227.652344 238.742188 215.628906 238.742188 215.308594 C 238.742188 214.988281 233.878906 206.273438 227.933594 195.949219 C 221.992188 185.625 216.976562 176.589844 216.785156 175.871094 C 216.003906 172.878906 217.453125 172.496094 229.546875 172.496094 C 236.492188 172.496094 240.839844 172.238281 240.699219 171.832031 C 240.210938 170.425781 192.726562 88.144531 192.402344 88.136719 C 192.011719 88.128906 143.984375 171.371094 143.984375 172.054688 C 143.984375 172.296875 149.082031 172.496094 155.3125 172.496094 C 167.265625 172.496094 168.796875 172.890625 168.035156 175.777344 C 167.859375 176.441406 157.554688 194.664062 145.132812 216.269531 C 132.707031 237.871094 122.542969 255.6875 122.542969 255.863281 C 122.542969 256.039062 125.476562 256.183594 129.058594 256.183594 C 132.640625 256.183594 136.066406 256.375 136.667969 256.601562 C 138.421875 257.277344 137.960938 259.339844 134.820312 264.84375 C 131.882812 270 131.878906 270 128.914062 270.007812 L 125.945312 270.015625 Z M 330.050781 157.566406 C 347.722656 146.265625 360.371094 138.605469 361.050781 138.785156 C 361.683594 138.953125 375.425781 147.539062 391.589844 157.867188 C 419.375 175.625 421.152344 176.648438 424.230469 176.648438 L 427.488281 176.648438 L 410.5 147.082031 C 401.15625 130.820312 390.878906 112.929688 387.664062 107.324219 C 383.960938 100.878906 381.894531 96.558594 382.035156 95.566406 C 382.253906 94.015625 382.382812 93.996094 394.1875 93.808594 C 400.75 93.703125 406.117188 93.449219 406.117188 93.238281 C 406.117188 92.789062 358.460938 9.839844 357.804688 9.144531 C 357.558594 8.886719 346.402344 27.714844 333.007812 50.988281 L 308.660156 93.308594 L 320.691406 93.496094 C 332.058594 93.671875 332.746094 93.761719 333.164062 95.078125 C 333.492188 96.109375 327.675781 106.792969 310.726562 136.28125 C 298.144531 158.175781 287.847656 176.214844 287.847656 176.367188 C 287.847656 176.523438 290.625 176.648438 294.023438 176.648438 L 300.199219 176.648438 Z M 413.730469 250.136719 C 413.730469 249.851562 414.472656 248.695312 415.375 247.566406 C 416.902344 245.65625 417.152344 245.574219 418.957031 246.398438 L 420.902344 247.285156 L 418.871094 248.945312 C 416.949219 250.515625 413.722656 251.261719 413.730469 250.136719 Z M 413.730469 250.136719 " fill-opacity="1" fill-rule="nonzero"/></g></svg>