<?xml version="1.0" encoding="UTF-8" standalone="no"?>
<!-- Created with Inkscape (http://www.inkscape.org/) -->

<svg
   width="135.28743mm"
   height="135.77368mm"
   viewBox="0 0 135.28743 135.77368"
   version="1.1"
   id="svg5"
   xml:space="preserve"
   xmlns:inkscape="http://www.inkscape.org/namespaces/inkscape"
   xmlns:sodipodi="http://sodipodi.sourceforge.net/DTD/sodipodi-0.dtd"
   xmlns="http://www.w3.org/2000/svg"
   xmlns:svg="http://www.w3.org/2000/svg"><sodipodi:namedview
     id="namedview7"
     pagecolor="#ffffff"
     bordercolor="#000000"
     borderopacity="0.25"
     inkscape:showpageshadow="2"
     inkscape:pageopacity="0.0"
     inkscape:pagecheckerboard="0"
     inkscape:deskcolor="#d1d1d1"
     inkscape:document-units="mm"
     showgrid="false" /><defs
     id="defs2" /><g
     inkscape:label="Camada 1"
     inkscape:groupmode="layer"
     id="layer1"
     transform="translate(-41.227941,-69.435698)"><path
       style="fill:#3f5141;fill-opacity:1;stroke:none;stroke-width:0.264583"
       d="m 103.65354,69.803617 c -12.76641,1.677038 -24.36495,5.222934 -34.925,12.892511 -6.816512,4.95068 -12.443114,11.17325 -17.024189,18.216042 -4.264686,6.55637 -7.311866,14.05572 -8.960506,21.69583 -7.47459,34.63792 13.365448,70.26327 47.680525,80.05577 9.1612,2.61408 18.88993,3.15939 28.31042,1.89045 9.33609,-1.25783 18.15438,-4.72943 26.19375,-9.55622 6.64474,-3.98939 12.59178,-9.40012 17.35031,-15.50459 21.93528,-28.14002 18.03956,-68.98401 -8.35448,-92.823822 -7.10538,-6.417729 -15.57549,-10.884081 -24.60625,-13.89144 -7.89278,-2.628397 -17.35799,-4.065711 -25.66458,-2.974531 m 34.66041,26.081461 -11.90624,12.170842 -23.54792,23.54791 -23.28333,23.28333 -12.17083,11.90625 C 51.228789,142.81396 57.267056,109.68152 82.22229,94.145468 c 6.00022,-3.73546 12.63597,-5.93304 19.57917,-7.05678 6.23543,-1.00912 12.9233,-0.59475 19.05,0.89318 6.24998,1.51789 12.21448,4.17396 17.46249,7.90321 m 12.17084,12.170842 c 16.01575,23.74079 10.27271,56.28057 -14.02292,72.14023 -4.82468,3.14933 -10.27615,5.40755 -15.875,6.73629 -6.94346,1.64782 -14.16632,1.64888 -21.16666,0.43233 -7.16809,-1.24593 -13.8475,-4.35531 -19.84375,-8.40052 l 11.90625,-12.17084 23.28333,-23.28333 23.54791,-23.54791 z"
       id="path2432" /></g></svg>
