<svg xmlns="http://www.w3.org/2000/svg" xmlns:xlink="http://www.w3.org/1999/xlink" width="96" zoomAndPan="magnify" viewBox="0 0 72 74.249996" height="99" preserveAspectRatio="xMidYMid meet" version="1.0"><defs><clipPath id="08fcb2a915"><path d="M 1.671875 3.3125 L 67.753906 3.3125 L 67.753906 67 L 1.671875 67 Z M 1.671875 3.3125 " clip-rule="nonzero"/></clipPath><clipPath id="3cfe305169"><path d="M 0.359375 0 L 71.640625 0 L 71.640625 73.507812 L 0.359375 73.507812 Z M 0.359375 0 " clip-rule="nonzero"/></clipPath></defs><g clip-path="url(#08fcb2a915)"><path fill="#3f5141" d="M 23.21875 4.132812 C 11.847656 7.257812 15.234375 31.636719 26.546875 28.871094 C 36.839844 26.351562 35.234375 0.832031 23.21875 4.132812 M 43.855469 4.125 C 32.320312 7.011719 33.914062 32.617188 45.851562 30.234375 C 57.777344 27.855469 57.445312 0.71875 43.855469 4.125 M 8.582031 25.636719 C -2.417969 29.136719 0.476562 53.027344 11.898438 48.742188 C 21.421875 45.171875 20.273438 21.921875 8.582031 25.636719 M 59.832031 25.546875 C 53.917969 26.996094 49.183594 35.386719 49.234375 41.214844 C 49.277344 45.804688 53.03125 49.933594 57.835938 48.96875 C 64.085938 47.710938 68.273438 39.125 67.703125 33.183594 C 67.300781 29.003906 64.703125 24.355469 59.832031 25.546875 M 31.207031 37.636719 C 27.140625 38.898438 24.417969 42.863281 21.695312 45.886719 C 17.355469 50.714844 6.367188 58.222656 15.265625 64.863281 C 21.191406 69.28125 28.214844 64.109375 34.535156 64.082031 C 40.300781 64.054688 46.125 67.25 51.839844 65.226562 C 65.050781 60.546875 50.59375 52.320312 46.542969 48.5 C 42.082031 44.289062 38.957031 35.234375 31.207031 37.636719 Z M 31.207031 37.636719 " fill-opacity="1" fill-rule="nonzero"/></g><g clip-path="url(#3cfe305169)"><path stroke-linecap="round" transform="matrix(0.525027, 0.525027, -0.525027, 0.525027, 2.983657, 3.397984)" fill="none" stroke-linejoin="miter" d="M 2.500988 2.499621 L 125.638318 2.503341 " stroke="#b4c89f" stroke-width="5" stroke-opacity="1" stroke-miterlimit="4"/><path stroke-linecap="round" transform="matrix(0.525027, 0.525027, -0.525027, 0.525027, 4.296223, 0.00356708)" fill="none" stroke-linejoin="miter" d="M 2.500816 2.499575 L 125.641867 2.499575 " stroke="#3f5141" stroke-width="5" stroke-opacity="1" stroke-miterlimit="4"/></g></svg>