<svg xmlns="http://www.w3.org/2000/svg" xmlns:xlink="http://www.w3.org/1999/xlink" width="115" zoomAndPan="magnify" viewBox="0 0 86.25 86.249996" height="115" preserveAspectRatio="xMidYMid meet" version="1.0"><path fill="#3f5141" d="M 42.734375 10.683594 C 41.683594 10.683594 40.636719 10.734375 39.589844 10.839844 C 38.542969 10.941406 37.507812 11.097656 36.476562 11.300781 C 35.445312 11.507812 34.429688 11.761719 33.421875 12.070312 C 32.417969 12.375 31.429688 12.726562 30.460938 13.128906 C 29.488281 13.53125 28.539062 13.980469 27.613281 14.476562 C 26.6875 14.972656 25.789062 15.511719 24.914062 16.097656 C 24.042969 16.679688 23.199219 17.308594 22.386719 17.972656 C 21.574219 18.640625 20.796875 19.34375 20.054688 20.089844 C 19.3125 20.832031 18.609375 21.609375 17.941406 22.421875 C 17.277344 23.234375 16.652344 24.078125 16.070312 24.953125 C 15.484375 25.824219 14.945312 26.726562 14.453125 27.652344 C 13.957031 28.578125 13.507812 29.527344 13.105469 30.5 C 12.707031 31.46875 12.351562 32.457031 12.046875 33.464844 C 11.742188 34.46875 11.488281 35.488281 11.285156 36.519531 C 11.078125 37.546875 10.925781 38.585938 10.824219 39.632812 C 10.722656 40.675781 10.671875 41.726562 10.671875 42.777344 C 10.671875 43.828125 10.722656 44.875 10.828125 45.921875 C 10.929688 46.964844 11.085938 48.003906 11.289062 49.035156 C 11.496094 50.066406 11.75 51.082031 12.058594 52.085938 C 12.363281 53.09375 12.71875 54.082031 13.121094 55.050781 C 13.523438 56.019531 13.972656 56.96875 14.46875 57.894531 C 14.960938 58.820312 15.503906 59.722656 16.085938 60.59375 C 16.671875 61.46875 17.296875 62.3125 17.964844 63.121094 C 18.628906 63.933594 19.335938 64.710938 20.078125 65.453125 C 20.824219 66.195312 21.601562 66.902344 22.414062 67.566406 C 23.226562 68.234375 24.070312 68.855469 24.941406 69.441406 C 25.816406 70.023438 26.71875 70.5625 27.644531 71.058594 C 28.570312 71.550781 29.519531 72 30.492188 72.402344 C 31.460938 72.804688 32.449219 73.15625 33.457031 73.460938 C 34.460938 73.765625 35.480469 74.019531 36.507812 74.222656 C 37.539062 74.425781 38.578125 74.582031 39.625 74.683594 C 40.667969 74.785156 41.71875 74.835938 42.769531 74.835938 C 43.820312 74.835938 44.867188 74.78125 45.910156 74.679688 C 46.957031 74.574219 47.996094 74.421875 49.027344 74.214844 C 50.054688 74.007812 51.074219 73.753906 52.078125 73.449219 C 53.085938 73.140625 54.070312 72.789062 55.042969 72.386719 C 56.011719 71.984375 56.960938 71.535156 57.886719 71.039062 C 58.8125 70.542969 59.714844 70 60.585938 69.417969 C 61.460938 68.832031 62.300781 68.207031 63.113281 67.539062 C 63.925781 66.871094 64.703125 66.167969 65.445312 65.425781 C 66.1875 64.679688 66.890625 63.902344 67.558594 63.089844 C 68.222656 62.277344 68.847656 61.433594 69.429688 60.558594 C 70.011719 59.6875 70.550781 58.785156 71.046875 57.859375 C 71.542969 56.933594 71.988281 55.984375 72.390625 55.011719 C 72.792969 54.042969 73.144531 53.054688 73.449219 52.046875 C 73.753906 51.042969 74.007812 50.023438 74.210938 48.992188 C 74.414062 47.960938 74.570312 46.925781 74.671875 45.878906 C 74.773438 44.832031 74.824219 43.785156 74.824219 42.734375 C 74.820312 41.683594 74.769531 40.636719 74.664062 39.589844 C 74.5625 38.546875 74.40625 37.507812 74.199219 36.480469 C 73.992188 35.449219 73.738281 34.433594 73.433594 33.429688 C 73.125 32.421875 72.773438 31.4375 72.371094 30.464844 C 71.964844 29.496094 71.515625 28.546875 71.023438 27.621094 C 70.527344 26.695312 69.984375 25.796875 69.402344 24.925781 C 68.816406 24.050781 68.191406 23.210938 67.527344 22.398438 C 66.859375 21.585938 66.152344 20.8125 65.410156 20.070312 C 64.667969 19.328125 63.890625 18.621094 63.078125 17.957031 C 62.265625 17.292969 61.421875 16.667969 60.550781 16.082031 C 59.675781 15.5 58.777344 14.960938 57.851562 14.46875 C 56.925781 13.972656 55.976562 13.523438 55.003906 13.121094 C 54.035156 12.722656 53.046875 12.367188 52.042969 12.0625 C 51.039062 11.757812 50.019531 11.503906 48.988281 11.300781 C 47.960938 11.09375 46.921875 10.941406 45.878906 10.835938 C 44.832031 10.734375 43.785156 10.683594 42.734375 10.683594 Z M 42.734375 71.253906 C 41.800781 71.253906 40.871094 71.207031 39.941406 71.113281 C 39.011719 71.023438 38.089844 70.886719 37.175781 70.703125 C 36.257812 70.519531 35.355469 70.292969 34.460938 70.023438 C 33.566406 69.75 32.691406 69.4375 31.828125 69.078125 C 30.964844 68.722656 30.125 68.324219 29.300781 67.882812 C 28.476562 67.441406 27.679688 66.960938 26.902344 66.445312 C 26.125 65.925781 25.378906 65.371094 24.65625 64.777344 C 23.933594 64.183594 23.242188 63.558594 22.585938 62.898438 C 21.925781 62.238281 21.296875 61.546875 20.707031 60.824219 C 20.113281 60.101562 19.558594 59.355469 19.039062 58.578125 C 18.523438 57.800781 18.042969 57.003906 17.601562 56.179688 C 17.164062 55.355469 16.765625 54.511719 16.40625 53.648438 C 16.050781 52.789062 15.738281 51.910156 15.464844 51.015625 C 15.195312 50.125 14.96875 49.21875 14.789062 48.304688 C 14.605469 47.386719 14.46875 46.464844 14.378906 45.535156 C 14.285156 44.605469 14.242188 43.675781 14.242188 42.742188 C 14.242188 41.808594 14.285156 40.878906 14.378906 39.949219 C 14.46875 39.019531 14.605469 38.097656 14.789062 37.183594 C 14.972656 36.265625 15.199219 35.363281 15.46875 34.46875 C 15.738281 33.578125 16.054688 32.699219 16.410156 31.835938 C 16.769531 30.972656 17.167969 30.132812 17.605469 29.308594 C 18.046875 28.484375 18.527344 27.683594 19.046875 26.910156 C 19.5625 26.132812 20.121094 25.382812 20.710938 24.664062 C 21.304688 23.941406 21.929688 23.25 22.589844 22.589844 C 23.25 21.929688 23.941406 21.304688 24.664062 20.710938 C 25.382812 20.121094 26.132812 19.5625 26.910156 19.046875 C 27.683594 18.527344 28.484375 18.046875 29.308594 17.605469 C 30.132812 17.167969 30.972656 16.769531 31.835938 16.410156 C 32.699219 16.054688 33.578125 15.738281 34.46875 15.46875 C 35.363281 15.199219 36.265625 14.972656 37.183594 14.789062 C 38.097656 14.605469 39.019531 14.46875 39.949219 14.378906 C 40.878906 14.285156 41.808594 14.242188 42.742188 14.242188 C 43.675781 14.242188 44.605469 14.285156 45.535156 14.378906 C 46.464844 14.46875 47.386719 14.605469 48.304688 14.789062 C 49.21875 14.96875 50.125 15.195312 51.015625 15.464844 C 51.910156 15.738281 52.789062 16.050781 53.648438 16.40625 C 54.511719 16.765625 55.355469 17.164062 56.179688 17.601562 C 57.003906 18.042969 57.800781 18.523438 58.578125 19.039062 C 59.355469 19.558594 60.101562 20.113281 60.824219 20.707031 C 61.546875 21.296875 62.238281 21.925781 62.898438 22.585938 C 63.558594 23.242188 64.183594 23.933594 64.777344 24.65625 C 65.371094 25.378906 65.925781 26.125 66.445312 26.902344 C 66.960938 27.679688 67.441406 28.476562 67.882812 29.300781 C 68.324219 30.125 68.722656 30.964844 69.078125 31.828125 C 69.4375 32.691406 69.75 33.566406 70.023438 34.460938 C 70.292969 35.355469 70.519531 36.257812 70.703125 37.175781 C 70.886719 38.089844 71.023438 39.011719 71.113281 39.941406 C 71.207031 40.871094 71.253906 41.800781 71.253906 42.734375 C 71.253906 43.667969 71.210938 44.601562 71.117188 45.53125 C 71.027344 46.460938 70.890625 47.382812 70.710938 48.300781 C 70.527344 49.214844 70.300781 50.121094 70.03125 51.015625 C 69.761719 51.910156 69.445312 52.789062 69.089844 53.652344 C 68.730469 54.515625 68.332031 55.359375 67.894531 56.183594 C 67.453125 57.007812 66.972656 57.808594 66.453125 58.585938 C 65.9375 59.363281 65.378906 60.109375 64.789062 60.832031 C 64.195312 61.554688 63.566406 62.246094 62.90625 62.90625 C 62.246094 63.566406 61.554688 64.195312 60.832031 64.789062 C 60.109375 65.378906 59.363281 65.9375 58.585938 66.453125 C 57.808594 66.972656 57.007812 67.453125 56.183594 67.894531 C 55.359375 68.332031 54.515625 68.730469 53.652344 69.089844 C 52.789062 69.445312 51.910156 69.761719 51.015625 70.03125 C 50.121094 70.300781 49.214844 70.527344 48.300781 70.710938 C 47.382812 70.890625 46.460938 71.027344 45.53125 71.117188 C 44.601562 71.210938 43.667969 71.253906 42.734375 71.253906 Z M 42.734375 71.253906 " fill-opacity="1" fill-rule="nonzero"/><path fill="#3f5141" d="M 49.847656 32.0625 C 50.320312 32.0625 50.773438 31.972656 51.210938 31.792969 C 51.648438 31.613281 52.035156 31.355469 52.367188 31.023438 C 52.703125 30.6875 52.960938 30.304688 53.144531 29.867188 C 53.324219 29.433594 53.417969 28.980469 53.417969 28.507812 C 53.417969 28.03125 53.328125 27.578125 53.144531 27.140625 C 52.964844 26.703125 52.707031 26.316406 52.371094 25.980469 C 52.039062 25.648438 51.652344 25.390625 51.214844 25.207031 C 50.777344 25.027344 50.320312 24.9375 49.847656 24.9375 L 39.164062 24.9375 L 39.164062 24.875 L 35.59375 24.875 C 35.121094 24.875 34.667969 24.96875 34.234375 25.148438 C 33.796875 25.332031 33.414062 25.589844 33.078125 25.925781 C 32.746094 26.257812 32.488281 26.644531 32.308594 27.082031 C 32.128906 27.515625 32.039062 27.972656 32.039062 28.445312 L 32.039062 57.050781 C 32.039062 57.523438 32.128906 57.976562 32.308594 58.414062 C 32.488281 58.851562 32.746094 59.234375 33.078125 59.570312 C 33.414062 59.90625 33.796875 60.164062 34.234375 60.34375 C 34.667969 60.527344 35.121094 60.617188 35.59375 60.621094 L 49.886719 60.621094 C 50.339844 60.59375 50.773438 60.484375 51.1875 60.289062 C 51.597656 60.097656 51.960938 59.835938 52.273438 59.503906 C 52.585938 59.171875 52.824219 58.796875 52.992188 58.375 C 53.160156 57.949219 53.242188 57.511719 53.242188 57.058594 C 53.242188 56.601562 53.160156 56.164062 52.992188 55.738281 C 52.824219 55.316406 52.585938 54.941406 52.273438 54.609375 C 51.960938 54.277344 51.597656 54.015625 51.1875 53.824219 C 50.773438 53.628906 50.339844 53.519531 49.886719 53.492188 L 39.164062 53.492188 L 39.164062 46.316406 L 42.734375 46.316406 C 43.1875 46.289062 43.621094 46.179688 44.035156 45.988281 C 44.445312 45.792969 44.808594 45.53125 45.121094 45.203125 C 45.433594 44.871094 45.671875 44.492188 45.839844 44.070312 C 46.007812 43.648438 46.09375 43.207031 46.09375 42.753906 C 46.09375 42.296875 46.007812 41.859375 45.839844 41.4375 C 45.671875 41.011719 45.433594 40.636719 45.121094 40.304688 C 44.808594 39.972656 44.445312 39.710938 44.035156 39.519531 C 43.621094 39.328125 43.1875 39.21875 42.734375 39.191406 L 39.164062 39.191406 L 39.164062 32.0625 Z M 49.847656 32.0625 " fill-opacity="1" fill-rule="nonzero"/><path fill="#3f5141" d="M 42.734375 10.683594 C 41.683594 10.683594 40.636719 10.734375 39.589844 10.839844 C 38.542969 10.941406 37.507812 11.097656 36.476562 11.300781 C 35.445312 11.507812 34.429688 11.761719 33.421875 12.070312 C 32.417969 12.375 31.429688 12.726562 30.460938 13.128906 C 29.488281 13.53125 28.539062 13.980469 27.613281 14.476562 C 26.6875 14.972656 25.789062 15.511719 24.914062 16.097656 C 24.042969 16.679688 23.199219 17.308594 22.386719 17.972656 C 21.574219 18.640625 20.796875 19.34375 20.054688 20.089844 C 19.3125 20.832031 18.609375 21.609375 17.941406 22.421875 C 17.277344 23.234375 16.652344 24.078125 16.070312 24.953125 C 15.484375 25.824219 14.945312 26.726562 14.453125 27.652344 C 13.957031 28.578125 13.507812 29.527344 13.105469 30.5 C 12.707031 31.46875 12.351562 32.457031 12.046875 33.464844 C 11.742188 34.46875 11.488281 35.488281 11.285156 36.519531 C 11.078125 37.546875 10.925781 38.585938 10.824219 39.632812 C 10.722656 40.675781 10.671875 41.726562 10.671875 42.777344 C 10.671875 43.828125 10.722656 44.875 10.828125 45.921875 C 10.929688 46.964844 11.085938 48.003906 11.289062 49.035156 C 11.496094 50.066406 11.75 51.082031 12.058594 52.085938 C 12.363281 53.09375 12.71875 54.082031 13.121094 55.050781 C 13.523438 56.019531 13.972656 56.96875 14.46875 57.894531 C 14.960938 58.820312 15.503906 59.722656 16.085938 60.59375 C 16.671875 61.46875 17.296875 62.3125 17.964844 63.121094 C 18.628906 63.933594 19.335938 64.710938 20.078125 65.453125 C 20.824219 66.195312 21.601562 66.902344 22.414062 67.566406 C 23.226562 68.234375 24.070312 68.855469 24.941406 69.441406 C 25.816406 70.023438 26.71875 70.5625 27.644531 71.058594 C 28.570312 71.550781 29.519531 72 30.492188 72.402344 C 31.460938 72.804688 32.449219 73.15625 33.457031 73.460938 C 34.460938 73.765625 35.480469 74.019531 36.507812 74.222656 C 37.539062 74.425781 38.578125 74.582031 39.625 74.683594 C 40.667969 74.785156 41.71875 74.835938 42.769531 74.835938 C 43.820312 74.835938 44.867188 74.78125 45.910156 74.679688 C 46.957031 74.574219 47.996094 74.421875 49.027344 74.214844 C 50.054688 74.007812 51.074219 73.753906 52.078125 73.449219 C 53.085938 73.140625 54.070312 72.789062 55.042969 72.386719 C 56.011719 71.984375 56.960938 71.535156 57.886719 71.039062 C 58.8125 70.542969 59.714844 70 60.585938 69.417969 C 61.460938 68.832031 62.300781 68.207031 63.113281 67.539062 C 63.925781 66.871094 64.703125 66.167969 65.445312 65.425781 C 66.1875 64.679688 66.890625 63.902344 67.558594 63.089844 C 68.222656 62.277344 68.847656 61.433594 69.429688 60.558594 C 70.011719 59.6875 70.550781 58.785156 71.046875 57.859375 C 71.542969 56.933594 71.988281 55.984375 72.390625 55.011719 C 72.792969 54.042969 73.144531 53.054688 73.449219 52.046875 C 73.753906 51.042969 74.007812 50.023438 74.210938 48.992188 C 74.414062 47.960938 74.570312 46.925781 74.671875 45.878906 C 74.773438 44.832031 74.824219 43.785156 74.824219 42.734375 C 74.820312 41.683594 74.769531 40.636719 74.664062 39.589844 C 74.5625 38.546875 74.40625 37.507812 74.199219 36.480469 C 73.992188 35.449219 73.738281 34.433594 73.433594 33.429688 C 73.125 32.421875 72.773438 31.4375 72.371094 30.464844 C 71.964844 29.496094 71.515625 28.546875 71.023438 27.621094 C 70.527344 26.695312 69.984375 25.796875 69.402344 24.925781 C 68.816406 24.050781 68.191406 23.210938 67.527344 22.398438 C 66.859375 21.585938 66.152344 20.8125 65.410156 20.070312 C 64.667969 19.328125 63.890625 18.621094 63.078125 17.957031 C 62.265625 17.292969 61.421875 16.667969 60.550781 16.082031 C 59.675781 15.5 58.777344 14.960938 57.851562 14.46875 C 56.925781 13.972656 55.976562 13.523438 55.003906 13.121094 C 54.035156 12.722656 53.046875 12.367188 52.042969 12.0625 C 51.039062 11.757812 50.019531 11.503906 48.988281 11.300781 C 47.960938 11.09375 46.921875 10.941406 45.878906 10.835938 C 44.832031 10.734375 43.785156 10.683594 42.734375 10.683594 Z M 42.734375 71.253906 C 41.800781 71.253906 40.871094 71.207031 39.941406 71.113281 C 39.011719 71.023438 38.089844 70.886719 37.175781 70.703125 C 36.257812 70.519531 35.355469 70.292969 34.460938 70.023438 C 33.566406 69.75 32.691406 69.4375 31.828125 69.078125 C 30.964844 68.722656 30.125 68.324219 29.300781 67.882812 C 28.476562 67.441406 27.679688 66.960938 26.902344 66.445312 C 26.125 65.925781 25.378906 65.371094 24.65625 64.777344 C 23.933594 64.183594 23.242188 63.558594 22.585938 62.898438 C 21.925781 62.238281 21.296875 61.546875 20.707031 60.824219 C 20.113281 60.101562 19.558594 59.355469 19.039062 58.578125 C 18.523438 57.800781 18.042969 57.003906 17.601562 56.179688 C 17.164062 55.355469 16.765625 54.511719 16.40625 53.648438 C 16.050781 52.789062 15.738281 51.910156 15.464844 51.015625 C 15.195312 50.125 14.96875 49.21875 14.789062 48.304688 C 14.605469 47.386719 14.46875 46.464844 14.378906 45.535156 C 14.285156 44.605469 14.242188 43.675781 14.242188 42.742188 C 14.242188 41.808594 14.285156 40.878906 14.378906 39.949219 C 14.46875 39.019531 14.605469 38.097656 14.789062 37.183594 C 14.972656 36.265625 15.199219 35.363281 15.46875 34.46875 C 15.738281 33.578125 16.054688 32.699219 16.410156 31.835938 C 16.769531 30.972656 17.167969 30.132812 17.605469 29.308594 C 18.046875 28.484375 18.527344 27.683594 19.046875 26.910156 C 19.5625 26.132812 20.121094 25.382812 20.710938 24.664062 C 21.304688 23.941406 21.929688 23.25 22.589844 22.589844 C 23.25 21.929688 23.941406 21.304688 24.664062 20.710938 C 25.382812 20.121094 26.132812 19.5625 26.910156 19.046875 C 27.683594 18.527344 28.484375 18.046875 29.308594 17.605469 C 30.132812 17.167969 30.972656 16.769531 31.835938 16.410156 C 32.699219 16.054688 33.578125 15.738281 34.46875 15.46875 C 35.363281 15.199219 36.265625 14.972656 37.183594 14.789062 C 38.097656 14.605469 39.019531 14.46875 39.949219 14.378906 C 40.878906 14.285156 41.808594 14.242188 42.742188 14.242188 C 43.675781 14.242188 44.605469 14.285156 45.535156 14.378906 C 46.464844 14.46875 47.386719 14.605469 48.304688 14.789062 C 49.21875 14.96875 50.125 15.195312 51.015625 15.464844 C 51.910156 15.738281 52.789062 16.050781 53.648438 16.40625 C 54.511719 16.765625 55.355469 17.164062 56.179688 17.601562 C 57.003906 18.042969 57.800781 18.523438 58.578125 19.039062 C 59.355469 19.558594 60.101562 20.113281 60.824219 20.707031 C 61.546875 21.296875 62.238281 21.925781 62.898438 22.585938 C 63.558594 23.242188 64.183594 23.933594 64.777344 24.65625 C 65.371094 25.378906 65.925781 26.125 66.445312 26.902344 C 66.960938 27.679688 67.441406 28.476562 67.882812 29.300781 C 68.324219 30.125 68.722656 30.964844 69.078125 31.828125 C 69.4375 32.691406 69.75 33.566406 70.023438 34.460938 C 70.292969 35.355469 70.519531 36.257812 70.703125 37.175781 C 70.886719 38.089844 71.023438 39.011719 71.113281 39.941406 C 71.207031 40.871094 71.253906 41.800781 71.253906 42.734375 C 71.253906 43.667969 71.210938 44.601562 71.117188 45.53125 C 71.027344 46.460938 70.890625 47.382812 70.710938 48.300781 C 70.527344 49.214844 70.300781 50.121094 70.03125 51.015625 C 69.761719 51.910156 69.445312 52.789062 69.089844 53.652344 C 68.730469 54.515625 68.332031 55.359375 67.894531 56.183594 C 67.453125 57.007812 66.972656 57.808594 66.453125 58.585938 C 65.9375 59.363281 65.378906 60.109375 64.789062 60.832031 C 64.195312 61.554688 63.566406 62.246094 62.90625 62.90625 C 62.246094 63.566406 61.554688 64.195312 60.832031 64.789062 C 60.109375 65.378906 59.363281 65.9375 58.585938 66.453125 C 57.808594 66.972656 57.007812 67.453125 56.183594 67.894531 C 55.359375 68.332031 54.515625 68.730469 53.652344 69.089844 C 52.789062 69.445312 51.910156 69.761719 51.015625 70.03125 C 50.121094 70.300781 49.214844 70.527344 48.300781 70.710938 C 47.382812 70.890625 46.460938 71.027344 45.53125 71.117188 C 44.601562 71.210938 43.667969 71.253906 42.734375 71.253906 Z M 42.734375 71.253906 " fill-opacity="1" fill-rule="nonzero"/><path fill="#3f5141" d="M 49.847656 32.0625 C 50.320312 32.0625 50.773438 31.972656 51.210938 31.792969 C 51.648438 31.613281 52.035156 31.355469 52.367188 31.023438 C 52.703125 30.6875 52.960938 30.304688 53.144531 29.867188 C 53.324219 29.433594 53.417969 28.980469 53.417969 28.507812 C 53.417969 28.03125 53.328125 27.578125 53.144531 27.140625 C 52.964844 26.703125 52.707031 26.316406 52.371094 25.980469 C 52.039062 25.648438 51.652344 25.390625 51.214844 25.207031 C 50.777344 25.027344 50.320312 24.9375 49.847656 24.9375 L 39.164062 24.9375 L 39.164062 24.875 L 35.59375 24.875 C 35.121094 24.875 34.667969 24.96875 34.234375 25.148438 C 33.796875 25.332031 33.414062 25.589844 33.078125 25.925781 C 32.746094 26.257812 32.488281 26.644531 32.308594 27.082031 C 32.128906 27.515625 32.039062 27.972656 32.039062 28.445312 L 32.039062 57.050781 C 32.039062 57.523438 32.128906 57.976562 32.308594 58.414062 C 32.488281 58.851562 32.746094 59.234375 33.078125 59.570312 C 33.414062 59.90625 33.796875 60.164062 34.234375 60.34375 C 34.667969 60.527344 35.121094 60.617188 35.59375 60.621094 L 49.886719 60.621094 C 50.339844 60.59375 50.773438 60.484375 51.1875 60.289062 C 51.597656 60.097656 51.960938 59.835938 52.273438 59.503906 C 52.585938 59.171875 52.824219 58.796875 52.992188 58.375 C 53.160156 57.949219 53.242188 57.511719 53.242188 57.058594 C 53.242188 56.601562 53.160156 56.164062 52.992188 55.738281 C 52.824219 55.316406 52.585938 54.941406 52.273438 54.609375 C 51.960938 54.277344 51.597656 54.015625 51.1875 53.824219 C 50.773438 53.628906 50.339844 53.519531 49.886719 53.492188 L 39.164062 53.492188 L 39.164062 46.316406 L 42.734375 46.316406 C 43.1875 46.289062 43.621094 46.179688 44.035156 45.988281 C 44.445312 45.792969 44.808594 45.53125 45.121094 45.203125 C 45.433594 44.871094 45.671875 44.492188 45.839844 44.070312 C 46.007812 43.648438 46.09375 43.207031 46.09375 42.753906 C 46.09375 42.296875 46.007812 41.859375 45.839844 41.4375 C 45.671875 41.011719 45.433594 40.636719 45.121094 40.304688 C 44.808594 39.972656 44.445312 39.710938 44.035156 39.519531 C 43.621094 39.328125 43.1875 39.21875 42.734375 39.191406 L 39.164062 39.191406 L 39.164062 32.0625 Z M 49.847656 32.0625 " fill-opacity="1" fill-rule="nonzero"/></svg>