<?xml version="1.0" encoding="UTF-8" standalone="no"?>
<!-- Created with Inkscape (http://www.inkscape.org/) -->

<svg
   width="124.21731mm"
   height="112.71796mm"
   viewBox="0 0 124.21731 112.71796"
   version="1.1"
   id="svg5"
   xml:space="preserve"
   xmlns:inkscape="http://www.inkscape.org/namespaces/inkscape"
   xmlns:sodipodi="http://sodipodi.sourceforge.net/DTD/sodipodi-0.dtd"
   xmlns="http://www.w3.org/2000/svg"
   xmlns:svg="http://www.w3.org/2000/svg"><sodipodi:namedview
     id="namedview7"
     pagecolor="#ffffff"
     bordercolor="#000000"
     borderopacity="0.25"
     inkscape:showpageshadow="2"
     inkscape:pageopacity="0.0"
     inkscape:pagecheckerboard="0"
     inkscape:deskcolor="#d1d1d1"
     inkscape:document-units="mm"
     showgrid="false" /><defs
     id="defs2" /><g
     inkscape:label="Camada 1"
     inkscape:groupmode="layer"
     id="layer1"
     transform="translate(-45.439542,-90.836088)"><path
       style="fill:#3f5141;fill-opacity:1;stroke-width:0.264583"
       d="m 111.82238,203.36779 c -0.50933,-0.14648 -7.92183,-4.27352 -16.472235,-9.17119 l -15.546185,-8.90487 4.036811,-4.04987 c 2.478637,-2.48666 4.190005,-4.00725 4.433689,-3.93942 0.218281,0.0608 4.623593,2.55232 9.789582,5.53681 l 9.392708,5.42634 0.0682,-15.38697 0.0682,-15.38697 5.69135,-5.68415 5.69136,-5.68414 -0.071,26.59062 -0.071,26.59062 -0.56956,1.05834 c -1.30052,2.41655 -4.04164,3.69516 -6.4419,3.00485 z m -60.722518,-5.51904 -3.962775,-3.96939 6.462051,-6.46609 6.46205,-6.46609 -5.450636,-0.0817 -5.450636,-0.0817 -1.146373,-0.8055 c -0.630505,-0.44302 -1.444029,-1.33599 -1.807831,-1.98437 l -0.661459,-1.17888 -0.0824,-28.83958 c -0.06076,-21.26717 -0.0013,-29.21499 0.226516,-30.26932 0.408316,-1.88978 2.182417,-3.75107 4.015269,-4.21259 0.84442,-0.21262 4.625098,-0.3108 11.968701,-0.3108 h 10.734384 l 19.509387,-11.1679 19.50939,-11.167897 1.73934,-0.0107 c 2.31463,-0.0143 3.99791,0.96148 4.99305,2.89441 l 0.67595,1.31294 0.13229,13.436377 0.13229,13.43638 14.81468,-14.81672 14.81467,-14.816707 4.03836,4.03206 4.03836,4.032047 -50.73507,50.73558 c -27.904287,27.90457 -50.796203,50.73559 -50.870925,50.73559 -0.07472,0 -1.919107,-1.78623 -4.098633,-3.9694 z m 38.302209,-46.23842 18.191799,-18.19323 -0.0686,-13.65718 -0.0686,-13.65717 -15.986626,9.16239 -15.986627,9.16238 -9.347226,0.0788 -9.347226,0.0788 v 22.60927 22.60926 h 7.210615 7.210613 z m 58.027309,35.41173 -3.94159,-3.94818 1.65843,-1.80651 c 15.55752,-16.94671 17.60544,-42.86623 4.88957,-61.88517 l -1.73189,-2.59036 4.03629,-4.0426 4.03629,-4.0426 1.29495,1.77503 c 8.53769,11.70281 12.86953,26.56025 11.83471,40.59091 -1.06435,14.43108 -6.10058,26.4949 -15.59888,37.36565 -1.21678,1.3926 -2.28522,2.532 -2.37431,2.532 -0.0891,0 -1.9357,-1.77668 -4.10357,-3.94817 z m -15.87589,-15.77378 -3.90764,-4.10095 1.49352,-1.82552 c 7.12401,-8.70766 8.65758,-20.07373 4.04727,-29.99647 l -1.08363,-2.3323 3.94544,-3.95203 c 2.16999,-2.17362 4.00646,-3.94995 4.08104,-3.94741 0.48646,0.0166 3.63947,6.23658 4.73369,9.33824 1.57031,4.45117 1.98889,7.14265 2.00343,12.88214 0.0113,4.45758 -0.0701,5.53064 -0.59822,7.88881 -1.5399,6.87577 -3.91358,11.86339 -8.16017,17.14626 -1.06691,1.32726 -2.09896,2.54527 -2.29346,2.70669 -0.27772,0.23049 -1.19252,-0.58689 -4.26127,-3.80746 z"
       id="path2478" /></g></svg>
