<?xml version="1.0" encoding="UTF-8" standalone="no"?>
<!-- Created with Inkscape (http://www.inkscape.org/) -->

<svg
   width="135.41605mm"
   height="114.21016mm"
   viewBox="0 0 135.41605 114.21016"
   version="1.1"
   id="svg5"
   xml:space="preserve"
   xmlns:inkscape="http://www.inkscape.org/namespaces/inkscape"
   xmlns:sodipodi="http://sodipodi.sourceforge.net/DTD/sodipodi-0.dtd"
   xmlns="http://www.w3.org/2000/svg"
   xmlns:svg="http://www.w3.org/2000/svg"><sodipodi:namedview
     id="namedview7"
     pagecolor="#ffffff"
     bordercolor="#000000"
     borderopacity="0.25"
     inkscape:showpageshadow="2"
     inkscape:pageopacity="0.0"
     inkscape:pagecheckerboard="0"
     inkscape:deskcolor="#d1d1d1"
     inkscape:document-units="mm"
     showgrid="false" /><defs
     id="defs2" /><g
     inkscape:label="Camada 1"
     inkscape:groupmode="layer"
     id="layer1"
     transform="translate(-37.160722,-93.881101)"><path
       style="fill:#3f5141;fill-opacity:1;stroke-width:0.264583"
       d="M 99.055882,207.95234 C 89.220903,206.89801 79.021055,202.99889 71.44663,197.39808 l -2.330442,-1.72322 1.427691,-1.64063 c 0.785233,-0.90235 3.481366,-4.05165 5.99141,-6.99845 2.510044,-2.9468 4.597194,-5.35781 4.638111,-5.35781 0.04092,0 1.066861,0.66429 2.279875,1.47621 4.037031,2.70214 8.538019,4.60792 13.485937,5.71013 3.718508,0.82835 11.807468,0.89443 15.345838,0.12536 8.04646,-1.74891 14.23651,-5.09468 19.85355,-10.73101 6.42757,-6.44964 10.18674,-14.18546 11.2278,-23.10517 l 0.17756,-1.52135 h -4.91771 -4.91772 l -0.94823,-0.86899 c -1.20114,-1.10076 -1.4835,-2.7756 -0.67871,-4.02581 0.66632,-1.03509 19.69116,-22.82317 19.97794,-22.87961 0.2511,-0.0494 19.28405,21.67312 20.04676,22.87961 0.8913,1.40992 0.49005,3.18448 -0.98184,4.34227 -0.64469,0.5071 -1.04443,0.55253 -4.86261,0.55253 h -4.16019 l -0.31207,3.11627 c -1.37268,13.70698 -7.3625,25.89692 -17.51513,35.64518 -9.0388,8.67879 -20.61219,14.08371 -33.10345,15.45969 -2.38812,0.26306 -10.00434,0.32534 -12.115118,0.0991 z M 47.726714,170.27107 C 42.269683,164.00303 37.642755,158.57 37.444651,158.19766 c -0.597076,-1.1222 -0.226713,-2.70119 0.869143,-3.70547 l 0.938483,-0.86005 h 4.237218 4.237219 v -3.18543 c 0,-11.98357 3.951949,-23.77232 11.305293,-33.72395 2.262579,-3.06205 8.51911,-9.31858 11.581164,-11.58116 8.430662,-6.229489 18.061542,-9.978119 28.420081,-11.061949 3.736318,-0.390938 11.616068,-0.178254 15.103888,0.407672 10.02545,1.684199 19.47494,6.010587 27.30711,12.502377 l 2.0394,1.69039 -5.57341,6.53488 c -3.06538,3.59418 -5.78674,6.75762 -6.04748,7.02987 -0.461,0.48136 -0.52033,0.4564 -2.15453,-0.90647 -4.93939,-4.11927 -10.74699,-6.90436 -17.42318,-8.35544 -3.53837,-0.76906 -11.62733,-0.70298 -15.345838,0.12536 -7.661545,1.70671 -13.790607,5.07023 -19.332686,10.60942 -7.227233,7.22347 -10.895721,15.59898 -11.277335,25.74724 l -0.156702,4.16719 h 4.936204 4.936207 l 0.938482,0.86005 c 1.09619,1.00458 1.465601,2.58145 0.869143,3.71002 -0.198104,0.37484 -4.586906,5.52599 -9.752896,11.44699 -5.165989,5.921 -9.630832,11.04735 -9.921874,11.39188 l -0.529167,0.62643 z"
       id="path802" /></g></svg>
