<?xml version="1.0" encoding="UTF-8" standalone="no"?>
<!-- Created with Inkscape (http://www.inkscape.org/) -->

<svg
   width="135.26753mm"
   height="103.61979mm"
   viewBox="0 0 135.26753 103.61979"
   version="1.1"
   id="svg5"
   xml:space="preserve"
   xmlns:inkscape="http://www.inkscape.org/namespaces/inkscape"
   xmlns:sodipodi="http://sodipodi.sourceforge.net/DTD/sodipodi-0.dtd"
   xmlns="http://www.w3.org/2000/svg"
   xmlns:svg="http://www.w3.org/2000/svg"><sodipodi:namedview
     id="namedview7"
     pagecolor="#ffffff"
     bordercolor="#000000"
     borderopacity="0.25"
     inkscape:showpageshadow="2"
     inkscape:pageopacity="0.0"
     inkscape:pagecheckerboard="0"
     inkscape:deskcolor="#d1d1d1"
     inkscape:document-units="mm"
     showgrid="false" /><defs
     id="defs2" /><g
     inkscape:label="Camada 1"
     inkscape:groupmode="layer"
     id="layer1"
     transform="translate(-27.781836,-107.74685)"><path
       style="fill:#7c9a78;fill-opacity:1;stroke-width:0.264583"
       d="m 76.941138,211.06391 c -0.611722,-0.19851 -1.683284,-0.7842 -2.38125,-1.30154 C 73.86192,209.24503 63.338264,198.84264 51.173985,186.64594 26.420397,161.82639 27.805073,163.42953 27.79248,159.57534 c -0.01144,-3.49968 0.397769,-4.09048 8.270512,-11.94073 4.115279,-4.10353 7.234708,-6.99979 7.899656,-7.33451 2.320303,-1.16797 5.505923,-1.18095 7.800801,-0.0318 0.78394,0.39256 5.445608,4.85827 14.523866,13.91333 l 13.369377,13.33522 29.159568,-29.19018 c 21.83348,-21.85638 29.47166,-29.34602 30.40168,-29.8105 1.83749,-0.91769 4.51128,-1.02522 6.56875,-0.26419 1.46642,0.54241 2.12815,1.12461 8.67558,7.63286 8.16653,8.11766 8.52234,8.61618 8.52234,11.94046 0,3.95389 3.43103,0.20434 -39.6534,43.33463 -42.652981,42.69838 -39.820711,40.07644 -43.42577,40.20092 -1.028893,0.0355 -2.346428,-0.0965 -2.964302,-0.29698 z"
       id="path191" /></g></svg>
