<?xml version="1.0" encoding="UTF-8" standalone="no"?>
<!-- Created with Inkscape (http://www.inkscape.org/) -->

<svg
   width="23.181084mm"
   height="26.458336mm"
   viewBox="0 0 23.181084 26.458336"
   version="1.1"
   id="svg5"
   xml:space="preserve"
   xmlns:inkscape="http://www.inkscape.org/namespaces/inkscape"
   xmlns:sodipodi="http://sodipodi.sourceforge.net/DTD/sodipodi-0.dtd"
   xmlns="http://www.w3.org/2000/svg"
   xmlns:svg="http://www.w3.org/2000/svg"><sodipodi:namedview
     id="namedview7"
     pagecolor="#ffffff"
     bordercolor="#000000"
     borderopacity="0.25"
     inkscape:showpageshadow="2"
     inkscape:pageopacity="0.0"
     inkscape:pagecheckerboard="0"
     inkscape:deskcolor="#d1d1d1"
     inkscape:document-units="mm"
     showgrid="false" /><defs
     id="defs2" /><g
     inkscape:label="Camada 1"
     inkscape:groupmode="layer"
     id="layer1"
     transform="translate(-102.20521,-124.3806)"><path
       style="fill:#364437;fill-opacity:1;stroke-width:0.264583"
       d="m 106.7051,150.30244 c -0.31672,-0.29506 -0.63318,-0.80108 -0.70324,-1.12447 -0.18794,-0.8675 -2.52485,-17.10527 -2.52485,-17.54365 0,-0.31661 1.59622,-0.37455 10.31875,-0.37455 8.7669,0 10.31875,0.0569 10.31875,0.378 0,0.45613 -2.31917,16.37711 -2.53853,17.42689 -0.085,0.4066 -0.40444,0.97215 -0.70995,1.25677 -0.52011,0.48456 -0.97014,0.5175 -7.07027,0.5175 -6.17873,0 -6.54451,-0.0277 -7.09066,-0.53649 z m 2.59274,-3.85489 c 0,-0.95435 -1.58877,-12.85911 -1.75121,-13.12195 -0.24496,-0.39636 -0.89462,-0.21762 -0.89462,0.24613 0,0.63697 1.58881,12.82438 1.72503,13.23231 0.21139,0.63302 0.9208,0.35837 0.9208,-0.35649 z m 3.20534,-3.15509 c -0.0561,-2.03407 -0.17513,-5.12575 -0.26458,-6.87039 -0.14521,-2.83221 -0.21634,-3.18234 -0.66391,-3.26791 -0.48362,-0.0925 -0.49495,0.0986 -0.32162,5.42103 0.23935,7.34957 0.37631,8.60858 0.92464,8.50013 0.37502,-0.0742 0.41492,-0.53799 0.32547,-3.78286 z m 3.50289,2.05637 c 0.0891,-0.98227 0.24124,-4.13742 0.33808,-7.01146 0.16131,-4.7872 0.13879,-5.22552 -0.26842,-5.22552 -0.24447,0 -0.49131,0.14883 -0.54853,0.33073 -0.17689,0.56234 -0.66152,13.23231 -0.51519,13.46906 0.0758,0.12272 0.29408,0.22313 0.48497,0.22313 0.23609,0 0.39887,-0.57106 0.50909,-1.78594 z m 4.05458,-4.56762 c 0.98582,-7.27926 1.01113,-7.66936 0.4976,-7.66936 -0.2097,0 -0.44071,0.0962 -0.51337,0.21375 -0.16443,0.26606 -1.75121,12.17346 -1.75121,13.14135 0,0.53036 0.11542,0.68439 0.4627,0.61751 0.39521,-0.0761 0.58546,-0.9955 1.30428,-6.30325 z m -17.78414,-10.86033 c -0.30679,-0.4964 0.42908,-1.78117 1.20407,-2.10218 0.41356,-0.1713 0.95758,-0.5387 1.20893,-0.81644 0.38761,-0.42831 0.83249,-0.50499 2.92955,-0.50499 2.29614,0 2.47253,-0.0377 2.47253,-0.52917 0,-0.29104 0.23813,-0.76729 0.52917,-1.05833 0.45861,-0.45861 0.88194,-0.52917 3.175,-0.52917 2.29305,0 2.71639,0.0706 3.175,0.52917 0.29104,0.29104 0.52916,0.76729 0.52916,1.05833 0,0.49142 0.17639,0.52917 2.47254,0.52917 2.09706,0 2.54193,0.0767 2.92954,0.50499 0.25136,0.27774 0.79538,0.64514 1.20894,0.81644 0.77498,0.32101 1.51086,1.60578 1.20406,2.10218 -0.24209,0.39171 -22.7964,0.39171 -23.03849,0 z m 14.11471,-3.88663 c -0.0774,-0.40211 -0.41887,-0.46302 -2.59546,-0.46302 -2.17659,0 -2.51803,0.0609 -2.59547,0.46302 -0.0802,0.4164 0.18109,0.46302 2.59547,0.46302 2.41437,0 2.67565,-0.0466 2.59546,-0.46302 z"
       id="path213"
       inkscape:export-filename="icon-lixeira.svg"
       inkscape:export-xdpi="96"
       inkscape:export-ydpi="96" /></g></svg>
