<?xml version="1.0" encoding="UTF-8" standalone="no"?>
<!-- Created with Inkscape (http://www.inkscape.org/) -->

<svg
   width="135.49339mm"
   height="80.54818mm"
   viewBox="0 0 135.49339 80.54818"
   version="1.1"
   id="svg5"
   xml:space="preserve"
   xmlns:inkscape="http://www.inkscape.org/namespaces/inkscape"
   xmlns:sodipodi="http://sodipodi.sourceforge.net/DTD/sodipodi-0.dtd"
   xmlns="http://www.w3.org/2000/svg"
   xmlns:svg="http://www.w3.org/2000/svg"><sodipodi:namedview
     id="namedview7"
     pagecolor="#ffffff"
     bordercolor="#000000"
     borderopacity="0.25"
     inkscape:showpageshadow="2"
     inkscape:pageopacity="0.0"
     inkscape:pagecheckerboard="0"
     inkscape:deskcolor="#d1d1d1"
     inkscape:document-units="mm"
     showgrid="false" /><defs
     id="defs2" /><g
     inkscape:label="Camada 1"
     inkscape:groupmode="layer"
     id="layer1"
     transform="translate(-28.993035,-119.80039)"><path
       style="fill:#2a322b;fill-opacity:1;stroke-width:0.264583"
       d="m 94.623058,200.31532 c -23.566614,-0.72473 -46.026321,-13.34703 -63.367706,-35.61248 -3.239232,-4.15901 -3.102928,-5.51379 1.077171,-10.70646 16.003577,-19.88021 35.873432,-31.68817 57.061003,-33.90935 3.645593,-0.38218 11.046804,-0.38218 14.692394,0 21.61149,2.26562 42.13047,14.71183 58.13818,35.26491 3.23923,4.15901 3.10293,5.51379 -1.07717,10.70646 -18.42269,22.88532 -41.97155,35.01197 -66.523872,34.25692 z m 7.650432,-12.36966 c 11.36589,-2.39089 19.81461,-10.84395 22.42316,-22.4347 0.64145,-2.85016 0.5787,-8.37663 -0.13072,-11.51506 -2.37467,-10.50523 -10.40609,-18.88061 -20.62317,-21.50638 -9.896902,-2.54348 -20.085497,0.23574 -27.295332,7.44558 -10.552276,10.55227 -11.210194,27.1919 -1.525466,38.58097 6.599372,7.76075 17.344649,11.49253 27.151528,9.42959 z m -8.689713,-12.98333 c -3.007831,-0.65229 -5.433589,-2.01 -7.675726,-4.29612 -2.318615,-2.3641 -3.463124,-4.46978 -4.096716,-7.53721 -0.514845,-2.49252 -0.518866,-3.7654 -0.01939,-6.14432 1.135319,-5.4075 5.165294,-9.79747 10.71446,-11.67157 2.230983,-0.75347 6.429963,-0.68974 8.950215,0.13583 4.63475,1.51824 8.34333,5.22682 9.86157,9.86157 0.82557,2.52025 0.8893,6.71923 0.13583,8.95022 -1.87411,5.54916 -6.26407,9.57914 -11.671582,10.71446 -2.26251,0.47502 -3.96524,0.47148 -6.198647,-0.0129 z"
       id="path856" /></g></svg>
