<?xml version="1.0" encoding="UTF-8" standalone="no"?>
<!-- Created with Inkscape (http://www.inkscape.org/) -->

<svg
   width="135.34933mm"
   height="135.36047mm"
   viewBox="0 0 135.34933 135.36047"
   version="1.1"
   id="svg5"
   xml:space="preserve"
   xmlns:inkscape="http://www.inkscape.org/namespaces/inkscape"
   xmlns:sodipodi="http://sodipodi.sourceforge.net/DTD/sodipodi-0.dtd"
   xmlns="http://www.w3.org/2000/svg"
   xmlns:svg="http://www.w3.org/2000/svg"><sodipodi:namedview
     id="namedview7"
     pagecolor="#ffffff"
     bordercolor="#000000"
     borderopacity="0.25"
     inkscape:showpageshadow="2"
     inkscape:pageopacity="0.0"
     inkscape:pagecheckerboard="0"
     inkscape:deskcolor="#d1d1d1"
     inkscape:document-units="mm"
     showgrid="false" /><defs
     id="defs2" /><g
     inkscape:label="Camada 1"
     inkscape:groupmode="layer"
     id="layer1"
     transform="translate(-42.624806,-79.704847)"><path
       style="fill:#3f5141;fill-opacity:1;stroke-width:0.264583"
       d="m 107.46095,214.69532 c -4.44828,-1.19797 -7.864217,-4.72752 -8.77224,-9.064 -0.201753,-0.96351 -0.293587,-8.43277 -0.293587,-23.87864 V 159.27612 H 75.828838 c -24.404063,0 -23.996236,0.0217 -26.861028,-1.42999 -4.400467,-2.22989 -7.024502,-7.46122 -6.188356,-12.33724 0.615111,-3.58706 2.864876,-6.83257 5.83285,-8.41449 3.142913,-1.67515 2.402368,-1.63078 27.216534,-1.63078 h 22.566285 v -22.47656 c 0,-15.44587 0.09183,-22.91513 0.293587,-23.87864 0.727842,-3.47599 3.26711,-6.69681 6.45629,-8.18921 4.58942,-2.14765 9.55189,-1.41604 13.23991,1.95193 1.56524,1.4294 3.08471,4.11486 3.52912,6.23728 0.20176,0.96351 0.29359,8.43277 0.29359,23.87864 v 22.47656 h 22.47656 c 15.52713,0 22.91006,0.0913 23.87865,0.29526 4.73146,0.99638 8.42449,4.87499 9.25541,9.72053 0.60661,3.53748 -0.58257,7.38363 -3.12245,10.09897 -1.36266,1.4568 -4.10662,2.97985 -6.13296,3.40415 -0.96352,0.20176 -8.43277,0.29359 -23.87865,0.29359 h -22.47656 v 22.47656 c 0,15.44587 -0.0918,22.91513 -0.29359,23.87864 -0.16147,0.77115 -0.70941,2.20085 -1.21766,3.17711 -2.45885,4.72311 -8.15283,7.25569 -13.23542,5.88689 z"
       id="path6382" /></g></svg>
