<svg xmlns="http://www.w3.org/2000/svg" xmlns:xlink="http://www.w3.org/1999/xlink" width="115" zoomAndPan="magnify" viewBox="0 0 86.25 86.249996" height="115" preserveAspectRatio="xMidYMid meet" version="1.0"><path fill="#3f5141" d="M 65.875 29.023438 L 68.386719 26.507812 C 67.265625 25.78125 66.117188 25.101562 64.9375 24.472656 C 63.757812 23.84375 62.554688 23.265625 61.328125 22.742188 C 60.101562 22.214844 58.851562 21.738281 57.585938 21.320312 C 56.316406 20.898438 55.03125 20.53125 53.734375 20.21875 C 52.433594 19.910156 51.125 19.652344 49.804688 19.453125 C 48.484375 19.253906 47.15625 19.109375 45.824219 19.019531 C 44.488281 18.933594 43.15625 18.902344 41.820312 18.929688 C 40.484375 18.953125 39.152344 19.035156 37.824219 19.175781 C 36.492188 19.316406 35.171875 19.511719 33.863281 19.761719 C 32.550781 20.011719 31.25 20.320312 29.964844 20.679688 C 28.679688 21.042969 27.410156 21.457031 26.160156 21.929688 C 24.90625 22.398438 23.679688 22.917969 22.472656 23.492188 C 21.265625 24.066406 20.085938 24.691406 18.933594 25.367188 C 17.78125 26.039062 16.65625 26.761719 15.566406 27.53125 C 14.472656 28.300781 13.414062 29.117188 12.394531 29.976562 C 11.371094 30.835938 10.386719 31.734375 9.4375 32.679688 C 9.273438 32.84375 9.144531 33.039062 9.050781 33.253906 C 8.960938 33.472656 8.917969 33.699219 8.917969 33.9375 C 8.917969 34.171875 8.960938 34.398438 9.050781 34.617188 C 9.144531 34.835938 9.273438 35.027344 9.4375 35.191406 C 9.605469 35.363281 9.796875 35.496094 10.011719 35.585938 C 10.230469 35.679688 10.460938 35.726562 10.695312 35.726562 C 10.933594 35.726562 11.160156 35.679688 11.378906 35.585938 C 11.597656 35.496094 11.789062 35.363281 11.953125 35.191406 C 12.816406 34.328125 13.714844 33.503906 14.648438 32.71875 C 15.585938 31.929688 16.550781 31.183594 17.546875 30.476562 C 18.542969 29.769531 19.566406 29.105469 20.617188 28.484375 C 21.671875 27.863281 22.746094 27.289062 23.847656 26.757812 C 24.949219 26.230469 26.070312 25.746094 27.210938 25.3125 C 28.351562 24.875 29.507812 24.488281 30.679688 24.148438 C 31.855469 23.808594 33.039062 23.519531 34.238281 23.28125 C 35.4375 23.042969 36.640625 22.851562 37.855469 22.714844 C 39.070312 22.578125 40.285156 22.492188 41.507812 22.453125 C 42.730469 22.417969 43.949219 22.433594 45.167969 22.5 C 46.386719 22.566406 47.601562 22.6875 48.8125 22.855469 C 50.023438 23.023438 51.222656 23.242188 52.414062 23.511719 C 53.605469 23.78125 54.785156 24.101562 55.949219 24.46875 C 57.113281 24.835938 58.261719 25.253906 59.390625 25.71875 C 60.519531 26.183594 61.628906 26.695312 62.714844 27.253906 C 63.800781 27.808594 64.863281 28.414062 65.898438 29.058594 Z M 65.875 29.023438 " fill-opacity="1" fill-rule="nonzero"/><path fill="#3f5141" d="M 76.066406 32.679688 C 75.402344 32.027344 74.710938 31.421875 74.019531 30.78125 L 76.003906 28.808594 C 76.171875 28.640625 76.300781 28.449219 76.390625 28.230469 C 76.480469 28.011719 76.523438 27.785156 76.523438 27.550781 C 76.523438 27.316406 76.480469 27.089844 76.390625 26.871094 C 76.300781 26.652344 76.171875 26.460938 76.003906 26.292969 C 75.835938 26.128906 75.644531 26 75.425781 25.910156 C 75.210938 25.820312 74.984375 25.773438 74.746094 25.773438 C 74.511719 25.773438 74.285156 25.820312 74.066406 25.910156 C 73.847656 26 73.65625 26.128906 73.492188 26.292969 L 44.910156 54.648438 C 44.21875 54.335938 43.492188 54.179688 42.734375 54.183594 C 42.382812 54.183594 42.035156 54.21875 41.691406 54.289062 C 41.347656 54.355469 41.015625 54.457031 40.691406 54.589844 C 40.367188 54.726562 40.058594 54.890625 39.765625 55.085938 C 39.476562 55.28125 39.207031 55.5 38.957031 55.75 C 38.710938 55.996094 38.488281 56.265625 38.292969 56.558594 C 38.097656 56.851562 37.933594 57.15625 37.800781 57.480469 C 37.664062 57.804688 37.5625 58.140625 37.496094 58.484375 C 37.425781 58.828125 37.394531 59.175781 37.394531 59.527344 C 37.394531 59.878906 37.425781 60.222656 37.496094 60.570312 C 37.5625 60.914062 37.664062 61.246094 37.800781 61.570312 C 37.933594 61.894531 38.097656 62.203125 38.292969 62.496094 C 38.488281 62.785156 38.710938 63.054688 38.957031 63.304688 C 39.207031 63.550781 39.476562 63.773438 39.765625 63.96875 C 40.058594 64.164062 40.367188 64.328125 40.691406 64.460938 C 41.015625 64.597656 41.347656 64.695312 41.691406 64.765625 C 42.035156 64.835938 42.382812 64.867188 42.734375 64.867188 C 43.085938 64.867188 43.433594 64.835938 43.777344 64.765625 C 44.121094 64.695312 44.453125 64.597656 44.777344 64.460938 C 45.101562 64.328125 45.410156 64.164062 45.703125 63.96875 C 45.992188 63.773438 46.261719 63.550781 46.511719 63.304688 C 46.757812 63.054688 46.980469 62.785156 47.175781 62.496094 C 47.371094 62.203125 47.535156 61.894531 47.667969 61.570312 C 47.804688 61.246094 47.90625 60.914062 47.972656 60.570312 C 48.042969 60.222656 48.074219 59.878906 48.078125 59.527344 C 48.078125 58.636719 47.871094 57.796875 47.449219 57.011719 L 54.4375 50.085938 C 55.230469 50.660156 55.976562 51.292969 56.671875 51.984375 C 56.839844 52.152344 57.03125 52.285156 57.25 52.375 C 57.464844 52.46875 57.695312 52.511719 57.929688 52.511719 C 58.167969 52.511719 58.394531 52.46875 58.613281 52.375 C 58.828125 52.285156 59.023438 52.152344 59.1875 51.984375 C 59.359375 51.820312 59.488281 51.628906 59.582031 51.410156 C 59.675781 51.191406 59.722656 50.964844 59.722656 50.726562 C 59.722656 50.492188 59.675781 50.261719 59.582031 50.046875 C 59.488281 49.828125 59.359375 49.636719 59.1875 49.472656 C 58.496094 48.78125 57.761719 48.140625 56.988281 47.546875 L 63.007812 41.589844 C 63.738281 42.207031 64.453125 42.847656 65.132812 43.527344 C 65.480469 43.867188 65.902344 44.039062 66.390625 44.042969 C 66.746094 44.042969 67.074219 43.945312 67.371094 43.75 C 67.667969 43.554688 67.886719 43.289062 68.023438 42.960938 C 68.164062 42.632812 68.199219 42.292969 68.128906 41.941406 C 68.058594 41.589844 67.898438 41.289062 67.644531 41.039062 C 66.96875 40.359375 66.261719 39.78125 65.546875 39.113281 L 71.542969 33.167969 C 72.246094 33.785156 72.9375 34.425781 73.605469 35.078125 C 73.949219 35.433594 74.367188 35.605469 74.859375 35.59375 C 75.351562 35.601562 75.773438 35.429688 76.117188 35.078125 C 76.265625 34.914062 76.375 34.726562 76.453125 34.515625 C 76.53125 34.308594 76.566406 34.09375 76.5625 33.871094 C 76.554688 33.648438 76.511719 33.433594 76.425781 33.226562 C 76.339844 33.023438 76.222656 32.839844 76.066406 32.679688 Z M 76.066406 32.679688 " fill-opacity="1" fill-rule="nonzero"/><path fill="#3f5141" d="M 57.074219 37.707031 L 59.691406 35.191406 C 58.03125 34.285156 56.3125 33.511719 54.527344 32.882812 C 52.746094 32.25 50.925781 31.765625 49.0625 31.425781 C 47.203125 31.085938 45.328125 30.898438 43.4375 30.863281 C 41.546875 30.828125 39.664062 30.945312 37.792969 31.210938 C 35.921875 31.480469 34.082031 31.894531 32.277344 32.457031 C 30.472656 33.023438 28.722656 33.726562 27.03125 34.570312 C 25.339844 35.417969 23.726562 36.394531 22.191406 37.5 C 20.660156 38.605469 19.222656 39.824219 17.886719 41.164062 C 17.71875 41.328125 17.589844 41.523438 17.5 41.738281 C 17.410156 41.957031 17.363281 42.183594 17.363281 42.421875 C 17.363281 42.65625 17.410156 42.882812 17.5 43.101562 C 17.589844 43.320312 17.71875 43.511719 17.882812 43.679688 C 18.050781 43.84375 18.242188 43.972656 18.460938 44.0625 C 18.679688 44.152344 18.90625 44.199219 19.140625 44.199219 C 19.378906 44.199219 19.605469 44.152344 19.824219 44.0625 C 20.039062 43.972656 20.234375 43.84375 20.398438 43.675781 C 21.566406 42.5 22.820312 41.421875 24.160156 40.445312 C 25.496094 39.464844 26.902344 38.597656 28.378906 37.839844 C 29.851562 37.082031 31.378906 36.441406 32.953125 35.921875 C 34.527344 35.40625 36.132812 35.011719 37.769531 34.746094 C 39.40625 34.480469 41.054688 34.34375 42.710938 34.335938 C 44.371094 34.328125 46.019531 34.449219 47.65625 34.699219 C 49.296875 34.953125 50.90625 35.328125 52.484375 35.832031 C 54.0625 36.335938 55.59375 36.960938 57.074219 37.707031 Z M 57.074219 37.707031 " fill-opacity="1" fill-rule="nonzero"/><path fill="#3f5141" d="M 47.761719 46.933594 L 50.589844 44.128906 C 49.558594 43.757812 48.507812 43.457031 47.433594 43.234375 C 46.359375 43.011719 45.273438 42.863281 44.179688 42.792969 C 43.085938 42.722656 41.992188 42.730469 40.898438 42.816406 C 39.804688 42.902344 38.722656 43.0625 37.652344 43.300781 C 36.582031 43.539062 35.535156 43.855469 34.507812 44.242188 C 33.484375 44.628906 32.488281 45.085938 31.527344 45.613281 C 30.566406 46.144531 29.648438 46.734375 28.773438 47.394531 C 27.894531 48.054688 27.070312 48.769531 26.292969 49.546875 C 26.128906 49.714844 26 49.90625 25.910156 50.125 C 25.820312 50.339844 25.773438 50.566406 25.773438 50.804688 C 25.773438 51.039062 25.820312 51.265625 25.910156 51.484375 C 26 51.703125 26.128906 51.894531 26.292969 52.058594 C 26.460938 52.226562 26.652344 52.355469 26.871094 52.445312 C 27.089844 52.535156 27.316406 52.582031 27.550781 52.582031 C 27.785156 52.582031 28.011719 52.535156 28.230469 52.445312 C 28.449219 52.355469 28.640625 52.226562 28.808594 52.058594 C 30.023438 50.839844 31.378906 49.796875 32.867188 48.929688 C 34.359375 48.066406 35.933594 47.410156 37.597656 46.957031 C 39.261719 46.507812 40.957031 46.28125 42.679688 46.277344 C 44.402344 46.273438 46.097656 46.492188 47.761719 46.933594 Z M 47.761719 46.933594 " fill-opacity="1" fill-rule="nonzero"/><path fill="#3f5141" d="M 65.875 29.023438 L 68.386719 26.507812 C 67.265625 25.78125 66.117188 25.101562 64.9375 24.472656 C 63.757812 23.84375 62.554688 23.265625 61.328125 22.742188 C 60.101562 22.214844 58.851562 21.738281 57.585938 21.320312 C 56.316406 20.898438 55.03125 20.53125 53.734375 20.21875 C 52.433594 19.910156 51.125 19.652344 49.804688 19.453125 C 48.484375 19.253906 47.15625 19.109375 45.824219 19.019531 C 44.488281 18.933594 43.15625 18.902344 41.820312 18.929688 C 40.484375 18.953125 39.152344 19.035156 37.824219 19.175781 C 36.492188 19.316406 35.171875 19.511719 33.863281 19.761719 C 32.550781 20.011719 31.25 20.320312 29.964844 20.679688 C 28.679688 21.042969 27.410156 21.457031 26.160156 21.929688 C 24.90625 22.398438 23.679688 22.917969 22.472656 23.492188 C 21.265625 24.066406 20.085938 24.691406 18.933594 25.367188 C 17.78125 26.039062 16.65625 26.761719 15.566406 27.53125 C 14.472656 28.300781 13.414062 29.117188 12.394531 29.976562 C 11.371094 30.835938 10.386719 31.734375 9.4375 32.679688 C 9.273438 32.84375 9.144531 33.039062 9.050781 33.253906 C 8.960938 33.472656 8.917969 33.699219 8.917969 33.9375 C 8.917969 34.171875 8.960938 34.398438 9.050781 34.617188 C 9.144531 34.835938 9.273438 35.027344 9.4375 35.191406 C 9.605469 35.363281 9.796875 35.496094 10.011719 35.585938 C 10.230469 35.679688 10.460938 35.726562 10.695312 35.726562 C 10.933594 35.726562 11.160156 35.679688 11.378906 35.585938 C 11.597656 35.496094 11.789062 35.363281 11.953125 35.191406 C 12.816406 34.328125 13.714844 33.503906 14.648438 32.71875 C 15.585938 31.929688 16.550781 31.183594 17.546875 30.476562 C 18.542969 29.769531 19.566406 29.105469 20.617188 28.484375 C 21.671875 27.863281 22.746094 27.289062 23.847656 26.757812 C 24.949219 26.230469 26.070312 25.746094 27.210938 25.3125 C 28.351562 24.875 29.507812 24.488281 30.679688 24.148438 C 31.855469 23.808594 33.039062 23.519531 34.238281 23.28125 C 35.4375 23.042969 36.640625 22.851562 37.855469 22.714844 C 39.070312 22.578125 40.285156 22.492188 41.507812 22.453125 C 42.730469 22.417969 43.949219 22.433594 45.167969 22.5 C 46.386719 22.566406 47.601562 22.6875 48.8125 22.855469 C 50.023438 23.023438 51.222656 23.242188 52.414062 23.511719 C 53.605469 23.78125 54.785156 24.101562 55.949219 24.46875 C 57.113281 24.835938 58.261719 25.253906 59.390625 25.71875 C 60.519531 26.183594 61.628906 26.695312 62.714844 27.253906 C 63.800781 27.808594 64.863281 28.414062 65.898438 29.058594 Z M 65.875 29.023438 " fill-opacity="1" fill-rule="nonzero"/><path fill="#3f5141" d="M 76.066406 32.679688 C 75.402344 32.027344 74.710938 31.421875 74.019531 30.78125 L 76.003906 28.808594 C 76.171875 28.640625 76.300781 28.449219 76.390625 28.230469 C 76.480469 28.011719 76.523438 27.785156 76.523438 27.550781 C 76.523438 27.316406 76.480469 27.089844 76.390625 26.871094 C 76.300781 26.652344 76.171875 26.460938 76.003906 26.292969 C 75.835938 26.128906 75.644531 26 75.425781 25.910156 C 75.210938 25.820312 74.984375 25.773438 74.746094 25.773438 C 74.511719 25.773438 74.285156 25.820312 74.066406 25.910156 C 73.847656 26 73.65625 26.128906 73.492188 26.292969 L 44.910156 54.648438 C 44.21875 54.335938 43.492188 54.179688 42.734375 54.183594 C 42.382812 54.183594 42.035156 54.21875 41.691406 54.289062 C 41.347656 54.355469 41.015625 54.457031 40.691406 54.589844 C 40.367188 54.726562 40.058594 54.890625 39.765625 55.085938 C 39.476562 55.28125 39.207031 55.5 38.957031 55.75 C 38.710938 55.996094 38.488281 56.265625 38.292969 56.558594 C 38.097656 56.851562 37.933594 57.15625 37.800781 57.480469 C 37.664062 57.804688 37.5625 58.140625 37.496094 58.484375 C 37.425781 58.828125 37.394531 59.175781 37.394531 59.527344 C 37.394531 59.878906 37.425781 60.222656 37.496094 60.570312 C 37.5625 60.914062 37.664062 61.246094 37.800781 61.570312 C 37.933594 61.894531 38.097656 62.203125 38.292969 62.496094 C 38.488281 62.785156 38.710938 63.054688 38.957031 63.304688 C 39.207031 63.550781 39.476562 63.773438 39.765625 63.96875 C 40.058594 64.164062 40.367188 64.328125 40.691406 64.460938 C 41.015625 64.597656 41.347656 64.695312 41.691406 64.765625 C 42.035156 64.835938 42.382812 64.867188 42.734375 64.867188 C 43.085938 64.867188 43.433594 64.835938 43.777344 64.765625 C 44.121094 64.695312 44.453125 64.597656 44.777344 64.460938 C 45.101562 64.328125 45.410156 64.164062 45.703125 63.96875 C 45.992188 63.773438 46.261719 63.550781 46.511719 63.304688 C 46.757812 63.054688 46.980469 62.785156 47.175781 62.496094 C 47.371094 62.203125 47.535156 61.894531 47.667969 61.570312 C 47.804688 61.246094 47.90625 60.914062 47.972656 60.570312 C 48.042969 60.222656 48.074219 59.878906 48.078125 59.527344 C 48.078125 58.636719 47.871094 57.796875 47.449219 57.011719 L 54.4375 50.085938 C 55.230469 50.660156 55.976562 51.292969 56.671875 51.984375 C 56.839844 52.152344 57.03125 52.285156 57.25 52.375 C 57.464844 52.46875 57.695312 52.511719 57.929688 52.511719 C 58.167969 52.511719 58.394531 52.46875 58.613281 52.375 C 58.828125 52.285156 59.023438 52.152344 59.1875 51.984375 C 59.359375 51.820312 59.488281 51.628906 59.582031 51.410156 C 59.675781 51.191406 59.722656 50.964844 59.722656 50.726562 C 59.722656 50.492188 59.675781 50.261719 59.582031 50.046875 C 59.488281 49.828125 59.359375 49.636719 59.1875 49.472656 C 58.496094 48.78125 57.761719 48.140625 56.988281 47.546875 L 63.007812 41.589844 C 63.738281 42.207031 64.453125 42.847656 65.132812 43.527344 C 65.480469 43.867188 65.902344 44.039062 66.390625 44.042969 C 66.746094 44.042969 67.074219 43.945312 67.371094 43.75 C 67.667969 43.554688 67.886719 43.289062 68.023438 42.960938 C 68.164062 42.632812 68.199219 42.292969 68.128906 41.941406 C 68.058594 41.589844 67.898438 41.289062 67.644531 41.039062 C 66.96875 40.359375 66.261719 39.78125 65.546875 39.113281 L 71.542969 33.167969 C 72.246094 33.785156 72.9375 34.425781 73.605469 35.078125 C 73.949219 35.433594 74.367188 35.605469 74.859375 35.59375 C 75.351562 35.601562 75.773438 35.429688 76.117188 35.078125 C 76.265625 34.914062 76.375 34.726562 76.453125 34.515625 C 76.53125 34.308594 76.566406 34.09375 76.5625 33.871094 C 76.554688 33.648438 76.511719 33.433594 76.425781 33.226562 C 76.339844 33.023438 76.222656 32.839844 76.066406 32.679688 Z M 76.066406 32.679688 " fill-opacity="1" fill-rule="nonzero"/><path fill="#3f5141" d="M 57.074219 37.707031 L 59.691406 35.191406 C 58.03125 34.285156 56.3125 33.511719 54.527344 32.882812 C 52.746094 32.25 50.925781 31.765625 49.0625 31.425781 C 47.203125 31.085938 45.328125 30.898438 43.4375 30.863281 C 41.546875 30.828125 39.664062 30.945312 37.792969 31.210938 C 35.921875 31.480469 34.082031 31.894531 32.277344 32.457031 C 30.472656 33.023438 28.722656 33.726562 27.03125 34.570312 C 25.339844 35.417969 23.726562 36.394531 22.191406 37.5 C 20.660156 38.605469 19.222656 39.824219 17.886719 41.164062 C 17.71875 41.328125 17.589844 41.523438 17.5 41.738281 C 17.410156 41.957031 17.363281 42.183594 17.363281 42.421875 C 17.363281 42.65625 17.410156 42.882812 17.5 43.101562 C 17.589844 43.320312 17.71875 43.511719 17.882812 43.679688 C 18.050781 43.84375 18.242188 43.972656 18.460938 44.0625 C 18.679688 44.152344 18.90625 44.199219 19.140625 44.199219 C 19.378906 44.199219 19.605469 44.152344 19.824219 44.0625 C 20.039062 43.972656 20.234375 43.84375 20.398438 43.675781 C 21.566406 42.5 22.820312 41.421875 24.160156 40.445312 C 25.496094 39.464844 26.902344 38.597656 28.378906 37.839844 C 29.851562 37.082031 31.378906 36.441406 32.953125 35.921875 C 34.527344 35.40625 36.132812 35.011719 37.769531 34.746094 C 39.40625 34.480469 41.054688 34.34375 42.710938 34.335938 C 44.371094 34.328125 46.019531 34.449219 47.65625 34.699219 C 49.296875 34.953125 50.90625 35.328125 52.484375 35.832031 C 54.0625 36.335938 55.59375 36.960938 57.074219 37.707031 Z M 57.074219 37.707031 " fill-opacity="1" fill-rule="nonzero"/><path fill="#3f5141" d="M 47.761719 46.933594 L 50.589844 44.128906 C 49.558594 43.757812 48.507812 43.457031 47.433594 43.234375 C 46.359375 43.011719 45.273438 42.863281 44.179688 42.792969 C 43.085938 42.722656 41.992188 42.730469 40.898438 42.816406 C 39.804688 42.902344 38.722656 43.0625 37.652344 43.300781 C 36.582031 43.539062 35.535156 43.855469 34.507812 44.242188 C 33.484375 44.628906 32.488281 45.085938 31.527344 45.613281 C 30.566406 46.144531 29.648438 46.734375 28.773438 47.394531 C 27.894531 48.054688 27.070312 48.769531 26.292969 49.546875 C 26.128906 49.714844 26 49.90625 25.910156 50.125 C 25.820312 50.339844 25.773438 50.566406 25.773438 50.804688 C 25.773438 51.039062 25.820312 51.265625 25.910156 51.484375 C 26 51.703125 26.128906 51.894531 26.292969 52.058594 C 26.460938 52.226562 26.652344 52.355469 26.871094 52.445312 C 27.089844 52.535156 27.316406 52.582031 27.550781 52.582031 C 27.785156 52.582031 28.011719 52.535156 28.230469 52.445312 C 28.449219 52.355469 28.640625 52.226562 28.808594 52.058594 C 30.023438 50.839844 31.378906 49.796875 32.867188 48.929688 C 34.359375 48.066406 35.933594 47.410156 37.597656 46.957031 C 39.261719 46.507812 40.957031 46.28125 42.679688 46.277344 C 44.402344 46.273438 46.097656 46.492188 47.761719 46.933594 Z M 47.761719 46.933594 " fill-opacity="1" fill-rule="nonzero"/></svg>