<svg width="37" height="37" viewBox="0 0 37 37" fill="none" xmlns="http://www.w3.org/2000/svg">
<g clip-path="url(#clip0_546_680)">
<path d="M1.56375 21.295L3.98861 21.3101C4.35121 23.176 5.06884 24.9889 6.15663 26.6357L4.4343 28.3429C3.81487 28.9548 3.81487 29.9444 4.41919 30.5638L6.27749 32.4448C6.88937 33.0642 7.87896 33.0642 8.49839 32.4599L10.2207 30.7527C11.8524 31.8556 13.6578 32.6034 15.5237 32.9811L15.5086 35.406C15.501 36.2747 16.2035 36.9772 17.0723 36.9848L19.7162 36.9999C20.5849 37.0075 21.2874 36.3049 21.295 35.4362L21.3101 33.0114C23.176 32.6488 24.9889 31.9311 26.6357 30.8433L28.3429 32.5657C28.9548 33.1851 29.9444 33.1851 30.5638 32.5808L32.4448 30.7225C33.0642 30.1106 33.0642 29.121 32.4599 28.5016L30.7527 26.7792C31.8556 25.1476 32.6034 23.3421 32.9811 21.4763L35.406 21.4914C36.2747 21.499 36.9772 20.7964 36.9848 19.9277L36.9999 17.2838C37.0075 16.4151 36.3049 15.7125 35.4362 15.705L33.0114 15.6899C32.6488 13.824 31.9311 12.011 30.8433 10.3642L32.5657 8.65703C33.1851 8.04515 33.1851 7.05556 32.5808 6.43613L30.7225 4.55517C30.1106 3.93573 29.121 3.93573 28.5016 4.54006L26.7792 6.24728C25.1476 5.14438 23.3421 4.39653 21.4763 4.01883L21.4914 1.59397C21.499 0.725251 20.7964 0.0227226 19.9277 0.0151685L17.2838 6.0354e-05C16.4151 -0.00749372 15.7125 0.695035 15.705 1.56375L15.6823 3.98861C13.8089 4.35121 11.9959 5.06884 10.3567 6.15663L8.64947 4.4343C8.03759 3.81487 7.04801 3.81487 6.42858 4.41919L4.55517 6.27749C3.93573 6.88937 3.93573 7.87896 4.54006 8.49839L6.24728 10.2207C5.14438 11.8524 4.39653 13.6578 4.01883 15.5237L1.59397 15.5086C0.725251 15.501 0.0227226 16.2035 0.0151685 17.0723L6.0354e-05 19.7162C-0.00749372 20.5774 0.695035 21.2874 1.56375 21.295ZM13.5445 13.4916C16.3093 10.7571 20.7587 10.7797 23.4932 13.5445C26.2278 16.3093 26.2051 20.7587 23.4403 23.4932C20.6756 26.2278 16.2262 26.2051 13.4916 23.4403C10.7571 20.6756 10.7797 16.2262 13.5445 13.4916Z" fill="white"/>
</g>
<defs>
<clipPath id="clip0_546_680">
<rect width="37" height="37" fill="white"/>
</clipPath>
</defs>
</svg>
