<svg xmlns="http://www.w3.org/2000/svg" xmlns:xlink="http://www.w3.org/1999/xlink" width="683" zoomAndPan="magnify" viewBox="0 0 512.25 349.500003" height="466" preserveAspectRatio="xMidYMid meet" version="1.2"><defs><clipPath id="9777f9c336"><path d="M 0 0.0078125 L 511.5 0.0078125 L 511.5 348.996094 L 0 348.996094 Z M 0 0.0078125 "/></clipPath></defs><g id="96d376c067"><g clip-rule="nonzero" clip-path="url(#9777f9c336)"><path style=" stroke:none;fill-rule:nonzero;fill:#2a322b;fill-opacity:1;" d="M 255.722656 0.00390625 C 139.484375 0.00390625 40.21875 72.304688 0 174.359375 C 40.21875 276.414062 139.484375 348.714844 255.722656 348.714844 C 371.957031 348.714844 471.222656 276.414062 511.441406 174.359375 C 471.222656 72.304688 372.074219 0.00390625 255.722656 0.00390625 Z M 255.722656 290.597656 C 191.558594 290.597656 139.484375 238.523438 139.484375 174.359375 C 139.484375 110.199219 191.558594 58.125 255.722656 58.125 C 319.882812 58.125 371.957031 110.199219 371.957031 174.359375 C 371.957031 238.523438 319.882812 290.597656 255.722656 290.597656 Z M 255.722656 104.617188 C 217.246094 104.617188 185.980469 135.886719 185.980469 174.359375 C 185.980469 212.835938 217.246094 244.101562 255.722656 244.101562 C 294.195312 244.101562 325.464844 212.835938 325.464844 174.359375 C 325.464844 135.886719 294.195312 104.617188 255.722656 104.617188 Z M 255.722656 104.617188 "/><path style=" stroke:none;fill-rule:nonzero;fill:#2a322b;fill-opacity:1;" d="M 255.722656 0.00390625 C 139.484375 0.00390625 40.21875 72.304688 0 174.359375 C 40.21875 276.414062 139.484375 348.714844 255.722656 348.714844 C 371.957031 348.714844 471.222656 276.414062 511.441406 174.359375 C 471.222656 72.304688 372.074219 0.00390625 255.722656 0.00390625 Z M 255.722656 290.597656 C 191.558594 290.597656 139.484375 238.523438 139.484375 174.359375 C 139.484375 110.199219 191.558594 58.125 255.722656 58.125 C 319.882812 58.125 371.957031 110.199219 371.957031 174.359375 C 371.957031 238.523438 319.882812 290.597656 255.722656 290.597656 Z M 255.722656 104.617188 C 217.246094 104.617188 185.980469 135.886719 185.980469 174.359375 C 185.980469 212.835938 217.246094 244.101562 255.722656 244.101562 C 294.195312 244.101562 325.464844 212.835938 325.464844 174.359375 C 325.464844 135.886719 294.195312 104.617188 255.722656 104.617188 Z M 255.722656 104.617188 "/></g></g></svg>