<svg width="36" height="38" viewBox="0 0 36 38" fill="none" xmlns="http://www.w3.org/2000/svg">
<path fill-rule="evenodd" clip-rule="evenodd" d="M8.45186 29.5187L2.67394 23.3857C0.418161 20.9921 0.417308 17.0728 2.67205 14.6782L8.38976 8.60297L16.2134 16.9066C16.7774 17.5061 17.0591 18.2971 17.0592 19.0891C17.0594 19.8819 16.7781 20.6731 16.2144 21.272L8.45186 29.5187ZM26.478 31.3729L22.4405 35.6615C20.1865 38.0569 16.4957 38.0577 14.2407 35.6633L10.258 31.4367L18.0213 23.19C18.1504 23.052 18.2725 22.9091 18.386 22.7621C18.4716 22.8662 18.561 22.9685 18.6543 23.0684L26.478 31.3729ZM22.4332 2.3938L26.4151 6.62036L18.6526 14.8671C18.5235 15.0042 18.4014 15.1471 18.2879 15.295C18.2024 15.1901 18.1129 15.0877 18.0196 14.9878L10.1959 6.68417L14.2334 2.39559C16.4874 0.000193069 20.1782 -0.0006102 22.4332 2.3938ZM28.2221 8.53837L34 14.6714C36.2557 17.065 36.2566 20.9843 34.0019 23.3789L28.2842 29.4541L20.4605 21.1496C19.8965 20.551 19.6148 19.76 19.6147 18.9672C19.6145 18.1752 19.8958 17.3832 20.4595 16.7851L28.2221 8.53837Z" fill="#EEF4EE"/>
</svg>
