<?xml version="1.0" encoding="UTF-8" standalone="no"?>
<!-- Created with Inkscape (http://www.inkscape.org/) -->

<svg
   width="135.31779mm"
   height="135.32771mm"
   viewBox="0 0 135.31779 135.32771"
   version="1.1"
   id="svg5"
   xml:space="preserve"
   xmlns:inkscape="http://www.inkscape.org/namespaces/inkscape"
   xmlns:sodipodi="http://sodipodi.sourceforge.net/DTD/sodipodi-0.dtd"
   xmlns="http://www.w3.org/2000/svg"
   xmlns:svg="http://www.w3.org/2000/svg"><sodipodi:namedview
     id="namedview7"
     pagecolor="#ffffff"
     bordercolor="#000000"
     borderopacity="0.25"
     inkscape:showpageshadow="2"
     inkscape:pageopacity="0.0"
     inkscape:pagecheckerboard="0"
     inkscape:deskcolor="#d1d1d1"
     inkscape:document-units="mm"
     showgrid="false" /><defs
     id="defs2" /><g
     inkscape:label="Camada 1"
     inkscape:groupmode="layer"
     id="layer1"
     transform="translate(-61.214773,-63.411757)"><path
       style="fill:#3f5141;fill-opacity:1;stroke:none;stroke-width:0.264583"
       d="m 180.69395,107.0188 c 4.39209,-3.09377 8.10604,-7.841458 11.90625,-11.641668 1.47347,-1.47346 3.69914,-3.05514 3.91557,-5.29166 0.28549,-2.94836 -3.14034,-5.31024 -4.9739,-7.14375 l -14.55208,-14.55209 c -1.7952,-1.79509 -3.85922,-4.7584 -6.61459,-4.96746 -2.08042,-0.15785 -3.67982,1.51029 -5.02708,2.85101 l -8.73125,8.73104 c -0.85804,0.85807 -3.69279,2.85125 -3.34804,4.23333 0.35746,1.43402 2.59874,2.95492 3.61262,3.96875 l 9.78959,9.78958 14.02291,14.022918 m -73.02499,73.025 h 0.26458 l 67.20416,-67.20417 -7.14375,-7.40833 -13.75833,-13.758328 -5.02708,-5.02687 -2.11667,-1.533 -3.96875,3.38487 -10.84792,10.84791 -39.158334,39.158338 -9.78958,9.78958 -3.120284,3.70417 1.797367,2.38125 5.027083,5.02708 20.637508,20.6375 M 73.802286,158.12995 c -2.963703,1.02129 -3.80439,5.31283 -4.535064,7.89093 -2.127884,7.50729 -4.345331,14.98971 -6.50047,22.48958 -0.830998,2.8919 -2.996616,7.06994 -0.06533,9.41414 2.483782,1.98623 6.612948,-0.18785 9.24878,-0.94747 8.468413,-2.44052 17.810164,-4.11718 25.929164,-7.53507 1.16285,-0.48948 4.251334,-2.60641 3.877214,-4.1066 -0.49636,-1.99151 -4.034644,-4.39076 -5.464714,-5.82083 l -14.55208,-14.55208 c -1.851607,-1.85156 -3.686783,-3.72137 -5.55625,-5.55493 -0.606663,-0.59505 -1.415203,-1.61052 -2.38125,-1.27767 z"
       id="path1582" /></g></svg>
