<svg width="181" height="138" viewBox="0 0 181 138" fill="none" xmlns="http://www.w3.org/2000/svg">
<mask id="mask0_545_1552" style="mask-type:luminance" maskUnits="userSpaceOnUse" x="0" y="58" width="172" height="30">
<path d="M0 58.1277H171.799V87.9879H0V58.1277Z" fill="white"/>
</mask>
<g mask="url(#mask0_545_1552)">
<mask id="mask1_545_1552" style="mask-type:luminance" maskUnits="userSpaceOnUse" x="0" y="58" width="172" height="30">
<path d="M14.9482 58.1277H156.733C164.991 58.1277 171.684 64.8124 171.684 73.0561C171.684 81.3032 164.991 87.9879 156.733 87.9879H14.9482C6.69357 87.9879 0 81.3032 0 73.0561C0 64.8124 6.69357 58.1277 14.9482 58.1277Z" fill="white"/>
</mask>
<g mask="url(#mask1_545_1552)">
<path d="M0 58.1277H171.681V87.9879H0V58.1277Z" fill="#3F5141"/>
</g>
</g>
<mask id="mask2_545_1552" style="mask-type:luminance" maskUnits="userSpaceOnUse" x="112" y="18" width="25" height="16">
<path d="M112.743 18.8696H136.916V33.2075H112.743V18.8696Z" fill="white"/>
</mask>
<g mask="url(#mask2_545_1552)">
<mask id="mask3_545_1552" style="mask-type:luminance" maskUnits="userSpaceOnUse" x="112" y="18" width="25" height="16">
<path d="M119.923 18.8696H129.698C133.662 18.8696 136.875 22.0787 136.875 26.0369C136.875 29.9984 133.662 33.2075 129.698 33.2075H119.923C115.956 33.2075 112.743 29.9984 112.743 26.0369C112.743 22.0787 115.956 18.8696 119.923 18.8696Z" fill="white"/>
</mask>
<g mask="url(#mask3_545_1552)">
<path d="M112.743 18.8696H136.858V33.2075H112.743V18.8696Z" fill="#3F5141"/>
</g>
</g>
<mask id="mask4_545_1552" style="mask-type:luminance" maskUnits="userSpaceOnUse" x="7" y="70" width="158" height="56">
<path d="M7.51123 70.7141H164.177V125.282H7.51123V70.7141Z" fill="white"/>
</mask>
<g mask="url(#mask4_545_1552)">
<mask id="mask5_545_1552" style="mask-type:luminance" maskUnits="userSpaceOnUse" x="7" y="70" width="158" height="56">
<path d="M25.6119 70.7141H146.069C156.067 70.7141 164.17 78.806 164.17 88.7875V107.205C164.17 117.19 156.067 125.282 146.069 125.282H25.6119C15.6172 125.282 7.51123 117.19 7.51123 107.205V88.7875C7.51123 78.806 15.6172 70.7141 25.6119 70.7141Z" fill="white"/>
</mask>
<g mask="url(#mask5_545_1552)">
<path d="M7.51123 70.7141H164.177V125.282H7.51123V70.7141Z" fill="#3F5141"/>
</g>
</g>
<mask id="mask6_545_1552" style="mask-type:luminance" maskUnits="userSpaceOnUse" x="0" y="77" width="58" height="61">
<path d="M0 77.7466H57.9546V137.646H0V77.7466Z" fill="white"/>
</mask>
<g mask="url(#mask6_545_1552)">
<path d="M20.7058 114.504L11.8835 131.801" stroke="#3F5141" stroke-width="9.96428" stroke-linecap="round"/>
</g>
<mask id="mask7_545_1552" style="mask-type:luminance" maskUnits="userSpaceOnUse" x="114" y="78" width="67" height="60">
<path d="M114.179 78.6104H180.355V137.646H114.179V78.6104Z" fill="white"/>
</mask>
<g mask="url(#mask7_545_1552)">
<path d="M159.821 133.262L150.996 115.968" stroke="#3F5141" stroke-width="9.96428" stroke-linecap="round"/>
</g>
<mask id="mask8_545_1552" style="mask-type:luminance" maskUnits="userSpaceOnUse" x="50" y="0" width="131" height="132">
<path d="M50.1694 0.138428H180.354V131.305H50.1694V0.138428Z" fill="white"/>
</mask>
<g mask="url(#mask8_545_1552)">
<path d="M152.931 57.7263C155.702 18.6979 146.089 6.9954 124.086 22.6155" stroke="#3F5141" stroke-width="19.9286" stroke-linecap="round"/>
</g>
<path d="M44.6147 52.1245C33.0083 47.1101 33.0387 42.0958 44.7059 37.078" stroke="#3F5141" stroke-width="3.98571" stroke-linecap="round"/>
<path d="M44.4761 22.1023C56.0826 27.1167 56.0522 32.131 44.3849 37.1454" stroke="#3F5141" stroke-width="3.98571" stroke-linecap="round"/>
<path d="M71.7641 44.9102C60.1576 39.8958 60.188 34.8814 71.8519 29.867" stroke="#3F5141" stroke-width="3.98571" stroke-linecap="round"/>
<mask id="mask9_545_1552" style="mask-type:luminance" maskUnits="userSpaceOnUse" x="56" y="0" width="40" height="45">
<path d="M56.2246 0.138428H95.1493V44.9203H56.2246V0.138428Z" fill="white"/>
</mask>
<g mask="url(#mask9_545_1552)">
<path d="M71.6255 14.8879C83.232 19.9023 83.2016 24.9167 71.5343 29.9311" stroke="#3F5141" stroke-width="3.98571" stroke-linecap="round"/>
</g>
<path d="M98.6906 50.5925C87.0842 45.5782 87.1112 40.5638 98.7785 35.546" stroke="#3F5141" stroke-width="3.98571" stroke-linecap="round"/>
<path d="M98.5484 20.5703C110.155 25.5847 110.124 30.5991 98.4606 35.6134" stroke="#3F5141" stroke-width="3.98571" stroke-linecap="round"/>
<mask id="mask10_545_1552" style="mask-type:luminance" maskUnits="userSpaceOnUse" x="0" y="58" width="172" height="30">
<path d="M0 58.1277H171.799V87.9879H0V58.1277Z" fill="white"/>
</mask>
<g mask="url(#mask10_545_1552)">
<mask id="mask11_545_1552" style="mask-type:luminance" maskUnits="userSpaceOnUse" x="0" y="58" width="172" height="30">
<path d="M14.9482 58.1277H156.733C164.991 58.1277 171.684 64.8124 171.684 73.0561C171.684 81.3032 164.991 87.9879 156.733 87.9879H14.9482C6.69357 87.9879 0 81.3032 0 73.0561C0 64.8124 6.69357 58.1277 14.9482 58.1277Z" fill="white"/>
</mask>
<g mask="url(#mask11_545_1552)">
<path d="M0 58.1277H171.681V87.9879H0V58.1277Z" fill="#3F5141"/>
</g>
</g>
<mask id="mask12_545_1552" style="mask-type:luminance" maskUnits="userSpaceOnUse" x="112" y="18" width="25" height="16">
<path d="M112.743 18.8696H136.916V33.2075H112.743V18.8696Z" fill="white"/>
</mask>
<g mask="url(#mask12_545_1552)">
<mask id="mask13_545_1552" style="mask-type:luminance" maskUnits="userSpaceOnUse" x="112" y="18" width="25" height="16">
<path d="M119.923 18.8696H129.698C133.662 18.8696 136.875 22.0787 136.875 26.0369C136.875 29.9984 133.662 33.2075 129.698 33.2075H119.923C115.956 33.2075 112.743 29.9984 112.743 26.0369C112.743 22.0787 115.956 18.8696 119.923 18.8696Z" fill="white"/>
</mask>
<g mask="url(#mask13_545_1552)">
<path d="M112.743 18.8696H136.858V33.2075H112.743V18.8696Z" fill="#3F5141"/>
</g>
</g>
<mask id="mask14_545_1552" style="mask-type:luminance" maskUnits="userSpaceOnUse" x="7" y="70" width="158" height="56">
<path d="M7.51123 70.7141H164.177V125.282H7.51123V70.7141Z" fill="white"/>
</mask>
<g mask="url(#mask14_545_1552)">
<mask id="mask15_545_1552" style="mask-type:luminance" maskUnits="userSpaceOnUse" x="7" y="70" width="158" height="56">
<path d="M25.6119 70.7141H146.069C156.067 70.7141 164.17 78.806 164.17 88.7875V107.205C164.17 117.19 156.067 125.282 146.069 125.282H25.6119C15.6172 125.282 7.51123 117.19 7.51123 107.205V88.7875C7.51123 78.806 15.6172 70.7141 25.6119 70.7141Z" fill="white"/>
</mask>
<g mask="url(#mask15_545_1552)">
<path d="M7.51123 70.7141H164.177V125.282H7.51123V70.7141Z" fill="#3F5141"/>
</g>
</g>
<mask id="mask16_545_1552" style="mask-type:luminance" maskUnits="userSpaceOnUse" x="0" y="77" width="58" height="61">
<path d="M0 77.7466H57.9546V137.646H0V77.7466Z" fill="white"/>
</mask>
<g mask="url(#mask16_545_1552)">
<path d="M20.7058 114.504L11.8835 131.801" stroke="#3F5141" stroke-width="9.96428" stroke-linecap="round"/>
</g>
<mask id="mask17_545_1552" style="mask-type:luminance" maskUnits="userSpaceOnUse" x="114" y="78" width="67" height="60">
<path d="M114.179 78.6104H180.355V137.646H114.179V78.6104Z" fill="white"/>
</mask>
<g mask="url(#mask17_545_1552)">
<path d="M159.821 133.262L150.996 115.968" stroke="#3F5141" stroke-width="9.96428" stroke-linecap="round"/>
</g>
<mask id="mask18_545_1552" style="mask-type:luminance" maskUnits="userSpaceOnUse" x="50" y="0" width="131" height="132">
<path d="M50.1694 0.138428H180.354V131.305H50.1694V0.138428Z" fill="white"/>
</mask>
<g mask="url(#mask18_545_1552)">
<path d="M152.931 57.7263C155.702 18.6979 146.089 6.9954 124.086 22.6155" stroke="#3F5141" stroke-width="19.9286" stroke-linecap="round"/>
</g>
<path d="M44.6147 52.1245C33.0083 47.1101 33.0387 42.0958 44.7059 37.078" stroke="#3F5141" stroke-width="3.98571" stroke-linecap="round"/>
<path d="M44.4761 22.1023C56.0826 27.1167 56.0522 32.131 44.3849 37.1454" stroke="#3F5141" stroke-width="3.98571" stroke-linecap="round"/>
<path d="M71.7641 44.9102C60.1576 39.8958 60.188 34.8814 71.8519 29.867" stroke="#3F5141" stroke-width="3.98571" stroke-linecap="round"/>
<mask id="mask19_545_1552" style="mask-type:luminance" maskUnits="userSpaceOnUse" x="56" y="0" width="40" height="45">
<path d="M56.2246 0.138428H95.1493V44.9203H56.2246V0.138428Z" fill="white"/>
</mask>
<g mask="url(#mask19_545_1552)">
<path d="M71.6255 14.8879C83.232 19.9023 83.2016 24.9167 71.5343 29.9311" stroke="#3F5141" stroke-width="3.98571" stroke-linecap="round"/>
</g>
<path d="M98.6906 50.5925C87.0842 45.5782 87.1112 40.5638 98.7785 35.546" stroke="#3F5141" stroke-width="3.98571" stroke-linecap="round"/>
<path d="M98.5484 20.5703C110.155 25.5847 110.124 30.5991 98.4606 35.6134" stroke="#3F5141" stroke-width="3.98571" stroke-linecap="round"/>
</svg>
