<svg width="46" height="32" viewBox="0 0 46 32" fill="none" xmlns="http://www.w3.org/2000/svg">
<mask id="mask0_780_1411" style="mask-type:luminance" maskUnits="userSpaceOnUse" x="0" y="0" width="46" height="32">
<path d="M0.216797 0.0393066L45.3 0.0294948L45.3068 31.5466L0.223656 31.5565L0.216797 0.0393066Z" fill="white"/>
</mask>
<g mask="url(#mask0_780_1411)">
<path fill-rule="evenodd" clip-rule="evenodd" d="M3.96093 0.0384918L41.5558 0.0303097C42.5509 0.0300931 43.4977 0.449961 44.2006 1.19676C44.9048 1.94355 45.3006 2.94876 45.3008 4.00546L45.3059 27.5714C45.3062 28.6287 44.9108 29.6334 44.2069 30.3812C43.5044 31.1277 42.5578 31.5479 41.5627 31.5481L3.96779 31.5563C2.97271 31.5565 2.02658 31.1367 1.32302 30.3906C0.618819 29.6431 0.223021 28.6386 0.222791 27.5812L0.217662 4.01527C0.217432 2.95858 0.612793 1.95319 1.31667 1.20609C2.0199 0.458988 2.96585 0.0387083 3.96093 0.0384918ZM41.5563 2.23964L3.96141 2.24782C3.51937 2.24791 3.09995 2.43646 2.78769 2.7682C2.47543 3.09994 2.29871 3.54472 2.29881 4.01482L2.30394 27.5807C2.30404 28.0508 2.48096 28.4955 2.79336 28.8271C3.10577 29.1594 3.52526 29.3471 3.96731 29.347L41.5622 29.3388C42.0049 29.3387 42.4237 29.1509 42.7359 28.8184C43.0482 28.4867 43.2255 28.0419 43.2254 27.5718L43.2203 4.00591C43.2202 3.53581 43.0427 3.09111 42.7303 2.7595C42.4178 2.4279 41.999 2.23954 41.5563 2.23964Z" fill="#EEF4EE"/>
<path d="M45.3011 6.77173L45.3025 13.3096L0.219376 13.3194L0.217773 5.9541L45.3009 5.94429L45.3011 6.77173Z" fill="#EEF4EE"/>
<path d="M7.89746 17.0003C8.40576 17.0002 8.89581 17.0934 9.35065 17.2645C9.39045 17.2798 9.43026 17.2951 9.46941 17.3118C9.29653 17.4464 9.13213 17.593 8.97687 17.7522C8.05378 18.6951 7.53923 19.9637 7.53952 21.2968C7.53981 22.6299 8.05491 23.8983 8.97841 24.8408C9.13374 25 9.2982 25.1472 9.47115 25.2817C9.432 25.2977 9.3922 25.3131 9.3524 25.3284C8.89764 25.4997 8.40763 25.5931 7.89933 25.5932C6.73722 25.5934 5.68462 25.1127 4.92363 24.336C4.16134 23.558 3.69065 22.4842 3.69039 21.2977C3.69013 20.1118 4.16035 19.0371 4.92231 18.2594C5.68296 17.4818 6.73535 17.0006 7.89746 17.0003Z" fill="#EEF4EE"/>
<path d="M9.49921 18.2585C10.2318 17.4808 11.243 16.9996 12.3598 16.9994C13.4771 16.9991 14.4892 17.4799 15.2208 18.2572C15.9532 19.0345 16.407 20.1091 16.4072 21.2949C16.4075 22.4815 15.9541 23.5555 15.2222 24.3338C14.4908 25.1108 13.479 25.592 12.3616 25.5922C11.2449 25.5925 10.2335 25.1117 9.50053 24.3351C8.76884 23.5571 8.31565 22.4832 8.31539 21.2967C8.31513 20.1108 8.76786 19.0361 9.49921 18.2585Z" fill="#EEF4EE"/>
<path fill-rule="evenodd" clip-rule="evenodd" d="M20.8582 20.6802L25.3185 20.6792C25.8612 20.6791 26.3018 21.2287 26.302 21.9062C26.3021 22.5845 25.8618 23.1342 25.319 23.1343L20.8588 23.1353C20.316 23.1354 19.8754 22.5859 19.8753 21.9076C19.8751 21.2301 20.3155 20.6803 20.8582 20.6802ZM28.627 20.6785L33.0872 20.6775C33.63 20.6774 34.0706 21.227 34.0707 21.9045C34.0709 22.5828 33.6305 23.1325 33.0878 23.1327L28.6275 23.1336C28.0848 23.1337 27.6442 22.5842 27.644 21.9059C27.6439 21.2284 28.0842 20.6786 28.627 20.6785ZM36.3958 20.6768L40.8554 20.6759C41.3988 20.6757 41.8387 21.2253 41.8389 21.9028C41.839 22.5811 41.3993 23.1308 40.8559 23.131L36.3963 23.1319C35.8535 23.1321 35.4123 22.5825 35.4122 21.9042C35.412 21.2267 35.853 20.6769 36.3958 20.6768Z" fill="#EEF4EE"/>
</g>
</svg>
