<svg xmlns="http://www.w3.org/2000/svg" xmlns:xlink="http://www.w3.org/1999/xlink" width="115" zoomAndPan="magnify" viewBox="0 0 86.25 86.249996" height="115" preserveAspectRatio="xMidYMid meet" version="1.0"><path fill="#3f5141" d="M 49.886719 35.632812 C 49.648438 35.632812 49.421875 35.675781 49.203125 35.765625 C 48.980469 35.855469 48.789062 35.980469 48.617188 36.148438 C 48.449219 36.316406 48.320312 36.507812 48.226562 36.726562 C 48.136719 36.945312 48.089844 37.171875 48.089844 37.410156 C 48.085938 37.644531 48.132812 37.875 48.222656 38.09375 C 48.3125 38.3125 48.441406 38.507812 48.605469 38.675781 C 48.773438 38.84375 48.96875 38.972656 49.1875 39.066406 C 49.40625 39.15625 49.632812 39.203125 49.871094 39.203125 C 50.105469 39.203125 50.335938 39.15625 50.554688 39.066406 C 50.773438 38.976562 50.964844 38.847656 51.132812 38.679688 C 51.300781 38.515625 51.429688 38.320312 51.523438 38.101562 C 51.613281 37.882812 51.660156 37.65625 51.660156 37.417969 C 51.660156 37.183594 51.613281 36.957031 51.523438 36.738281 C 51.433594 36.519531 51.304688 36.328125 51.140625 36.160156 C 50.972656 35.992188 50.78125 35.863281 50.566406 35.773438 C 50.347656 35.679688 50.121094 35.632812 49.886719 35.632812 Z M 49.886719 35.632812 " fill-opacity="1" fill-rule="nonzero"/><path fill="#3f5141" d="M 76.304688 37.417969 L 75.992188 37.417969 C 75.691406 37.429688 75.414062 37.511719 75.160156 37.671875 C 74.90625 37.832031 74.710938 38.042969 74.570312 38.308594 C 74.367188 38.652344 74.078125 38.902344 73.710938 39.050781 C 73.339844 39.199219 72.960938 39.222656 72.574219 39.121094 C 72.1875 39.015625 71.871094 38.808594 71.628906 38.492188 C 71.382812 38.175781 71.257812 37.816406 71.253906 37.417969 L 71.253906 19.609375 C 71.246094 19.195312 71.207031 18.785156 71.128906 18.375 C 71.054688 17.96875 70.941406 17.574219 70.796875 17.183594 C 70.648438 16.796875 70.472656 16.425781 70.261719 16.070312 C 70.050781 15.714844 69.808594 15.378906 69.539062 15.0625 C 69.273438 14.75 68.976562 14.460938 68.65625 14.199219 C 68.339844 13.933594 68 13.699219 67.636719 13.496094 C 67.277344 13.292969 66.902344 13.121094 66.511719 12.984375 C 66.121094 12.84375 65.722656 12.742188 65.316406 12.671875 C 64.90625 12.601562 64.496094 12.570312 64.082031 12.574219 C 63.667969 12.574219 63.257812 12.613281 62.851562 12.6875 C 62.445312 12.761719 62.046875 12.871094 61.65625 13.015625 C 61.269531 13.15625 60.894531 13.332031 60.539062 13.542969 C 60.179688 13.75 59.84375 13.988281 59.527344 14.253906 C 59.210938 14.523438 58.921875 14.816406 58.65625 15.132812 C 58.390625 15.449219 58.15625 15.789062 57.949219 16.148438 C 57.742188 16.507812 57.570312 16.878906 57.425781 17.269531 C 56.371094 16.5 55.261719 15.816406 54.09375 15.21875 C 52.929688 14.625 51.726562 14.121094 50.484375 13.71875 C 49.238281 13.3125 47.972656 13.003906 46.679688 12.800781 C 45.386719 12.59375 44.085938 12.492188 42.777344 12.492188 C 41.46875 12.492188 40.171875 12.59375 38.878906 12.800781 C 37.585938 13.003906 36.316406 13.3125 35.074219 13.71875 C 33.832031 14.121094 32.625 14.625 31.460938 15.21875 C 30.296875 15.816406 29.1875 16.5 28.128906 17.269531 C 28.035156 17 27.921875 16.734375 27.796875 16.476562 C 27.667969 16.21875 27.523438 15.96875 27.367188 15.730469 C 27.210938 15.492188 27.039062 15.261719 26.851562 15.042969 C 26.667969 14.820312 26.46875 14.613281 26.257812 14.417969 C 26.046875 14.222656 25.824219 14.042969 25.59375 13.875 C 25.359375 13.707031 25.117188 13.550781 24.867188 13.414062 C 24.617188 13.273438 24.355469 13.148438 24.089844 13.042969 C 23.824219 12.933594 23.550781 12.84375 23.273438 12.769531 C 22.996094 12.695312 22.714844 12.636719 22.433594 12.597656 C 22.148438 12.554688 21.863281 12.53125 21.574219 12.527344 C 21.285156 12.519531 21 12.53125 20.714844 12.5625 C 20.429688 12.589844 20.144531 12.636719 19.867188 12.699219 C 19.585938 12.761719 19.308594 12.84375 19.039062 12.941406 C 18.769531 13.035156 18.503906 13.148438 18.25 13.277344 C 17.992188 13.40625 17.742188 13.550781 17.503906 13.710938 C 17.265625 13.867188 17.035156 14.042969 16.816406 14.226562 L 14.996094 12.46875 C 14.824219 12.324219 14.632812 12.21875 14.421875 12.148438 C 14.210938 12.078125 13.992188 12.046875 13.769531 12.054688 C 13.546875 12.066406 13.335938 12.117188 13.132812 12.207031 C 12.929688 12.296875 12.746094 12.417969 12.589844 12.578125 C 12.433594 12.734375 12.308594 12.914062 12.21875 13.117188 C 12.128906 13.324219 12.078125 13.535156 12.070312 13.757812 C 12.058594 13.980469 12.089844 14.199219 12.160156 14.410156 C 12.230469 14.621094 12.339844 14.8125 12.480469 14.980469 L 70.523438 73.039062 C 70.691406 73.203125 70.882812 73.332031 71.101562 73.421875 C 71.320312 73.511719 71.546875 73.558594 71.78125 73.554688 C 72.015625 73.554688 72.242188 73.511719 72.460938 73.421875 C 72.675781 73.332031 72.871094 73.203125 73.035156 73.035156 C 73.203125 72.871094 73.332031 72.675781 73.421875 72.460938 C 73.511719 72.242188 73.554688 72.015625 73.554688 71.78125 C 73.558594 71.546875 73.511719 71.320312 73.421875 71.101562 C 73.332031 70.882812 73.203125 70.691406 73.039062 70.523438 L 58.898438 56.382812 C 59.550781 55.832031 60.171875 55.25 60.765625 54.636719 C 61.359375 54.019531 61.917969 53.375 62.445312 52.703125 C 62.972656 52.03125 63.460938 51.332031 63.914062 50.609375 C 64.371094 49.886719 64.785156 49.140625 65.164062 48.375 C 65.542969 47.609375 65.878906 46.824219 66.175781 46.023438 C 66.472656 45.222656 66.726562 44.40625 66.941406 43.582031 C 67.152344 42.753906 67.324219 41.917969 67.449219 41.070312 C 67.574219 40.226562 67.660156 39.378906 67.699219 38.523438 C 67.738281 37.671875 67.730469 36.816406 67.683594 35.964844 C 67.632812 35.113281 67.542969 34.265625 67.40625 33.421875 C 67.269531 32.578125 67.089844 31.742188 66.867188 30.917969 C 66.644531 30.09375 66.382812 29.28125 66.074219 28.484375 C 65.769531 27.6875 65.425781 26.90625 65.039062 26.144531 C 64.652344 25.382812 64.226562 24.644531 63.765625 23.925781 C 63.300781 23.207031 62.804688 22.515625 62.269531 21.847656 C 61.734375 21.179688 61.167969 20.542969 60.570312 19.933594 L 60.570312 19.542969 C 60.554688 19.300781 60.566406 19.058594 60.601562 18.820312 C 60.636719 18.578125 60.695312 18.34375 60.777344 18.113281 C 60.859375 17.886719 60.964844 17.667969 61.09375 17.460938 C 61.222656 17.253906 61.367188 17.0625 61.535156 16.886719 C 61.703125 16.707031 61.886719 16.550781 62.085938 16.410156 C 62.285156 16.269531 62.496094 16.152344 62.71875 16.054688 C 62.941406 15.960938 63.171875 15.886719 63.410156 15.835938 C 63.648438 15.789062 63.890625 15.761719 64.132812 15.761719 C 64.375 15.761719 64.617188 15.789062 64.855469 15.835938 C 65.09375 15.886719 65.324219 15.960938 65.546875 16.054688 C 65.769531 16.152344 65.984375 16.269531 66.183594 16.410156 C 66.382812 16.550781 66.5625 16.707031 66.730469 16.886719 C 66.898438 17.0625 67.042969 17.253906 67.171875 17.460938 C 67.300781 17.667969 67.40625 17.886719 67.488281 18.113281 C 67.570312 18.34375 67.628906 18.578125 67.664062 18.820312 C 67.699219 19.058594 67.710938 19.300781 67.695312 19.542969 L 67.695312 37.417969 C 67.699219 38.019531 67.800781 38.605469 68 39.175781 C 68.199219 39.746094 68.488281 40.265625 68.863281 40.738281 C 69.242188 41.207031 69.683594 41.605469 70.195312 41.925781 C 70.707031 42.246094 71.257812 42.472656 71.84375 42.609375 C 72.433594 42.742188 73.027344 42.777344 73.625 42.710938 C 74.226562 42.644531 74.796875 42.480469 75.339844 42.222656 C 75.886719 41.960938 76.371094 41.617188 76.800781 41.195312 C 77.230469 40.769531 77.574219 40.285156 77.839844 39.742188 C 77.894531 39.617188 77.933594 39.484375 77.957031 39.347656 C 77.980469 39.210938 77.984375 39.074219 77.972656 38.9375 C 77.960938 38.796875 77.933594 38.664062 77.886719 38.53125 C 77.84375 38.402344 77.78125 38.277344 77.703125 38.164062 C 77.628906 38.046875 77.539062 37.945312 77.4375 37.851562 C 77.335938 37.757812 77.222656 37.679688 77.101562 37.613281 C 76.976562 37.546875 76.851562 37.5 76.714844 37.464844 C 76.582031 37.433594 76.445312 37.417969 76.304688 37.417969 Z M 32.214844 29.699219 L 26.320312 23.792969 C 27.207031 22.722656 28.1875 21.746094 29.261719 20.867188 C 30.339844 19.984375 31.492188 19.21875 32.71875 18.5625 C 33.945312 17.90625 35.222656 17.375 36.550781 16.972656 C 37.882812 16.566406 39.238281 16.292969 40.621094 16.152344 C 40.386719 17.496094 40.027344 18.808594 39.539062 20.085938 C 39.054688 21.359375 38.449219 22.578125 37.730469 23.738281 C 37.007812 24.898438 36.183594 25.980469 35.257812 26.984375 C 34.332031 27.988281 33.316406 28.890625 32.214844 29.699219 Z M 63.800781 33.746094 C 62.648438 33.628906 61.515625 33.417969 60.402344 33.113281 C 59.285156 32.8125 58.203125 32.421875 57.148438 31.941406 C 56.097656 31.464844 55.089844 30.902344 54.128906 30.261719 C 53.167969 29.617188 52.265625 28.902344 51.417969 28.113281 C 50.574219 27.324219 49.796875 26.472656 49.089844 25.558594 C 48.382812 24.644531 47.753906 23.679688 47.207031 22.660156 C 46.65625 21.644531 46.191406 20.589844 45.8125 19.496094 C 45.433594 18.40625 45.144531 17.289062 44.945312 16.152344 C 46.097656 16.269531 47.230469 16.480469 48.34375 16.785156 C 49.460938 17.085938 50.542969 17.476562 51.597656 17.957031 C 52.648438 18.433594 53.65625 18.996094 54.617188 19.636719 C 55.578125 20.28125 56.480469 20.996094 57.328125 21.785156 C 58.171875 22.574219 58.949219 23.425781 59.65625 24.339844 C 60.363281 25.253906 60.992188 26.21875 61.539062 27.238281 C 62.089844 28.253906 62.554688 29.308594 62.933594 30.402344 C 63.3125 31.492188 63.601562 32.609375 63.800781 33.746094 Z M 21.367188 16.023438 C 21.839844 16.027344 22.292969 16.117188 22.730469 16.300781 C 23.164062 16.484375 23.550781 16.742188 23.882812 17.074219 C 24.214844 17.410156 24.472656 17.796875 24.652344 18.230469 C 24.835938 18.667969 24.925781 19.121094 24.925781 19.59375 L 24.925781 20.007812 C 24.535156 20.410156 24.144531 20.839844 23.78125 21.265625 L 19.242188 16.742188 C 19.871094 16.265625 20.578125 16.027344 21.367188 16.023438 Z M 56.359375 53.859375 L 50.792969 48.289062 C 51.039062 47.785156 51.238281 47.261719 51.382812 46.71875 C 51.445312 46.453125 51.445312 46.1875 51.382812 45.921875 C 51.324219 45.65625 51.207031 45.417969 51.039062 45.207031 C 50.867188 44.996094 50.660156 44.828125 50.414062 44.714844 C 50.167969 44.597656 49.90625 44.542969 49.632812 44.542969 C 49.296875 44.546875 48.984375 44.636719 48.699219 44.820312 C 48.410156 45 48.195312 45.242188 48.050781 45.550781 L 34.753906 32.226562 C 36.53125 30.863281 38.101562 29.285156 39.453125 27.5 C 40.808594 25.710938 41.902344 23.777344 42.734375 21.695312 C 43.164062 22.777344 43.667969 23.824219 44.246094 24.835938 C 44.824219 25.847656 45.46875 26.816406 46.183594 27.738281 C 46.894531 28.660156 47.671875 29.527344 48.503906 30.339844 C 49.339844 31.152344 50.226562 31.902344 51.167969 32.589844 C 52.109375 33.28125 53.089844 33.898438 54.117188 34.449219 C 55.144531 35 56.207031 35.476562 57.300781 35.878906 C 58.394531 36.28125 59.511719 36.605469 60.648438 36.847656 C 61.789062 37.09375 62.9375 37.257812 64.101562 37.34375 L 64.101562 37.417969 C 64.105469 38.988281 63.933594 40.539062 63.59375 42.074219 C 63.253906 43.605469 62.75 45.082031 62.082031 46.503906 C 61.414062 47.925781 60.597656 49.257812 59.632812 50.496094 C 58.671875 51.738281 57.582031 52.859375 56.371094 53.859375 Z M 56.359375 53.859375 " fill-opacity="1" fill-rule="nonzero"/><path fill="#3f5141" d="M 42.734375 62.355469 C 46.234375 62.355469 49.585938 61.648438 52.789062 60.230469 L 50.035156 57.492188 C 49.234375 57.78125 48.414062 58.027344 47.582031 58.21875 C 46.75 58.414062 45.90625 58.558594 45.054688 58.648438 C 44.207031 58.742188 43.351562 58.785156 42.5 58.777344 C 41.644531 58.765625 40.792969 58.707031 39.941406 58.59375 C 39.09375 58.480469 38.257812 58.320312 37.429688 58.109375 C 36.597656 57.894531 35.785156 57.632812 34.988281 57.324219 C 34.191406 57.015625 33.417969 56.65625 32.664062 56.253906 C 31.90625 55.851562 31.179688 55.402344 30.480469 54.914062 C 29.777344 54.421875 29.109375 53.890625 28.472656 53.320312 C 27.835938 52.75 27.234375 52.144531 26.671875 51.5 C 26.109375 50.855469 25.582031 50.183594 25.101562 49.476562 C 24.617188 48.769531 24.179688 48.039062 23.785156 47.28125 C 23.386719 46.519531 23.039062 45.742188 22.738281 44.941406 C 22.4375 44.140625 22.183594 43.324219 21.980469 42.496094 C 21.777344 41.664062 21.625 40.824219 21.523438 39.972656 C 21.417969 39.125 21.367188 38.273438 21.367188 37.417969 L 21.367188 37.328125 C 23.773438 37.164062 26.109375 36.65625 28.367188 35.808594 L 25.550781 33.007812 C 24.289062 33.367188 23.003906 33.609375 21.695312 33.734375 C 21.925781 32.515625 22.253906 31.328125 22.6875 30.164062 L 19.933594 27.425781 C 18.515625 30.625 17.804688 33.976562 17.808594 37.480469 L 17.808594 25.25 L 14.253906 21.679688 L 14.253906 37.417969 C 14.25 37.816406 14.125 38.175781 13.878906 38.492188 C 13.632812 38.808594 13.316406 39.015625 12.933594 39.121094 C 12.546875 39.222656 12.167969 39.199219 11.796875 39.050781 C 11.425781 38.902344 11.140625 38.652344 10.933594 38.308594 C 10.796875 38.042969 10.601562 37.832031 10.347656 37.671875 C 10.089844 37.511719 9.816406 37.425781 9.515625 37.417969 L 9.199219 37.417969 C 9.0625 37.417969 8.925781 37.433594 8.792969 37.464844 C 8.65625 37.5 8.527344 37.546875 8.40625 37.613281 C 8.285156 37.679688 8.171875 37.757812 8.070312 37.851562 C 7.96875 37.945312 7.878906 38.046875 7.800781 38.164062 C 7.726562 38.277344 7.664062 38.402344 7.617188 38.53125 C 7.574219 38.664062 7.546875 38.796875 7.535156 38.9375 C 7.523438 39.074219 7.527344 39.210938 7.550781 39.347656 C 7.574219 39.484375 7.613281 39.617188 7.667969 39.742188 C 7.929688 40.285156 8.277344 40.769531 8.707031 41.195312 C 9.132812 41.617188 9.621094 41.960938 10.164062 42.222656 C 10.710938 42.480469 11.28125 42.644531 11.878906 42.710938 C 12.480469 42.777344 13.074219 42.742188 13.660156 42.609375 C 14.25 42.472656 14.800781 42.246094 15.308594 41.925781 C 15.820312 41.605469 16.265625 41.207031 16.640625 40.738281 C 17.019531 40.265625 17.304688 39.746094 17.507812 39.175781 C 17.707031 38.605469 17.808594 38.019531 17.808594 37.417969 C 17.8125 38.234375 17.851562 39.046875 17.929688 39.859375 C 18.011719 40.671875 18.132812 41.480469 18.292969 42.28125 C 18.449219 43.082031 18.648438 43.871094 18.886719 44.652344 C 19.125 45.433594 19.398438 46.203125 19.710938 46.957031 C 20.023438 47.710938 20.371094 48.445312 20.757812 49.167969 C 21.140625 49.886719 21.558594 50.585938 22.015625 51.265625 C 22.46875 51.945312 22.953125 52.597656 23.472656 53.230469 C 23.988281 53.859375 24.535156 54.464844 25.113281 55.042969 C 25.691406 55.621094 26.292969 56.167969 26.925781 56.6875 C 27.554688 57.203125 28.210938 57.691406 28.890625 58.144531 C 29.566406 58.597656 30.265625 59.015625 30.988281 59.402344 C 31.707031 59.789062 32.441406 60.136719 33.199219 60.449219 C 33.953125 60.761719 34.71875 61.039062 35.5 61.273438 C 36.28125 61.511719 37.070312 61.710938 37.871094 61.871094 C 38.671875 62.03125 39.480469 62.152344 40.292969 62.230469 C 41.105469 62.3125 41.917969 62.355469 42.734375 62.355469 Z M 42.734375 62.355469 " fill-opacity="1" fill-rule="nonzero"/><path fill="#3f5141" d="M 42.734375 53.441406 C 43.6875 53.441406 44.617188 53.292969 45.523438 52.992188 L 42.394531 49.859375 C 41.828125 49.828125 41.28125 49.703125 40.75 49.496094 C 40.222656 49.285156 39.742188 48.996094 39.304688 48.632812 C 38.867188 48.269531 38.5 47.847656 38.199219 47.363281 C 37.898438 46.882812 37.679688 46.367188 37.542969 45.8125 C 37.433594 45.433594 37.222656 45.128906 36.902344 44.894531 C 36.585938 44.660156 36.230469 44.546875 35.835938 44.558594 C 35.5625 44.554688 35.300781 44.609375 35.054688 44.726562 C 34.808594 44.84375 34.601562 45.007812 34.429688 45.21875 C 34.261719 45.429688 34.144531 45.671875 34.085938 45.933594 C 34.023438 46.199219 34.023438 46.464844 34.085938 46.730469 C 34.207031 47.207031 34.367188 47.671875 34.566406 48.121094 C 34.765625 48.574219 35 49.003906 35.269531 49.414062 C 35.539062 49.828125 35.839844 50.214844 36.175781 50.574219 C 36.507812 50.9375 36.871094 51.269531 37.257812 51.570312 C 37.648438 51.875 38.058594 52.140625 38.492188 52.375 C 38.925781 52.609375 39.375 52.804688 39.839844 52.964844 C 40.304688 53.125 40.78125 53.242188 41.265625 53.324219 C 41.753906 53.402344 42.242188 53.445312 42.734375 53.441406 Z M 42.734375 53.441406 " fill-opacity="1" fill-rule="nonzero"/><path fill="#3f5141" d="M 42.734375 65.925781 C 38.066406 65.925781 33.660156 64.847656 29.523438 62.679688 C 29.132812 62.464844 28.714844 62.359375 28.265625 62.355469 L 24.421875 62.355469 C 23.953125 62.355469 23.488281 62.398438 23.03125 62.492188 C 22.570312 62.582031 22.125 62.71875 21.695312 62.898438 C 21.261719 63.074219 20.851562 63.296875 20.460938 63.554688 C 20.074219 63.816406 19.714844 64.109375 19.382812 64.441406 C 19.050781 64.773438 18.757812 65.132812 18.496094 65.523438 C 18.234375 65.910156 18.015625 66.320312 17.835938 66.753906 C 17.660156 67.1875 17.523438 67.632812 17.433594 68.089844 C 17.339844 68.550781 17.292969 69.011719 17.292969 69.480469 C 17.292969 69.714844 17.339844 69.941406 17.429688 70.160156 C 17.519531 70.375 17.648438 70.566406 17.8125 70.734375 C 17.980469 70.902344 18.171875 71.027344 18.390625 71.117188 C 18.605469 71.207031 18.832031 71.253906 19.066406 71.253906 C 19.300781 71.253906 19.527344 71.207031 19.746094 71.117188 C 19.960938 71.027344 20.152344 70.902344 20.320312 70.734375 C 20.488281 70.566406 20.613281 70.375 20.703125 70.160156 C 20.792969 69.941406 20.839844 69.714844 20.839844 69.480469 C 20.839844 69.007812 20.929688 68.554688 21.109375 68.117188 C 21.292969 67.679688 21.550781 67.296875 21.886719 66.960938 C 22.21875 66.628906 22.605469 66.371094 23.042969 66.191406 C 23.480469 66.011719 23.9375 65.921875 24.410156 65.925781 L 27.488281 65.925781 C 27.878906 65.925781 28.246094 66.015625 28.59375 66.1875 C 30.792969 67.269531 33.089844 68.089844 35.476562 68.648438 C 37.867188 69.203125 40.289062 69.480469 42.742188 69.480469 C 45.195312 69.480469 47.613281 69.203125 50.003906 68.648438 C 52.390625 68.089844 54.6875 67.269531 56.886719 66.1875 C 57.238281 66.011719 57.613281 65.925781 58.003906 65.925781 L 58.46875 65.925781 L 55.464844 62.90625 C 51.460938 64.921875 47.21875 65.929688 42.734375 65.925781 Z M 42.734375 65.925781 " fill-opacity="1" fill-rule="nonzero"/><path fill="#3f5141" d="M 49.886719 35.632812 C 49.648438 35.632812 49.421875 35.675781 49.203125 35.765625 C 48.980469 35.855469 48.789062 35.980469 48.617188 36.148438 C 48.449219 36.316406 48.320312 36.507812 48.226562 36.726562 C 48.136719 36.945312 48.089844 37.171875 48.089844 37.410156 C 48.085938 37.644531 48.132812 37.875 48.222656 38.09375 C 48.3125 38.3125 48.441406 38.507812 48.605469 38.675781 C 48.773438 38.84375 48.96875 38.972656 49.1875 39.066406 C 49.40625 39.15625 49.632812 39.203125 49.871094 39.203125 C 50.105469 39.203125 50.335938 39.15625 50.554688 39.066406 C 50.773438 38.976562 50.964844 38.847656 51.132812 38.679688 C 51.300781 38.515625 51.429688 38.320312 51.523438 38.101562 C 51.613281 37.882812 51.660156 37.65625 51.660156 37.417969 C 51.660156 37.183594 51.613281 36.957031 51.523438 36.738281 C 51.433594 36.519531 51.304688 36.328125 51.140625 36.160156 C 50.972656 35.992188 50.78125 35.863281 50.566406 35.773438 C 50.347656 35.679688 50.121094 35.632812 49.886719 35.632812 Z M 49.886719 35.632812 " fill-opacity="1" fill-rule="nonzero"/><path fill="#3f5141" d="M 76.304688 37.417969 L 75.992188 37.417969 C 75.691406 37.429688 75.414062 37.511719 75.160156 37.671875 C 74.90625 37.832031 74.710938 38.042969 74.570312 38.308594 C 74.367188 38.652344 74.078125 38.902344 73.710938 39.050781 C 73.339844 39.199219 72.960938 39.222656 72.574219 39.121094 C 72.1875 39.015625 71.871094 38.808594 71.628906 38.492188 C 71.382812 38.175781 71.257812 37.816406 71.253906 37.417969 L 71.253906 19.609375 C 71.246094 19.195312 71.207031 18.785156 71.128906 18.375 C 71.054688 17.96875 70.941406 17.574219 70.796875 17.183594 C 70.648438 16.796875 70.472656 16.425781 70.261719 16.070312 C 70.050781 15.714844 69.808594 15.378906 69.539062 15.0625 C 69.273438 14.75 68.976562 14.460938 68.65625 14.199219 C 68.339844 13.933594 68 13.699219 67.636719 13.496094 C 67.277344 13.292969 66.902344 13.121094 66.511719 12.984375 C 66.121094 12.84375 65.722656 12.742188 65.316406 12.671875 C 64.90625 12.601562 64.496094 12.570312 64.082031 12.574219 C 63.667969 12.574219 63.257812 12.613281 62.851562 12.6875 C 62.445312 12.761719 62.046875 12.871094 61.65625 13.015625 C 61.269531 13.15625 60.894531 13.332031 60.539062 13.542969 C 60.179688 13.75 59.84375 13.988281 59.527344 14.253906 C 59.210938 14.523438 58.921875 14.816406 58.65625 15.132812 C 58.390625 15.449219 58.15625 15.789062 57.949219 16.148438 C 57.742188 16.507812 57.570312 16.878906 57.425781 17.269531 C 56.371094 16.5 55.261719 15.816406 54.09375 15.21875 C 52.929688 14.625 51.726562 14.121094 50.484375 13.71875 C 49.238281 13.3125 47.972656 13.003906 46.679688 12.800781 C 45.386719 12.59375 44.085938 12.492188 42.777344 12.492188 C 41.46875 12.492188 40.171875 12.59375 38.878906 12.800781 C 37.585938 13.003906 36.316406 13.3125 35.074219 13.71875 C 33.832031 14.121094 32.625 14.625 31.460938 15.21875 C 30.296875 15.816406 29.1875 16.5 28.128906 17.269531 C 28.035156 17 27.921875 16.734375 27.796875 16.476562 C 27.667969 16.21875 27.523438 15.96875 27.367188 15.730469 C 27.210938 15.492188 27.039062 15.261719 26.851562 15.042969 C 26.667969 14.820312 26.46875 14.613281 26.257812 14.417969 C 26.046875 14.222656 25.824219 14.042969 25.59375 13.875 C 25.359375 13.707031 25.117188 13.550781 24.867188 13.414062 C 24.617188 13.273438 24.355469 13.148438 24.089844 13.042969 C 23.824219 12.933594 23.550781 12.84375 23.273438 12.769531 C 22.996094 12.695312 22.714844 12.636719 22.433594 12.597656 C 22.148438 12.554688 21.863281 12.53125 21.574219 12.527344 C 21.285156 12.519531 21 12.53125 20.714844 12.5625 C 20.429688 12.589844 20.144531 12.636719 19.867188 12.699219 C 19.585938 12.761719 19.308594 12.84375 19.039062 12.941406 C 18.769531 13.035156 18.503906 13.148438 18.25 13.277344 C 17.992188 13.40625 17.742188 13.550781 17.503906 13.710938 C 17.265625 13.867188 17.035156 14.042969 16.816406 14.226562 L 14.996094 12.46875 C 14.824219 12.324219 14.632812 12.21875 14.421875 12.148438 C 14.210938 12.078125 13.992188 12.046875 13.769531 12.054688 C 13.546875 12.066406 13.335938 12.117188 13.132812 12.207031 C 12.929688 12.296875 12.746094 12.417969 12.589844 12.578125 C 12.433594 12.734375 12.308594 12.914062 12.21875 13.117188 C 12.128906 13.324219 12.078125 13.535156 12.070312 13.757812 C 12.058594 13.980469 12.089844 14.199219 12.160156 14.410156 C 12.230469 14.621094 12.339844 14.8125 12.480469 14.980469 L 70.523438 73.039062 C 70.691406 73.203125 70.882812 73.332031 71.101562 73.421875 C 71.320312 73.511719 71.546875 73.558594 71.78125 73.554688 C 72.015625 73.554688 72.242188 73.511719 72.460938 73.421875 C 72.675781 73.332031 72.871094 73.203125 73.035156 73.035156 C 73.203125 72.871094 73.332031 72.675781 73.421875 72.460938 C 73.511719 72.242188 73.554688 72.015625 73.554688 71.78125 C 73.558594 71.546875 73.511719 71.320312 73.421875 71.101562 C 73.332031 70.882812 73.203125 70.691406 73.039062 70.523438 L 58.898438 56.382812 C 59.550781 55.832031 60.171875 55.25 60.765625 54.636719 C 61.359375 54.019531 61.917969 53.375 62.445312 52.703125 C 62.972656 52.03125 63.460938 51.332031 63.914062 50.609375 C 64.371094 49.886719 64.785156 49.140625 65.164062 48.375 C 65.542969 47.609375 65.878906 46.824219 66.175781 46.023438 C 66.472656 45.222656 66.726562 44.40625 66.941406 43.582031 C 67.152344 42.753906 67.324219 41.917969 67.449219 41.070312 C 67.574219 40.226562 67.660156 39.378906 67.699219 38.523438 C 67.738281 37.671875 67.730469 36.816406 67.683594 35.964844 C 67.632812 35.113281 67.542969 34.265625 67.40625 33.421875 C 67.269531 32.578125 67.089844 31.742188 66.867188 30.917969 C 66.644531 30.09375 66.382812 29.28125 66.074219 28.484375 C 65.769531 27.6875 65.425781 26.90625 65.039062 26.144531 C 64.652344 25.382812 64.226562 24.644531 63.765625 23.925781 C 63.300781 23.207031 62.804688 22.515625 62.269531 21.847656 C 61.734375 21.179688 61.167969 20.542969 60.570312 19.933594 L 60.570312 19.542969 C 60.554688 19.300781 60.566406 19.058594 60.601562 18.820312 C 60.636719 18.578125 60.695312 18.34375 60.777344 18.113281 C 60.859375 17.886719 60.964844 17.667969 61.09375 17.460938 C 61.222656 17.253906 61.367188 17.0625 61.535156 16.886719 C 61.703125 16.707031 61.886719 16.550781 62.085938 16.410156 C 62.285156 16.269531 62.496094 16.152344 62.71875 16.054688 C 62.941406 15.960938 63.171875 15.886719 63.410156 15.835938 C 63.648438 15.789062 63.890625 15.761719 64.132812 15.761719 C 64.375 15.761719 64.617188 15.789062 64.855469 15.835938 C 65.09375 15.886719 65.324219 15.960938 65.546875 16.054688 C 65.769531 16.152344 65.984375 16.269531 66.183594 16.410156 C 66.382812 16.550781 66.5625 16.707031 66.730469 16.886719 C 66.898438 17.0625 67.042969 17.253906 67.171875 17.460938 C 67.300781 17.667969 67.40625 17.886719 67.488281 18.113281 C 67.570312 18.34375 67.628906 18.578125 67.664062 18.820312 C 67.699219 19.058594 67.710938 19.300781 67.695312 19.542969 L 67.695312 37.417969 C 67.699219 38.019531 67.800781 38.605469 68 39.175781 C 68.199219 39.746094 68.488281 40.265625 68.863281 40.738281 C 69.242188 41.207031 69.683594 41.605469 70.195312 41.925781 C 70.707031 42.246094 71.257812 42.472656 71.84375 42.609375 C 72.433594 42.742188 73.027344 42.777344 73.625 42.710938 C 74.226562 42.644531 74.796875 42.480469 75.339844 42.222656 C 75.886719 41.960938 76.371094 41.617188 76.800781 41.195312 C 77.230469 40.769531 77.574219 40.285156 77.839844 39.742188 C 77.894531 39.617188 77.933594 39.484375 77.957031 39.347656 C 77.980469 39.210938 77.984375 39.074219 77.972656 38.9375 C 77.960938 38.796875 77.933594 38.664062 77.886719 38.53125 C 77.84375 38.402344 77.78125 38.277344 77.703125 38.164062 C 77.628906 38.046875 77.539062 37.945312 77.4375 37.851562 C 77.335938 37.757812 77.222656 37.679688 77.101562 37.613281 C 76.976562 37.546875 76.851562 37.5 76.714844 37.464844 C 76.582031 37.433594 76.445312 37.417969 76.304688 37.417969 Z M 32.214844 29.699219 L 26.320312 23.792969 C 27.207031 22.722656 28.1875 21.746094 29.261719 20.867188 C 30.339844 19.984375 31.492188 19.21875 32.71875 18.5625 C 33.945312 17.90625 35.222656 17.375 36.550781 16.972656 C 37.882812 16.566406 39.238281 16.292969 40.621094 16.152344 C 40.386719 17.496094 40.027344 18.808594 39.539062 20.085938 C 39.054688 21.359375 38.449219 22.578125 37.730469 23.738281 C 37.007812 24.898438 36.183594 25.980469 35.257812 26.984375 C 34.332031 27.988281 33.316406 28.890625 32.214844 29.699219 Z M 63.800781 33.746094 C 62.648438 33.628906 61.515625 33.417969 60.402344 33.113281 C 59.285156 32.8125 58.203125 32.421875 57.148438 31.941406 C 56.097656 31.464844 55.089844 30.902344 54.128906 30.261719 C 53.167969 29.617188 52.265625 28.902344 51.417969 28.113281 C 50.574219 27.324219 49.796875 26.472656 49.089844 25.558594 C 48.382812 24.644531 47.753906 23.679688 47.207031 22.660156 C 46.65625 21.644531 46.191406 20.589844 45.8125 19.496094 C 45.433594 18.40625 45.144531 17.289062 44.945312 16.152344 C 46.097656 16.269531 47.230469 16.480469 48.34375 16.785156 C 49.460938 17.085938 50.542969 17.476562 51.597656 17.957031 C 52.648438 18.433594 53.65625 18.996094 54.617188 19.636719 C 55.578125 20.28125 56.480469 20.996094 57.328125 21.785156 C 58.171875 22.574219 58.949219 23.425781 59.65625 24.339844 C 60.363281 25.253906 60.992188 26.21875 61.539062 27.238281 C 62.089844 28.253906 62.554688 29.308594 62.933594 30.402344 C 63.3125 31.492188 63.601562 32.609375 63.800781 33.746094 Z M 21.367188 16.023438 C 21.839844 16.027344 22.292969 16.117188 22.730469 16.300781 C 23.164062 16.484375 23.550781 16.742188 23.882812 17.074219 C 24.214844 17.410156 24.472656 17.796875 24.652344 18.230469 C 24.835938 18.667969 24.925781 19.121094 24.925781 19.59375 L 24.925781 20.007812 C 24.535156 20.410156 24.144531 20.839844 23.78125 21.265625 L 19.242188 16.742188 C 19.871094 16.265625 20.578125 16.027344 21.367188 16.023438 Z M 56.359375 53.859375 L 50.792969 48.289062 C 51.039062 47.785156 51.238281 47.261719 51.382812 46.71875 C 51.445312 46.453125 51.445312 46.1875 51.382812 45.921875 C 51.324219 45.65625 51.207031 45.417969 51.039062 45.207031 C 50.867188 44.996094 50.660156 44.828125 50.414062 44.714844 C 50.167969 44.597656 49.90625 44.542969 49.632812 44.542969 C 49.296875 44.546875 48.984375 44.636719 48.699219 44.820312 C 48.410156 45 48.195312 45.242188 48.050781 45.550781 L 34.753906 32.226562 C 36.53125 30.863281 38.101562 29.285156 39.453125 27.5 C 40.808594 25.710938 41.902344 23.777344 42.734375 21.695312 C 43.164062 22.777344 43.667969 23.824219 44.246094 24.835938 C 44.824219 25.847656 45.46875 26.816406 46.183594 27.738281 C 46.894531 28.660156 47.671875 29.527344 48.503906 30.339844 C 49.339844 31.152344 50.226562 31.902344 51.167969 32.589844 C 52.109375 33.28125 53.089844 33.898438 54.117188 34.449219 C 55.144531 35 56.207031 35.476562 57.300781 35.878906 C 58.394531 36.28125 59.511719 36.605469 60.648438 36.847656 C 61.789062 37.09375 62.9375 37.257812 64.101562 37.34375 L 64.101562 37.417969 C 64.105469 38.988281 63.933594 40.539062 63.59375 42.074219 C 63.253906 43.605469 62.75 45.082031 62.082031 46.503906 C 61.414062 47.925781 60.597656 49.257812 59.632812 50.496094 C 58.671875 51.738281 57.582031 52.859375 56.371094 53.859375 Z M 56.359375 53.859375 " fill-opacity="1" fill-rule="nonzero"/><path fill="#3f5141" d="M 42.734375 62.355469 C 46.234375 62.355469 49.585938 61.648438 52.789062 60.230469 L 50.035156 57.492188 C 49.234375 57.78125 48.414062 58.027344 47.582031 58.21875 C 46.75 58.414062 45.90625 58.558594 45.054688 58.648438 C 44.207031 58.742188 43.351562 58.785156 42.5 58.777344 C 41.644531 58.765625 40.792969 58.707031 39.941406 58.59375 C 39.09375 58.480469 38.257812 58.320312 37.429688 58.109375 C 36.597656 57.894531 35.785156 57.632812 34.988281 57.324219 C 34.191406 57.015625 33.417969 56.65625 32.664062 56.253906 C 31.90625 55.851562 31.179688 55.402344 30.480469 54.914062 C 29.777344 54.421875 29.109375 53.890625 28.472656 53.320312 C 27.835938 52.75 27.234375 52.144531 26.671875 51.5 C 26.109375 50.855469 25.582031 50.183594 25.101562 49.476562 C 24.617188 48.769531 24.179688 48.039062 23.785156 47.28125 C 23.386719 46.519531 23.039062 45.742188 22.738281 44.941406 C 22.4375 44.140625 22.183594 43.324219 21.980469 42.496094 C 21.777344 41.664062 21.625 40.824219 21.523438 39.972656 C 21.417969 39.125 21.367188 38.273438 21.367188 37.417969 L 21.367188 37.328125 C 23.773438 37.164062 26.109375 36.65625 28.367188 35.808594 L 25.550781 33.007812 C 24.289062 33.367188 23.003906 33.609375 21.695312 33.734375 C 21.925781 32.515625 22.253906 31.328125 22.6875 30.164062 L 19.933594 27.425781 C 18.515625 30.625 17.804688 33.976562 17.808594 37.480469 L 17.808594 25.25 L 14.253906 21.679688 L 14.253906 37.417969 C 14.25 37.816406 14.125 38.175781 13.878906 38.492188 C 13.632812 38.808594 13.316406 39.015625 12.933594 39.121094 C 12.546875 39.222656 12.167969 39.199219 11.796875 39.050781 C 11.425781 38.902344 11.140625 38.652344 10.933594 38.308594 C 10.796875 38.042969 10.601562 37.832031 10.347656 37.671875 C 10.089844 37.511719 9.816406 37.425781 9.515625 37.417969 L 9.199219 37.417969 C 9.0625 37.417969 8.925781 37.433594 8.792969 37.464844 C 8.65625 37.5 8.527344 37.546875 8.40625 37.613281 C 8.285156 37.679688 8.171875 37.757812 8.070312 37.851562 C 7.96875 37.945312 7.878906 38.046875 7.800781 38.164062 C 7.726562 38.277344 7.664062 38.402344 7.617188 38.53125 C 7.574219 38.664062 7.546875 38.796875 7.535156 38.9375 C 7.523438 39.074219 7.527344 39.210938 7.550781 39.347656 C 7.574219 39.484375 7.613281 39.617188 7.667969 39.742188 C 7.929688 40.285156 8.277344 40.769531 8.707031 41.195312 C 9.132812 41.617188 9.621094 41.960938 10.164062 42.222656 C 10.710938 42.480469 11.28125 42.644531 11.878906 42.710938 C 12.480469 42.777344 13.074219 42.742188 13.660156 42.609375 C 14.25 42.472656 14.800781 42.246094 15.308594 41.925781 C 15.820312 41.605469 16.265625 41.207031 16.640625 40.738281 C 17.019531 40.265625 17.304688 39.746094 17.507812 39.175781 C 17.707031 38.605469 17.808594 38.019531 17.808594 37.417969 C 17.8125 38.234375 17.851562 39.046875 17.929688 39.859375 C 18.011719 40.671875 18.132812 41.480469 18.292969 42.28125 C 18.449219 43.082031 18.648438 43.871094 18.886719 44.652344 C 19.125 45.433594 19.398438 46.203125 19.710938 46.957031 C 20.023438 47.710938 20.371094 48.445312 20.757812 49.167969 C 21.140625 49.886719 21.558594 50.585938 22.015625 51.265625 C 22.46875 51.945312 22.953125 52.597656 23.472656 53.230469 C 23.988281 53.859375 24.535156 54.464844 25.113281 55.042969 C 25.691406 55.621094 26.292969 56.167969 26.925781 56.6875 C 27.554688 57.203125 28.210938 57.691406 28.890625 58.144531 C 29.566406 58.597656 30.265625 59.015625 30.988281 59.402344 C 31.707031 59.789062 32.441406 60.136719 33.199219 60.449219 C 33.953125 60.761719 34.71875 61.039062 35.5 61.273438 C 36.28125 61.511719 37.070312 61.710938 37.871094 61.871094 C 38.671875 62.03125 39.480469 62.152344 40.292969 62.230469 C 41.105469 62.3125 41.917969 62.355469 42.734375 62.355469 Z M 42.734375 62.355469 " fill-opacity="1" fill-rule="nonzero"/><path fill="#3f5141" d="M 42.734375 53.441406 C 43.6875 53.441406 44.617188 53.292969 45.523438 52.992188 L 42.394531 49.859375 C 41.828125 49.828125 41.28125 49.703125 40.75 49.496094 C 40.222656 49.285156 39.742188 48.996094 39.304688 48.632812 C 38.867188 48.269531 38.5 47.847656 38.199219 47.363281 C 37.898438 46.882812 37.679688 46.367188 37.542969 45.8125 C 37.433594 45.433594 37.222656 45.128906 36.902344 44.894531 C 36.585938 44.660156 36.230469 44.546875 35.835938 44.558594 C 35.5625 44.554688 35.300781 44.609375 35.054688 44.726562 C 34.808594 44.84375 34.601562 45.007812 34.429688 45.21875 C 34.261719 45.429688 34.144531 45.671875 34.085938 45.933594 C 34.023438 46.199219 34.023438 46.464844 34.085938 46.730469 C 34.207031 47.207031 34.367188 47.671875 34.566406 48.121094 C 34.765625 48.574219 35 49.003906 35.269531 49.414062 C 35.539062 49.828125 35.839844 50.214844 36.175781 50.574219 C 36.507812 50.9375 36.871094 51.269531 37.257812 51.570312 C 37.648438 51.875 38.058594 52.140625 38.492188 52.375 C 38.925781 52.609375 39.375 52.804688 39.839844 52.964844 C 40.304688 53.125 40.78125 53.242188 41.265625 53.324219 C 41.753906 53.402344 42.242188 53.445312 42.734375 53.441406 Z M 42.734375 53.441406 " fill-opacity="1" fill-rule="nonzero"/><path fill="#3f5141" d="M 42.734375 65.925781 C 38.066406 65.925781 33.660156 64.847656 29.523438 62.679688 C 29.132812 62.464844 28.714844 62.359375 28.265625 62.355469 L 24.421875 62.355469 C 23.953125 62.355469 23.488281 62.398438 23.03125 62.492188 C 22.570312 62.582031 22.125 62.71875 21.695312 62.898438 C 21.261719 63.074219 20.851562 63.296875 20.460938 63.554688 C 20.074219 63.816406 19.714844 64.109375 19.382812 64.441406 C 19.050781 64.773438 18.757812 65.132812 18.496094 65.523438 C 18.234375 65.910156 18.015625 66.320312 17.835938 66.753906 C 17.660156 67.1875 17.523438 67.632812 17.433594 68.089844 C 17.339844 68.550781 17.292969 69.011719 17.292969 69.480469 C 17.292969 69.714844 17.339844 69.941406 17.429688 70.160156 C 17.519531 70.375 17.648438 70.566406 17.8125 70.734375 C 17.980469 70.902344 18.171875 71.027344 18.390625 71.117188 C 18.605469 71.207031 18.832031 71.253906 19.066406 71.253906 C 19.300781 71.253906 19.527344 71.207031 19.746094 71.117188 C 19.960938 71.027344 20.152344 70.902344 20.320312 70.734375 C 20.488281 70.566406 20.613281 70.375 20.703125 70.160156 C 20.792969 69.941406 20.839844 69.714844 20.839844 69.480469 C 20.839844 69.007812 20.929688 68.554688 21.109375 68.117188 C 21.292969 67.679688 21.550781 67.296875 21.886719 66.960938 C 22.21875 66.628906 22.605469 66.371094 23.042969 66.191406 C 23.480469 66.011719 23.9375 65.921875 24.410156 65.925781 L 27.488281 65.925781 C 27.878906 65.925781 28.246094 66.015625 28.59375 66.1875 C 30.792969 67.269531 33.089844 68.089844 35.476562 68.648438 C 37.867188 69.203125 40.289062 69.480469 42.742188 69.480469 C 45.195312 69.480469 47.613281 69.203125 50.003906 68.648438 C 52.390625 68.089844 54.6875 67.269531 56.886719 66.1875 C 57.238281 66.011719 57.613281 65.925781 58.003906 65.925781 L 58.46875 65.925781 L 55.464844 62.90625 C 51.460938 64.921875 47.21875 65.929688 42.734375 65.925781 Z M 42.734375 65.925781 " fill-opacity="1" fill-rule="nonzero"/></svg>