<svg xmlns="http://www.w3.org/2000/svg" xmlns:xlink="http://www.w3.org/1999/xlink" width="122" zoomAndPan="magnify" viewBox="0 0 91.5 91.499997" height="122" preserveAspectRatio="xMidYMid meet" version="1.2"><defs><clipPath id="38f86b1028"><path d="M 0 0 L 90.257812 0 L 90.257812 90.257812 L 0 90.257812 Z M 0 0 "/></clipPath><clipPath id="763d8913c9"><path d="M 22.378906 0 L 67.878906 0 C 80.238281 0 90.257812 10.019531 90.257812 22.378906 L 90.257812 67.878906 C 90.257812 80.238281 80.238281 90.257812 67.878906 90.257812 L 22.378906 90.257812 C 10.019531 90.257812 0 80.238281 0 67.878906 L 0 22.378906 C 0 10.019531 10.019531 0 22.378906 0 Z M 22.378906 0 "/></clipPath><clipPath id="4fb491c46c"><path d="M 22.757812 22.757812 L 67.492188 22.757812 L 67.492188 67.492188 L 22.757812 67.492188 Z M 22.757812 22.757812 "/></clipPath><clipPath id="39d0a9e844"><path d="M 45.125 22.757812 C 32.773438 22.757812 22.757812 32.773438 22.757812 45.125 C 22.757812 57.476562 32.773438 67.492188 45.125 67.492188 C 57.476562 67.492188 67.492188 57.476562 67.492188 45.125 C 67.492188 32.773438 57.476562 22.757812 45.125 22.757812 Z M 45.125 22.757812 "/></clipPath><clipPath id="71b5ac0887"><path d="M 67.5 15.582031 L 74.675781 15.582031 L 74.675781 22.757812 L 67.5 22.757812 Z M 67.5 15.582031 "/></clipPath><clipPath id="a59dca5cca"><path d="M 71.085938 15.582031 C 69.105469 15.582031 67.5 17.1875 67.5 19.167969 C 67.5 21.152344 69.105469 22.757812 71.085938 22.757812 C 73.070312 22.757812 74.675781 21.152344 74.675781 19.167969 C 74.675781 17.1875 73.070312 15.582031 71.085938 15.582031 Z M 71.085938 15.582031 "/></clipPath><clipPath id="fba0ffbb3b"><path d="M 0.5 0.582031 L 7.675781 0.582031 L 7.675781 7.757812 L 0.5 7.757812 Z M 0.5 0.582031 "/></clipPath><clipPath id="e7e968d3cf"><path d="M 4.085938 0.582031 C 2.105469 0.582031 0.5 2.1875 0.5 4.167969 C 0.5 6.152344 2.105469 7.757812 4.085938 7.757812 C 6.070312 7.757812 7.675781 6.152344 7.675781 4.167969 C 7.675781 2.1875 6.070312 0.582031 4.085938 0.582031 Z M 4.085938 0.582031 "/></clipPath><clipPath id="14c7de57ef"><rect x="0" width="8" y="0" height="8"/></clipPath></defs><g id="18f2fb9d14"><g clip-rule="nonzero" clip-path="url(#38f86b1028)"><g clip-rule="nonzero" clip-path="url(#763d8913c9)"><path style="fill:none;stroke-width:10;stroke-linecap:butt;stroke-linejoin:miter;stroke:#eef4ee;stroke-opacity:1;stroke-miterlimit:4;" d="M 30.001596 -0.000000000000028422 L 90.999783 -0.000000000000028422 C 107.569002 -0.000000000000028422 121.001381 13.432379 121.001381 30.001598 L 121.001381 90.999785 C 121.001381 107.569004 107.569002 121.001383 90.999783 121.001383 L 30.001596 121.001383 C 13.432377 121.001383 -0.00000201093 107.569004 -0.00000201093 90.999785 L -0.00000201093 30.001598 C -0.00000201093 13.432379 13.432377 -0.000000000000028422 30.001596 -0.000000000000028422 Z M 30.001596 -0.000000000000028422 " transform="matrix(0.745924,0,0,0.745924,0.0000015,0.0000000000000212)"/></g></g><g clip-rule="nonzero" clip-path="url(#4fb491c46c)"><g clip-rule="nonzero" clip-path="url(#39d0a9e844)"><path style="fill:none;stroke-width:10;stroke-linecap:butt;stroke-linejoin:miter;stroke:#eef4ee;stroke-opacity:1;stroke-miterlimit:4;" d="M 29.984689 -0.00119425 C 13.425945 -0.00119425 -0.00119626 13.425947 -0.00119626 29.984691 C -0.00119626 46.543436 13.425945 59.970577 29.984689 59.970577 C 46.543434 59.970577 59.970575 46.543436 59.970575 29.984691 C 59.970575 13.425947 46.543434 -0.00119425 29.984689 -0.00119425 Z M 29.984689 -0.00119425 " transform="matrix(0.745924,0,0,0.745924,22.758705,22.758703)"/></g></g><g clip-rule="nonzero" clip-path="url(#71b5ac0887)"><g clip-rule="nonzero" clip-path="url(#a59dca5cca)"><g transform="matrix(1,0,0,1,67,15)"><g clip-path="url(#14c7de57ef)"><g clip-rule="nonzero" clip-path="url(#fba0ffbb3b)"><g clip-rule="nonzero" clip-path="url(#e7e968d3cf)"><path style=" stroke:none;fill-rule:nonzero;fill:#eef4ee;fill-opacity:1;" d="M 0.5 0.582031 L 7.675781 0.582031 L 7.675781 7.757812 L 0.5 7.757812 Z M 0.5 0.582031 "/></g></g></g></g></g></g></g></svg>