<svg width="46" height="33" viewBox="0 0 46 33" fill="none" xmlns="http://www.w3.org/2000/svg">
<mask id="mask0_1312_476" style="mask-type:luminance" maskUnits="userSpaceOnUse" x="0" y="0" width="46" height="33">
<path d="M0.239258 0.949951H45.3224V32.4671H0.239258V0.949951Z" fill="white"/>
</mask>
<g mask="url(#mask0_1312_476)">
<path fill-rule="evenodd" clip-rule="evenodd" d="M3.98339 0.949951H41.5783C42.5734 0.949951 43.5201 1.37002 44.2228 2.11697C44.9268 2.86392 45.3224 3.86922 45.3224 4.92592V28.4918C45.3224 29.5492 44.9268 30.5538 44.2228 31.3015C43.5201 32.0477 42.5734 32.4678 41.5783 32.4678H3.98339C2.98831 32.4678 2.04227 32.0477 1.33888 31.3015C0.634838 30.5538 0.239258 29.5492 0.239258 28.4918V4.92592C0.239258 3.86922 0.634838 2.86392 1.33888 2.11697C2.04227 1.37002 2.98831 0.949951 3.98339 0.949951ZM41.5783 3.15928H3.98339C3.54135 3.15928 3.12189 3.34773 2.80956 3.6794C2.49722 4.01107 2.32041 4.45582 2.32041 4.92592V28.4918C2.32041 28.9619 2.49722 29.4067 2.80956 29.7383C3.12189 30.0707 3.54135 30.2585 3.98339 30.2585H41.5783C42.021 30.2585 42.4398 30.0707 42.7521 29.7383C43.0645 29.4067 43.2419 28.9619 43.2419 28.4918V4.92592C43.2419 4.45582 43.0645 4.01107 42.7521 3.6794C42.4398 3.34773 42.021 3.15928 41.5783 3.15928Z" fill="#EEF4EE"/>
<path d="M45.3224 7.69219V14.2301H0.239258V6.86475H45.3224V7.69219Z" fill="#EEF4EE"/>
<path d="M7.91602 17.9126C8.42432 17.9126 8.91435 18.0059 9.36914 18.1771C9.40895 18.1924 9.44875 18.2077 9.4879 18.2244C9.31499 18.359 9.15056 18.5055 8.99526 18.6648C8.07196 19.6075 7.55714 20.8759 7.55714 22.209C7.55714 23.5421 8.07196 24.8106 8.99526 25.7533C9.15056 25.9125 9.31499 26.0598 9.4879 26.1944C9.44875 26.2103 9.40895 26.2257 9.36914 26.241C8.91435 26.4122 8.42432 26.5055 7.91602 26.5055C6.7539 26.5055 5.70141 26.0245 4.94059 25.2477C4.17846 24.4695 3.70801 23.3956 3.70801 22.209C3.70801 21.0232 4.17846 19.9486 4.94059 19.1711C5.70141 18.3936 6.7539 17.9126 7.91602 17.9126Z" fill="#EEF4EE"/>
<path d="M9.51749 19.1711C10.2503 18.3936 11.2616 17.9126 12.3783 17.9126C13.4957 17.9126 14.5076 18.3936 15.2391 19.1711C15.9713 19.9486 16.4249 21.0232 16.4249 22.209C16.4249 23.3956 15.9713 24.4695 15.2391 25.2477C14.5076 26.0245 13.4957 26.5055 12.3783 26.5055C11.2616 26.5055 10.2503 26.0245 9.51749 25.2477C8.78597 24.4695 8.33301 23.3956 8.33301 22.209C8.33301 21.0232 8.78597 19.9486 9.51749 19.1711Z" fill="#EEF4EE"/>
<path fill-rule="evenodd" clip-rule="evenodd" d="M20.8758 21.5952H25.336C25.8788 21.5952 26.3193 22.1449 26.3193 22.8224C26.3193 23.5007 25.8788 24.0503 25.336 24.0503H20.8758C20.333 24.0503 19.8926 23.5007 19.8926 22.8224C19.8926 22.1449 20.333 21.5952 20.8758 21.5952ZM28.6446 21.5952H33.1048C33.6476 21.5952 34.088 22.1449 34.088 22.8224C34.088 23.5007 33.6476 24.0503 33.1048 24.0503H28.6446C28.1018 24.0503 27.6614 23.5007 27.6614 22.8224C27.6614 22.1449 28.1018 21.5952 28.6446 21.5952ZM36.4134 21.5952H40.8729C41.4164 21.5952 41.8562 22.1449 41.8562 22.8224C41.8562 23.5007 41.4164 24.0503 40.8729 24.0503H36.4134C35.8706 24.0503 35.4295 23.5007 35.4295 22.8224C35.4295 22.1449 35.8706 21.5952 36.4134 21.5952Z" fill="#EEF4EE"/>
</g>
</svg>
