<svg width="45" height="41" viewBox="0 0 45 41" fill="none" xmlns="http://www.w3.org/2000/svg">
<g clip-path="url(#clip0_520_1042)">
<path d="M0.710751 40.8335C0.240722 40.6217 -0.0670398 40.1018 0.0125091 39.6541C0.0640545 39.364 2.97057 30.1715 3.13611 29.7751C3.23803 29.5309 4.17944 28.589 4.32149 28.589C4.37691 28.589 6.49898 30.4803 9.0372 32.7918L13.6522 36.9945L13.0843 37.5162C12.7508 37.8226 12.3703 38.0875 12.1624 38.1581C11.538 38.3703 1.451 41.0001 1.26205 41C1.16194 41 0.913848 40.925 0.710751 40.8335ZM10.841 31.0712L6.18072 26.8272L17.3705 16.6384L28.5603 6.44948L33.221 10.6933L37.8817 14.9371L26.6915 25.1261L15.5013 35.3152L10.841 31.0712ZM35.1112 8.97012L30.451 4.72511L32.9572 2.45233C35.0697 0.536582 35.5221 0.163743 35.8371 0.0789124C36.6329 -0.135381 36.5507 -0.195342 40.9311 3.79301C44.4592 7.00528 44.9109 7.44468 44.9656 7.71819C45.0921 8.34974 45.0029 8.45679 42.3023 10.9132L39.7715 13.2151L35.1112 8.97012Z" fill="#2A322B"/>
</g>
<defs>
<clipPath id="clip0_520_1042">
<rect width="45" height="41" fill="white"/>
</clipPath>
</defs>
</svg>
