<?xml version="1.0" encoding="UTF-8" standalone="no"?>
<!-- Created with Inkscape (http://www.inkscape.org/) -->

<svg
   width="123.64897mm"
   height="84.362885mm"
   viewBox="0 0 123.64897 84.362885"
   version="1.1"
   id="svg5"
   xml:space="preserve"
   xmlns:inkscape="http://www.inkscape.org/namespaces/inkscape"
   xmlns:sodipodi="http://sodipodi.sourceforge.net/DTD/sodipodi-0.dtd"
   xmlns="http://www.w3.org/2000/svg"
   xmlns:svg="http://www.w3.org/2000/svg"><sodipodi:namedview
     id="namedview7"
     pagecolor="#ffffff"
     bordercolor="#000000"
     borderopacity="0.25"
     inkscape:showpageshadow="2"
     inkscape:pageopacity="0.0"
     inkscape:pagecheckerboard="0"
     inkscape:deskcolor="#d1d1d1"
     inkscape:document-units="mm"
     showgrid="false" /><defs
     id="defs2" /><g
     inkscape:label="Camada 1"
     inkscape:groupmode="layer"
     id="layer1"
     transform="translate(-18.64124,-101.50026)"><g
       id="g12282"><path
         id="path1582"
         style="fill:#2a322b;fill-opacity:1;stroke-width:0.264583"
         d="m 80.141878,101.5044 c -3.350031,0.0273 -6.717178,0.18913 -8.583972,0.47335 -4.798705,0.73067 -13.229167,2.85438 -13.229167,3.33262 0,0.0883 2.667849,2.8647 5.928837,6.16965 l 5.920569,6.00015 a 28.200001,28.200001 0 0 1 2.656169,-0.88729 c 0.373138,-0.10941 0.747909,-0.20819 1.123962,-0.30127 a 28.200001,28.200001 0 0 1 0.457337,-0.11162 c 7.345923,-1.68466 15.165936,-0.28051 21.748543,3.99924 0.314608,0.20454 0.677195,0.47688 1.0604,0.78135 a 28.200001,28.200001 0 0 1 6.076634,6.08076 c 0.29708,0.37492 0.56208,0.72902 0.76274,1.03766 0.84397,1.2981 1.57306,2.6469 2.1916,4.03077 a 28.200001,28.200001 0 0 1 0.154,0.34313 c 1.5e-4,3.5e-4 3.6e-4,6.8e-4 5.1e-4,0.001 a 28.200001,28.200001 0 0 1 0.002,0.004 28.200001,28.200001 0 0 1 2.1208,7.75612 c 0.005,0.0417 0.009,0.0834 0.0145,0.12506 a 28.200001,28.200001 0 0 1 0.0662,0.60048 c 0.01,0.10004 0.0185,0.20012 0.0274,0.30024 a 28.200001,28.200001 0 0 1 0.0357,0.43563 c 0.01,0.13535 0.0179,0.27074 0.0258,0.40618 a 28.200001,28.200001 0 0 1 0.016,0.2961 c 0.008,0.1712 0.0147,0.3424 0.0196,0.51367 a 28.200001,28.200001 0 0 1 0.005,0.1912 c 0.004,0.19014 0.007,0.38036 0.007,0.57051 a 28.200001,28.200001 0 0 1 5.2e-4,0.047 28.200001,28.200001 0 0 1 -10e-4,0.0264 c -6.3e-4,0.69019 -0.0247,1.38008 -0.077,2.06861 a 28.200001,28.200001 0 0 1 -0.001,0.0186 c -0.0484,0.63149 -0.12077,1.26147 -0.21291,1.88929 a 28.200001,28.200001 0 0 1 -0.062,0.40773 c -0.0734,0.45271 -0.15992,0.90382 -0.25632,1.3534 a 28.200001,28.200001 0 0 1 -1.36942,4.60851 l 8.1163,8.13955 c 4.47295,4.48585 8.23351,8.1657 8.35659,8.1778 0.12308,0.0121 1.77284,-1.49583 3.66645,-3.35122 5.78326,-5.66653 9.60431,-10.84037 13.09687,-17.73432 2.84858,-5.62281 2.79737,-5.22341 1.13482,-8.90178 -2.41589,-5.34507 -6.37656,-11.51782 -10.19886,-15.89567 -2.23007,-2.5542 -6.4123,-6.57695 -8.98137,-8.63823 -9.26319,-7.43238 -20.69201,-12.24197 -33.337499,-14.03015 -1.798639,-0.25435 -5.131619,-0.36168 -8.481653,-0.33435 z m -32.034737,8.28373 a 65.948477,65.948477 0 0 0 -8.607226,5.68337 l 0.08165,0.0816 -1.805057,1.46141 c -1.72153,1.39397 -4.987388,4.6145 -7.322034,7.15409 a 34.59063,34.59063 0 0 1 1.821077,0.14624 h -1.952852 c -0.706118,0.77228 -1.330336,1.48381 -1.778186,2.04432 -2.671608,3.34372 -5.68437,8.13098 -7.81141,12.41165 -1.150419,2.31524 -2.091862,4.52855 -2.091862,4.91856 0,0.39001 0.941443,2.60336 2.091862,4.91856 6.769208,13.62303 17.083793,23.92662 30.58418,30.55163 6.560882,3.21957 13.592979,5.34857 21.034375,6.36757 3.231921,0.44258 13.159924,0.44942 16.271875,0.0114 1.099966,-0.15484 2.194042,-0.3327 3.276286,-0.53124 v -0.0496 a 65.948477,65.948477 0 0 0 4.993494,-1.03869 c 1.561261,-0.39673 3.073043,-0.83644 4.512387,-1.31517 l 2.10426,-0.70021 a 65.948477,65.948477 0 0 0 11.34504,-5.36867 l -13.64361,-13.64309 a 28.200001,28.200001 0 0 1 -8.197944,6.09523 l 0.01292,0.0129 -0.147278,0.0579 a 28.200001,28.200001 0 0 1 -10.519254,2.77451 c -4.73947,0.38229 -9.472543,-0.53825 -13.779521,-2.60863 a 28.200001,28.200001 0 0 1 -11.956379,-10.635 c -0.105761,-0.16655 -0.212807,-0.33251 -0.31471,-0.50075 a 28.200001,28.200001 0 0 1 -0.299723,-0.51263 c -2.399867,-4.16039 -3.63995,-8.80475 -3.648356,-13.56919 a 28.200001,28.200001 0 0 1 -0.01137,-0.30593 28.200001,28.200001 0 0 1 2.803963,-12.25765 l 0.0894,-0.22582 0.01964,0.0196 a 28.200001,28.200001 0 0 1 6.095235,-8.19743 z m 32.442464,17.06201 a 16.85,16.85 0 0 0 -0.734839,0.0362 l 8.676473,8.70851 8.863542,8.89662 0.02325,-0.34778 a 16.85,16.85 0 0 0 0.0217,-0.44339 16.85,16.85 0 0 0 -7.903394,-14.27768 c -0.04262,-0.0263 -0.08477,-0.0532 -0.127641,-0.0791 a 16.85,16.85 0 0 0 -0.457853,-0.27131 c -1.808616,-1.01726 -3.821392,-1.71868 -5.955709,-2.04742 a 16.85,16.85 0 0 0 -2.405538,-0.17466 z m -11.143506,4.23643 a 16.85,16.85 0 0 0 -5.706628,12.6137 16.85,16.85 0 0 0 1.954403,7.86774 c 0.02781,0.0517 0.05487,0.10364 0.0832,0.15503 a 16.85,16.85 0 0 0 0.665075,1.10949 c 0.105297,0.16215 0.213982,0.32188 0.324528,0.48059 a 16.85,16.85 0 0 0 0.647506,0.87385 c 0.09224,0.11652 0.185446,0.2321 0.280603,0.34623 a 16.85,16.85 0 0 0 0.979269,1.08056 16.85,16.85 0 0 0 0.0031,0.003 16.85,16.85 0 0 0 5.31027,3.57808 c 0.09384,0.0396 0.187523,0.0803 0.281637,0.11834 a 16.85,16.85 0 0 0 1.412317,0.50539 c 0.01121,0.004 0.02238,0.007 0.03359,0.0103 a 16.85,16.85 0 0 0 4.874638,0.7214 16.85,16.85 0 0 0 12.613701,-5.70611 L 81.277726,142.9582 Z" /><circle
         style="fill:#2a322b;fill-opacity:1;stroke-width:0.227709"
         id="path4485-7-1-0"
         cx="80.618004"
         cy="143.701"
         r="16.85" /><path
         id="path4485-7-1-0-9"
         style="fill:#2a322b;fill-opacity:1;stroke-width:0.89122"
         d="m 114.23592,140.34492 -5.69474,6.61975 a 28.200001,28.200001 0 0 1 -20.581691,23.92464 l -12.636438,14.68903 a 65.948477,65.948477 0 0 0 5.757271,0.27802 65.948477,65.948477 0 0 0 54.396678,-28.66751 32.512901,32.512901 0 0 1 -21.24108,-16.84393 z" /><path
         id="path4485-7-1-0-9-5-5"
         style="fill:#2a322b;fill-opacity:1;stroke-width:0.89122"
         d="m 80.008553,101.52869 a 65.948477,65.948477 0 0 0 -49.694124,22.63014 34.59063,34.59063 0 0 1 23.437329,10.81174 28.200001,28.200001 0 0 1 19.374011,-18.46967 l 12.640572,-14.69419 a 65.948477,65.948477 0 0 0 -5.757788,-0.27802 z" /><path
         style="fill:#2a322b;fill-opacity:1;stroke-width:0.264583"
         d="m 30.53666,124.08453 c -0.0033,0.0133 -0.0049,0.0272 -0.01,0.04 -0.01664,0.0416 -0.0333,0.061 -0.04995,0.0999 -0.01603,0.0374 -0.02334,0.0866 -0.03996,0.11987 -0.0054,0.0108 -0.01553,0.0188 -0.01998,0.03 -0.02793,0.0698 0.04627,-0.0485 -0.01,0.0499 -0.0083,0.0144 -0.02252,0.025 -0.02997,0.04 -0.003,0.006 0.0024,0.0138 0,0.02 -0.0083,0.0207 -0.04778,0.0632 -0.02997,0.0899 0.01535,0.023 0.07454,5.3e-4 0.07991,0 0.102949,-0.009 0.197596,-0.0229 0.299672,-0.04 0.0709,-0.0118 0.138446,-0.041 0.209769,-0.0499 0.07599,-0.009 0.153168,0 0.229751,0 0.199782,0 0.399564,0 0.599345,0 0.07827,0 0.162089,0.009 0.239739,0 0.01048,-0.001 0.0195,-0.009 0.02997,-0.01 0.01987,-0.002 0.04034,0.004 0.05993,0 0.0146,-0.003 0.02569,-0.0157 0.03996,-0.02 0.07685,-0.023 0.188904,-0.0245 0.259717,-0.0599 0.01841,-0.009 0.0087,-0.10677 0,-0.11987 -0.03116,-0.0467 -0.06373,-0.0338 -0.09989,-0.0699 -0.03395,-0.034 -0.02492,-0.0116 -0.07991,-0.03 -0.01413,-0.005 -0.02664,-0.0133 -0.03995,-0.02 -0.02664,-0.003 -0.05401,-0.003 -0.07991,-0.01 -0.01159,-0.003 -0.01842,-0.0167 -0.02997,-0.02 -0.01281,-0.004 -0.02672,0.002 -0.03995,0 -0.09973,-0.0111 -0.198676,-0.01 -0.299675,-0.01 -0.05491,0 -0.125579,0.012 -0.179803,0 -0.02056,-0.005 -0.03909,-0.017 -0.05993,-0.02 -0.07186,-0.0103 -0.157091,0 -0.22975,0 -0.04369,0 -0.07654,-0.005 -0.11987,-0.01 -0.02315,-0.003 -0.04781,0.007 -0.06992,0 -0.01514,-0.005 -0.03227,-0.0264 -0.04995,-0.03 -0.0098,-0.002 -0.02048,0.003 -0.02997,0 -0.01138,-0.004 -0.01857,-0.0162 -0.02997,-0.02 -0.04613,-0.0154 -0.108635,0.0208 -0.149836,0.03 -0.07173,0.0159 -0.148513,-0.0138 -0.21976,0.01"
         id="path12195" /><path
         style="fill:#2a322b;fill-opacity:1;stroke-width:0.264583"
         d="m 30.353111,124.14946 c -0.01987,0.0421 -0.04123,0.0835 -0.05369,0.1286 -0.0047,0.0171 -0.0098,0.04 -0.01373,0.0574 -0.0048,0.0213 -0.0094,0.0419 -0.01125,0.0637 -5.29e-4,0.007 -5.29e-4,0.0172 0.0013,0.0175 0.0045,8e-4 0.0092,0 0.01373,0 0.01916,0 0.03829,0 0.05744,0 0.04479,0 0.08917,0.004 0.131109,-0.015 0.01971,-0.009 0.02952,-0.0298 0.0437,-0.045 0.019,-0.0203 0.05061,-0.0377 0.05619,-0.0674 0.0013,-0.007 2.64e-4,-0.015 0,-0.0225 -0.0011,-0.0255 -0.0061,-0.0326 -0.01998,-0.0537 -0.0038,-0.006 -0.0072,-0.0118 -0.01125,-0.0175 -0.0067,-0.009 -0.0068,-0.007 -0.01373,-0.015 -0.01614,-0.0182 0.0235,0.021 -0.01625,-0.0187 -0.0066,-0.007 -0.01426,-0.0125 -0.02122,-0.0187 -0.0019,-0.002 -0.0031,-0.004 -0.005,-0.005 -0.0048,-0.004 -0.01191,-0.008 -0.01749,-0.01 -0.0016,-8e-4 -0.0034,-5.3e-4 -0.005,-10e-4 -0.01415,-0.006 0.01643,0.002 -0.01498,-0.006 -0.0032,-7.9e-4 -0.0067,0 -0.01,0 -0.01029,0 -0.02109,-5.3e-4 -0.03122,10e-4 -0.0034,5.3e-4 -0.0066,0.002 -0.01,0.002 -0.01455,0.003 -0.04278,0.009 -0.05369,0.02"
         id="path12266" /></g></g></svg>
