<svg width="40" height="51" viewBox="0 0 40 51" fill="none" xmlns="http://www.w3.org/2000/svg">
<g clip-path="url(#clip0_520_1036)">
<path d="M7.76478 49.9659C7.21827 49.3971 6.6722 48.4217 6.55131 47.7984C6.22701 46.1262 2.19457 14.827 2.19457 13.982C2.19457 13.3717 4.94892 13.26 20 13.26C35.1277 13.26 37.8055 13.3697 37.8055 13.9886C37.8055 14.8678 33.8037 45.5565 33.4252 47.58C33.2785 48.3637 32.7273 49.4539 32.2001 50.0025C31.3026 50.9365 30.5261 51 20 51C9.33836 51 8.70719 50.9466 7.76478 49.9659ZM12.2387 42.5354C12.2387 40.6958 9.49718 17.7487 9.21688 17.242C8.79419 16.478 7.67317 16.8225 7.67317 17.7164C7.67317 18.9442 10.4147 42.4362 10.6498 43.2225C11.0145 44.4427 12.2387 43.9133 12.2387 42.5354ZM17.7696 36.4537C17.6728 32.5329 17.4674 26.5735 17.3131 23.2107C17.0625 17.7514 16.9398 17.0765 16.1675 16.9116C15.333 16.7333 15.3134 17.1016 15.6125 27.3609C16.0255 41.5276 16.2618 43.9545 17.208 43.7454C17.8551 43.6024 17.924 42.7084 17.7696 36.4537ZM23.814 40.4175C23.9678 38.5241 24.2303 32.4424 24.3974 26.9025C24.6757 17.6749 24.6369 16.83 23.9342 16.83C23.5124 16.83 23.0864 17.1169 22.9877 17.4675C22.6825 18.5514 21.8462 42.9736 22.0987 43.4299C22.2295 43.6665 22.6062 43.86 22.9356 43.86C23.3429 43.86 23.6238 42.7593 23.814 40.4175ZM30.8104 31.6131C32.5115 17.5819 32.5551 16.83 31.669 16.83C31.3072 16.83 30.9086 17.0154 30.7832 17.242C30.4994 17.7549 27.7614 40.7071 27.7614 42.5727C27.7614 43.595 27.9605 43.8919 28.5598 43.763C29.2417 43.6163 29.57 41.8441 30.8104 31.6131ZM0.123052 10.6792C-0.406328 9.72238 0.863451 7.24591 2.20073 6.62715C2.91435 6.29696 3.85307 5.58876 4.28678 5.0534C4.95562 4.22781 5.72328 4.08 9.34185 4.08C13.3039 4.08 13.6083 4.00734 13.6083 3.06C13.6083 2.49901 14.0192 1.581 14.5214 1.02C15.3128 0.136003 16.0433 0 20 0C23.9568 0 24.6873 0.13608 25.4786 1.02C25.9808 1.581 26.3917 2.49901 26.3917 3.06C26.3917 4.00724 26.6961 4.08 30.6582 4.08C34.2768 4.08 35.0444 4.22785 35.7133 5.0534C36.147 5.58876 37.0857 6.29696 37.7993 6.62715C39.1366 7.24591 40.4064 9.72238 39.877 10.6792C39.4593 11.4343 0.54079 11.4343 0.123052 10.6792ZM24.4786 3.1875C24.3451 2.41241 23.7558 2.29501 20 2.29501C16.2442 2.29501 15.6551 2.41239 15.5214 3.1875C15.383 3.99014 15.8339 4.08 20 4.08C24.1661 4.08 24.617 3.99018 24.4786 3.1875Z" fill="#2A322B"/>
</g>
<defs>
<clipPath id="clip0_520_1036">
<rect width="40" height="51" fill="white"/>
</clipPath>
</defs>
</svg>
