<?xml version="1.0" encoding="UTF-8" standalone="no"?>
<!-- Created with Inkscape (http://www.inkscape.org/) -->

<svg
   width="135.39514mm"
   height="135.47841mm"
   viewBox="0 0 135.39514 135.47841"
   version="1.1"
   id="svg5"
   xml:space="preserve"
   xmlns:inkscape="http://www.inkscape.org/namespaces/inkscape"
   xmlns:sodipodi="http://sodipodi.sourceforge.net/DTD/sodipodi-0.dtd"
   xmlns="http://www.w3.org/2000/svg"
   xmlns:svg="http://www.w3.org/2000/svg"><sodipodi:namedview
     id="namedview7"
     pagecolor="#ffffff"
     bordercolor="#000000"
     borderopacity="0.25"
     inkscape:showpageshadow="2"
     inkscape:pageopacity="0.0"
     inkscape:pagecheckerboard="0"
     inkscape:deskcolor="#d1d1d1"
     inkscape:document-units="mm"
     showgrid="false" /><defs
     id="defs2" /><g
     inkscape:label="Camada 1"
     inkscape:groupmode="layer"
     id="layer1"
     transform="translate(-34.940862,-54.309496)"><path
       style="fill:#ffffff;fill-opacity:1;stroke-width:0.264583"
       d="m 37.079357,189.23774 c -1.414213,-0.70003 -2.340202,-2.41781 -2.100857,-3.89725 0.155089,-0.95864 8.900171,-31.3338 9.398216,-32.64376 0.30668,-0.80663 3.139162,-3.91903 3.566567,-3.91903 0.166746,0 6.551591,6.24927 14.188546,13.88726 l 13.885371,13.88726 -1.70857,1.7239 c -1.0034,1.0124 -2.14823,1.88792 -2.77382,2.12131 -1.87871,0.70091 -32.228204,9.39069 -32.796702,9.39048 -0.301238,-1.2e-4 -1.047676,-0.24769 -1.658751,-0.55017 z M 67.55902,156.97965 53.5373,142.95606 87.2049,109.28847 120.87251,75.62086 134.89555,89.643906 148.9186,103.66695 115.24967,137.3351 81.58074,171.00325 Z m 73.02382,-73.029711 -14.02161,-14.027028 7.54063,-7.510056 c 6.35606,-6.330302 7.71726,-7.562296 8.6651,-7.842605 2.39436,-0.708099 2.14692,-0.906232 15.32675,12.272683 10.61519,10.614463 11.97409,12.066414 12.13892,12.970196 0.3806,2.086853 0.1121,2.440582 -8.01355,10.557437 l -7.61463,7.6064 z"
       id="path125" /></g></svg>
