<svg xmlns="http://www.w3.org/2000/svg" xmlns:xlink="http://www.w3.org/1999/xlink" width="115" zoomAndPan="magnify" viewBox="0 0 86.25 86.249996" height="115" preserveAspectRatio="xMidYMid meet" version="1.0"><path fill="#3f5141" d="M 18.375 37.945312 C 12.765625 38.40625 8.140625 43.199219 7.023438 48.546875 C 6.457031 51.242188 6.734375 54.144531 6.734375 56.886719 L 6.734375 63.144531 C 6.734375 63.996094 6.710938 64.992188 7.621094 65.402344 C 8.238281 65.679688 9.027344 65.578125 9.6875 65.578125 L 27.585938 65.578125 C 44.03125 65.578125 60.492188 65.796875 76.9375 65.574219 C 77.628906 65.566406 78.378906 65.503906 78.769531 64.84375 C 79.214844 64.089844 79.023438 62.941406 79.023438 62.101562 L 79.023438 55.84375 C 79.023438 53.375 79.246094 50.796875 78.695312 48.371094 C 77.496094 43.101562 72.9375 38.402344 67.378906 37.945312 C 69.15625 36.167969 70.738281 34.320312 71.472656 31.863281 C 72.03125 30.007812 72.234375 28.046875 71.910156 26.128906 C 71.546875 23.96875 70.738281 21.953125 69.375 20.222656 C 64.128906 13.5625 53.589844 14.242188 49.019531 21.265625 C 48.128906 22.632812 47.546875 24.175781 47.265625 25.78125 C 46.925781 27.722656 47.042969 29.613281 47.550781 31.515625 C 48.25 34.136719 49.859375 36.066406 51.738281 37.945312 C 49.589844 38.121094 47.390625 39.070312 45.65625 40.335938 C 44.996094 40.820312 44.363281 41.359375 43.796875 41.949219 C 43.554688 42.203125 43.273438 42.628906 42.878906 42.628906 C 42.480469 42.628906 42.203125 42.203125 41.960938 41.949219 C 41.394531 41.359375 40.753906 40.851562 40.097656 40.363281 C 38.382812 39.082031 36.160156 38.121094 34.015625 37.945312 C 35.792969 36.167969 37.375 34.320312 38.109375 31.863281 C 39.070312 28.65625 38.851562 25.117188 37.261719 22.132812 C 33.902344 15.835938 25.417969 13.523438 19.417969 17.503906 C 18.105469 18.375 16.902344 19.441406 16.003906 20.742188 C 14.976562 22.230469 14.292969 23.835938 13.9375 25.609375 C 13.535156 27.59375 13.664062 29.566406 14.183594 31.515625 C 14.886719 34.136719 16.496094 36.066406 18.375 37.945312 M 24.980469 18.359375 C 26.070312 18.21875 27.210938 18.292969 28.28125 18.519531 C 35.222656 19.996094 38.089844 28.328125 33.988281 33.949219 C 33.25 34.964844 32.320312 35.777344 31.234375 36.402344 C 30.046875 37.089844 28.773438 37.546875 27.410156 37.722656 C 26.320312 37.863281 25.179688 37.789062 24.109375 37.5625 C 17.167969 36.085938 14.308594 27.746094 18.402344 22.132812 C 19.144531 21.121094 20.070312 20.308594 21.15625 19.679688 C 22.34375 18.992188 23.617188 18.539062 24.980469 18.359375 M 58.34375 18.359375 C 59.433594 18.21875 60.574219 18.292969 61.644531 18.519531 C 68.589844 19.996094 71.453125 28.328125 67.351562 33.949219 C 66.613281 34.964844 65.683594 35.777344 64.597656 36.402344 C 63.414062 37.089844 62.140625 37.546875 60.777344 37.722656 C 59.6875 37.863281 58.546875 37.789062 57.476562 37.5625 C 50.535156 36.085938 47.671875 27.746094 51.769531 22.132812 C 52.507812 21.121094 53.433594 20.308594 54.519531 19.679688 C 55.707031 18.992188 56.980469 18.539062 58.34375 18.359375 M 42.878906 62.796875 L 37.316406 62.796875 L 37.316406 52.195312 C 37.316406 51.136719 37.503906 49.0625 35.925781 49.023438 C 34.324219 48.980469 34.535156 51.160156 34.535156 52.195312 L 34.535156 62.796875 L 17.855469 62.796875 L 17.855469 52.195312 C 17.855469 51.136719 18.042969 49.0625 16.464844 49.023438 C 14.859375 48.980469 15.074219 51.160156 15.074219 52.195312 L 15.074219 62.796875 L 9.511719 62.796875 L 9.511719 54.28125 C 9.511719 50.898438 9.476562 47.753906 11.585938 44.898438 C 15.496094 39.59375 21.96875 40.554688 27.757812 40.554688 C 30.328125 40.554688 33.109375 40.242188 35.578125 41.089844 C 37.722656 41.824219 39.621094 43.214844 40.929688 45.070312 C 42.890625 47.851562 42.878906 50.851562 42.878906 54.105469 L 42.878906 62.796875 M 76.242188 62.796875 L 70.679688 62.796875 L 70.679688 52.195312 C 70.679688 51.136719 70.871094 49.0625 69.289062 49.023438 C 67.6875 48.980469 67.902344 51.160156 67.902344 52.195312 L 67.902344 62.796875 L 51.21875 62.796875 L 51.21875 52.195312 C 51.21875 51.136719 51.40625 49.0625 49.828125 49.023438 C 48.226562 48.980469 48.4375 51.160156 48.4375 52.195312 L 48.4375 62.796875 L 45.65625 62.796875 L 45.65625 54.628906 C 45.65625 53.199219 45.777344 51.707031 45.609375 50.285156 C 45.488281 49.285156 45.316406 48.289062 45.007812 47.332031 C 44.75 46.523438 44.351562 45.875 44.835938 45.070312 C 48.308594 39.335938 56.015625 40.554688 61.644531 40.554688 C 64.058594 40.554688 66.625 40.292969 68.945312 41.089844 C 70.957031 41.777344 72.734375 43.039062 74.039062 44.722656 C 76.265625 47.601562 76.242188 50.824219 76.242188 54.28125 Z M 76.242188 62.796875 " fill-opacity="1" fill-rule="nonzero"/><path fill="#3f5141" d="M 18.375 37.945312 C 12.765625 38.40625 8.140625 43.199219 7.023438 48.546875 C 6.457031 51.242188 6.734375 54.144531 6.734375 56.886719 L 6.734375 63.144531 C 6.734375 63.996094 6.710938 64.992188 7.621094 65.402344 C 8.238281 65.679688 9.027344 65.578125 9.6875 65.578125 L 27.585938 65.578125 C 44.03125 65.578125 60.492188 65.796875 76.9375 65.574219 C 77.628906 65.566406 78.378906 65.503906 78.769531 64.84375 C 79.214844 64.089844 79.023438 62.941406 79.023438 62.101562 L 79.023438 55.84375 C 79.023438 53.375 79.246094 50.796875 78.695312 48.371094 C 77.496094 43.101562 72.9375 38.402344 67.378906 37.945312 C 69.15625 36.167969 70.738281 34.320312 71.472656 31.863281 C 72.03125 30.007812 72.234375 28.046875 71.910156 26.128906 C 71.546875 23.96875 70.738281 21.953125 69.375 20.222656 C 64.128906 13.5625 53.589844 14.242188 49.019531 21.265625 C 48.128906 22.632812 47.546875 24.175781 47.265625 25.78125 C 46.925781 27.722656 47.042969 29.613281 47.550781 31.515625 C 48.25 34.136719 49.859375 36.066406 51.738281 37.945312 C 49.589844 38.121094 47.390625 39.070312 45.65625 40.335938 C 44.996094 40.820312 44.363281 41.359375 43.796875 41.949219 C 43.554688 42.203125 43.273438 42.628906 42.878906 42.628906 C 42.480469 42.628906 42.203125 42.203125 41.960938 41.949219 C 41.394531 41.359375 40.753906 40.851562 40.097656 40.363281 C 38.382812 39.082031 36.160156 38.121094 34.015625 37.945312 C 35.792969 36.167969 37.375 34.320312 38.109375 31.863281 C 39.070312 28.65625 38.851562 25.117188 37.261719 22.132812 C 33.902344 15.835938 25.417969 13.523438 19.417969 17.503906 C 18.105469 18.375 16.902344 19.441406 16.003906 20.742188 C 14.976562 22.230469 14.292969 23.835938 13.9375 25.609375 C 13.535156 27.59375 13.664062 29.566406 14.183594 31.515625 C 14.886719 34.136719 16.496094 36.066406 18.375 37.945312 M 24.980469 18.359375 C 26.070312 18.21875 27.210938 18.292969 28.28125 18.519531 C 35.222656 19.996094 38.089844 28.328125 33.988281 33.949219 C 33.25 34.964844 32.320312 35.777344 31.234375 36.402344 C 30.046875 37.089844 28.773438 37.546875 27.410156 37.722656 C 26.320312 37.863281 25.179688 37.789062 24.109375 37.5625 C 17.167969 36.085938 14.308594 27.746094 18.402344 22.132812 C 19.144531 21.121094 20.070312 20.308594 21.15625 19.679688 C 22.34375 18.992188 23.617188 18.539062 24.980469 18.359375 M 58.34375 18.359375 C 59.433594 18.21875 60.574219 18.292969 61.644531 18.519531 C 68.589844 19.996094 71.453125 28.328125 67.351562 33.949219 C 66.613281 34.964844 65.683594 35.777344 64.597656 36.402344 C 63.414062 37.089844 62.140625 37.546875 60.777344 37.722656 C 59.6875 37.863281 58.546875 37.789062 57.476562 37.5625 C 50.535156 36.085938 47.671875 27.746094 51.769531 22.132812 C 52.507812 21.121094 53.433594 20.308594 54.519531 19.679688 C 55.707031 18.992188 56.980469 18.539062 58.34375 18.359375 M 42.878906 62.796875 L 37.316406 62.796875 L 37.316406 52.195312 C 37.316406 51.136719 37.503906 49.0625 35.925781 49.023438 C 34.324219 48.980469 34.535156 51.160156 34.535156 52.195312 L 34.535156 62.796875 L 17.855469 62.796875 L 17.855469 52.195312 C 17.855469 51.136719 18.042969 49.0625 16.464844 49.023438 C 14.859375 48.980469 15.074219 51.160156 15.074219 52.195312 L 15.074219 62.796875 L 9.511719 62.796875 L 9.511719 54.28125 C 9.511719 50.898438 9.476562 47.753906 11.585938 44.898438 C 15.496094 39.59375 21.96875 40.554688 27.757812 40.554688 C 30.328125 40.554688 33.109375 40.242188 35.578125 41.089844 C 37.722656 41.824219 39.621094 43.214844 40.929688 45.070312 C 42.890625 47.851562 42.878906 50.851562 42.878906 54.105469 L 42.878906 62.796875 M 76.242188 62.796875 L 70.679688 62.796875 L 70.679688 52.195312 C 70.679688 51.136719 70.871094 49.0625 69.289062 49.023438 C 67.6875 48.980469 67.902344 51.160156 67.902344 52.195312 L 67.902344 62.796875 L 51.21875 62.796875 L 51.21875 52.195312 C 51.21875 51.136719 51.40625 49.0625 49.828125 49.023438 C 48.226562 48.980469 48.4375 51.160156 48.4375 52.195312 L 48.4375 62.796875 L 45.65625 62.796875 L 45.65625 54.628906 C 45.65625 53.199219 45.777344 51.707031 45.609375 50.285156 C 45.488281 49.285156 45.316406 48.289062 45.007812 47.332031 C 44.75 46.523438 44.351562 45.875 44.835938 45.070312 C 48.308594 39.335938 56.015625 40.554688 61.644531 40.554688 C 64.058594 40.554688 66.625 40.292969 68.945312 41.089844 C 70.957031 41.777344 72.734375 43.039062 74.039062 44.722656 C 76.265625 47.601562 76.242188 50.824219 76.242188 54.28125 Z M 76.242188 62.796875 " fill-opacity="1" fill-rule="nonzero"/></svg>