<svg xmlns="http://www.w3.org/2000/svg" xmlns:xlink="http://www.w3.org/1999/xlink" width="115" zoomAndPan="magnify" viewBox="0 0 86.25 86.249996" height="115" preserveAspectRatio="xMidYMid meet" version="1.0"><path fill="#3f5141" d="M 62.566406 10.707031 L 22.9375 10.707031 C 22.355469 10.710938 21.777344 10.769531 21.207031 10.882812 C 20.636719 11 20.082031 11.167969 19.542969 11.390625 C 19.003906 11.617188 18.496094 11.890625 18.011719 12.214844 C 17.527344 12.539062 17.078125 12.90625 16.667969 13.320312 C 16.253906 13.730469 15.886719 14.179688 15.5625 14.664062 C 15.238281 15.148438 14.964844 15.660156 14.742188 16.199219 C 14.519531 16.738281 14.351562 17.292969 14.238281 17.863281 C 14.121094 18.433594 14.066406 19.011719 14.066406 19.59375 L 14.066406 65.910156 C 14.0625 66.429688 14.105469 66.949219 14.195312 67.460938 C 14.28125 67.972656 14.414062 68.472656 14.589844 68.960938 C 14.765625 69.453125 14.984375 69.921875 15.242188 70.375 C 15.5 70.824219 15.796875 71.25 16.128906 71.648438 C 16.464844 72.046875 16.828125 72.414062 17.226562 72.75 C 17.625 73.085938 18.046875 73.382812 18.496094 73.644531 C 18.945312 73.90625 19.417969 74.125 19.90625 74.304688 C 20.394531 74.484375 20.894531 74.617188 21.40625 74.710938 L 21.40625 76.671875 C 21.382812 76.914062 21.414062 77.15625 21.492188 77.386719 C 21.574219 77.621094 21.695312 77.828125 21.863281 78.007812 C 22.027344 78.191406 22.226562 78.332031 22.449219 78.429688 C 22.675781 78.527344 22.910156 78.578125 23.160156 78.578125 C 23.40625 78.578125 23.640625 78.527344 23.867188 78.429688 C 24.089844 78.332031 24.289062 78.191406 24.453125 78.007812 C 24.621094 77.828125 24.742188 77.621094 24.824219 77.386719 C 24.902344 77.15625 24.933594 76.914062 24.910156 76.671875 L 24.910156 74.796875 L 60.59375 74.796875 L 60.59375 76.671875 C 60.613281 76.890625 60.671875 77.097656 60.769531 77.296875 C 60.867188 77.496094 60.996094 77.667969 61.15625 77.816406 C 61.320312 77.96875 61.503906 78.082031 61.710938 78.160156 C 61.914062 78.242188 62.128906 78.28125 62.347656 78.28125 C 62.570312 78.28125 62.78125 78.242188 62.988281 78.160156 C 63.191406 78.082031 63.375 77.96875 63.539062 77.816406 C 63.699219 77.667969 63.832031 77.496094 63.929688 77.296875 C 64.023438 77.097656 64.082031 76.890625 64.101562 76.671875 L 64.101562 74.660156 C 64.613281 74.566406 65.113281 74.433594 65.601562 74.253906 C 66.089844 74.074219 66.558594 73.855469 67.007812 73.59375 C 67.457031 73.332031 67.878906 73.035156 68.277344 72.699219 C 68.675781 72.363281 69.039062 71.996094 69.375 71.597656 C 69.707031 71.199219 70.003906 70.773438 70.261719 70.320312 C 70.519531 69.871094 70.738281 69.398438 70.914062 68.910156 C 71.089844 68.421875 71.222656 67.921875 71.3125 67.410156 C 71.398438 66.898438 71.445312 66.382812 71.441406 65.859375 L 71.441406 19.59375 C 71.441406 19.011719 71.382812 18.433594 71.269531 17.863281 C 71.15625 17.292969 70.988281 16.738281 70.761719 16.199219 C 70.539062 15.660156 70.265625 15.148438 69.941406 14.664062 C 69.621094 14.179688 69.25 13.730469 68.839844 13.320312 C 68.429688 12.90625 67.980469 12.539062 67.496094 12.214844 C 67.011719 11.890625 66.5 11.617188 65.964844 11.390625 C 65.425781 11.167969 64.871094 11 64.300781 10.882812 C 63.726562 10.769531 63.152344 10.710938 62.566406 10.707031 Z M 22.9375 14.226562 L 62.566406 14.226562 C 62.921875 14.230469 63.269531 14.265625 63.613281 14.332031 C 63.960938 14.402344 64.292969 14.503906 64.621094 14.640625 C 64.945312 14.773438 65.253906 14.941406 65.546875 15.136719 C 65.839844 15.332031 66.109375 15.554688 66.359375 15.804688 C 66.609375 16.050781 66.832031 16.324219 67.027344 16.617188 C 67.222656 16.910156 67.386719 17.21875 67.523438 17.542969 C 67.660156 17.867188 67.761719 18.203125 67.828125 18.546875 C 67.898438 18.894531 67.933594 19.242188 67.933594 19.59375 L 67.933594 60.632812 L 17.597656 60.632812 L 17.597656 19.59375 C 17.597656 19.242188 17.628906 18.894531 17.699219 18.550781 C 17.765625 18.207031 17.867188 17.871094 18.003906 17.546875 C 18.136719 17.222656 18.300781 16.914062 18.496094 16.621094 C 18.691406 16.328125 18.910156 16.058594 19.160156 15.808594 C 19.40625 15.558594 19.675781 15.335938 19.96875 15.140625 C 20.261719 14.945312 20.566406 14.78125 20.890625 14.644531 C 21.214844 14.507812 21.550781 14.40625 21.894531 14.335938 C 22.238281 14.265625 22.585938 14.230469 22.9375 14.226562 Z M 62.566406 71.277344 L 22.9375 71.277344 C 22.585938 71.277344 22.238281 71.242188 21.894531 71.171875 C 21.550781 71.101562 21.214844 71 20.890625 70.863281 C 20.566406 70.726562 20.261719 70.5625 19.96875 70.367188 C 19.675781 70.167969 19.40625 69.945312 19.160156 69.699219 C 18.910156 69.449219 18.691406 69.179688 18.496094 68.886719 C 18.300781 68.59375 18.136719 68.285156 18.003906 67.960938 C 17.867188 67.636719 17.765625 67.300781 17.699219 66.957031 C 17.628906 66.609375 17.597656 66.261719 17.597656 65.910156 L 17.597656 64.101562 L 67.933594 64.101562 L 67.933594 65.859375 C 67.9375 66.214844 67.90625 66.566406 67.839844 66.914062 C 67.773438 67.261719 67.671875 67.601562 67.539062 67.929688 C 67.402344 68.257812 67.238281 68.570312 67.042969 68.863281 C 66.847656 69.160156 66.625 69.433594 66.378906 69.683594 C 66.128906 69.9375 65.855469 70.160156 65.5625 70.359375 C 65.269531 70.558594 64.957031 70.726562 64.632812 70.863281 C 64.304688 71 63.96875 71.101562 63.621094 71.171875 C 63.273438 71.242188 62.921875 71.277344 62.566406 71.277344 Z M 62.566406 71.277344 " fill-opacity="1" fill-rule="nonzero"/><path fill="#3f5141" d="M 23.164062 56.988281 C 23.398438 56.984375 23.621094 56.941406 23.835938 56.851562 C 24.046875 56.761719 24.238281 56.632812 24.402344 56.46875 C 24.5625 56.304688 24.691406 56.113281 24.777344 55.898438 C 24.867188 55.683594 24.910156 55.460938 24.910156 55.226562 L 24.910156 19.59375 C 24.933594 19.347656 24.902344 19.109375 24.824219 18.878906 C 24.742188 18.644531 24.621094 18.4375 24.453125 18.253906 C 24.289062 18.074219 24.089844 17.933594 23.867188 17.835938 C 23.640625 17.734375 23.40625 17.6875 23.160156 17.6875 C 22.910156 17.6875 22.675781 17.734375 22.449219 17.835938 C 22.226562 17.933594 22.027344 18.074219 21.863281 18.253906 C 21.695312 18.4375 21.574219 18.644531 21.492188 18.878906 C 21.414062 19.109375 21.382812 19.347656 21.40625 19.59375 L 21.40625 55.226562 C 21.40625 55.460938 21.449219 55.6875 21.539062 55.902344 C 21.628906 56.117188 21.753906 56.308594 21.921875 56.472656 C 22.085938 56.636719 22.277344 56.765625 22.492188 56.855469 C 22.707031 56.941406 22.929688 56.988281 23.164062 56.988281 Z M 23.164062 56.988281 " fill-opacity="1" fill-rule="nonzero"/><path fill="#3f5141" d="M 58.21875 24.910156 L 62.921875 24.910156 C 63.152344 24.910156 63.378906 24.867188 63.59375 24.777344 C 63.808594 24.6875 64 24.5625 64.164062 24.394531 C 64.328125 24.230469 64.453125 24.039062 64.542969 23.824219 C 64.632812 23.609375 64.679688 23.386719 64.679688 23.152344 C 64.679688 22.917969 64.632812 22.695312 64.542969 22.480469 C 64.453125 22.261719 64.328125 22.074219 64.164062 21.910156 C 64 21.742188 63.808594 21.617188 63.59375 21.527344 C 63.378906 21.4375 63.152344 21.390625 62.921875 21.390625 L 58.21875 21.390625 C 57.984375 21.390625 57.761719 21.4375 57.546875 21.527344 C 57.332031 21.617188 57.140625 21.742188 56.976562 21.910156 C 56.8125 22.074219 56.683594 22.261719 56.59375 22.480469 C 56.507812 22.695312 56.460938 22.917969 56.460938 23.152344 C 56.460938 23.386719 56.507812 23.609375 56.59375 23.824219 C 56.683594 24.039062 56.8125 24.230469 56.976562 24.394531 C 57.140625 24.5625 57.332031 24.6875 57.546875 24.777344 C 57.761719 24.867188 57.984375 24.910156 58.21875 24.910156 Z M 58.21875 24.910156 " fill-opacity="1" fill-rule="nonzero"/><path fill="#3f5141" d="M 62.566406 10.707031 L 22.9375 10.707031 C 22.355469 10.710938 21.777344 10.769531 21.207031 10.882812 C 20.636719 11 20.082031 11.167969 19.542969 11.390625 C 19.003906 11.617188 18.496094 11.890625 18.011719 12.214844 C 17.527344 12.539062 17.078125 12.90625 16.667969 13.320312 C 16.253906 13.730469 15.886719 14.179688 15.5625 14.664062 C 15.238281 15.148438 14.964844 15.660156 14.742188 16.199219 C 14.519531 16.738281 14.351562 17.292969 14.238281 17.863281 C 14.121094 18.433594 14.066406 19.011719 14.066406 19.59375 L 14.066406 65.910156 C 14.0625 66.429688 14.105469 66.949219 14.195312 67.460938 C 14.28125 67.972656 14.414062 68.472656 14.589844 68.960938 C 14.765625 69.453125 14.984375 69.921875 15.242188 70.375 C 15.5 70.824219 15.796875 71.25 16.128906 71.648438 C 16.464844 72.046875 16.828125 72.414062 17.226562 72.75 C 17.625 73.085938 18.046875 73.382812 18.496094 73.644531 C 18.945312 73.90625 19.417969 74.125 19.90625 74.304688 C 20.394531 74.484375 20.894531 74.617188 21.40625 74.710938 L 21.40625 76.671875 C 21.382812 76.914062 21.414062 77.15625 21.492188 77.386719 C 21.574219 77.621094 21.695312 77.828125 21.863281 78.007812 C 22.027344 78.191406 22.226562 78.332031 22.449219 78.429688 C 22.675781 78.527344 22.910156 78.578125 23.160156 78.578125 C 23.40625 78.578125 23.640625 78.527344 23.867188 78.429688 C 24.089844 78.332031 24.289062 78.191406 24.453125 78.007812 C 24.621094 77.828125 24.742188 77.621094 24.824219 77.386719 C 24.902344 77.15625 24.933594 76.914062 24.910156 76.671875 L 24.910156 74.796875 L 60.59375 74.796875 L 60.59375 76.671875 C 60.613281 76.890625 60.671875 77.097656 60.769531 77.296875 C 60.867188 77.496094 60.996094 77.667969 61.15625 77.816406 C 61.320312 77.96875 61.503906 78.082031 61.710938 78.160156 C 61.914062 78.242188 62.128906 78.28125 62.347656 78.28125 C 62.570312 78.28125 62.78125 78.242188 62.988281 78.160156 C 63.191406 78.082031 63.375 77.96875 63.539062 77.816406 C 63.699219 77.667969 63.832031 77.496094 63.929688 77.296875 C 64.023438 77.097656 64.082031 76.890625 64.101562 76.671875 L 64.101562 74.660156 C 64.613281 74.566406 65.113281 74.433594 65.601562 74.253906 C 66.089844 74.074219 66.558594 73.855469 67.007812 73.59375 C 67.457031 73.332031 67.878906 73.035156 68.277344 72.699219 C 68.675781 72.363281 69.039062 71.996094 69.375 71.597656 C 69.707031 71.199219 70.003906 70.773438 70.261719 70.320312 C 70.519531 69.871094 70.738281 69.398438 70.914062 68.910156 C 71.089844 68.421875 71.222656 67.921875 71.3125 67.410156 C 71.398438 66.898438 71.445312 66.382812 71.441406 65.859375 L 71.441406 19.59375 C 71.441406 19.011719 71.382812 18.433594 71.269531 17.863281 C 71.15625 17.292969 70.988281 16.738281 70.761719 16.199219 C 70.539062 15.660156 70.265625 15.148438 69.941406 14.664062 C 69.621094 14.179688 69.25 13.730469 68.839844 13.320312 C 68.429688 12.90625 67.980469 12.539062 67.496094 12.214844 C 67.011719 11.890625 66.5 11.617188 65.964844 11.390625 C 65.425781 11.167969 64.871094 11 64.300781 10.882812 C 63.726562 10.769531 63.152344 10.710938 62.566406 10.707031 Z M 22.9375 14.226562 L 62.566406 14.226562 C 62.921875 14.230469 63.269531 14.265625 63.613281 14.332031 C 63.960938 14.402344 64.292969 14.503906 64.621094 14.640625 C 64.945312 14.773438 65.253906 14.941406 65.546875 15.136719 C 65.839844 15.332031 66.109375 15.554688 66.359375 15.804688 C 66.609375 16.050781 66.832031 16.324219 67.027344 16.617188 C 67.222656 16.910156 67.386719 17.21875 67.523438 17.542969 C 67.660156 17.867188 67.761719 18.203125 67.828125 18.546875 C 67.898438 18.894531 67.933594 19.242188 67.933594 19.59375 L 67.933594 60.632812 L 17.597656 60.632812 L 17.597656 19.59375 C 17.597656 19.242188 17.628906 18.894531 17.699219 18.550781 C 17.765625 18.207031 17.867188 17.871094 18.003906 17.546875 C 18.136719 17.222656 18.300781 16.914062 18.496094 16.621094 C 18.691406 16.328125 18.910156 16.058594 19.160156 15.808594 C 19.40625 15.558594 19.675781 15.335938 19.96875 15.140625 C 20.261719 14.945312 20.566406 14.78125 20.890625 14.644531 C 21.214844 14.507812 21.550781 14.40625 21.894531 14.335938 C 22.238281 14.265625 22.585938 14.230469 22.9375 14.226562 Z M 62.566406 71.277344 L 22.9375 71.277344 C 22.585938 71.277344 22.238281 71.242188 21.894531 71.171875 C 21.550781 71.101562 21.214844 71 20.890625 70.863281 C 20.566406 70.726562 20.261719 70.5625 19.96875 70.367188 C 19.675781 70.167969 19.40625 69.945312 19.160156 69.699219 C 18.910156 69.449219 18.691406 69.179688 18.496094 68.886719 C 18.300781 68.59375 18.136719 68.285156 18.003906 67.960938 C 17.867188 67.636719 17.765625 67.300781 17.699219 66.957031 C 17.628906 66.609375 17.597656 66.261719 17.597656 65.910156 L 17.597656 64.101562 L 67.933594 64.101562 L 67.933594 65.859375 C 67.9375 66.214844 67.90625 66.566406 67.839844 66.914062 C 67.773438 67.261719 67.671875 67.601562 67.539062 67.929688 C 67.402344 68.257812 67.238281 68.570312 67.042969 68.863281 C 66.847656 69.160156 66.625 69.433594 66.378906 69.683594 C 66.128906 69.9375 65.855469 70.160156 65.5625 70.359375 C 65.269531 70.558594 64.957031 70.726562 64.632812 70.863281 C 64.304688 71 63.96875 71.101562 63.621094 71.171875 C 63.273438 71.242188 62.921875 71.277344 62.566406 71.277344 Z M 62.566406 71.277344 " fill-opacity="1" fill-rule="nonzero"/><path fill="#3f5141" d="M 23.164062 56.988281 C 23.398438 56.984375 23.621094 56.941406 23.835938 56.851562 C 24.046875 56.761719 24.238281 56.632812 24.402344 56.46875 C 24.5625 56.304688 24.691406 56.113281 24.777344 55.898438 C 24.867188 55.683594 24.910156 55.460938 24.910156 55.226562 L 24.910156 19.59375 C 24.933594 19.347656 24.902344 19.109375 24.824219 18.878906 C 24.742188 18.644531 24.621094 18.4375 24.453125 18.253906 C 24.289062 18.074219 24.089844 17.933594 23.867188 17.835938 C 23.640625 17.734375 23.40625 17.6875 23.160156 17.6875 C 22.910156 17.6875 22.675781 17.734375 22.449219 17.835938 C 22.226562 17.933594 22.027344 18.074219 21.863281 18.253906 C 21.695312 18.4375 21.574219 18.644531 21.492188 18.878906 C 21.414062 19.109375 21.382812 19.347656 21.40625 19.59375 L 21.40625 55.226562 C 21.40625 55.460938 21.449219 55.6875 21.539062 55.902344 C 21.628906 56.117188 21.753906 56.308594 21.921875 56.472656 C 22.085938 56.636719 22.277344 56.765625 22.492188 56.855469 C 22.707031 56.941406 22.929688 56.988281 23.164062 56.988281 Z M 23.164062 56.988281 " fill-opacity="1" fill-rule="nonzero"/><path fill="#3f5141" d="M 58.21875 24.910156 L 62.921875 24.910156 C 63.152344 24.910156 63.378906 24.867188 63.59375 24.777344 C 63.808594 24.6875 64 24.5625 64.164062 24.394531 C 64.328125 24.230469 64.453125 24.039062 64.542969 23.824219 C 64.632812 23.609375 64.679688 23.386719 64.679688 23.152344 C 64.679688 22.917969 64.632812 22.695312 64.542969 22.480469 C 64.453125 22.261719 64.328125 22.074219 64.164062 21.910156 C 64 21.742188 63.808594 21.617188 63.59375 21.527344 C 63.378906 21.4375 63.152344 21.390625 62.921875 21.390625 L 58.21875 21.390625 C 57.984375 21.390625 57.761719 21.4375 57.546875 21.527344 C 57.332031 21.617188 57.140625 21.742188 56.976562 21.910156 C 56.8125 22.074219 56.683594 22.261719 56.59375 22.480469 C 56.507812 22.695312 56.460938 22.917969 56.460938 23.152344 C 56.460938 23.386719 56.507812 23.609375 56.59375 23.824219 C 56.683594 24.039062 56.8125 24.230469 56.976562 24.394531 C 57.140625 24.5625 57.332031 24.6875 57.546875 24.777344 C 57.761719 24.867188 57.984375 24.910156 58.21875 24.910156 Z M 58.21875 24.910156 " fill-opacity="1" fill-rule="nonzero"/></svg>