<svg width="35" height="38" viewBox="0 0 35 38" fill="none" xmlns="http://www.w3.org/2000/svg">
<path fill-rule="evenodd" clip-rule="evenodd" d="M7.48756 29.4322L1.71098 23.298C-0.544284 20.9039 -0.544284 16.9845 1.71098 14.5904L7.43001 8.51645L15.2519 16.8218C15.8157 17.4214 16.0972 18.2125 16.0972 19.0045C16.0972 19.7973 15.8157 20.5884 15.2519 21.1871L7.48756 29.4322ZM25.5133 31.2903L21.4748 35.578C19.2204 37.973 15.5295 37.973 13.275 35.578L9.29332 31.3506L17.0584 23.1055C17.1875 22.9676 17.3096 22.8248 17.4232 22.6778C17.5087 22.7818 17.5981 22.8842 17.6915 22.9842L25.5133 31.2903ZM21.4748 2.31034L25.4558 6.53776L17.6915 14.7828C17.5624 14.9199 17.4403 15.0628 17.3267 15.2106C17.2412 15.1057 17.1517 15.0033 17.0584 14.9034L9.23655 6.59805L13.275 2.31034C15.5295 -0.0845662 19.2204 -0.0845662 21.4748 2.31034ZM27.2623 8.45616L33.0389 14.5904C35.2942 16.9845 35.2942 20.9039 33.0389 23.298L27.3199 29.3719L19.498 21.0658C18.9342 20.467 18.6527 19.6759 18.6527 18.8831C18.6527 18.0911 18.9342 17.2991 19.498 16.7012L27.2623 8.45616Z" fill="#EEF4EE"/>
</svg>
