<?xml version="1.0" encoding="UTF-8" standalone="no"?>
<!-- Created with Inkscape (http://www.inkscape.org/) -->

<svg
   width="118.63074mm"
   height="97.315712mm"
   viewBox="0 0 118.63074 97.315712"
   version="1.1"
   id="svg5"
   xml:space="preserve"
   inkscape:export-filename="bitmap.svg"
   inkscape:export-xdpi="96"
   inkscape:export-ydpi="96"
   xmlns:inkscape="http://www.inkscape.org/namespaces/inkscape"
   xmlns:sodipodi="http://sodipodi.sourceforge.net/DTD/sodipodi-0.dtd"
   xmlns="http://www.w3.org/2000/svg"
   xmlns:svg="http://www.w3.org/2000/svg"><sodipodi:namedview
     id="namedview7"
     pagecolor="#ffffff"
     bordercolor="#000000"
     borderopacity="0.25"
     inkscape:showpageshadow="2"
     inkscape:pageopacity="0.0"
     inkscape:pagecheckerboard="0"
     inkscape:deskcolor="#d1d1d1"
     inkscape:document-units="mm"
     showgrid="false" /><defs
     id="defs2" /><g
     inkscape:label="Camada 1"
     inkscape:groupmode="layer"
     id="layer1"
     transform="translate(-28.497214,-82.042226)"><path
       style="fill:#3f5141;fill-opacity:1;stroke-width:0.264583"
       d="m 29.170529,178.68444 -0.673315,-0.67331 0.119108,-10.10846 c 0.105402,-8.94515 0.181221,-10.38249 0.65883,-12.4897 1.529606,-6.74863 4.369414,-11.88994 9.298875,-16.83508 4.986997,-5.00286 10.389827,-7.90703 17.487618,-9.40006 3.054009,-0.64242 9.54505,-0.64403 12.772728,-0.003 6.75999,1.34219 12.366246,4.37063 17.423807,9.41215 3.947927,3.93541 6.523381,8.01839 8.156474,12.93083 1.586846,4.77333 1.659572,5.43885 1.790507,16.38504 l 0.120914,10.10845 -0.673314,0.67332 -0.673314,0.67331 H 62.411645 29.843844 Z m 74.132851,0.0495 -0.62378,-0.62379 -0.12329,-10.55485 c -0.13536,-11.58895 -0.2367,-12.47663 -2.03819,-17.85372 -1.462717,-4.36591 -4.224472,-9.36844 -6.976012,-12.63604 -0.532381,-0.63223 -0.967964,-1.23346 -0.967964,-1.33606 0,-0.27663 3.846808,-2.74973 5.795409,-3.72585 8.900467,-4.45854 20.406757,-4.48899 29.261877,-0.0774 8.07152,4.02117 14.71527,11.74446 17.58643,20.44407 1.5221,4.61195 1.65794,5.83197 1.78816,16.06063 l 0.12194,9.57835 -0.67426,0.67426 -0.67426,0.67426 H 124.8533 103.92717 Z M 58.575187,123.93353 c -5.613268,-1.03998 -10.741244,-4.48171 -13.921786,-9.34385 -2.329853,-3.56168 -3.264486,-6.83467 -3.264486,-11.43192 0,-4.595879 0.934037,-7.867894 3.263379,-11.431916 7.39304,-11.311758 23.081788,-13.007146 32.667301,-3.530159 4.529463,4.478181 6.845633,11.162856 6.050129,17.461245 -1.532991,12.13745 -12.860975,20.48755 -24.794537,18.2766 z m 50.799993,0 c -5.61327,-1.03998 -10.74124,-4.48171 -13.921783,-9.34385 -2.329851,-3.56168 -3.264484,-6.83467 -3.264484,-11.43192 0,-4.595879 0.934037,-7.867894 3.263379,-11.431916 7.393038,-11.311758 23.081778,-13.007146 32.667298,-3.530159 4.52946,4.478181 6.84563,11.162856 6.05013,17.461245 -1.53299,12.13745 -12.86098,20.48755 -24.79454,18.2766 z"
       id="path125" /></g></svg>
