<svg width="54" height="42" viewBox="0 0 54 42" fill="none" xmlns="http://www.w3.org/2000/svg">
<g clip-path="url(#clip0_1312_513)">
<path d="M35.3154 31.6103L51.6332 32.2934L50.9155 25.3335L35.3154 31.6103Z" fill="#EEF4EE"/>
<path d="M31.2366 36.3866V32.9739L34.3537 31.6218L33.9564 27.0636L24.251 9.96058C30.303 7.96412 35.2986 5.07801 40.2035 2.21827C41.113 1.68817 41.4759 1.95893 41.9744 2.61123L52.9313 16.9345L51.5473 17.7178L52.5725 19.4356L53.0951 24.2004L35.2601 31.526L35.4664 31.9154L51.6766 32.4007L51.2928 36.5809L31.2366 36.3866Z" fill="#3F5141"/>
<path d="M26.8439 14.3394L25.5996 12.0906C29.7194 10.5021 33.3519 8.56276 37.8907 6.3562C39.6407 7.74256 41.0287 7.97464 42.7996 7.65025L47.3874 13.644C46.7323 14.8123 45.6936 15.7829 46.7669 17.8558C42.8205 20.429 39.4007 21.6571 35.9079 23.0707C36.6818 16.6945 31.9824 11.3882 26.8439 14.3394Z" fill="#EEF4EE"/>
<path d="M8.33947 35.6992L5.26489 35.4469L4.5119 31.2553L5.32751 29.3775L1.11621 15.1219C7.75747 13.9544 14.9213 12.8652 20.6731 10.8389L29.6392 28.8166L29.8142 33.3168L23.3961 35.81L10.0967 40.9211L8.33947 35.6992Z" fill="#3F5141"/>
<path d="M21.5694 12.9072C16.9679 14.4114 12.9903 15.8733 7.9778 16.3656C7.85498 18.5159 6.37388 19.4663 5.13281 20.6267L7.09958 27.6367C9.36498 27.5488 11.575 27.5628 12.3071 30.4076L24.815 27.3387C25.6932 27.1242 25.8818 26.2811 25.0453 25.9066C19.9631 23.6236 18.6594 17.7828 22.2638 14.9116L21.5694 12.9072Z" fill="#EEF4EE"/>
<path d="M20.7153 11.5105C20.4577 11.0024 20.904 10.3114 21.3608 10.2015L24.0348 9.54834L33.9352 26.8114L34.1022 31.5762L29.8428 33.4126L29.1733 28.1898L20.7153 11.5105Z" fill="#3F5141"/>
<path d="M31.2047 33.03L31.236 35.9777L22.9531 35.9619L29.2669 33.2243L29.9917 33.6146L31.2047 33.03Z" fill="#3F5141"/>
<path d="M50.9261 35.279C51.2609 37.112 48.664 36.3788 47.3771 36.3788C41.0144 36.3788 37.337 36.0887 31.7802 35.9401C31.7802 35.5735 31.8501 35.2069 31.8501 34.8403C35.2626 34.5458 38.8783 34.9124 42.2908 34.4008C42.0219 34.0342 41.7546 34.1072 41.4198 34.1072C40.6179 34.0342 39.7461 34.0342 38.9441 34.0342C36.6016 33.8892 34.1926 33.9621 31.7802 33.7406C31.7802 33.5955 31.7802 33.447 31.7144 33.301C32.4498 32.9344 33.454 32.7903 34.0569 32.2021C40.1474 32.5679 45.5019 32.7138 51.3267 32.7903C51.2609 33.301 51.46 34.3287 50.6572 34.1801C49.3848 34.1801 48.0458 34.1801 46.7743 34.2557C46.1048 34.4008 42.7588 33.8135 42.8247 34.5458C42.7588 34.9889 43.4942 34.9124 43.7623 34.9124C46.1048 34.8403 48.5138 34.9889 50.9261 34.9889V35.279ZM24.6196 35.7221L29.1729 33.8892C29.7067 34.2557 30.3754 33.8892 30.9125 33.6676V35.8663C28.8381 35.8663 26.7606 35.7942 24.6196 35.7221ZM20.8065 36.0887C17.3795 37.4583 13.8369 38.7682 10.5215 40.2724C10.2325 40.406 10.2229 40.3796 10.1626 40.1924C10.0751 39.9137 9.96115 39.4592 9.89452 39.2385C9.82789 39.0205 10.3304 38.8904 10.6965 38.726C11.1886 38.5054 12.1712 38.0658 12.1712 38.0658C14.6469 36.966 17.7247 36.2329 19.7324 34.6223C18.9304 34.2557 16.5213 35.4276 15.4512 35.7942C13.6426 36.5274 11.5017 37.4056 9.69223 38.0658C9.49394 37.3326 9.29165 36.8219 9.02352 36.1608C15.6503 33.9621 22.2105 31.396 28.8381 29.1973C28.8381 29.636 28.9039 30.1485 28.9039 30.5907C28.3677 30.5907 27.8339 31.0303 27.2968 31.1753C26.6273 31.614 19.6666 33.2289 21.2071 34.1072C23.8843 33.5234 26.4258 32.1292 29.0372 31.469C29.103 31.9085 29.1729 32.3472 29.2387 32.6417C26.4427 33.7133 23.3119 35.0689 20.8065 36.0887ZM6.5478 35.2069C6.14722 35.134 5.61018 35.3555 5.34205 34.9889C5.14297 33.8892 5.0073 32.7138 4.87404 31.614C4.87404 31.5419 5.07714 31.0303 5.14297 30.8088C5.74584 32.0571 5.61018 35.279 7.61869 34.6223C7.61869 34.7674 7.75436 35.061 7.82018 35.2069H6.5478ZM3.26771 21.2801C2.86633 19.9632 2.53158 18.9355 2.19683 17.6151C2.19683 17.1755 1.26 15.3426 1.86208 15.3426C8.01927 14.3888 14.2447 13.2899 20.2028 11.6055L21.0048 13.0719C18.0594 13.7321 11.9022 15.1984 8.22076 15.783C7.55126 15.783 6.88256 16.4424 6.94918 17.2485C6.94918 17.47 7.01501 17.6151 6.94918 17.7637C6.7501 18.4968 5.81247 19.0076 5.20879 19.3742C3.73813 20.1803 5.20879 22.2339 5.41189 23.5517C5.94493 25.0937 6.21305 26.8501 6.94918 28.2435C8.15493 29.2694 9.55977 27.0708 11.1011 29.0488C11.6341 29.5639 11.366 30.4422 11.8364 30.9573C12.0355 31.1024 12.237 31.1024 12.4393 31.1024C14.3121 30.6637 16.2532 30.2241 18.1285 29.782C20.5376 29.1973 22.6785 28.6101 24.8885 28.0255C25.2225 27.949 25.892 27.6589 25.9586 27.1438C26.36 26.117 25.4216 25.3838 24.6196 25.0937C21.0714 23.6273 19.1327 18.5689 22.1447 15.565C24.3515 19.8146 26.4957 24.0669 28.6358 28.3921C21.8099 30.5151 14.9142 32.2021 7.95344 33.6676C7.75436 33.6676 7.08485 34.0342 6.94918 33.7406C5.8783 30.0026 4.3378 24.8721 3.26771 21.2801ZM21.9424 14.9039C17.1908 19.0076 20.6708 24.6506 24.9544 26.6321C20.9381 27.8769 16.588 29.1253 12.5717 29.782C12.237 27.2923 9.55977 26.56 7.68451 27.3653C6.94918 25.0172 6.27968 22.6726 5.61018 20.474C6.68026 19.7408 8.35402 18.8634 8.01927 17.1034C12.237 16.0037 17.3241 15.2705 21.2071 13.4384L21.9424 14.9039ZM8.95689 35.279L8.75781 35.3555C8.62214 34.9889 8.55551 34.7674 8.42386 34.4738C10.898 33.8892 13.7783 33.3749 16.1866 32.7138C13.8441 33.5234 11.4358 34.4008 8.95689 35.279ZM21.4061 10.8002C21.6743 10.7238 22.1447 10.5787 22.4096 10.5066C22.8142 10.5066 23.8843 9.77344 24.0834 10.4337C26.8304 15.1984 30.442 21.7188 33.1193 26.56C28.9039 27.8769 29.5076 28.8308 33.454 27.4374C33.6555 32.7138 34.4575 31.1024 30.0415 33.0083C30.3754 31.7626 29.974 29.9305 29.9082 28.6822C29.7725 27.949 29.3045 27.2923 28.9706 26.6321C26.4258 21.8673 24.0175 17.0305 21.5418 12.1901C21.3395 11.5334 20.9381 11.1668 21.4061 10.8002ZM47.8443 26.9257L50.4557 25.8989L51.3267 31.9085C46.3729 31.7626 41.4198 31.5419 36.4002 31.469C40.2165 30.0026 44.0304 28.5371 47.8443 26.9257ZM51.9304 19.3742C50.1868 20.0353 48.448 20.6955 46.7076 21.4287C48.1791 20.474 49.7862 19.5201 51.2609 18.4204L51.9304 19.3742ZM53.4677 23.6273L53.1329 19.9632C53.1329 19.7408 53.1329 19.448 53.0005 19.3021C53.0005 19.0076 52.7982 18.7869 52.6657 18.5689L52.1953 17.7637C53.8683 16.7369 52.5991 15.4885 51.7947 14.4652L49.9885 12.1901C47.4438 8.96818 44.968 5.59328 42.2908 2.37134C41.7546 1.4896 41.0184 0.977076 40.1474 1.63817C36.6675 3.76121 33.2549 5.88778 29.4378 7.35325C28.2344 8.01346 26.2267 8.235 25.2225 9.18619C25.2225 10.5787 27.4991 9.25828 28.2344 9.04026C32.5196 7.28029 36.6675 4.93658 40.6837 2.44343C40.9518 2.29486 40.886 2.14893 41.2207 2.58936C44.0304 6.25349 49.5181 12.7774 52.0621 16.5153C46.7325 20.9241 40.6773 23.6475 35.2803 25.6545C34.0497 26.1134 34.9704 27.018 35.7306 26.6321C37.6091 25.884 39.6449 25.0858 42.3085 24.0625C44.968 23.0392 48.6495 21.7188 52.1953 20.2533C52.2644 20.6955 52.2644 21.0621 52.331 21.5008C49.4515 22.3799 46.0381 24.0669 43.0262 25.2387C42.1552 25.6783 33.3208 28.7587 36.2011 28.7587C40.6837 26.9987 48.0458 24.139 52.4634 22.3799C52.4634 22.895 52.6657 23.5517 52.5301 23.9183C49.5871 25.0937 47.4438 25.971 45.3686 26.778C41.7546 28.2435 38.1389 29.5639 34.5931 31.1753C34.5931 30.0026 34.4575 28.7587 34.3916 27.5103C34.4575 26.9257 34.2592 26.2655 33.9244 25.7504C31.4455 21.2801 28.9039 16.5883 26.36 12.118C29.6393 11.5334 34.7922 8.37917 38.2088 7.05963C39.1432 8.60159 41.0184 8.5251 42.3567 7.86841C43.7623 9.77344 45.6375 11.7514 46.9099 13.805C46.3729 14.4652 45.7708 15.1219 45.8366 16.0758C45.7708 16.5153 46.1048 17.3215 46.1714 17.5421C46.1714 17.5421 46.1714 17.6151 46.1048 17.6151C46.0381 17.6872 45.3686 18.0538 45.237 18.1302C42.2908 19.8146 39.4121 21.0621 36.3327 22.3799C36.6675 20.6955 36.2669 18.641 35.3959 17.1034C34.1235 14.6103 31.313 13.0719 29.0372 13.2169C28.3677 13.2169 28.0996 13.3655 28.7683 13.5835C32.115 14.0231 36.2011 17.7637 35.2626 21.9403C34.9279 22.6726 35.1968 23.7003 36.0654 23.6273C36.466 23.5517 37.6717 22.9671 38.1389 22.8185C40.9518 21.5737 43.8281 20.1803 46.4395 18.641C48.1133 17.8357 46.0381 16.0758 47.2447 14.9039C48.1791 14.2437 47.98 12.9998 47.1748 12.3387C45.9065 10.6517 44.5675 8.96818 43.2951 7.28029C42.6256 6.18052 41.6871 6.98666 40.8162 7.2082C39.4121 7.57391 39.0099 5.22669 37.6051 5.81393C33.9244 7.86841 29.6393 9.91849 26.1609 11.6055C25.4914 10.5787 24.8885 8.37917 23.4139 8.96818C22.4096 9.40685 20.8065 9.25828 20.3361 10.5787C18.9971 10.358 17.5256 11.2389 16.1866 11.4569C13.5752 12.118 10.8321 12.7053 8.15493 13.1439C6.61443 13.4384 5.66958 13.5422 4.20454 13.8771C3.12402 14.125 0.858622 13.6565 0.791992 15.4164C2.05072 20.2146 3.71646 24.9486 4.87404 29.0488C4.67255 29.7099 4.47346 30.3692 4.20454 31.0303C4.07288 32.0571 4.53929 33.8892 4.60672 34.9889C4.80822 36.1608 6.01156 36.0122 6.81593 36.0122C7.01501 36.0122 7.95344 36.0887 8.15493 36.0887C8.55551 36.8939 8.75781 37.8451 9.15919 38.5774C8.95689 38.944 9.13832 39.3906 9.22502 39.7537C9.49715 40.857 9.88409 41.4099 10.5632 41.1436C14.4333 39.6394 18.3275 38.0658 22.2105 36.5274C31.5812 36.8939 41.0184 37.112 50.4557 37.3326C51.2609 37.4786 51.9304 37.0399 51.7947 36.0887L51.8606 35.134C51.8606 34.9124 51.9962 34.5458 51.7947 34.3287C52.1953 33.5234 52.115 33.2245 52.0484 31.7934L51.5258 25.2387C52.331 25.0937 53.5857 24.8994 53.4677 23.6273Z" fill="#EEF4EE"/>
<path d="M33.6554 13.2167C32.8543 13.1438 33.8577 11.4568 33.9243 10.9451C34.3249 10.3579 34.6597 11.3117 34.3249 11.6783C34.0568 12.1179 34.1925 12.9996 33.6554 13.2167Z" fill="#F3EDEA"/>
<path d="M35.2632 14.7551C34.1241 14.465 35.5322 12.1178 35.5322 11.2387C35.6638 10.7235 36.2017 7.50159 36.8013 9.11212C36.6022 10.8 36.066 12.6329 35.6638 14.2435C35.4623 14.465 35.4623 14.683 35.2632 14.7551Z" fill="#EEF4EE"/>
<path d="M36.9366 17.6871C35.7966 17.3214 37.6053 13.8771 37.6053 12.7773C37.94 11.6784 38.1391 9.99141 38.7428 9.1123C39.8819 9.55274 37.6719 14.3887 37.6719 15.783C37.5394 16.3702 37.3371 17.3214 36.9366 17.6871Z" fill="#EEF4EE"/>
<path d="M38.6097 19.6686C37.4697 19.302 39.0102 16.5152 39.0102 15.5649C39.1435 14.9768 39.813 11.1667 40.3492 13.0718C40.2168 14.7553 39.4783 16.3702 39.2792 18.1302C39.1435 18.6409 38.9444 19.3741 38.6097 19.6686Z" fill="#EEF4EE"/>
<path d="M40.7504 19.3741C39.9484 19.3741 40.886 17.3214 40.9518 16.8089C41.3532 16.0757 41.6872 17.1755 41.3532 17.5421C41.0851 18.0537 41.2866 19.0814 40.7504 19.3741Z" fill="#EEF4EE"/>
<path d="M8.68886 21.207C7.95353 20.6954 9.4274 19.4479 9.69231 18.8633C11.0313 17.9816 9.09265 21.28 8.68886 21.207Z" fill="#EEF4EE"/>
<path d="M9.29156 24.5784C8.35394 23.6272 10.6964 21.5006 10.9653 20.3287C15.7161 12.2664 11.1668 23.3335 9.29156 24.5784Z" fill="#EEF4EE"/>
<path d="M11.5018 25.6782C10.5634 24.5784 13.2414 21.9402 13.6428 20.4738C14.3123 19.3741 14.981 17.615 15.852 16.8088C16.9221 16.9548 12.1713 25.1656 11.5018 25.6782Z" fill="#EEF4EE"/>
<path d="M13.9105 27.6588C12.9071 26.7041 15.1837 24.2848 15.3828 22.967C15.6509 22.3797 17.3247 18.1301 17.3905 20.3288C16.3863 22.6725 15.4518 25.6782 13.9105 27.6588Z" fill="#EEF4EE"/>
<path d="M16.7201 28.0254C15.7159 27.5103 17.1247 26.2655 17.2564 25.5323C17.4595 25.0171 18.2606 23.113 18.5954 24.3604C18.1282 25.4602 17.6586 27.4373 16.7201 28.0254Z" fill="#EEF4EE"/>
<path d="M35.3154 31.6103L51.6332 32.2934L50.9155 25.3335L35.3154 31.6103Z" fill="#EEF4EE"/>
<path d="M31.2366 36.3866V32.9739L34.3537 31.6218L33.9564 27.0636L24.251 9.96058C30.303 7.96412 35.2986 5.07801 40.2035 2.21827C41.113 1.68817 41.4759 1.95893 41.9744 2.61123L52.9313 16.9345L51.5473 17.7178L52.5725 19.4356L53.0951 24.2004L35.2601 31.526L35.4664 31.9154L51.6766 32.4007L51.2928 36.5809L31.2366 36.3866Z" fill="#3F5141"/>
<path d="M26.8439 14.3394L25.5996 12.0906C29.7194 10.5021 33.3519 8.56276 37.8907 6.3562C39.6407 7.74256 41.0287 7.97464 42.7996 7.65025L47.3874 13.644C46.7323 14.8123 45.6936 15.7829 46.7669 17.8558C42.8205 20.429 39.4007 21.6571 35.9079 23.0707C36.6818 16.6945 31.9824 11.3882 26.8439 14.3394Z" fill="#EEF4EE"/>
<path d="M8.33947 35.6992L5.26489 35.4469L4.5119 31.2553L5.32751 29.3775L1.11621 15.1219C7.75747 13.9544 14.9213 12.8652 20.6731 10.8389L29.6392 28.8166L29.8142 33.3168L23.3961 35.81L10.0967 40.9211L8.33947 35.6992Z" fill="#3F5141"/>
<path d="M21.5694 12.9072C16.9679 14.4114 12.9903 15.8733 7.9778 16.3656C7.85498 18.5159 6.37388 19.4663 5.13281 20.6267L7.09958 27.6367C9.36498 27.5488 11.575 27.5628 12.3071 30.4076L24.815 27.3387C25.6932 27.1242 25.8818 26.2811 25.0453 25.9066C19.9631 23.6236 18.6594 17.7828 22.2638 14.9116L21.5694 12.9072Z" fill="#EEF4EE"/>
<path d="M20.7153 11.5105C20.4577 11.0024 20.904 10.3114 21.3608 10.2015L24.0348 9.54834L33.9352 26.8114L34.1022 31.5762L29.8428 33.4126L29.1733 28.1898L20.7153 11.5105Z" fill="#3F5141"/>
<path d="M31.2047 33.03L31.236 35.9777L22.9531 35.9619L29.2669 33.2243L29.9917 33.6146L31.2047 33.03Z" fill="#3F5141"/>
<path d="M50.9261 35.279C51.2609 37.112 48.664 36.3788 47.3771 36.3788C41.0144 36.3788 37.337 36.0887 31.7802 35.9401C31.7802 35.5735 31.8501 35.2069 31.8501 34.8403C35.2626 34.5458 38.8783 34.9124 42.2908 34.4008C42.0219 34.0342 41.7546 34.1072 41.4198 34.1072C40.6179 34.0342 39.7461 34.0342 38.9441 34.0342C36.6016 33.8892 34.1926 33.9621 31.7802 33.7406C31.7802 33.5955 31.7802 33.447 31.7144 33.301C32.4498 32.9344 33.454 32.7903 34.0569 32.2021C40.1474 32.5679 45.5019 32.7138 51.3267 32.7903C51.2609 33.301 51.46 34.3287 50.6572 34.1801C49.3848 34.1801 48.0458 34.1801 46.7743 34.2557C46.1048 34.4008 42.7588 33.8135 42.8247 34.5458C42.7588 34.9889 43.4942 34.9124 43.7623 34.9124C46.1048 34.8403 48.5138 34.9889 50.9261 34.9889V35.279ZM24.6196 35.7221L29.1729 33.8892C29.7067 34.2557 30.3754 33.8892 30.9125 33.6676V35.8663C28.8381 35.8663 26.7606 35.7942 24.6196 35.7221ZM20.8065 36.0887C17.3795 37.4583 13.8369 38.7682 10.5215 40.2724C10.2325 40.406 10.2229 40.3796 10.1626 40.1924C10.0751 39.9137 9.96115 39.4592 9.89452 39.2385C9.82789 39.0205 10.3304 38.8904 10.6965 38.726C11.1886 38.5054 12.1712 38.0658 12.1712 38.0658C14.6469 36.966 17.7247 36.2329 19.7324 34.6223C18.9304 34.2557 16.5213 35.4276 15.4512 35.7942C13.6426 36.5274 11.5017 37.4056 9.69223 38.0658C9.49394 37.3326 9.29165 36.8219 9.02352 36.1608C15.6503 33.9621 22.2105 31.396 28.8381 29.1973C28.8381 29.636 28.9039 30.1485 28.9039 30.5907C28.3677 30.5907 27.8339 31.0303 27.2968 31.1753C26.6273 31.614 19.6666 33.2289 21.2071 34.1072C23.8843 33.5234 26.4258 32.1292 29.0372 31.469C29.103 31.9085 29.1729 32.3472 29.2387 32.6417C26.4427 33.7133 23.3119 35.0689 20.8065 36.0887ZM6.5478 35.2069C6.14722 35.134 5.61018 35.3555 5.34205 34.9889C5.14297 33.8892 5.0073 32.7138 4.87404 31.614C4.87404 31.5419 5.07714 31.0303 5.14297 30.8088C5.74584 32.0571 5.61018 35.279 7.61869 34.6223C7.61869 34.7674 7.75436 35.061 7.82018 35.2069H6.5478ZM3.26771 21.2801C2.86633 19.9632 2.53158 18.9355 2.19683 17.6151C2.19683 17.1755 1.26 15.3426 1.86208 15.3426C8.01927 14.3888 14.2447 13.2899 20.2028 11.6055L21.0048 13.0719C18.0594 13.7321 11.9022 15.1984 8.22076 15.783C7.55126 15.783 6.88256 16.4424 6.94918 17.2485C6.94918 17.47 7.01501 17.6151 6.94918 17.7637C6.7501 18.4968 5.81247 19.0076 5.20879 19.3742C3.73813 20.1803 5.20879 22.2339 5.41189 23.5517C5.94493 25.0937 6.21305 26.8501 6.94918 28.2435C8.15493 29.2694 9.55977 27.0708 11.1011 29.0488C11.6341 29.5639 11.366 30.4422 11.8364 30.9573C12.0355 31.1024 12.237 31.1024 12.4393 31.1024C14.3121 30.6637 16.2532 30.2241 18.1285 29.782C20.5376 29.1973 22.6785 28.6101 24.8885 28.0255C25.2225 27.949 25.892 27.6589 25.9586 27.1438C26.36 26.117 25.4216 25.3838 24.6196 25.0937C21.0714 23.6273 19.1327 18.5689 22.1447 15.565C24.3515 19.8146 26.4957 24.0669 28.6358 28.3921C21.8099 30.5151 14.9142 32.2021 7.95344 33.6676C7.75436 33.6676 7.08485 34.0342 6.94918 33.7406C5.8783 30.0026 4.3378 24.8721 3.26771 21.2801ZM21.9424 14.9039C17.1908 19.0076 20.6708 24.6506 24.9544 26.6321C20.9381 27.8769 16.588 29.1253 12.5717 29.782C12.237 27.2923 9.55977 26.56 7.68451 27.3653C6.94918 25.0172 6.27968 22.6726 5.61018 20.474C6.68026 19.7408 8.35402 18.8634 8.01927 17.1034C12.237 16.0037 17.3241 15.2705 21.2071 13.4384L21.9424 14.9039ZM8.95689 35.279L8.75781 35.3555C8.62214 34.9889 8.55551 34.7674 8.42386 34.4738C10.898 33.8892 13.7783 33.3749 16.1866 32.7138C13.8441 33.5234 11.4358 34.4008 8.95689 35.279ZM21.4061 10.8002C21.6743 10.7238 22.1447 10.5787 22.4096 10.5066C22.8142 10.5066 23.8843 9.77344 24.0834 10.4337C26.8304 15.1984 30.442 21.7188 33.1193 26.56C28.9039 27.8769 29.5076 28.8308 33.454 27.4374C33.6555 32.7138 34.4575 31.1024 30.0415 33.0083C30.3754 31.7626 29.974 29.9305 29.9082 28.6822C29.7725 27.949 29.3045 27.2923 28.9706 26.6321C26.4258 21.8673 24.0175 17.0305 21.5418 12.1901C21.3395 11.5334 20.9381 11.1668 21.4061 10.8002ZM47.8443 26.9257L50.4557 25.8989L51.3267 31.9085C46.3729 31.7626 41.4198 31.5419 36.4002 31.469C40.2165 30.0026 44.0304 28.5371 47.8443 26.9257ZM51.9304 19.3742C50.1868 20.0353 48.448 20.6955 46.7076 21.4287C48.1791 20.474 49.7862 19.5201 51.2609 18.4204L51.9304 19.3742ZM53.4677 23.6273L53.1329 19.9632C53.1329 19.7408 53.1329 19.448 53.0005 19.3021C53.0005 19.0076 52.7982 18.7869 52.6657 18.5689L52.1953 17.7637C53.8683 16.7369 52.5991 15.4885 51.7947 14.4652L49.9885 12.1901C47.4438 8.96818 44.968 5.59328 42.2908 2.37134C41.7546 1.4896 41.0184 0.977076 40.1474 1.63817C36.6675 3.76121 33.2549 5.88778 29.4378 7.35325C28.2344 8.01346 26.2267 8.235 25.2225 9.18619C25.2225 10.5787 27.4991 9.25828 28.2344 9.04026C32.5196 7.28029 36.6675 4.93658 40.6837 2.44343C40.9518 2.29486 40.886 2.14893 41.2207 2.58936C44.0304 6.25349 49.5181 12.7774 52.0621 16.5153C46.7325 20.9241 40.6773 23.6475 35.2803 25.6545C34.0497 26.1134 34.9704 27.018 35.7306 26.6321C37.6091 25.884 39.6449 25.0858 42.3085 24.0625C44.968 23.0392 48.6495 21.7188 52.1953 20.2533C52.2644 20.6955 52.2644 21.0621 52.331 21.5008C49.4515 22.3799 46.0381 24.0669 43.0262 25.2387C42.1552 25.6783 33.3208 28.7587 36.2011 28.7587C40.6837 26.9987 48.0458 24.139 52.4634 22.3799C52.4634 22.895 52.6657 23.5517 52.5301 23.9183C49.5871 25.0937 47.4438 25.971 45.3686 26.778C41.7546 28.2435 38.1389 29.5639 34.5931 31.1753C34.5931 30.0026 34.4575 28.7587 34.3916 27.5103C34.4575 26.9257 34.2592 26.2655 33.9244 25.7504C31.4455 21.2801 28.9039 16.5883 26.36 12.118C29.6393 11.5334 34.7922 8.37917 38.2088 7.05963C39.1432 8.60159 41.0184 8.5251 42.3567 7.86841C43.7623 9.77344 45.6375 11.7514 46.9099 13.805C46.3729 14.4652 45.7708 15.1219 45.8366 16.0758C45.7708 16.5153 46.1048 17.3215 46.1714 17.5421C46.1714 17.5421 46.1714 17.6151 46.1048 17.6151C46.0381 17.6872 45.3686 18.0538 45.237 18.1302C42.2908 19.8146 39.4121 21.0621 36.3327 22.3799C36.6675 20.6955 36.2669 18.641 35.3959 17.1034C34.1235 14.6103 31.313 13.0719 29.0372 13.2169C28.3677 13.2169 28.0996 13.3655 28.7683 13.5835C32.115 14.0231 36.2011 17.7637 35.2626 21.9403C34.9279 22.6726 35.1968 23.7003 36.0654 23.6273C36.466 23.5517 37.6717 22.9671 38.1389 22.8185C40.9518 21.5737 43.8281 20.1803 46.4395 18.641C48.1133 17.8357 46.0381 16.0758 47.2447 14.9039C48.1791 14.2437 47.98 12.9998 47.1748 12.3387C45.9065 10.6517 44.5675 8.96818 43.2951 7.28029C42.6256 6.18052 41.6871 6.98666 40.8162 7.2082C39.4121 7.57391 39.0099 5.22669 37.6051 5.81393C33.9244 7.86841 29.6393 9.91849 26.1609 11.6055C25.4914 10.5787 24.8885 8.37917 23.4139 8.96818C22.4096 9.40685 20.8065 9.25828 20.3361 10.5787C18.9971 10.358 17.5256 11.2389 16.1866 11.4569C13.5752 12.118 10.8321 12.7053 8.15493 13.1439C6.61443 13.4384 5.66958 13.5422 4.20454 13.8771C3.12402 14.125 0.858622 13.6565 0.791992 15.4164C2.05072 20.2146 3.71646 24.9486 4.87404 29.0488C4.67255 29.7099 4.47346 30.3692 4.20454 31.0303C4.07288 32.0571 4.53929 33.8892 4.60672 34.9889C4.80822 36.1608 6.01156 36.0122 6.81593 36.0122C7.01501 36.0122 7.95344 36.0887 8.15493 36.0887C8.55551 36.8939 8.75781 37.8451 9.15919 38.5774C8.95689 38.944 9.13832 39.3906 9.22502 39.7537C9.49715 40.857 9.88409 41.4099 10.5632 41.1436C14.4333 39.6394 18.3275 38.0658 22.2105 36.5274C31.5812 36.8939 41.0184 37.112 50.4557 37.3326C51.2609 37.4786 51.9304 37.0399 51.7947 36.0887L51.8606 35.134C51.8606 34.9124 51.9962 34.5458 51.7947 34.3287C52.1953 33.5234 52.115 33.2245 52.0484 31.7934L51.5258 25.2387C52.331 25.0937 53.5857 24.8994 53.4677 23.6273Z" fill="#EEF4EE"/>
<path d="M33.6554 13.2167C32.8543 13.1438 33.8577 11.4568 33.9243 10.9451C34.3249 10.3579 34.6597 11.3117 34.3249 11.6783C34.0568 12.1179 34.1925 12.9996 33.6554 13.2167Z" fill="#EEF4EE"/>
<path d="M35.2632 14.7551C34.1241 14.465 35.5322 12.1178 35.5322 11.2387C35.6638 10.7235 36.2017 7.50159 36.8013 9.11212C36.6022 10.8 36.066 12.6329 35.6638 14.2435C35.4623 14.465 35.4623 14.683 35.2632 14.7551Z" fill="#EEF4EE"/>
<path d="M36.9366 17.6871C35.7966 17.3214 37.6053 13.8771 37.6053 12.7773C37.94 11.6784 38.1391 9.99141 38.7428 9.1123C39.8819 9.55274 37.6719 14.3887 37.6719 15.783C37.5394 16.3702 37.3371 17.3214 36.9366 17.6871Z" fill="#EEF4EE"/>
<path d="M38.6097 19.6686C37.4697 19.302 39.0102 16.5152 39.0102 15.5649C39.1435 14.9768 39.813 11.1667 40.3492 13.0718C40.2168 14.7553 39.4783 16.3702 39.2792 18.1302C39.1435 18.6409 38.9444 19.3741 38.6097 19.6686Z" fill="#EEF4EE"/>
<path d="M40.7504 19.3741C39.9484 19.3741 40.886 17.3214 40.9518 16.8089C41.3532 16.0757 41.6872 17.1755 41.3532 17.5421C41.0851 18.0537 41.2866 19.0814 40.7504 19.3741Z" fill="#EEF4EE"/>
<path d="M8.68886 21.207C7.95353 20.6954 9.4274 19.4479 9.69231 18.8633C11.0313 17.9816 9.09265 21.28 8.68886 21.207Z" fill="#EEF4EE"/>
<path d="M9.29156 24.5784C8.35394 23.6272 10.6964 21.5006 10.9653 20.3287C15.7161 12.2664 11.1668 23.3335 9.29156 24.5784Z" fill="#EEF4EE"/>
<path d="M11.5018 25.6782C10.5634 24.5784 13.2414 21.9402 13.6428 20.4738C14.3123 19.3741 14.981 17.615 15.852 16.8088C16.9221 16.9548 12.1713 25.1656 11.5018 25.6782Z" fill="#EEF4EE"/>
<path d="M13.9105 27.6588C12.9071 26.7041 15.1837 24.2848 15.3828 22.967C15.6509 22.3797 17.3247 18.1301 17.3905 20.3288C16.3863 22.6725 15.4518 25.6782 13.9105 27.6588Z" fill="#EEF4EE"/>
<path d="M16.7201 28.0254C15.7159 27.5103 17.1247 26.2655 17.2564 25.5323C17.4595 25.0171 18.2606 23.113 18.5954 24.3604C18.1282 25.4602 17.6586 27.4373 16.7201 28.0254Z" fill="#EEF4EE"/>
</g>
<defs>
<clipPath id="clip0_1312_513">
<rect width="53.175" height="40.5093" fill="white" transform="translate(0.770508 0.954102)"/>
</clipPath>
</defs>
</svg>
