<?xml version="1.0" encoding="UTF-8" standalone="no"?>
<!-- Created with Inkscape (http://www.inkscape.org/) -->

<svg
   width="135.53246mm"
   height="113.60262mm"
   viewBox="0 0 135.53246 113.60262"
   version="1.1"
   id="svg5"
   xml:space="preserve"
   xmlns:inkscape="http://www.inkscape.org/namespaces/inkscape"
   xmlns:sodipodi="http://sodipodi.sourceforge.net/DTD/sodipodi-0.dtd"
   xmlns="http://www.w3.org/2000/svg"
   xmlns:svg="http://www.w3.org/2000/svg"><sodipodi:namedview
     id="namedview7"
     pagecolor="#ffffff"
     bordercolor="#000000"
     borderopacity="0.25"
     inkscape:showpageshadow="2"
     inkscape:pageopacity="0.0"
     inkscape:pagecheckerboard="0"
     inkscape:deskcolor="#d1d1d1"
     inkscape:document-units="mm"
     showgrid="false" /><defs
     id="defs2" /><g
     inkscape:label="Camada 1"
     inkscape:groupmode="layer"
     id="layer1"
     transform="translate(-47.507798,-99.657781)"><path
       style="fill:#2a322b;fill-opacity:1;stroke-width:0.264583"
       d="m 108.5271,212.89162 c -7.03629,-0.70355 -14.479128,-2.1554 -21.792868,-4.25107 -2.23618,-0.64076 -4.111411,-1.16501 -4.167185,-1.16501 -0.05577,0 -0.09984,-5.32804 -0.09793,-11.8401 0.0031,-10.59389 0.0564,-12.09658 0.506333,-14.27685 1.200383,-5.81678 4.708412,-11.4504 9.299472,-14.93419 3.34509,-2.53831 6.40253,-3.97381 10.370438,-4.86901 2.50565,-0.5653 18.85503,-0.85103 23.64124,-0.41317 6.57442,0.60146 11.57555,2.80262 15.9376,7.01464 2.95351,2.85193 4.94128,5.89216 6.39794,9.78544 1.29262,3.45481 1.3751,4.3878 1.50414,17.01368 l 0.12217,11.9544 -1.05968,0.54061 c -4.83624,2.46726 -12.93245,4.52501 -21.40181,5.43951 -4.56338,0.49274 -14.33736,0.49331 -19.25986,0.001 z m 46.4322,-23.53431 c -0.006,-9.53597 -1.88495,-15.51682 -6.85837,-21.8309 -2.70775,-3.43767 -6.38747,-6.31464 -10.6518,-8.32806 -1.35504,-0.63978 -2.79112,-1.24393 -3.19131,-1.34254 -0.87066,-0.21455 -0.90406,-0.40939 -0.18216,-1.0627 1.46345,-1.32441 3.99349,-5.35075 5.1447,-8.18736 0.6281,-1.54765 1.44899,-5.12824 1.45581,-6.35 0.003,-0.58208 0.10581,-1.21592 0.22793,-1.40853 0.17983,-0.28363 2.17824,-0.33082 10.51314,-0.24829 9.52233,0.0943 10.44377,0.14421 12.33476,0.66834 7.58157,2.1014 13.24986,6.76819 16.62607,13.68848 2.38673,4.89214 2.44555,5.33611 2.56135,19.33397 l 0.10084,12.19021 -1.87713,0.86523 c -5.78799,2.66785 -14.73655,4.69425 -23.2251,5.25931 l -2.97656,0.19815 -0.002,-3.44531 z m -81.357201,3.00261 c -7.366653,-0.7036 -17.735463,-2.85986 -24.821108,-5.16171 l -1.273193,-0.4136 0.100613,-12.34256 c 0.115511,-14.1701 0.169971,-14.5844 2.561461,-19.4863 3.375799,-6.91945 9.034506,-11.57901 16.626071,-13.69043 1.914974,-0.5326 2.761784,-0.57456 13.44856,-0.66631 l 11.404909,-0.0979 0.17567,1.71468 c 0.52642,5.13817 3.32872,11.31871 6.48863,14.31084 0.45137,0.42741 0.82068,0.85504 0.82068,0.9503 0,0.0953 -0.50602,0.32346 -1.12448,0.5071 -5.16439,1.53348 -11.69633,6.50442 -15.064654,11.4645 -1.629933,2.40018 -3.54585,6.63624 -4.334867,9.58432 -0.627194,2.34345 -0.723259,3.27328 -0.84056,8.13594 l -0.132437,5.49011 -0.827021,-0.0358 c -0.454864,-0.0197 -1.898587,-0.13811 -3.208274,-0.2632 z m 38.593531,-33.15213 c -9.73374,-2.21822 -16.141338,-10.62521 -15.633588,-20.51178 0.26942,-5.24588 2.32022,-9.70694 6.130738,-13.33605 3.80258,-3.62155 9.57763,-5.72996 14.69786,-5.36603 8.7964,0.62523 15.82696,6.43659 18.14821,15.00109 0.69148,2.55125 0.64,7.19216 -0.10927,9.8514 -1.87986,6.67185 -6.74793,11.77806 -13.23235,13.87968 -2.53974,0.82314 -7.46286,1.06024 -10.0016,0.48169 z m -33.331482,-20.2629 c -7.876055,-1.07609 -14.123347,-6.47029 -16.542927,-14.28393 -0.875273,-2.82655 -0.881135,-7.68959 -0.0129,-10.7037 1.89934,-6.59363 6.628159,-11.41797 13.410446,-13.68135 1.60057,-0.53414 2.373074,-0.61807 5.688541,-0.61807 3.315464,0 4.087974,0.0839 5.688544,0.61807 8.2395,2.74968 13.490268,9.38298 14.069868,17.77446 l 0.15561,2.25294 -1.478248,1.26291 c -3.22622,2.75625 -6.23469,7.74521 -7.3669,12.21658 -0.55014,2.17265 -0.63361,2.31951 -1.65691,2.9154 -3.13082,1.82313 -8.150637,2.76649 -11.955124,2.24669 z m 67.834852,0.001 c -1.8398,-0.2246 -2.97938,-0.52164 -4.88434,-1.27317 -1.04409,-0.41191 -1.11864,-0.5126 -1.2873,-1.73893 -0.4362,-3.17158 -1.91515,-6.8831 -3.95313,-9.92066 -1.34133,-1.99922 -4.37474,-5.06975 -6.18468,-6.26036 l -1.1563,-0.76063 0.16221,-1.5519 c 0.70188,-6.7151 4.6185,-12.57049 10.4541,-15.62891 3.39923,-1.78152 5.00427,-2.15355 9.29107,-2.15355 3.31547,0 4.08798,0.0839 5.68855,0.61807 6.78228,2.26338 11.5111,7.08772 13.41044,13.68135 0.86823,3.01411 0.86237,7.87715 -0.0129,10.7037 -2.96321,9.56919 -11.85041,15.46644 -21.52772,14.28508 z"
       id="path2343" /></g></svg>
