<?xml version="1.0" encoding="UTF-8" standalone="no"?>
<!-- Created with Inkscape (http://www.inkscape.org/) -->

<svg
   width="123.64907mm"
   height="107.15968mm"
   viewBox="0 0 123.64907 107.15968"
   version="1.1"
   id="svg5"
   xml:space="preserve"
   xmlns:inkscape="http://www.inkscape.org/namespaces/inkscape"
   xmlns:sodipodi="http://sodipodi.sourceforge.net/DTD/sodipodi-0.dtd"
   xmlns="http://www.w3.org/2000/svg"
   xmlns:svg="http://www.w3.org/2000/svg"><sodipodi:namedview
     id="namedview7"
     pagecolor="#ffffff"
     bordercolor="#000000"
     borderopacity="0.25"
     inkscape:showpageshadow="2"
     inkscape:pageopacity="0.0"
     inkscape:pagecheckerboard="0"
     inkscape:deskcolor="#d1d1d1"
     inkscape:document-units="mm"
     showgrid="false" /><defs
     id="defs2" /><g
     inkscape:label="Camada 1"
     inkscape:groupmode="layer"
     id="layer1"
     transform="translate(-37.539559,-77.12808)"><path
       style="fill:#2a322b;fill-opacity:1;stroke-width:0.264583"
       d="m 133.58284,174.9205 -9.39225,-9.36726 -3.88673,1.29272 c -3.88059,1.29069 -8.28315,2.30153 -12.78202,2.9348 -3.11196,0.43805 -13.039936,0.43098 -16.271866,-0.0116 -7.44142,-1.019 -14.47347,-3.14765 -21.03437,-6.36725 -13.500429,-6.62501 -23.815138,-16.92873 -30.584364,-30.55179 -1.150425,-2.31523 -2.091681,-4.52861 -2.091681,-4.91862 0,-0.39001 0.941256,-2.60338 2.091681,-4.91862 2.127046,-4.28067 5.14002,-9.06787 7.811637,-12.41159 1.93345,-2.41985 6.946133,-7.49365 9.232009,-9.34458 l 1.80512,-1.461642 -7.755565,-7.75891 -7.755565,-7.75891 3.567225,-3.57459 3.567225,-3.57458 50.072714,50.072212 50.07273,50.0722 -3.50041,3.50763 c -1.92523,1.92919 -3.56181,3.50763 -3.63685,3.50763 -0.075,0 -4.36294,-4.21527 -9.52867,-9.36726 z m -31.21343,-18.95646 c 2.81623,-0.34905 4.8505,-0.86704 7.4861,-1.90619 l 2.06908,-0.81579 -4.40765,-4.41337 -4.40764,-4.41338 -1.10102,0.21325 c -3.139826,0.60811 -6.816256,0.007 -10.212116,-1.66886 -6.38835,-3.15324 -10.34553,-10.84967 -9.04115,-17.58441 l 0.21324,-1.10102 -4.41337,-4.40765 -4.41338,-4.40765 -0.81579,2.06909 c -4.121874,10.45432 -2.00064,21.66185 5.61878,29.6868 6.25174,6.58448 14.8823,9.80799 23.424916,8.74918 z m 31.41557,-9.50955 -8.13269,-8.15608 0.40991,-1.14856 c 2.91768,-8.17524 1.77451,-17.33149 -3.0999,-24.82875 -1.43766,-2.21126 -5.68858,-6.46218 -7.89983,-7.89984 -7.51259,-4.884372 -16.636786,-6.023552 -24.828706,-3.09991 l -1.14851,0.40989 -5.9291,-6.009012 c -3.261,-3.30495 -5.9291,-6.08125 -5.9291,-6.16956 0,-0.47824 8.43045,-2.60208 13.22917,-3.33275 3.7336,-0.56849 13.468326,-0.6479 17.065616,-0.1392 12.64552,1.78821 24.07428,6.59815 33.3375,14.030532 2.56907,2.06131 6.75158,6.08377 8.98165,8.63797 3.82233,4.37788 7.7829,10.55084 10.19879,15.89591 1.66258,3.67837 1.71353,3.27881 -1.13505,8.90165 -3.49256,6.89398 -7.31327,12.06765 -13.09656,17.73421 -1.89361,1.85539 -3.54363,3.36357 -3.66671,3.35151 -0.12308,-0.0121 -3.8835,-3.69216 -8.35648,-8.17801 z m -26.39543,-26.61744 -8.863536,-8.89637 2.080346,0.17478 c 6.05239,0.50848 11.30303,3.97819 13.92143,9.19952 1.16529,2.32368 1.929,5.35602 1.80782,7.17793 l -0.0825,1.24051 z"
       id="path1582" /></g></svg>
