<?xml version="1.0" encoding="UTF-8" standalone="no"?>
<!-- Created with Inkscape (http://www.inkscape.org/) -->

<svg
   width="135.36108mm"
   height="135.32256mm"
   viewBox="0 0 135.36108 135.32256"
   version="1.1"
   id="svg5"
   xml:space="preserve"
   xmlns:inkscape="http://www.inkscape.org/namespaces/inkscape"
   xmlns:sodipodi="http://sodipodi.sourceforge.net/DTD/sodipodi-0.dtd"
   xmlns="http://www.w3.org/2000/svg"
   xmlns:svg="http://www.w3.org/2000/svg"><sodipodi:namedview
     id="namedview7"
     pagecolor="#ffffff"
     bordercolor="#000000"
     borderopacity="0.25"
     inkscape:showpageshadow="2"
     inkscape:pageopacity="0.0"
     inkscape:pagecheckerboard="0"
     inkscape:deskcolor="#d1d1d1"
     inkscape:document-units="mm"
     showgrid="false" /><defs
     id="defs2" /><g
     inkscape:label="Camada 1"
     inkscape:groupmode="layer"
     id="layer1"
     transform="translate(-51.661924,-77.861753)"><path
       style="fill:#eef4ee;fill-opacity:1;stroke-width:0.264583"
       d="m 70.394552,213.01267 c -0.800365,-0.14121 -2.268305,-0.51221 -3.26209,-0.82443 l -1.806882,-0.56767 7.361882,-7.36541 7.361881,-7.3654 -6.017497,-6.0175 -6.017499,-6.0175 -7.365405,7.36188 -7.365405,7.36189 -0.564925,-1.80689 c -1.235659,-3.95219 -1.392539,-8.24415 -0.444686,-12.1658 0.62391,-2.58136 2.747728,-6.80283 4.461262,-8.86755 2.840261,-3.42238 7.08611,-6.17367 11.428452,-7.40559 2.547187,-0.72264 7.948241,-0.84829 10.65606,-0.24791 l 1.678273,0.37211 31.369877,-31.36988 31.36987,-31.36987 -0.3721,-1.67828 c -0.59987,-2.70546 -0.47471,-8.108972 0.2467,-10.65168 1.83558,-6.469706 6.06718,-11.486401 12.08118,-14.322651 5.28694,-2.493355 10.77824,-2.871577 16.35897,-1.126751 l 1.80688,0.564925 -7.36188,7.365405 -7.36188,7.365405 6.0175,6.017497 6.01749,6.0175 7.36541,-7.361882 7.36541,-7.361882 0.56492,1.806882 c 1.23566,3.952189 1.39254,8.244152 0.44469,12.165802 -0.62392,2.58136 -2.74773,6.80283 -4.46127,8.86755 -5.14731,6.20226 -13.47958,9.24648 -21.24282,7.76113 l -2.07376,-0.39678 -31.5515,31.5515 -31.551494,31.5515 0.396777,2.07376 c 1.489987,7.78746 -1.622788,16.23838 -7.859159,21.33694 -1.950704,1.59481 -6.22781,3.74372 -8.677399,4.35972 -2.095527,0.52696 -7.01141,0.74003 -8.995833,0.38991 z"
       id="path1617"
       inkscape:export-filename="icon-ferramenta.svg"
       inkscape:export-xdpi="96"
       inkscape:export-ydpi="96" /></g></svg>
