<svg width="100" height="100" viewBox="0 0 100 100" fill="none" xmlns="http://www.w3.org/2000/svg">
<g clip-path="url(#clip0_981_680)">
<path d="M47.9028 99.7266C44.6163 98.8416 42.0925 96.2341 41.4216 93.0305C41.2726 92.3186 41.2047 86.8006 41.2047 75.3897V58.7847H24.5321C6.50167 58.7847 6.80299 58.8007 4.6864 57.7283C1.4352 56.0809 -0.50351 52.2162 0.114259 48.6139C0.568721 45.9639 2.23091 43.5662 4.42374 42.3976C6.74581 41.16 6.19867 41.1928 24.5321 41.1928H41.2047V24.5878C41.2047 13.1769 41.2726 7.65887 41.4216 6.94706C41.9594 4.37911 43.8355 1.99967 46.1917 0.897133C49.5825 -0.689483 53.2489 -0.148995 55.9738 2.33915C57.1302 3.39515 58.2528 5.37908 58.5812 6.94706C58.7302 7.65887 58.7981 13.1769 58.7981 24.5878V41.1928H75.4044C86.8763 41.1928 92.331 41.2603 93.0467 41.4109C96.5424 42.147 99.2709 45.0124 99.8848 48.5922C100.333 51.2055 99.4544 54.0469 97.5779 56.0529C96.5711 57.1292 94.5438 58.2544 93.0467 58.5678C92.3348 58.7169 86.8163 58.7847 75.4044 58.7847H58.7981V75.3897C58.7981 86.8006 58.7303 92.3186 58.5812 93.0305C58.4619 93.6002 58.057 94.6564 57.6815 95.3776C55.8649 98.8669 51.658 100.738 47.9028 99.7266Z" fill="#EEF4EE"/>
</g>
<defs>
<clipPath id="clip0_981_680">
<rect width="100" height="100" fill="white"/>
</clipPath>
</defs>
</svg>
