<?xml version="1.0" encoding="UTF-8" standalone="no"?>
<!-- Created with Inkscape (http://www.inkscape.org/) -->

<svg
   width="109.77832mm"
   height="109.79666mm"
   viewBox="0 0 109.77832 109.79666"
   version="1.1"
   id="svg5"
   xml:space="preserve"
   xmlns:inkscape="http://www.inkscape.org/namespaces/inkscape"
   xmlns:sodipodi="http://sodipodi.sourceforge.net/DTD/sodipodi-0.dtd"
   xmlns="http://www.w3.org/2000/svg"
   xmlns:svg="http://www.w3.org/2000/svg"><sodipodi:namedview
     id="namedview7"
     pagecolor="#ffffff"
     bordercolor="#000000"
     borderopacity="0.25"
     inkscape:showpageshadow="2"
     inkscape:pageopacity="0.0"
     inkscape:pagecheckerboard="0"
     inkscape:deskcolor="#d1d1d1"
     inkscape:document-units="mm"
     showgrid="false" /><defs
     id="defs2" /><g
     inkscape:label="Camada 1"
     inkscape:groupmode="layer"
     id="layer1"
     transform="translate(-59.447378,-122.33424)"><path
       style="fill:#2a322b;fill-opacity:1;stroke-width:0.264583"
       d="m 93.203199,232.06846 c -1.091406,-0.0446 -3.710781,-0.21099 -5.820833,-0.36966 -13.580884,-1.02123 -20.40466,-4.27012 -23.872965,-11.36624 -2.005089,-4.10239 -2.986052,-8.39142 -3.69135,-16.13958 -0.486774,-5.34752 -0.497223,-48.83083 -0.01297,-53.975 1.044061,-11.09095 2.892033,-16.58273 6.94329,-20.63399 5.175685,-5.17568 13.51061,-7.12292 30.971048,-7.23558 6.534531,-0.0422 6.844881,-0.0213 7.565071,0.50953 2.60132,1.9172 2.60342,5.168 0.005,7.0951 -0.71045,0.52681 -1.16961,0.56145 -9.525004,0.71854 -11.099157,0.20869 -15.251419,0.67608 -18.965033,2.13475 -5.235723,2.05655 -7.437882,5.8054 -8.518355,14.50124 -0.497757,4.00604 -0.497757,55.78979 0,59.79583 1.080473,8.69584 3.282632,12.44469 8.518355,14.50123 3.690019,1.44941 7.841014,1.91275 19.097309,2.13166 8.218278,0.15983 8.683218,0.19555 9.392708,0.72164 2.59689,1.92563 2.59705,5.16867 2.7e-4,7.0951 -0.68795,0.51037 -1.11051,0.55517 -5.423964,0.57504 -2.572837,0.0119 -5.570855,-0.015 -6.662261,-0.0596 z m 49.799391,-28.58008 c -1.73999,-0.85761 -2.59892,-3.16049 -1.93224,-5.18056 0.22764,-0.68977 2.39604,-2.90514 8.64156,-8.82877 l 8.33766,-7.90794 -30.90183,-0.13229 c -30.413234,-0.1302 -30.916474,-0.14076 -31.827874,-0.66752 -1.011021,-0.58433 -2.116667,-2.44695 -2.116667,-3.56582 0,-1.11887 1.105646,-2.98149 2.116667,-3.56582 0.9114,-0.52676 1.41464,-0.53731 31.827874,-0.66751 l 30.90183,-0.13229 -8.33766,-7.90794 c -8.90127,-8.44251 -9.06939,-8.65005 -8.81752,-10.88468 0.31209,-2.76887 3.19823,-4.34819 5.82929,-3.18983 1.12683,0.49611 19.39738,17.93227 20.47892,19.54368 1.50329,2.2398 2.02308,3.98806 2.02308,6.80439 0,2.75484 -0.46689,4.38275 -1.9093,6.6572 -0.89035,1.40394 -19.53618,19.24933 -20.60771,19.72306 -1.01689,0.44956 -2.68535,0.40573 -3.70608,-0.0974 z"
       id="path1528" /></g></svg>
