<svg width="46" height="46" viewBox="0 0 46 46" fill="none" xmlns="http://www.w3.org/2000/svg">
<path d="M8.47187 3.97595C5.96431 3.97595 3.91187 6.02839 3.91187 8.53595V37.72C3.91187 40.2275 5.96431 42.28 8.47187 42.28H23.8227C23.9212 42.2962 24.0217 42.2962 24.1201 42.28H29.2947C29.3932 42.2962 29.4937 42.2962 29.5921 42.28H37.6559C40.1634 42.28 42.2159 40.2275 42.2159 37.72V8.53595C42.2159 6.02839 40.1634 3.97595 37.6559 3.97595H8.47187ZM8.47187 5.79995H37.6559C39.1775 5.79995 40.3919 7.01429 40.3919 8.53595V37.72C40.3919 39.2416 39.1775 40.456 37.6559 40.456H30.3599V27.688H33.844L35.1211 21.304H30.3599V19.48C30.3599 18.9715 30.4082 18.9318 30.579 18.8209C30.7497 18.71 31.2772 18.568 32.1839 18.568H34.9199V13.4326L34.3997 13.185C34.3997 13.185 32.3048 12.184 29.4479 12.184C27.3959 12.184 25.7101 13.0015 24.6314 14.35C23.5526 15.6984 23.0639 17.504 23.0639 19.48V21.304H20.3279V27.688H23.0639V40.456H8.47187C6.95021 40.456 5.73587 39.2416 5.73587 37.72V8.53595C5.73587 7.01429 6.95021 5.79995 8.47187 5.79995ZM29.4479 14.008C31.344 14.008 32.5371 14.4261 33.0959 14.6474V16.744H32.1839C31.1343 16.744 30.2932 16.8308 29.585 17.2908C28.8768 17.7508 28.5359 18.624 28.5359 19.48V23.128H32.8946L32.3477 25.864H28.5359V40.456H24.8879V25.864H22.1519V23.128H24.8879V19.48C24.8879 17.808 25.3111 16.4215 26.0564 15.49C26.8016 14.5584 27.8519 14.008 29.4479 14.008Z" fill="#F3EDEA"/>
</svg>
