<svg width="45" height="45" viewBox="0 0 45 45" fill="none" xmlns="http://www.w3.org/2000/svg">
<g clip-path="url(#clip0_520_1047)">
<path d="M21.5563 44.877C20.0773 44.4787 18.9416 43.3054 18.6397 41.8637C18.5727 41.5434 18.5421 39.0603 18.5421 33.9254V26.4531H11.0394C2.92575 26.4531 3.06135 26.4603 2.10888 25.9777C0.645842 25.2364 -0.226579 23.4973 0.0514165 21.8763C0.255924 20.6838 1.00391 19.6048 1.99068 19.0789C3.03562 18.522 2.7894 18.5368 11.0394 18.5368H18.5421V11.0645C18.5421 5.92961 18.5727 3.44649 18.6397 3.12618C18.8817 1.9706 19.726 0.899852 20.7863 0.40371C22.3121 -0.310267 23.962 -0.0670475 25.1882 1.05262C25.7086 1.52782 26.2138 2.42059 26.3615 3.12618C26.4286 3.44649 26.4591 5.92961 26.4591 11.0645V18.5368H33.932C39.0943 18.5368 41.549 18.5671 41.871 18.6349C43.4441 18.9662 44.6719 20.2556 44.9482 21.8665C45.1499 23.0425 44.7545 24.3211 43.91 25.2238C43.457 25.7081 42.5447 26.2145 41.871 26.3555C41.5507 26.4226 39.0673 26.4531 33.932 26.4531H26.4591V33.9254C26.4591 39.0603 26.4286 41.5434 26.3615 41.8637C26.3078 42.1201 26.1257 42.5954 25.9567 42.9199C25.1392 44.4901 23.2461 45.332 21.5563 44.877Z" fill="#2A322B"/>
</g>
<defs>
<clipPath id="clip0_520_1047">
<rect width="45" height="45" fill="white"/>
</clipPath>
</defs>
</svg>
