<?xml version="1.0" encoding="UTF-8" standalone="no"?>
<!-- Created with Inkscape (http://www.inkscape.org/) -->

<svg
   width="121.11706mm"
   height="138.46301mm"
   viewBox="0 0 121.11706 138.46301"
   version="1.1"
   id="svg5"
   xml:space="preserve"
   xmlns:inkscape="http://www.inkscape.org/namespaces/inkscape"
   xmlns:sodipodi="http://sodipodi.sourceforge.net/DTD/sodipodi-0.dtd"
   xmlns="http://www.w3.org/2000/svg"
   xmlns:svg="http://www.w3.org/2000/svg"><sodipodi:namedview
     id="namedview7"
     pagecolor="#ffffff"
     bordercolor="#000000"
     borderopacity="0.25"
     inkscape:showpageshadow="2"
     inkscape:pageopacity="0.0"
     inkscape:pagecheckerboard="0"
     inkscape:deskcolor="#d1d1d1"
     inkscape:document-units="mm"
     showgrid="false" /><defs
     id="defs2" /><g
     inkscape:label="Camada 1"
     inkscape:groupmode="layer"
     id="layer1"
     transform="translate(-48.043317,-71.15785)"><path
       style="fill:#3f5141;fill-opacity:1;stroke-width:0.264583"
       d="m 91.692113,209.48443 c -2.82494,-0.47289 -4.33333,-1.27826 -27.38438,-14.62119 -11.68334,-6.76282 -12.781,-7.61948 -14.6841,-11.46008 l -1.09645,-2.21273 -0.23661,-4.87775 c -0.13013,-2.68277 -0.24068,-24.65326 -0.24566,-48.82331 -0.009,-42.93057 0.003,-43.98028 0.50817,-45.44888 1.73284,-5.036599 5.37067,-8.79064 10.06611,-10.387686 1.39418,-0.474199 2.99754,-0.494956 38.23229,-0.494956 h 36.777077 l 1.83771,0.615536 c 3.74417,1.254096 7.10725,4.331407 8.96513,8.203336 l 1.07642,2.2433 0.2309,5.58142 c 0.29613,7.1583 0.11724,18.00316 -0.31466,19.07515 -0.72237,1.79296 -2.55903,3.04785 -4.44482,3.0369 -1.16926,-0.007 -2.90905,-0.74352 -3.60553,-1.5268 -1.10983,-1.24815 -1.20711,-2.15806 -1.23635,-11.56426 -0.0154,-4.94771 -0.11301,-9.84251 -0.21693,-10.87733 -0.2199,-2.1897 -0.90297,-3.38868 -2.53247,-4.44527 l -1.05595,-0.68469 h -30.10953 c -17.386777,0 -30.109537,0.0994 -30.109537,0.23518 0,0.12934 2.9468,1.93596 6.54844,4.0147 3.60164,2.07875 8.81062,5.08382 11.57552,6.67796 10.116617,5.83284 12.070897,7.09766 14.184877,9.18049 1.95147,1.92272 2.97176,3.49079 3.70135,5.68854 0.28198,0.84943 0.37929,7.97846 0.49297,36.11562 l 0.14163,35.05729 7.28328,0.0702 c 4.0058,0.0386 9.37892,-0.0245 11.94026,-0.14019 4.52252,-0.20434 4.6882,-0.23205 5.73815,-0.95965 0.64441,-0.44658 1.31679,-1.23602 1.66448,-1.95425 0.55847,-1.15364 0.5901,-1.61756 0.74218,-10.88453 0.1769,-10.78008 0.15913,-10.67493 2.04653,-12.11324 2.15963,-1.64577 6.37441,-0.52371 7.17722,1.91072 0.26535,0.80467 0.32595,3.49889 0.26458,11.76356 l -0.0796,10.71985 -0.98605,2.06505 c -1.72544,3.61355 -4.04167,6.07296 -7.22047,7.66683 -2.51809,1.26258 -3.04191,1.3111 -16.00286,1.48251 l -12.30312,0.1627 -0.19851,3.175 c -0.49285,7.88266 -0.57327,8.43242 -1.51507,10.35794 -1.24979,2.55522 -4.23421,5.50319 -6.88537,6.80127 -2.878607,1.40945 -6.172917,2.00396 -8.731247,1.57571 z M 128.2118,149.5601 c -0.69157,-0.19837 -2.79615,-2.1395 -8.50828,-7.84749 -4.17418,-4.17117 -7.83815,-8.00065 -8.14214,-8.50998 -0.67803,-1.13599 -0.72135,-2.86946 -0.1048,-4.19334 0.26327,-0.5653 3.58685,-4.10509 8.01202,-8.53322 8.11489,-8.12032 8.44214,-8.36692 10.75659,-8.10605 3.25757,0.36717 5.37454,4.16609 3.77952,6.78239 -0.30135,0.49431 -1.78918,2.17161 -3.3063,3.72735 -1.51712,1.55573 -2.75839,2.96399 -2.75839,3.12945 0,0.22128 5.06059,0.3201 19.13689,0.37369 l 19.13689,0.0729 0.97688,0.74522 c 1.3289,1.01376 1.74881,1.73004 1.93479,3.30036 0.2199,1.85668 -0.60717,3.54195 -2.24934,4.58339 l -1.2043,0.76374 h -18.73361 c -13.80105,0 -18.73362,0.0791 -18.73362,0.30038 0,0.16521 1.23413,1.57778 2.74251,3.13906 3.33367,3.45054 3.86446,4.51981 3.36083,6.77026 -0.39077,1.74616 -1.52237,3.01686 -3.11027,3.49261 -1.23766,0.37081 -1.72036,0.37232 -2.98587,0.009 z"
       id="path1528" /></g></svg>
