<svg width="40" height="40" viewBox="0 0 40 40" fill="none" xmlns="http://www.w3.org/2000/svg">
<path d="M21.3367 24.304L21.3348 24.303C21.3296 24.2868 21.3267 24.2692 21.3221 24.2513C21.3268 24.2697 21.3314 24.2873 21.3367 24.304ZM21.3035 24.178C21.3032 24.1764 21.3028 24.1748 21.3026 24.1732C21.3002 24.1597 21.2985 24.1454 21.2967 24.1312C21.2988 24.1472 21.3008 24.1629 21.3035 24.178ZM21.3035 23.8304C21.3055 23.8192 21.306 23.8075 21.3084 23.7962C21.3093 23.792 21.3104 23.7877 21.3113 23.7835C21.3078 23.7991 21.3062 23.8149 21.3035 23.8304ZM23.2674 23.8021C23.2682 23.8058 23.2676 23.81 23.2684 23.8138C23.2649 23.7958 23.2598 23.7787 23.2557 23.762C23.2589 23.7752 23.2646 23.7881 23.2674 23.8021ZM21.3279 23.7259C21.3321 23.7113 21.3348 23.6963 21.3397 23.6819C21.3356 23.6949 21.3323 23.7107 21.3279 23.7259ZM23.2147 23.6321C23.2176 23.6396 23.2215 23.6468 23.2244 23.6546C23.2215 23.6467 23.2176 23.6395 23.2147 23.6321ZM21.3768 23.5892C21.3719 23.6004 21.3679 23.6128 21.3631 23.6243C21.3674 23.6138 21.3701 23.6025 21.3748 23.5921C21.3754 23.5909 21.3753 23.5894 21.3758 23.5882L21.3768 23.5892ZM23.1736 23.5384C23.1773 23.5453 23.1797 23.5532 23.1834 23.5609C23.1716 23.5369 23.1579 23.5162 23.1463 23.4964C23.1543 23.51 23.1657 23.5231 23.1736 23.5384ZM23.0809 23.3929C23.0831 23.3958 23.0844 23.3995 23.0867 23.4026C23.0765 23.389 23.0666 23.3767 23.0574 23.3655C23.0646 23.3743 23.0733 23.383 23.0809 23.3929ZM23.0096 23.3099C23.0153 23.3158 23.0206 23.3232 23.0272 23.3304C23.0064 23.3075 22.9867 23.2889 22.9705 23.2737C22.9823 23.2848 22.9964 23.2962 23.0096 23.3099ZM16.2918 19.4788C16.2775 19.4848 16.2655 19.4891 16.2645 19.4896C16.2675 19.4884 16.2836 19.4821 16.3026 19.4739C16.2988 19.4756 16.2951 19.4774 16.2918 19.4788ZM16.3533 19.4505C16.349 19.4526 16.3447 19.4544 16.3406 19.4564C16.3464 19.4536 16.3523 19.4506 16.3582 19.4476L16.3533 19.4505ZM15.827 16.8821C15.7957 16.8813 15.7639 16.8793 15.7313 16.8753C15.761 16.879 15.7928 16.8812 15.827 16.8821ZM15.6483 16.8616C15.6415 16.8602 15.6345 16.8603 15.6277 16.8587C15.6232 16.8577 15.6188 16.855 15.6141 16.8538C15.6248 16.8565 15.6362 16.8591 15.6483 16.8616ZM15.3699 16.7581C15.3645 16.7551 15.3588 16.7525 15.3533 16.7493C15.3586 16.7524 15.3643 16.755 15.3699 16.7581ZM16.2869 14.9847C16.2951 14.9886 16.3029 14.9925 16.3104 14.9964C16.3027 14.9925 16.2945 14.9903 16.2869 14.9866V14.9847ZM17.075 14.5706C17.1156 14.6664 17.1557 14.7575 17.1893 14.8343L16.5311 14.9905C16.5112 14.9435 16.4885 14.8902 16.4627 14.8294C16.4391 14.7735 16.4144 14.7144 16.3885 14.6526C16.4384 14.5484 16.5019 14.4359 16.5633 14.3587C16.6464 14.2921 16.7741 14.229 16.9109 14.178C16.9706 14.3208 17.0254 14.4534 17.075 14.5706ZM16.1287 14.9241C16.1327 14.9253 16.1365 14.9269 16.1404 14.928C16.1321 14.9255 16.124 14.9234 16.116 14.9212C16.1202 14.9223 16.1248 14.923 16.1287 14.9241ZM15.991 14.8948C16.0061 14.8969 16.0203 14.9001 16.034 14.9026C16.0195 14.9 16.0053 14.8968 15.991 14.8948ZM13.3895 11.138C13.5713 11.1404 13.7464 11.1441 13.91 11.1517V11.1526H13.9119L13.9344 11.1536H13.9588V11.1526C13.9768 11.1527 13.99 11.1529 13.9959 11.1526C14.0101 11.1521 14.0219 11.1511 14.0281 11.1507C14.0401 11.1499 14.0508 11.149 14.0535 11.1487C14.0713 11.1472 14.0554 11.1488 14.0672 11.1478C14.0712 11.1474 14.076 11.1471 14.0818 11.1468C14.094 11.1462 14.1157 11.1457 14.1443 11.1478C14.1597 11.1489 14.1766 11.152 14.1942 11.1546C13.9436 11.2649 13.6616 11.4613 13.5018 11.805C13.3767 11.8026 13.2464 11.8016 13.1141 11.8011C13.1156 11.7358 13.1235 11.6669 13.1404 11.595C13.1886 11.3903 13.2911 11.2416 13.3895 11.138Z" fill="#F3EDEA" stroke="#F3EDEA" stroke-width="2"/>
</svg>
