<svg xmlns="http://www.w3.org/2000/svg" xmlns:xlink="http://www.w3.org/1999/xlink" width="126" zoomAndPan="magnify" viewBox="0 0 94.5 179.999997" height="240" preserveAspectRatio="xMidYMid meet" version="1.2"><defs><clipPath id="53e4145b17"><path d="M 6 0.472656 L 87 0.472656 L 87 123 L 6 123 Z M 6 0.472656 "/></clipPath><clipPath id="ab5dc64f1d"><path d="M 6 0.472656 L 87 0.472656 L 87 123 L 6 123 Z M 6 0.472656 "/></clipPath><clipPath id="13ca01035e"><path d="M 6 0.472656 L 87 0.472656 L 87 123 L 6 123 Z M 6 0.472656 "/></clipPath></defs><g id="6f77ac02f0"><path style=" stroke:none;fill-rule:nonzero;fill:#3f5141;fill-opacity:1;" d="M 86.304688 167.410156 C 82.78125 173.527344 78.144531 175.839844 76.800781 175.058594 C 75.453125 174.28125 75.144531 169.117188 78.671875 163.003906 C 82.203125 156.890625 86.828125 154.578125 88.175781 155.355469 C 89.519531 156.128906 89.832031 161.300781 86.304688 167.410156 Z M 16.28125 175.058594 C 14.933594 175.839844 10.304688 173.527344 6.773438 167.410156 C 3.246094 161.300781 3.558594 156.128906 4.902344 155.355469 C 6.25 154.578125 10.878906 156.890625 14.40625 163.003906 C 17.9375 169.117188 17.625 174.28125 16.28125 175.058594 Z M 89.597656 152.894531 L 68.191406 142.71875 L 76.328125 137.109375 C 78.410156 135.910156 78.1875 131.625 75.832031 127.542969 C 73.472656 123.460938 69.875 121.125 67.792969 122.328125 L 46.539062 132.429688 L 25.285156 122.328125 C 23.203125 121.125 19.605469 123.460938 17.25 127.542969 C 14.894531 131.625 14.671875 135.910156 16.753906 137.109375 L 24.890625 142.71875 L 3.480469 152.894531 C 0.0117188 154.894531 0.382812 162.03125 4.3125 168.832031 C 8.234375 175.636719 14.230469 179.527344 17.707031 177.523438 L 46.539062 157.644531 L 75.375 177.523438 C 78.847656 179.527344 84.839844 175.636719 88.769531 168.832031 C 92.695312 162.03125 93.066406 154.894531 89.597656 152.894531 "/><g clip-rule="nonzero" clip-path="url(#53e4145b17)"><path style=" stroke:none;fill-rule:nonzero;fill:#3f5141;fill-opacity:1;" d="M 43.734375 82.054688 C 52.835938 72.550781 51.207031 65.183594 52.417969 62.175781 C 54.878906 67.820312 57.277344 73.496094 59.03125 79.40625 C 61.851562 88.921875 64.617188 103.121094 56.730469 111.625 C 48.1875 120.828125 25.941406 114.484375 25.851562 101.320312 C 25.757812 86.894531 38.46875 87.546875 43.734375 82.054688 Z M 14.492188 109.4375 C 29.875 127.78125 70.082031 125.953125 81.605469 104.636719 C 93.878906 81.929688 80.03125 52.871094 68.667969 33.929688 C 61.613281 22.164062 53.277344 11.273438 44.847656 0.476562 C 43.890625 7.628906 51.511719 22.601562 37.175781 48.132812 C 35.339844 51.414062 32.539062 54.238281 29.386719 56.996094 C 26.277344 48.074219 28.101562 41.960938 27.332031 38.753906 C 22.78125 45.992188 18.292969 53.289062 14.652344 61.046875 C 8.792969 73.53125 2.035156 92.460938 11.097656 105.792969 C 12.039062 107.175781 13.1875 108.390625 14.492188 109.4375 "/></g><path style=" stroke:none;fill-rule:nonzero;fill:#3f5141;fill-opacity:1;" d="M 86.304688 167.410156 C 82.78125 173.527344 78.144531 175.839844 76.800781 175.058594 C 75.453125 174.28125 75.144531 169.117188 78.671875 163.003906 C 82.203125 156.890625 86.828125 154.578125 88.175781 155.355469 C 89.519531 156.128906 89.832031 161.300781 86.304688 167.410156 Z M 16.28125 175.058594 C 14.933594 175.839844 10.304688 173.527344 6.773438 167.410156 C 3.246094 161.300781 3.558594 156.128906 4.902344 155.355469 C 6.25 154.578125 10.878906 156.890625 14.40625 163.003906 C 17.9375 169.117188 17.625 174.28125 16.28125 175.058594 Z M 89.597656 152.894531 L 68.191406 142.71875 L 76.328125 137.109375 C 78.410156 135.910156 78.1875 131.625 75.832031 127.542969 C 73.472656 123.460938 69.875 121.125 67.792969 122.328125 L 46.539062 132.429688 L 25.285156 122.328125 C 23.203125 121.125 19.605469 123.460938 17.25 127.542969 C 14.894531 131.625 14.671875 135.910156 16.753906 137.109375 L 24.890625 142.71875 L 3.480469 152.894531 C 0.0117188 154.894531 0.382812 162.03125 4.3125 168.832031 C 8.234375 175.636719 14.230469 179.527344 17.707031 177.523438 L 46.539062 157.644531 L 75.375 177.523438 C 78.847656 179.527344 84.839844 175.636719 88.769531 168.832031 C 92.695312 162.03125 93.066406 154.894531 89.597656 152.894531 "/><g clip-rule="nonzero" clip-path="url(#ab5dc64f1d)"><path style=" stroke:none;fill-rule:nonzero;fill:#3f5141;fill-opacity:1;" d="M 43.734375 82.054688 C 52.835938 72.550781 51.207031 65.183594 52.417969 62.175781 C 54.878906 67.820312 57.277344 73.496094 59.03125 79.40625 C 61.851562 88.921875 64.617188 103.121094 56.730469 111.625 C 48.1875 120.828125 25.941406 114.484375 25.851562 101.320312 C 25.757812 86.894531 38.46875 87.546875 43.734375 82.054688 Z M 14.492188 109.4375 C 29.875 127.78125 70.082031 125.953125 81.605469 104.636719 C 93.878906 81.929688 80.03125 52.871094 68.667969 33.929688 C 61.613281 22.164062 53.277344 11.273438 44.847656 0.476562 C 43.890625 7.628906 51.511719 22.601562 37.175781 48.132812 C 35.339844 51.414062 32.539062 54.238281 29.386719 56.996094 C 26.277344 48.074219 28.101562 41.960938 27.332031 38.753906 C 22.78125 45.992188 18.292969 53.289062 14.652344 61.046875 C 8.792969 73.53125 2.035156 92.460938 11.097656 105.792969 C 12.039062 107.175781 13.1875 108.390625 14.492188 109.4375 "/></g><path style=" stroke:none;fill-rule:nonzero;fill:#3f5141;fill-opacity:1;" d="M 86.304688 167.410156 C 82.78125 173.527344 78.144531 175.839844 76.800781 175.058594 C 75.453125 174.28125 75.144531 169.117188 78.671875 163.003906 C 82.203125 156.890625 86.828125 154.578125 88.175781 155.355469 C 89.519531 156.128906 89.832031 161.300781 86.304688 167.410156 Z M 16.28125 175.058594 C 14.933594 175.839844 10.304688 173.527344 6.773438 167.410156 C 3.246094 161.300781 3.558594 156.128906 4.902344 155.355469 C 6.25 154.578125 10.878906 156.890625 14.40625 163.003906 C 17.9375 169.117188 17.625 174.28125 16.28125 175.058594 Z M 89.597656 152.894531 L 68.191406 142.71875 L 76.328125 137.109375 C 78.410156 135.910156 78.1875 131.625 75.832031 127.542969 C 73.472656 123.460938 69.875 121.125 67.792969 122.328125 L 46.539062 132.429688 L 25.285156 122.328125 C 23.203125 121.125 19.605469 123.460938 17.25 127.542969 C 14.894531 131.625 14.671875 135.910156 16.753906 137.109375 L 24.890625 142.71875 L 3.480469 152.894531 C 0.0117188 154.894531 0.382812 162.03125 4.3125 168.832031 C 8.234375 175.636719 14.230469 179.527344 17.707031 177.523438 L 46.539062 157.644531 L 75.375 177.523438 C 78.847656 179.527344 84.839844 175.636719 88.769531 168.832031 C 92.695312 162.03125 93.066406 154.894531 89.597656 152.894531 "/><g clip-rule="nonzero" clip-path="url(#13ca01035e)"><path style=" stroke:none;fill-rule:nonzero;fill:#3f5141;fill-opacity:1;" d="M 43.734375 82.054688 C 52.835938 72.550781 51.207031 65.183594 52.417969 62.175781 C 54.878906 67.820312 57.277344 73.496094 59.03125 79.40625 C 61.851562 88.921875 64.617188 103.121094 56.730469 111.625 C 48.1875 120.828125 25.941406 114.484375 25.851562 101.320312 C 25.757812 86.894531 38.46875 87.546875 43.734375 82.054688 Z M 14.492188 109.4375 C 29.875 127.78125 70.082031 125.953125 81.605469 104.636719 C 93.878906 81.929688 80.03125 52.871094 68.667969 33.929688 C 61.613281 22.164062 53.277344 11.273438 44.847656 0.476562 C 43.890625 7.628906 51.511719 22.601562 37.175781 48.132812 C 35.339844 51.414062 32.539062 54.238281 29.386719 56.996094 C 26.277344 48.074219 28.101562 41.960938 27.332031 38.753906 C 22.78125 45.992188 18.292969 53.289062 14.652344 61.046875 C 8.792969 73.53125 2.035156 92.460938 11.097656 105.792969 C 12.039062 107.175781 13.1875 108.390625 14.492188 109.4375 "/></g></g></svg>