<svg width="1970" height="454" viewBox="0 0 1970 454" fill="none" xmlns="http://www.w3.org/2000/svg">
<path d="M0 16.7128L82.0695 8.62671C164.163 0.335884 328.325 -15.8568 492.488 41.1963C656.675 98.2699 820.837 228.958 985 281.303C1149.16 333.647 1313.33 308.038 1477.51 262.838C1641.67 217.658 1805.84 152.867 1887.93 120.665L1970 88.28V453.608H1887.93C1805.84 453.608 1641.67 453.608 1477.51 453.608C1313.33 453.608 1149.16 453.608 985 453.608C820.837 453.608 656.675 453.608 492.488 453.608C328.325 453.608 164.163 453.608 82.0695 453.608H0V16.7128Z" fill="#3F5141"/>
</svg>
