<svg xmlns="http://www.w3.org/2000/svg" xmlns:xlink="http://www.w3.org/1999/xlink" width="121" zoomAndPan="magnify" viewBox="0 0 90.75 419.999983" height="560" preserveAspectRatio="xMidYMid meet" version="1.2"><defs><clipPath id="5caf59c6de"><path d="M 0.28125 63.234375 L 58 63.234375 L 58 277.832031 L 0.28125 277.832031 Z M 0.28125 63.234375 "/></clipPath><clipPath id="2cb60fbe13"><path d="M 0.328125 253.554688 L 48 253.554688 L 48 419.421875 L 0.328125 419.421875 Z M 0.328125 253.554688 "/></clipPath><clipPath id="db7a5a3dce"><path d="M 0 0.578125 L 90 0.578125 L 90 64.828125 L 0 64.828125 Z M 0 0.578125 "/></clipPath></defs><g id="8b1a1e3040"><g clip-rule="nonzero" clip-path="url(#5caf59c6de)"><path style=" stroke:none;fill-rule:nonzero;fill:#3f5141;fill-opacity:1;" d="M 55.265625 63.371094 L 56.285156 72.304688 C 57.328125 81.238281 59.367188 99.101562 52.1875 116.96875 C 45.003906 134.832031 28.554688 152.699219 21.964844 170.5625 C 15.378906 188.429688 18.601562 206.292969 24.289062 224.160156 C 29.976562 242.023438 38.128906 259.886719 42.183594 268.820312 L 46.261719 277.753906 L 0.28125 277.753906 L 0.28125 268.820312 C 0.28125 259.886719 0.28125 242.023438 0.28125 224.160156 C 0.28125 206.292969 0.28125 188.429688 0.28125 170.5625 C 0.28125 152.699219 0.28125 134.832031 0.28125 116.96875 C 0.28125 99.101562 0.28125 81.238281 0.28125 72.304688 L 0.28125 63.371094 Z M 55.265625 63.371094 "/><path style=" stroke:none;fill-rule:nonzero;fill:#3f5141;fill-opacity:1;" d="M 55.265625 63.371094 L 56.285156 72.304688 C 57.328125 81.238281 59.367188 99.101562 52.1875 116.96875 C 45.003906 134.832031 28.554688 152.699219 21.964844 170.5625 C 15.378906 188.429688 18.601562 206.292969 24.289062 224.160156 C 29.976562 242.023438 38.128906 259.886719 42.183594 268.820312 L 46.261719 277.753906 L 0.28125 277.753906 L 0.28125 268.820312 C 0.28125 259.886719 0.28125 242.023438 0.28125 224.160156 C 0.28125 206.292969 0.28125 188.429688 0.28125 170.5625 C 0.28125 152.699219 0.28125 134.832031 0.28125 116.96875 C 0.28125 99.101562 0.28125 81.238281 0.28125 72.304688 L 0.28125 63.371094 Z M 55.265625 63.371094 "/></g><g clip-rule="nonzero" clip-path="url(#2cb60fbe13)"><path style=" stroke:none;fill-rule:nonzero;fill:#3f5141;fill-opacity:1;" d="M 32.160156 217.640625 L -30.667969 217.640625 C -30.667969 217.640625 -10.390625 225.066406 -7.25 243.347656 C -4.109375 261.625 -7.535156 265.90625 -20.960938 288.183594 C -34.382812 310.460938 -43.523438 343.015625 -26.671875 360.722656 C -9.820312 378.429688 -4.109375 384.425781 -5.253906 398.136719 C -6.394531 411.84375 -19.53125 419.269531 -19.53125 419.269531 L 1.601562 419.269531 C 1.601562 419.269531 21.59375 416.128906 18.738281 393.566406 C 15.882812 371.003906 9.675781 356.980469 11.886719 341.875 C 15.3125 318.457031 37.304688 326.453125 44.441406 304.746094 C 52.601562 279.9375 42.441406 268.191406 33.019531 249.914062 C 23.59375 231.636719 32.160156 217.640625 32.160156 217.640625 Z M 32.160156 217.640625 "/><path style=" stroke:none;fill-rule:nonzero;fill:#3f5141;fill-opacity:1;" d="M 32.160156 217.640625 L -30.667969 217.640625 C -30.667969 217.640625 -10.390625 225.066406 -7.25 243.347656 C -4.109375 261.625 -7.535156 265.90625 -20.960938 288.183594 C -34.382812 310.460938 -43.523438 343.015625 -26.671875 360.722656 C -9.820312 378.429688 -4.109375 384.425781 -5.253906 398.136719 C -6.394531 411.84375 -19.53125 419.269531 -19.53125 419.269531 L 1.601562 419.269531 C 1.601562 419.269531 21.59375 416.128906 18.738281 393.566406 C 15.882812 371.003906 9.675781 356.980469 11.886719 341.875 C 15.3125 318.457031 37.304688 326.453125 44.441406 304.746094 C 52.601562 279.9375 42.441406 268.191406 33.019531 249.914062 C 23.59375 231.636719 32.160156 217.640625 32.160156 217.640625 Z M 32.160156 217.640625 "/></g><g clip-rule="nonzero" clip-path="url(#db7a5a3dce)"><path style=" stroke:none;fill-rule:nonzero;fill:#3f5141;fill-opacity:1;" d="M 9.878906 1.140625 C 15.46875 2.328125 20.144531 2.5 24.046875 22.773438 C 27.777344 42.1875 44.957031 41.539062 51.996094 55.980469 C 58.457031 69.273438 56.390625 73.976562 60.65625 89.4375 C 67.566406 114.460938 90.203125 119.707031 89.4375 129.871094 L 0 129.871094 L 0 1.625 C 3.621094 0.882812 7.285156 0.585938 9.878906 1.140625 Z M 9.878906 1.140625 "/></g></g></svg>