<svg width="1920" height="458" viewBox="0 0 1920 458" fill="none" xmlns="http://www.w3.org/2000/svg">
<mask id="mask0_505_962" style="mask-type:luminance" maskUnits="userSpaceOnUse" x="0" y="0" width="1922" height="458">
<path d="M0.579346 0.750488H1921.4V457.227H0.579346V0.750488Z" fill="white"/>
</mask>
<g mask="url(#mask0_505_962)">
<path d="M2 17.913L83.4446 9.8269C164.913 1.53608 327.825 -14.6566 490.738 42.3965C653.675 99.4701 816.587 230.158 979.5 282.503C1142.41 334.848 1305.33 309.238 1468.26 264.038C1631.17 218.858 1794.09 154.067 1875.56 121.866L1957 89.4802V454.809H1875.56C1794.09 454.809 1631.17 454.809 1468.26 454.809C1305.33 454.809 1142.41 454.809 979.5 454.809C816.587 454.809 653.675 454.809 490.738 454.809C327.825 454.809 164.913 454.809 83.4446 454.809H2V17.913Z" fill="#3F5141"/>
</g>
</svg>
