<svg width="1921" height="578" viewBox="0 0 1921 578" fill="none" xmlns="http://www.w3.org/2000/svg">
<path d="M0 470.299L64.025 459.347C128.05 448.211 256.1 426.288 384.15 440.644C512.2 455.184 640.25 506.189 768.299 538.305C896.349 570.4 1024.4 583.628 1152.45 574.194C1280.5 564.74 1408.55 532.624 1536.6 489.187C1664.65 445.75 1792.7 390.972 1856.72 363.594L1920.75 336.194V0H1856.72C1792.7 0 1664.65 0 1536.6 0C1408.55 0 1280.5 0 1152.45 0C1024.4 0 896.349 0 768.299 0C640.25 0 512.2 0 384.15 0C256.1 0 128.05 0 64.025 0H0V470.299Z" fill="#3F5141"/>
</svg>
