<svg width="1920" height="654" viewBox="0 0 1920 654" fill="none" xmlns="http://www.w3.org/2000/svg">
<path d="M1935.65 653.864V291.205H-13.1001V445.03C-13.1001 448.402 -14.6597 454.845 -12.2967 457.766C-8.30313 462.73 6.7967 465.726 13.4132 468.086C37.5399 476.721 62.3754 483.501 87.4473 490.131C193.902 518.263 306.856 530.755 418.746 524.687C603.961 514.629 785.844 479.83 969.854 460.651C1138.62 443.064 1307.65 443.963 1475.73 465.989C1564.63 477.638 1655.4 493.764 1737.65 523.694C1788.2 542.086 1837.26 570.106 1876.39 601.346C1889.88 612.097 1902.55 623.841 1915.05 635.322C1921.57 641.315 1927.74 649.069 1935.65 653.864Z" fill="#3F5141"/>
<path d="M-20 0V362H1980.32V208.444C1980.32 205.078 1981.92 198.648 1979.49 195.731C1975.39 190.777 1959.89 187.786 1953.1 185.431C1928.34 176.831 1902.84 170.045 1877.11 163.427C1767.84 135.348 1651.89 122.879 1537.04 128.936C1346.93 138.975 1160.23 173.709 971.353 192.852C798.119 210.406 624.618 209.509 452.088 187.524C360.838 175.896 267.672 159.8 183.238 129.927C131.355 111.569 81.0005 83.6017 40.8332 52.4193C26.9832 41.6887 13.9822 29.9673 1.15093 18.5075C-5.54363 12.5253 -11.8744 4.78579 -20 0Z" fill="#3F5141"/>
</svg>
