<svg xmlns="http://www.w3.org/2000/svg" xmlns:xlink="http://www.w3.org/1999/xlink" width="121" zoomAndPan="magnify" viewBox="0 0 90.75 419.999983" height="560" preserveAspectRatio="xMidYMid meet" version="1.2"><defs><clipPath id="7a833b7460"><path d="M 32 142.011719 L 89.90625 142.011719 L 89.90625 356.613281 L 32 356.613281 Z M 32 142.011719 "/></clipPath><clipPath id="70d6253fc3"><path d="M 42 0.578125 L 89.859375 0.578125 L 89.859375 166.289062 L 42 166.289062 Z M 42 0.578125 "/></clipPath><clipPath id="428b49b959"><path d="M 0 355.015625 L 90.1875 355.015625 L 90.1875 419 L 0 419 Z M 0 355.015625 "/></clipPath></defs><g id="7430d4e852"><g clip-rule="nonzero" clip-path="url(#7a833b7460)"><path style=" stroke:none;fill-rule:nonzero;fill:#3f5141;fill-opacity:1;" d="M 34.917969 356.476562 L 33.898438 347.542969 C 32.855469 338.609375 30.820312 320.746094 38 302.878906 C 45.183594 285.015625 61.628906 267.148438 68.21875 249.285156 C 74.808594 231.417969 71.585938 213.554688 65.898438 195.6875 C 60.207031 177.824219 52.054688 159.957031 48.003906 151.027344 L 43.925781 142.09375 L 89.90625 142.09375 L 89.90625 151.027344 C 89.90625 159.957031 89.90625 177.824219 89.90625 195.6875 C 89.90625 213.554688 89.90625 231.417969 89.90625 249.285156 C 89.90625 267.148438 89.90625 285.015625 89.90625 302.878906 C 89.90625 320.746094 89.90625 338.609375 89.90625 347.542969 L 89.90625 356.476562 Z M 34.917969 356.476562 "/><path style=" stroke:none;fill-rule:nonzero;fill:#3f5141;fill-opacity:1;" d="M 34.917969 356.476562 L 33.898438 347.542969 C 32.855469 338.609375 30.820312 320.746094 38 302.878906 C 45.183594 285.015625 61.628906 267.148438 68.21875 249.285156 C 74.808594 231.417969 71.585938 213.554688 65.898438 195.6875 C 60.207031 177.824219 52.054688 159.957031 48.003906 151.027344 L 43.925781 142.09375 L 89.90625 142.09375 L 89.90625 151.027344 C 89.90625 159.957031 89.90625 177.824219 89.90625 195.6875 C 89.90625 213.554688 89.90625 231.417969 89.90625 249.285156 C 89.90625 267.148438 89.90625 285.015625 89.90625 302.878906 C 89.90625 320.746094 89.90625 338.609375 89.90625 347.542969 L 89.90625 356.476562 Z M 34.917969 356.476562 "/></g><g clip-rule="nonzero" clip-path="url(#70d6253fc3)"><path style=" stroke:none;fill-rule:nonzero;fill:#3f5141;fill-opacity:1;" d="M 58.03125 202.203125 L 120.859375 202.203125 C 120.859375 202.203125 100.582031 194.777344 97.441406 176.5 C 94.296875 158.21875 97.726562 153.9375 111.148438 131.660156 C 124.570312 109.382812 133.710938 76.828125 116.859375 59.121094 C 100.011719 41.414062 94.296875 35.417969 95.441406 21.707031 C 96.585938 8 109.722656 0.574219 109.722656 0.574219 L 88.585938 0.574219 C 88.585938 0.574219 68.59375 3.714844 71.449219 26.277344 C 74.304688 48.839844 80.515625 62.863281 78.304688 77.96875 C 74.875 101.386719 52.886719 93.390625 45.746094 115.097656 C 37.585938 139.90625 47.746094 151.652344 57.171875 169.929688 C 66.597656 188.207031 58.03125 202.203125 58.03125 202.203125 Z M 58.03125 202.203125 "/><path style=" stroke:none;fill-rule:nonzero;fill:#3f5141;fill-opacity:1;" d="M 58.03125 202.203125 L 120.859375 202.203125 C 120.859375 202.203125 100.582031 194.777344 97.441406 176.5 C 94.296875 158.21875 97.726562 153.9375 111.148438 131.660156 C 124.570312 109.382812 133.710938 76.828125 116.859375 59.121094 C 100.011719 41.414062 94.296875 35.417969 95.441406 21.707031 C 96.585938 8 109.722656 0.574219 109.722656 0.574219 L 88.585938 0.574219 C 88.585938 0.574219 68.59375 3.714844 71.449219 26.277344 C 74.304688 48.839844 80.515625 62.863281 78.304688 77.96875 C 74.875 101.386719 52.886719 93.390625 45.746094 115.097656 C 37.585938 139.90625 47.746094 151.652344 57.171875 169.929688 C 66.597656 188.207031 58.03125 202.203125 58.03125 202.203125 Z M 58.03125 202.203125 "/></g><g clip-rule="nonzero" clip-path="url(#428b49b959)"><path style=" stroke:none;fill-rule:nonzero;fill:#3f5141;fill-opacity:1;" d="M 80.308594 418.707031 C 74.714844 417.515625 70.039062 417.347656 66.140625 397.074219 C 62.40625 377.660156 45.230469 378.304688 38.191406 363.863281 C 31.730469 350.570312 33.796875 345.871094 29.53125 330.40625 C 22.617188 305.382812 -0.015625 300.140625 0.75 289.972656 L 90.1875 289.972656 L 90.1875 418.222656 C 86.566406 418.960938 82.902344 419.257812 80.308594 418.707031 Z M 80.308594 418.707031 "/></g></g></svg>