<?xml version="1.0" encoding="UTF-8" standalone="no"?>
<!-- Created with Inkscape (http://www.inkscape.org/) -->

<svg
   width="18.377464mm"
   height="195.00314mm"
   viewBox="0 0 18.377464 195.00314"
   version="1.1"
   id="svg5"
   xml:space="preserve"
   xmlns:inkscape="http://www.inkscape.org/namespaces/inkscape"
   xmlns:sodipodi="http://sodipodi.sourceforge.net/DTD/sodipodi-0.dtd"
   xmlns="http://www.w3.org/2000/svg"
   xmlns:svg="http://www.w3.org/2000/svg"><sodipodi:namedview
     id="namedview7"
     pagecolor="#ffffff"
     bordercolor="#000000"
     borderopacity="0.25"
     inkscape:showpageshadow="2"
     inkscape:pageopacity="0.0"
     inkscape:pagecheckerboard="0"
     inkscape:deskcolor="#d1d1d1"
     inkscape:document-units="mm"
     showgrid="false" /><defs
     id="defs2" /><g
     inkscape:label="Camada 1"
     inkscape:groupmode="layer"
     id="layer1"
     transform="translate(-75.161928,-44.214675)"><path
       style="fill:#3f5141;fill-opacity:1;stroke-width:0.264583"
       d="m 75.163628,239.16219 c 9e-5,-0.11767 -5.4e-4,-43.85036 -0.001,-97.18374 -8.7e-4,-53.333387 -9.4e-4,-97.180574 -1.6e-4,-97.438193 10e-4,-0.441369 0.0587,-0.43916 0.9936,0.03827 5.86146,2.99322 11.32994,10.370355 14.21429,19.175481 1.84083,5.619549 2.52061,10.32877 2.52061,17.461665 0,5.435161 -0.33343,8.404071 -1.57944,14.063813 -2.38944,10.853514 -3.67289,25.083444 -3.35287,37.173954 0.2579,9.74351 0.6177,13.59128 2.9565,31.61771 2.41151,18.58675 2.60876,20.85425 2.62391,30.16251 0.0147,9.00702 -0.47667,14.42998 -1.8818,20.76979 -1.97413,8.90707 -6.35998,16.92962 -11.6331,21.27914 -1.7275,1.42492 -4.86043,3.28117 -4.86013,2.8796 z"
       id="path3034" /></g></svg>
