<svg width="1920" height="578" viewBox="0 0 1920 578" fill="none" xmlns="http://www.w3.org/2000/svg">
<path d="M0.625732 470.594L64.6507 459.643C128.676 448.507 256.726 426.583 384.775 440.939C512.825 455.48 640.875 506.484 768.925 538.6C896.975 570.696 1025.03 583.924 1153.07 574.49C1281.12 565.036 1409.17 532.919 1537.22 489.483C1665.27 446.046 1793.32 391.268 1857.35 363.889L1921.37 336.49V0.29541H1857.35C1793.32 0.29541 1665.27 0.29541 1537.22 0.29541C1409.17 0.29541 1281.12 0.29541 1153.07 0.29541C1025.03 0.29541 896.975 0.29541 768.925 0.29541C640.875 0.29541 512.825 0.29541 384.775 0.29541C256.726 0.29541 128.676 0.29541 64.6507 0.29541H0.625732V470.594Z" fill="#3F5141"/>
</svg>
