<svg xmlns="http://www.w3.org/2000/svg" xmlns:xlink="http://www.w3.org/1999/xlink" width="196" zoomAndPan="magnify" viewBox="0 0 147 179.999997" height="240" preserveAspectRatio="xMidYMid meet" version="1.2"><g id="dcd9dc9da1"><path style=" stroke:none;fill-rule:nonzero;fill:#3f5141;fill-opacity:1;" d="M 115.386719 -0.0234375 C 115.386719 -0.0234375 116.773438 14.371094 122.472656 13.042969 C 122.472656 13.042969 136.742188 6.222656 136.222656 10.308594 C 136.222656 10.308594 127.003906 26.902344 131.9375 28.425781 L 143.140625 29.09375 C 143.140625 29.09375 146.660156 31.058594 143.25 32.550781 C 143.25 32.550781 103.683594 52.328125 103.695312 39.683594 C 103.695312 39.683594 108.632812 1.816406 115.386719 -0.0234375 Z M 115.386719 -0.0234375 "/><path style=" stroke:none;fill-rule:nonzero;fill:#3f5141;fill-opacity:1;" d="M 84.691406 96.09375 C 84.691406 96.09375 86.078125 110.488281 91.777344 109.160156 C 91.777344 109.160156 106.046875 102.339844 105.527344 106.425781 C 105.527344 106.425781 96.308594 123.019531 101.238281 124.542969 L 112.441406 125.210938 C 112.441406 125.210938 115.964844 127.175781 112.554688 128.667969 C 112.554688 128.667969 72.988281 148.445312 72.996094 135.800781 C 72.996094 135.800781 77.9375 97.933594 84.691406 96.09375 Z M 84.691406 96.09375 "/><path style=" stroke:none;fill-rule:nonzero;fill:#364437;fill-opacity:1;" d="M 36.300781 42.136719 C 36.300781 42.136719 45.027344 50.828125 48.046875 46.863281 C 48.046875 46.863281 53.707031 34.644531 55.585938 37.601562 C 55.585938 37.601562 58.546875 53.503906 62.609375 51.828125 L 70.332031 46.179688 C 70.332031 46.179688 73.703125 45.554688 72.277344 48.386719 C 72.277344 48.386719 57.046875 82.859375 50.179688 74.554688 C 50.179688 74.554688 32.863281 47.007812 36.300781 42.136719 Z M 36.300781 42.136719 "/><path style=" stroke:none;fill-rule:nonzero;fill:#364437;fill-opacity:1;" d="M 3.546875 139.238281 C 3.546875 139.238281 12.273438 147.929688 15.292969 143.964844 C 15.292969 143.964844 20.953125 131.746094 22.835938 134.703125 C 22.835938 134.703125 25.792969 150.605469 29.855469 148.929688 L 37.578125 143.28125 C 37.578125 143.28125 40.957031 142.660156 39.523438 145.488281 C 39.523438 145.488281 24.292969 179.960938 17.425781 171.65625 C 17.425781 171.65625 0.109375 144.109375 3.546875 139.238281 Z M 3.546875 139.238281 "/><path style=" stroke:none;fill-rule:nonzero;fill:#3f5141;fill-opacity:1;" d="M 115.386719 -0.0234375 C 115.386719 -0.0234375 116.773438 14.371094 122.472656 13.042969 C 122.472656 13.042969 136.742188 6.222656 136.222656 10.308594 C 136.222656 10.308594 127.003906 26.902344 131.9375 28.425781 L 143.140625 29.09375 C 143.140625 29.09375 146.660156 31.058594 143.25 32.550781 C 143.25 32.550781 103.683594 52.328125 103.695312 39.683594 C 103.695312 39.683594 108.632812 1.816406 115.386719 -0.0234375 Z M 115.386719 -0.0234375 "/><path style=" stroke:none;fill-rule:nonzero;fill:#3f5141;fill-opacity:1;" d="M 84.691406 96.09375 C 84.691406 96.09375 86.078125 110.488281 91.777344 109.160156 C 91.777344 109.160156 106.046875 102.339844 105.527344 106.425781 C 105.527344 106.425781 96.308594 123.019531 101.238281 124.542969 L 112.441406 125.210938 C 112.441406 125.210938 115.964844 127.175781 112.554688 128.667969 C 112.554688 128.667969 72.988281 148.445312 72.996094 135.800781 C 72.996094 135.800781 77.9375 97.933594 84.691406 96.09375 Z M 84.691406 96.09375 "/><path style=" stroke:none;fill-rule:nonzero;fill:#364437;fill-opacity:1;" d="M 36.300781 42.136719 C 36.300781 42.136719 45.027344 50.828125 48.046875 46.863281 C 48.046875 46.863281 53.707031 34.644531 55.585938 37.601562 C 55.585938 37.601562 58.546875 53.503906 62.609375 51.828125 L 70.332031 46.179688 C 70.332031 46.179688 73.703125 45.554688 72.277344 48.386719 C 72.277344 48.386719 57.046875 82.859375 50.179688 74.554688 C 50.179688 74.554688 32.863281 47.007812 36.300781 42.136719 Z M 36.300781 42.136719 "/><path style=" stroke:none;fill-rule:nonzero;fill:#364437;fill-opacity:1;" d="M 3.546875 139.238281 C 3.546875 139.238281 12.273438 147.929688 15.292969 143.964844 C 15.292969 143.964844 20.953125 131.746094 22.835938 134.703125 C 22.835938 134.703125 25.792969 150.605469 29.855469 148.929688 L 37.578125 143.28125 C 37.578125 143.28125 40.957031 142.660156 39.523438 145.488281 C 39.523438 145.488281 24.292969 179.960938 17.425781 171.65625 C 17.425781 171.65625 0.109375 144.109375 3.546875 139.238281 Z M 3.546875 139.238281 "/><path style=" stroke:none;fill-rule:nonzero;fill:#3f5141;fill-opacity:1;" d="M 115.386719 -0.0234375 C 115.386719 -0.0234375 116.773438 14.371094 122.472656 13.042969 C 122.472656 13.042969 136.742188 6.222656 136.222656 10.308594 C 136.222656 10.308594 127.003906 26.902344 131.9375 28.425781 L 143.140625 29.09375 C 143.140625 29.09375 146.660156 31.058594 143.25 32.550781 C 143.25 32.550781 103.683594 52.328125 103.695312 39.683594 C 103.695312 39.683594 108.632812 1.816406 115.386719 -0.0234375 Z M 115.386719 -0.0234375 "/><path style=" stroke:none;fill-rule:nonzero;fill:#3f5141;fill-opacity:1;" d="M 84.691406 96.09375 C 84.691406 96.09375 86.078125 110.488281 91.777344 109.160156 C 91.777344 109.160156 106.046875 102.339844 105.527344 106.425781 C 105.527344 106.425781 96.308594 123.019531 101.238281 124.542969 L 112.441406 125.210938 C 112.441406 125.210938 115.964844 127.175781 112.554688 128.667969 C 112.554688 128.667969 72.988281 148.445312 72.996094 135.800781 C 72.996094 135.800781 77.9375 97.933594 84.691406 96.09375 Z M 84.691406 96.09375 "/><path style=" stroke:none;fill-rule:nonzero;fill:#364437;fill-opacity:1;" d="M 36.300781 42.136719 C 36.300781 42.136719 45.027344 50.828125 48.046875 46.863281 C 48.046875 46.863281 53.707031 34.644531 55.585938 37.601562 C 55.585938 37.601562 58.546875 53.503906 62.609375 51.828125 L 70.332031 46.179688 C 70.332031 46.179688 73.703125 45.554688 72.277344 48.386719 C 72.277344 48.386719 57.046875 82.859375 50.179688 74.554688 C 50.179688 74.554688 32.863281 47.007812 36.300781 42.136719 Z M 36.300781 42.136719 "/><path style=" stroke:none;fill-rule:nonzero;fill:#364437;fill-opacity:1;" d="M 3.546875 139.238281 C 3.546875 139.238281 12.273438 147.929688 15.292969 143.964844 C 15.292969 143.964844 20.953125 131.746094 22.835938 134.703125 C 22.835938 134.703125 25.792969 150.605469 29.855469 148.929688 L 37.578125 143.28125 C 37.578125 143.28125 40.957031 142.660156 39.523438 145.488281 C 39.523438 145.488281 24.292969 179.960938 17.425781 171.65625 C 17.425781 171.65625 0.109375 144.109375 3.546875 139.238281 Z M 3.546875 139.238281 "/><path style=" stroke:none;fill-rule:nonzero;fill:#3f5141;fill-opacity:1;" d="M 115.386719 -0.0234375 C 115.386719 -0.0234375 116.773438 14.371094 122.472656 13.042969 C 122.472656 13.042969 136.742188 6.222656 136.222656 10.308594 C 136.222656 10.308594 127.003906 26.902344 131.9375 28.425781 L 143.140625 29.09375 C 143.140625 29.09375 146.660156 31.058594 143.25 32.550781 C 143.25 32.550781 103.683594 52.328125 103.695312 39.683594 C 103.695312 39.683594 108.632812 1.816406 115.386719 -0.0234375 Z M 115.386719 -0.0234375 "/><path style=" stroke:none;fill-rule:nonzero;fill:#3f5141;fill-opacity:1;" d="M 84.691406 96.09375 C 84.691406 96.09375 86.078125 110.488281 91.777344 109.160156 C 91.777344 109.160156 106.046875 102.339844 105.527344 106.425781 C 105.527344 106.425781 96.308594 123.019531 101.238281 124.542969 L 112.441406 125.210938 C 112.441406 125.210938 115.964844 127.175781 112.554688 128.667969 C 112.554688 128.667969 72.988281 148.445312 72.996094 135.800781 C 72.996094 135.800781 77.9375 97.933594 84.691406 96.09375 Z M 84.691406 96.09375 "/><path style=" stroke:none;fill-rule:nonzero;fill:#364437;fill-opacity:1;" d="M 36.300781 42.136719 C 36.300781 42.136719 45.027344 50.828125 48.046875 46.863281 C 48.046875 46.863281 53.707031 34.644531 55.585938 37.601562 C 55.585938 37.601562 58.546875 53.503906 62.609375 51.828125 L 70.332031 46.179688 C 70.332031 46.179688 73.703125 45.554688 72.277344 48.386719 C 72.277344 48.386719 57.046875 82.859375 50.179688 74.554688 C 50.179688 74.554688 32.863281 47.007812 36.300781 42.136719 Z M 36.300781 42.136719 "/><path style=" stroke:none;fill-rule:nonzero;fill:#364437;fill-opacity:1;" d="M 3.546875 139.238281 C 3.546875 139.238281 12.273438 147.929688 15.292969 143.964844 C 15.292969 143.964844 20.953125 131.746094 22.835938 134.703125 C 22.835938 134.703125 25.792969 150.605469 29.855469 148.929688 L 37.578125 143.28125 C 37.578125 143.28125 40.957031 142.660156 39.523438 145.488281 C 39.523438 145.488281 24.292969 179.960938 17.425781 171.65625 C 17.425781 171.65625 0.109375 144.109375 3.546875 139.238281 Z M 3.546875 139.238281 "/></g></svg>