<svg xmlns="http://www.w3.org/2000/svg" xmlns:xlink="http://www.w3.org/1999/xlink" width="207" zoomAndPan="magnify" viewBox="0 0 155.25 179.999997" height="240" preserveAspectRatio="xMidYMid meet" version="1.2"><defs><clipPath id="66e5cae603"><path d="M 77 99 L 100 99 L 100 179.566406 L 77 179.566406 Z M 77 99 "/></clipPath><clipPath id="9bc8acc4f3"><path d="M 80 103 L 109 103 L 109 179.566406 L 80 179.566406 Z M 80 103 "/></clipPath><clipPath id="a6733f40d0"><path d="M 0 0.433594 L 153 0.433594 L 153 128 L 0 128 Z M 0 0.433594 "/></clipPath><clipPath id="feb7c0dd37"><path d="M 0 0.433594 L 132 0.433594 L 132 39 L 0 39 Z M 0 0.433594 "/></clipPath><clipPath id="39a2cb2728"><path d="M 3 1 L 154.503906 1 L 154.503906 128 L 3 128 Z M 3 1 "/></clipPath><clipPath id="7538a76d9e"><path d="M 77 99 L 100 99 L 100 179.566406 L 77 179.566406 Z M 77 99 "/></clipPath><clipPath id="2464dc4927"><path d="M 80 103 L 109 103 L 109 179.566406 L 80 179.566406 Z M 80 103 "/></clipPath><clipPath id="aa41549e52"><path d="M 0 0.433594 L 153 0.433594 L 153 128 L 0 128 Z M 0 0.433594 "/></clipPath><clipPath id="35677817e9"><path d="M 0 0.433594 L 132 0.433594 L 132 39 L 0 39 Z M 0 0.433594 "/></clipPath><clipPath id="69b40fe7d5"><path d="M 3 1 L 154.503906 1 L 154.503906 128 L 3 128 Z M 3 1 "/></clipPath></defs><g id="926dc9afcc"><g clip-rule="nonzero" clip-path="url(#66e5cae603)"><path style=" stroke:none;fill-rule:nonzero;fill:#364437;fill-opacity:1;" d="M 77.347656 101.519531 L 86.371094 99.289062 L 99.097656 178.804688 L 98.996094 179.476562 L 95.609375 175.371094 Z M 77.347656 101.519531 "/></g><g clip-rule="nonzero" clip-path="url(#9bc8acc4f3)"><path style=" stroke:none;fill-rule:nonzero;fill:#364437;fill-opacity:1;" d="M 80.753906 105.714844 L 89.773438 103.484375 L 108.035156 177.335938 L 99.011719 179.566406 Z M 80.753906 105.714844 "/></g><g clip-rule="nonzero" clip-path="url(#a6733f40d0)"><path style=" stroke:none;fill-rule:nonzero;fill:#364437;fill-opacity:1;" d="M 0.015625 32.078125 C 36.320312 25.394531 64.585938 17.949219 91.859375 10.410156 C 92.554688 10.21875 94.296875 11.28125 94.296875 11.28125 C 94.296875 11.28125 96.597656 9.097656 97.925781 8.730469 C 107.898438 5.957031 117.804688 3.183594 127.996094 0.433594 C 130.976562 9.949219 133.824219 19.734375 136.53125 29.796875 C 136.652344 30.277344 132.488281 31.992188 132.617188 32.472656 C 132.75 33.003906 135.839844 32.480469 135.980469 33.015625 C 136.113281 33.550781 140.210938 33.589844 140.347656 34.125 C 140.425781 34.449219 131.746094 36.261719 131.828125 36.585938 C 131.9375 37.011719 141.234375 37.472656 141.34375 37.898438 C 141.464844 38.386719 138.605469 37.652344 138.730469 38.140625 C 142.386719 52.339844 145.773438 67.074219 148.871094 82.378906 C 148.980469 82.917969 142.019531 84.527344 142.128906 85.066406 C 142.238281 85.609375 152.449219 86.328125 152.558594 86.871094 C 152.636719 87.292969 149.691406 86.46875 149.773438 86.890625 C 150.261719 89.34375 150.734375 91.808594 151.207031 94.285156 C 124.933594 99.472656 98.777344 106.15625 70.199219 113.914062 C 69.296875 114.160156 67.308594 113.480469 66.402344 113.730469 C 59.402344 115.65625 50.292969 116.515625 42.238281 118.808594 C 41.550781 119.003906 41.214844 120.648438 40.523438 120.847656 C 35.707031 122.222656 30.078125 123.558594 26.355469 127.1875 L 23.222656 125.933594 C 19.226562 114.578125 15.699219 102.316406 12.535156 89.972656 C 13.316406 90.007812 16.667969 88.507812 16.53125 88.164062 C 16.449219 87.84375 15.984375 87.636719 15.046875 88.5625 L 11.734375 87.09375 C 8.199219 72.984375 5.167969 58.605469 2.570312 44.695312 L 9.6875 43.304688 C 8.132812 43.484375 7.484375 42.820312 5.019531 43.847656 L 1.792969 42.386719 C 1.792969 42.386719 0.585938 35.523438 0.015625 32.078125 Z M 0.015625 32.078125 "/></g><path style=" stroke:none;fill-rule:evenodd;fill:#364437;fill-opacity:1;" d="M 12.539062 89.980469 C 13.582031 90.398438 14.628906 90.804688 15.644531 91.433594 L 20 88.980469 L 19.742188 88.390625 L 15.566406 88.65625 Z M 12.539062 89.980469 "/><path style=" stroke:none;fill-rule:evenodd;fill:#364437;fill-opacity:1;" d="M 5.648438 45.996094 L 2.558594 44.683594 L 14.210938 42.480469 L 13.777344 44.964844 Z M 5.648438 45.996094 "/><g clip-rule="nonzero" clip-path="url(#feb7c0dd37)"><path style=" stroke:none;fill-rule:nonzero;fill:#364437;fill-opacity:1;" d="M 0.015625 32.078125 C 36.320312 25.394531 64.585938 17.949219 91.859375 10.410156 C 92.554688 10.21875 94.296875 11.28125 94.296875 11.28125 C 94.296875 11.28125 96.597656 9.097656 97.925781 8.730469 C 107.898438 5.957031 117.804688 3.183594 127.996094 0.433594 L 131.09375 1.988281 C 130.722656 14.902344 14.078125 29.796875 8.09375 38.863281 C 7.480469 35.4375 4.335938 34.007812 0.015625 32.078125 Z M 0.015625 32.078125 "/></g><path style=" stroke:none;fill-rule:evenodd;fill:#364437;fill-opacity:1;" d="M 100.769531 10.121094 C 98.78125 9.105469 98.621094 9.226562 97.601562 8.863281 C 96.59375 9.0625 95.003906 10.511719 94.234375 11.269531 L 97.363281 12.730469 Z M 100.769531 10.121094 "/><g clip-rule="nonzero" clip-path="url(#39a2cb2728)"><path style=" stroke:none;fill-rule:nonzero;fill:#3f5141;fill-opacity:1;" d="M 3.0625 33.371094 C 39.367188 26.6875 67.632812 19.242188 94.910156 11.703125 C 95.601562 11.511719 97.34375 12.574219 97.34375 12.574219 C 97.34375 12.574219 99.648438 10.390625 100.976562 10.023438 C 110.945312 7.25 120.855469 4.476562 131.046875 1.726562 C 134.027344 11.242188 136.875 21.027344 139.582031 31.089844 C 139.703125 31.570312 135.539062 33.285156 135.667969 33.765625 C 135.800781 34.300781 140.25 33.59375 140.394531 34.125 C 140.523438 34.660156 140.679688 35.191406 140.816406 35.726562 C 140.894531 36.050781 134.796875 37.558594 134.878906 37.878906 C 134.984375 38.304688 141.289062 37.542969 141.402344 37.96875 C 145.203125 52.617188 148.714844 67.839844 151.921875 83.671875 C 152.03125 84.210938 145.070312 85.820312 145.175781 86.359375 C 145.285156 86.902344 152.464844 86.375 152.574219 86.917969 C 153.144531 89.785156 153.703125 92.671875 154.253906 95.582031 C 127.984375 100.765625 101.824219 107.449219 73.25 115.207031 C 72.347656 115.453125 70.359375 114.773438 69.453125 115.023438 C 62.453125 116.949219 53.34375 117.808594 45.289062 120.101562 C 44.597656 120.296875 44.265625 121.941406 43.574219 122.140625 C 37.871094 123.773438 32.105469 125.46875 26.269531 127.226562 C 22.277344 115.871094 18.722656 103.777344 15.558594 91.4375 C 15.476562 91.113281 19.171875 89.519531 19.089844 89.199219 C 18.917969 88.503906 14.957031 89.082031 14.785156 88.386719 C 11.25 74.277344 8.21875 59.898438 5.617188 45.988281 L 12.738281 44.597656 C 12.570312 43.683594 5.007812 44.59375 4.84375 43.679688 C 4.226562 40.253906 3.632812 36.816406 3.0625 33.371094 Z M 3.0625 33.371094 "/></g><g clip-rule="nonzero" clip-path="url(#7538a76d9e)"><path style=" stroke:none;fill-rule:nonzero;fill:#364437;fill-opacity:1;" d="M 77.347656 101.519531 L 86.371094 99.289062 L 99.097656 178.804688 L 98.996094 179.476562 L 95.609375 175.371094 Z M 77.347656 101.519531 "/></g><g clip-rule="nonzero" clip-path="url(#2464dc4927)"><path style=" stroke:none;fill-rule:nonzero;fill:#364437;fill-opacity:1;" d="M 80.753906 105.714844 L 89.773438 103.484375 L 108.035156 177.335938 L 99.011719 179.566406 Z M 80.753906 105.714844 "/></g><g clip-rule="nonzero" clip-path="url(#aa41549e52)"><path style=" stroke:none;fill-rule:nonzero;fill:#364437;fill-opacity:1;" d="M 0.015625 32.078125 C 36.320312 25.394531 64.585938 17.949219 91.859375 10.410156 C 92.554688 10.21875 94.296875 11.28125 94.296875 11.28125 C 94.296875 11.28125 96.597656 9.097656 97.925781 8.730469 C 107.898438 5.957031 117.804688 3.183594 127.996094 0.433594 C 130.976562 9.949219 133.824219 19.734375 136.53125 29.796875 C 136.652344 30.277344 132.488281 31.992188 132.617188 32.472656 C 132.75 33.003906 135.839844 32.480469 135.980469 33.015625 C 136.113281 33.550781 140.210938 33.589844 140.347656 34.125 C 140.425781 34.449219 131.746094 36.261719 131.828125 36.585938 C 131.9375 37.011719 141.234375 37.472656 141.34375 37.898438 C 141.464844 38.386719 138.605469 37.652344 138.730469 38.140625 C 142.386719 52.339844 145.773438 67.074219 148.871094 82.378906 C 148.980469 82.917969 142.019531 84.527344 142.128906 85.066406 C 142.238281 85.609375 152.449219 86.328125 152.558594 86.871094 C 152.636719 87.292969 149.691406 86.46875 149.773438 86.890625 C 150.261719 89.34375 150.734375 91.808594 151.207031 94.285156 C 124.933594 99.472656 98.777344 106.15625 70.199219 113.914062 C 69.296875 114.160156 67.308594 113.480469 66.402344 113.730469 C 59.402344 115.65625 50.292969 116.515625 42.238281 118.808594 C 41.550781 119.003906 41.214844 120.648438 40.523438 120.847656 C 35.707031 122.222656 30.078125 123.558594 26.355469 127.1875 L 23.222656 125.933594 C 19.226562 114.578125 15.699219 102.316406 12.535156 89.972656 C 13.316406 90.007812 16.667969 88.507812 16.53125 88.164062 C 16.449219 87.84375 15.984375 87.636719 15.046875 88.5625 L 11.734375 87.09375 C 8.199219 72.984375 5.167969 58.605469 2.570312 44.695312 L 9.6875 43.304688 C 8.132812 43.484375 7.484375 42.820312 5.019531 43.847656 L 1.792969 42.386719 C 1.792969 42.386719 0.585938 35.523438 0.015625 32.078125 Z M 0.015625 32.078125 "/></g><path style=" stroke:none;fill-rule:evenodd;fill:#364437;fill-opacity:1;" d="M 12.539062 89.980469 C 13.582031 90.398438 14.628906 90.804688 15.644531 91.433594 L 20 88.980469 L 19.742188 88.390625 L 15.566406 88.65625 Z M 12.539062 89.980469 "/><path style=" stroke:none;fill-rule:evenodd;fill:#364437;fill-opacity:1;" d="M 5.648438 45.996094 L 2.558594 44.683594 L 14.210938 42.480469 L 13.777344 44.964844 Z M 5.648438 45.996094 "/><g clip-rule="nonzero" clip-path="url(#35677817e9)"><path style=" stroke:none;fill-rule:nonzero;fill:#364437;fill-opacity:1;" d="M 0.015625 32.078125 C 36.320312 25.394531 64.585938 17.949219 91.859375 10.410156 C 92.554688 10.21875 94.296875 11.28125 94.296875 11.28125 C 94.296875 11.28125 96.597656 9.097656 97.925781 8.730469 C 107.898438 5.957031 117.804688 3.183594 127.996094 0.433594 L 131.09375 1.988281 C 130.722656 14.902344 14.078125 29.796875 8.09375 38.863281 C 7.480469 35.4375 4.335938 34.007812 0.015625 32.078125 Z M 0.015625 32.078125 "/></g><path style=" stroke:none;fill-rule:evenodd;fill:#364437;fill-opacity:1;" d="M 100.769531 10.121094 C 98.78125 9.105469 98.621094 9.226562 97.601562 8.863281 C 96.59375 9.0625 95.003906 10.511719 94.234375 11.269531 L 97.363281 12.730469 Z M 100.769531 10.121094 "/><g clip-rule="nonzero" clip-path="url(#69b40fe7d5)"><path style=" stroke:none;fill-rule:nonzero;fill:#3f5141;fill-opacity:1;" d="M 3.0625 33.371094 C 39.367188 26.6875 67.632812 19.242188 94.910156 11.703125 C 95.601562 11.511719 97.34375 12.574219 97.34375 12.574219 C 97.34375 12.574219 99.648438 10.390625 100.976562 10.023438 C 110.945312 7.25 120.855469 4.476562 131.046875 1.726562 C 134.027344 11.242188 136.875 21.027344 139.582031 31.089844 C 139.703125 31.570312 135.539062 33.285156 135.667969 33.765625 C 135.800781 34.300781 140.25 33.59375 140.394531 34.125 C 140.523438 34.660156 140.679688 35.191406 140.816406 35.726562 C 140.894531 36.050781 134.796875 37.558594 134.878906 37.878906 C 134.984375 38.304688 141.289062 37.542969 141.402344 37.96875 C 145.203125 52.617188 148.714844 67.839844 151.921875 83.671875 C 152.03125 84.210938 145.070312 85.820312 145.175781 86.359375 C 145.285156 86.902344 152.464844 86.375 152.574219 86.917969 C 153.144531 89.785156 153.703125 92.671875 154.253906 95.582031 C 127.984375 100.765625 101.824219 107.449219 73.25 115.207031 C 72.347656 115.453125 70.359375 114.773438 69.453125 115.023438 C 62.453125 116.949219 53.34375 117.808594 45.289062 120.101562 C 44.597656 120.296875 44.265625 121.941406 43.574219 122.140625 C 37.871094 123.773438 32.105469 125.46875 26.269531 127.226562 C 22.277344 115.871094 18.722656 103.777344 15.558594 91.4375 C 15.476562 91.113281 19.171875 89.519531 19.089844 89.199219 C 18.917969 88.503906 14.957031 89.082031 14.785156 88.386719 C 11.25 74.277344 8.21875 59.898438 5.617188 45.988281 L 12.738281 44.597656 C 12.570312 43.683594 5.007812 44.59375 4.84375 43.679688 C 4.226562 40.253906 3.632812 36.816406 3.0625 33.371094 Z M 3.0625 33.371094 "/></g><g style="fill:#eef4ee;fill-opacity:1;"><g transform="translate(17.919492, 60.401449)"><path style="stroke:none" d="M 4.515625 -2.734375 C 4.753906 -2.796875 5.003906 -2.894531 5.265625 -3.03125 C 5.523438 -3.175781 5.738281 -3.363281 5.90625 -3.59375 C 6.070312 -3.820312 6.117188 -4.082031 6.046875 -4.375 C 5.984375 -4.65625 5.820312 -4.859375 5.5625 -4.984375 C 5.300781 -5.109375 4.984375 -5.179688 4.609375 -5.203125 C 4.234375 -5.234375 3.828125 -5.242188 3.390625 -5.234375 C 2.953125 -5.222656 2.507812 -5.238281 2.0625 -5.28125 C 1.613281 -5.320312 1.1875 -5.410156 0.78125 -5.546875 C 0.375 -5.691406 0.0234375 -5.914062 -0.265625 -6.21875 C -0.566406 -6.519531 -0.785156 -6.941406 -0.921875 -7.484375 C -1.035156 -8.015625 -1.03125 -8.5 -0.90625 -8.9375 C -0.789062 -9.375 -0.578125 -9.765625 -0.265625 -10.109375 C 0.046875 -10.453125 0.414062 -10.738281 0.84375 -10.96875 C 1.269531 -11.207031 1.710938 -11.378906 2.171875 -11.484375 C 2.878906 -11.648438 3.566406 -11.691406 4.234375 -11.609375 C 4.898438 -11.535156 5.476562 -11.304688 5.96875 -10.921875 C 6.46875 -10.535156 6.820312 -9.957031 7.03125 -9.1875 L 4.84375 -8.671875 C 4.65625 -9.171875 4.378906 -9.488281 4.015625 -9.625 C 3.660156 -9.757812 3.203125 -9.765625 2.640625 -9.640625 C 2.429688 -9.585938 2.21875 -9.5 2 -9.375 C 1.78125 -9.25 1.601562 -9.085938 1.46875 -8.890625 C 1.34375 -8.691406 1.3125 -8.46875 1.375 -8.21875 C 1.4375 -7.957031 1.59375 -7.773438 1.84375 -7.671875 C 2.09375 -7.566406 2.40625 -7.503906 2.78125 -7.484375 C 3.15625 -7.460938 3.5625 -7.453125 4 -7.453125 C 4.4375 -7.460938 4.878906 -7.453125 5.328125 -7.421875 C 5.785156 -7.398438 6.210938 -7.316406 6.609375 -7.171875 C 7.015625 -7.023438 7.367188 -6.796875 7.671875 -6.484375 C 7.972656 -6.179688 8.191406 -5.75 8.328125 -5.1875 C 8.472656 -4.582031 8.472656 -4.035156 8.328125 -3.546875 C 8.191406 -3.066406 7.945312 -2.65625 7.59375 -2.3125 C 7.25 -1.96875 6.835938 -1.671875 6.359375 -1.421875 C 5.878906 -1.179688 5.378906 -1 4.859375 -0.875 C 4.109375 -0.695312 3.367188 -0.660156 2.640625 -0.765625 C 1.921875 -0.867188 1.296875 -1.140625 0.765625 -1.578125 C 0.234375 -2.015625 -0.132812 -2.648438 -0.34375 -3.484375 L 1.9375 -4.015625 C 2.113281 -3.421875 2.445312 -3.023438 2.9375 -2.828125 C 3.4375 -2.640625 3.960938 -2.609375 4.515625 -2.734375 Z M 4.515625 -2.734375 "/></g></g><g style="fill:#eef4ee;fill-opacity:1;"><g transform="translate(27.412235, 58.176575)"><path style="stroke:none" d="M 1.984375 -4.8125 L 4.953125 -5.515625 C 4.953125 -5.515625 4.925781 -5.570312 4.875 -5.6875 C 4.832031 -5.800781 4.738281 -5.925781 4.59375 -6.0625 C 4.457031 -6.207031 4.273438 -6.316406 4.046875 -6.390625 C 3.816406 -6.472656 3.53125 -6.476562 3.1875 -6.40625 C 2.84375 -6.320312 2.582031 -6.191406 2.40625 -6.015625 C 2.226562 -5.835938 2.113281 -5.65625 2.0625 -5.46875 C 2.007812 -5.28125 1.984375 -5.125 1.984375 -5 C 1.984375 -4.875 1.984375 -4.8125 1.984375 -4.8125 Z M 7.28125 -5.359375 C 7.300781 -5.285156 7.316406 -5.210938 7.328125 -5.140625 C 7.335938 -5.078125 7.347656 -5.007812 7.359375 -4.9375 L 2.203125 -3.734375 C 2.265625 -3.472656 2.378906 -3.234375 2.546875 -3.015625 C 2.722656 -2.804688 2.9375 -2.644531 3.1875 -2.53125 C 3.445312 -2.425781 3.71875 -2.40625 4 -2.46875 C 4.40625 -2.5625 4.695312 -2.742188 4.875 -3.015625 C 5.0625 -3.296875 5.132812 -3.5625 5.09375 -3.8125 L 7.390625 -4.359375 C 7.410156 -3.421875 7.144531 -2.65625 6.59375 -2.0625 C 6.039062 -1.476562 5.316406 -1.082031 4.421875 -0.875 C 3.660156 -0.695312 2.953125 -0.6875 2.296875 -0.84375 C 1.648438 -1 1.101562 -1.296875 0.65625 -1.734375 C 0.21875 -2.171875 -0.0820312 -2.738281 -0.25 -3.4375 C -0.40625 -4.125 -0.378906 -4.769531 -0.171875 -5.375 C 0.0351562 -5.976562 0.394531 -6.492188 0.90625 -6.921875 C 1.425781 -7.347656 2.054688 -7.648438 2.796875 -7.828125 C 3.484375 -7.984375 4.132812 -7.992188 4.75 -7.859375 C 5.375 -7.734375 5.910156 -7.460938 6.359375 -7.046875 C 6.804688 -6.628906 7.113281 -6.066406 7.28125 -5.359375 Z M 7.28125 -5.359375 "/></g></g><g style="fill:#eef4ee;fill-opacity:1;"><g transform="translate(36.031039, 56.156531)"><path style="stroke:none" d="M 0.484375 3.671875 L -0.03125 1.5 C -0.03125 1.5 0.046875 1.519531 0.203125 1.5625 C 0.367188 1.613281 0.535156 1.617188 0.703125 1.578125 C 0.929688 1.523438 1.066406 1.425781 1.109375 1.28125 C 1.148438 1.144531 1.148438 0.984375 1.109375 0.796875 C 1.078125 0.609375 1.039062 0.421875 1 0.234375 L -0.671875 -6.84375 L 1.75 -7.421875 L 3.4375 -0.28125 C 3.5625 0.257812 3.59375 0.800781 3.53125 1.34375 C 3.46875 1.882812 3.285156 2.359375 2.984375 2.765625 C 2.691406 3.171875 2.238281 3.445312 1.625 3.59375 C 1.257812 3.675781 0.878906 3.703125 0.484375 3.671875 Z M -1.296875 -9.125 C -1.378906 -9.488281 -1.320312 -9.828125 -1.125 -10.140625 C -0.9375 -10.460938 -0.660156 -10.664062 -0.296875 -10.75 C 0.0546875 -10.832031 0.394531 -10.773438 0.71875 -10.578125 C 1.050781 -10.390625 1.257812 -10.113281 1.34375 -9.75 C 1.425781 -9.375 1.363281 -9.023438 1.15625 -8.703125 C 0.957031 -8.378906 0.679688 -8.175781 0.328125 -8.09375 C -0.0351562 -8.007812 -0.375 -8.066406 -0.6875 -8.265625 C -1.007812 -8.460938 -1.210938 -8.75 -1.296875 -9.125 Z M -1.296875 -9.125 "/></g></g><g style="fill:#eef4ee;fill-opacity:1;"><g transform="translate(40.250033, 55.167699)"><path style="stroke:none" d="M 5.3125 -4.75 C 5.25 -5.039062 5.117188 -5.289062 4.921875 -5.5 C 4.722656 -5.71875 4.484375 -5.878906 4.203125 -5.984375 C 3.929688 -6.085938 3.644531 -6.101562 3.34375 -6.03125 C 3.050781 -5.957031 2.800781 -5.8125 2.59375 -5.59375 C 2.394531 -5.382812 2.253906 -5.140625 2.171875 -4.859375 C 2.097656 -4.578125 2.09375 -4.289062 2.15625 -4 C 2.226562 -3.707031 2.363281 -3.453125 2.5625 -3.234375 C 2.757812 -3.015625 2.992188 -2.851562 3.265625 -2.75 C 3.546875 -2.65625 3.832031 -2.644531 4.125 -2.71875 C 4.425781 -2.789062 4.675781 -2.929688 4.875 -3.140625 C 5.082031 -3.347656 5.222656 -3.59375 5.296875 -3.875 C 5.378906 -4.164062 5.382812 -4.457031 5.3125 -4.75 Z M 6.8125 -8.578125 L 8.359375 -1.953125 L 6.09375 -1.4375 L 5.90625 -2.25 C 5.78125 -1.84375 5.507812 -1.515625 5.09375 -1.265625 C 4.6875 -1.015625 4.273438 -0.84375 3.859375 -0.75 C 3.234375 -0.59375 2.632812 -0.617188 2.0625 -0.828125 C 1.488281 -1.046875 0.992188 -1.382812 0.578125 -1.84375 C 0.171875 -2.300781 -0.101562 -2.832031 -0.25 -3.4375 C -0.382812 -4.050781 -0.367188 -4.65625 -0.203125 -5.25 C -0.046875 -5.851562 0.238281 -6.375 0.65625 -6.8125 C 1.082031 -7.25 1.609375 -7.546875 2.234375 -7.703125 C 2.648438 -7.796875 3.078125 -7.816406 3.515625 -7.765625 C 3.953125 -7.722656 4.351562 -7.5625 4.71875 -7.28125 L 4.546875 -8.0625 Z M 6.8125 -8.578125 "/></g></g><g style="fill:#eef4ee;fill-opacity:1;"><g transform="translate(49.516756, 52.995799)"><path style="stroke:none" d=""/></g></g><g style="fill:#eef4ee;fill-opacity:1;"><g transform="translate(53.28372, 52.112911)"><path style="stroke:none" d="M 5.15625 -4.375 C 5.082031 -4.707031 4.890625 -4.96875 4.578125 -5.15625 C 4.273438 -5.34375 3.953125 -5.394531 3.609375 -5.3125 L 2.1875 -4.96875 L 2.765625 -2.5 L 4.1875 -2.84375 C 4.53125 -2.925781 4.796875 -3.117188 4.984375 -3.421875 C 5.179688 -3.722656 5.238281 -4.039062 5.15625 -4.375 Z M 3.4375 -8.484375 C 3.351562 -8.816406 3.164062 -9.066406 2.875 -9.234375 C 2.582031 -9.410156 2.28125 -9.460938 1.96875 -9.390625 L 1.1875 -9.203125 L 1.75 -6.8125 L 2.53125 -7 C 2.84375 -7.070312 3.085938 -7.253906 3.265625 -7.546875 C 3.453125 -7.847656 3.507812 -8.160156 3.4375 -8.484375 Z M 7.46875 -4.84375 C 7.675781 -3.957031 7.570312 -3.179688 7.15625 -2.515625 C 6.738281 -1.859375 6.035156 -1.414062 5.046875 -1.1875 L 0.890625 -0.203125 L -1.515625 -10.453125 L 2.015625 -11.28125 C 2.609375 -11.425781 3.144531 -11.429688 3.625 -11.296875 C 4.113281 -11.160156 4.519531 -10.925781 4.84375 -10.59375 C 5.164062 -10.269531 5.382812 -9.875 5.5 -9.40625 C 5.613281 -8.882812 5.601562 -8.410156 5.46875 -7.984375 C 5.34375 -7.554688 5.109375 -7.207031 4.765625 -6.9375 C 5.378906 -6.945312 5.941406 -6.773438 6.453125 -6.421875 C 6.960938 -6.066406 7.300781 -5.539062 7.46875 -4.84375 Z M 7.46875 -4.84375 "/></g></g><g style="fill:#eef4ee;fill-opacity:1;"><g transform="translate(61.586101, 50.16703)"><path style="stroke:none" d="M 1.984375 -4.8125 L 4.953125 -5.515625 C 4.953125 -5.515625 4.925781 -5.570312 4.875 -5.6875 C 4.832031 -5.800781 4.738281 -5.925781 4.59375 -6.0625 C 4.457031 -6.207031 4.273438 -6.316406 4.046875 -6.390625 C 3.816406 -6.472656 3.53125 -6.476562 3.1875 -6.40625 C 2.84375 -6.320312 2.582031 -6.191406 2.40625 -6.015625 C 2.226562 -5.835938 2.113281 -5.65625 2.0625 -5.46875 C 2.007812 -5.28125 1.984375 -5.125 1.984375 -5 C 1.984375 -4.875 1.984375 -4.8125 1.984375 -4.8125 Z M 7.28125 -5.359375 C 7.300781 -5.285156 7.316406 -5.210938 7.328125 -5.140625 C 7.335938 -5.078125 7.347656 -5.007812 7.359375 -4.9375 L 2.203125 -3.734375 C 2.265625 -3.472656 2.378906 -3.234375 2.546875 -3.015625 C 2.722656 -2.804688 2.9375 -2.644531 3.1875 -2.53125 C 3.445312 -2.425781 3.71875 -2.40625 4 -2.46875 C 4.40625 -2.5625 4.695312 -2.742188 4.875 -3.015625 C 5.0625 -3.296875 5.132812 -3.5625 5.09375 -3.8125 L 7.390625 -4.359375 C 7.410156 -3.421875 7.144531 -2.65625 6.59375 -2.0625 C 6.039062 -1.476562 5.316406 -1.082031 4.421875 -0.875 C 3.660156 -0.695312 2.953125 -0.6875 2.296875 -0.84375 C 1.648438 -1 1.101562 -1.296875 0.65625 -1.734375 C 0.21875 -2.171875 -0.0820312 -2.738281 -0.25 -3.4375 C -0.40625 -4.125 -0.378906 -4.769531 -0.171875 -5.375 C 0.0351562 -5.976562 0.394531 -6.492188 0.90625 -6.921875 C 1.425781 -7.347656 2.054688 -7.648438 2.796875 -7.828125 C 3.484375 -7.984375 4.132812 -7.992188 4.75 -7.859375 C 5.375 -7.734375 5.910156 -7.460938 6.359375 -7.046875 C 6.804688 -6.628906 7.113281 -6.066406 7.28125 -5.359375 Z M 7.28125 -5.359375 "/></g></g><g style="fill:#eef4ee;fill-opacity:1;"><g transform="translate(70.204906, 48.146986)"><path style="stroke:none" d="M 6.8125 -5.15625 L 7.609375 -1.78125 L 5.359375 -1.25 L 4.5 -4.9375 C 4.414062 -5.257812 4.273438 -5.535156 4.078125 -5.765625 C 3.878906 -6.003906 3.585938 -6.082031 3.203125 -6 C 2.960938 -5.9375 2.769531 -5.789062 2.625 -5.5625 C 2.488281 -5.332031 2.398438 -5.078125 2.359375 -4.796875 C 2.328125 -4.523438 2.335938 -4.273438 2.390625 -4.046875 L 3.171875 -0.734375 L 0.890625 -0.203125 L -0.671875 -6.84375 L 1.609375 -7.375 L 1.796875 -6.578125 C 1.960938 -6.921875 2.175781 -7.21875 2.4375 -7.46875 C 2.707031 -7.71875 3.03125 -7.882812 3.40625 -7.96875 C 3.832031 -8.070312 4.242188 -8.070312 4.640625 -7.96875 C 5.046875 -7.863281 5.414062 -7.648438 5.75 -7.328125 C 5.96875 -7.804688 6.25 -8.175781 6.59375 -8.4375 C 6.945312 -8.707031 7.382812 -8.898438 7.90625 -9.015625 C 8.488281 -9.160156 9 -9.132812 9.4375 -8.9375 C 9.882812 -8.75 10.253906 -8.4375 10.546875 -8 C 10.847656 -7.570312 11.066406 -7.078125 11.203125 -6.515625 L 12.0625 -2.828125 L 9.796875 -2.296875 L 8.9375 -5.984375 C 8.851562 -6.304688 8.710938 -6.582031 8.515625 -6.8125 C 8.328125 -7.050781 8.046875 -7.128906 7.671875 -7.046875 C 7.367188 -6.972656 7.144531 -6.832031 7 -6.625 C 6.863281 -6.425781 6.785156 -6.191406 6.765625 -5.921875 C 6.742188 -5.660156 6.757812 -5.40625 6.8125 -5.15625 Z M 6.8125 -5.15625 "/></g></g><g style="fill:#eef4ee;fill-opacity:1;"><g transform="translate(82.93723, 45.162831)"><path style="stroke:none" d="M 4.25 -3.84375 L -0.40625 -2.75 L -0.703125 -4.015625 L 3.953125 -5.109375 Z M 4.25 -3.84375 "/></g></g><g style="fill:#eef4ee;fill-opacity:1;"><g transform="translate(88.060292, 43.962107)"><path style="stroke:none" d="M 7.90625 -12.671875 L 6.15625 -1.4375 L 4.21875 -0.984375 L -2.328125 -10.265625 L 0.109375 -10.84375 L 3.578125 -5.5625 L 4.515625 -4.09375 L 4.703125 -5.828125 L 5.453125 -12.09375 Z M 7.90625 -12.671875 "/></g></g><g style="fill:#eef4ee;fill-opacity:1;"><g transform="translate(98.442034, 41.528872)"><path style="stroke:none" d="M -1.296875 -9.125 C -1.378906 -9.488281 -1.328125 -9.828125 -1.140625 -10.140625 C -0.953125 -10.453125 -0.671875 -10.65625 -0.296875 -10.75 C 0.0546875 -10.832031 0.394531 -10.773438 0.71875 -10.578125 C 1.050781 -10.390625 1.257812 -10.113281 1.34375 -9.75 C 1.425781 -9.375 1.363281 -9.023438 1.15625 -8.703125 C 0.957031 -8.378906 0.679688 -8.175781 0.328125 -8.09375 C -0.046875 -8 -0.390625 -8.050781 -0.703125 -8.25 C -1.015625 -8.457031 -1.210938 -8.75 -1.296875 -9.125 Z M 3.234375 -0.765625 L 0.96875 -0.234375 L -0.59375 -6.875 L 1.671875 -7.40625 Z M 3.234375 -0.765625 "/></g></g><g style="fill:#eef4ee;fill-opacity:1;"><g transform="translate(102.661027, 40.54004)"><path style="stroke:none" d="M 6.8125 -5.5625 L 7.703125 -1.796875 L 5.453125 -1.28125 L 4.5625 -5.046875 C 4.476562 -5.429688 4.328125 -5.707031 4.109375 -5.875 C 3.890625 -6.039062 3.601562 -6.082031 3.25 -6 C 2.90625 -5.925781 2.648438 -5.695312 2.484375 -5.3125 C 2.316406 -4.925781 2.285156 -4.503906 2.390625 -4.046875 L 3.171875 -0.734375 L 0.890625 -0.203125 L -0.671875 -6.84375 L 1.609375 -7.375 L 1.796875 -6.578125 C 1.960938 -6.921875 2.195312 -7.21875 2.5 -7.46875 C 2.800781 -7.726562 3.171875 -7.910156 3.609375 -8.015625 C 4.503906 -8.222656 5.207031 -8.09375 5.71875 -7.625 C 6.238281 -7.15625 6.601562 -6.46875 6.8125 -5.5625 Z M 6.8125 -5.5625 "/></g></g><g style="fill:#eef4ee;fill-opacity:1;"><g transform="translate(111.038752, 38.5765)"><path style="stroke:none" d="M 5.3125 -4.75 C 5.25 -5.039062 5.117188 -5.289062 4.921875 -5.5 C 4.722656 -5.71875 4.484375 -5.878906 4.203125 -5.984375 C 3.929688 -6.085938 3.644531 -6.101562 3.34375 -6.03125 C 3.050781 -5.957031 2.800781 -5.8125 2.59375 -5.59375 C 2.394531 -5.382812 2.253906 -5.140625 2.171875 -4.859375 C 2.097656 -4.578125 2.09375 -4.289062 2.15625 -4 C 2.226562 -3.707031 2.363281 -3.453125 2.5625 -3.234375 C 2.757812 -3.015625 2.992188 -2.851562 3.265625 -2.75 C 3.546875 -2.65625 3.832031 -2.644531 4.125 -2.71875 C 4.425781 -2.789062 4.675781 -2.929688 4.875 -3.140625 C 5.082031 -3.347656 5.222656 -3.59375 5.296875 -3.875 C 5.378906 -4.164062 5.382812 -4.457031 5.3125 -4.75 Z M 5.703125 -13.25 L 8.359375 -1.953125 L 6.09375 -1.4375 L 5.90625 -2.25 C 5.78125 -1.84375 5.507812 -1.515625 5.09375 -1.265625 C 4.6875 -1.015625 4.273438 -0.84375 3.859375 -0.75 C 3.234375 -0.59375 2.632812 -0.617188 2.0625 -0.828125 C 1.488281 -1.046875 0.992188 -1.382812 0.578125 -1.84375 C 0.171875 -2.300781 -0.101562 -2.832031 -0.25 -3.4375 C -0.382812 -4.050781 -0.367188 -4.65625 -0.203125 -5.25 C -0.046875 -5.851562 0.238281 -6.375 0.65625 -6.8125 C 1.082031 -7.25 1.609375 -7.546875 2.234375 -7.703125 C 2.648438 -7.796875 3.078125 -7.816406 3.515625 -7.765625 C 3.953125 -7.722656 4.351562 -7.5625 4.71875 -7.28125 L 3.4375 -12.734375 Z M 5.703125 -13.25 "/></g></g><g style="fill:#eef4ee;fill-opacity:1;"><g transform="translate(120.305475, 36.4046)"><path style="stroke:none" d="M 3.953125 -2.578125 C 4.347656 -2.671875 4.640625 -2.828125 4.828125 -3.046875 C 5.015625 -3.273438 5.117188 -3.53125 5.140625 -3.8125 C 5.171875 -4.101562 5.148438 -4.390625 5.078125 -4.671875 C 5.015625 -4.960938 4.90625 -5.222656 4.75 -5.453125 C 4.59375 -5.691406 4.382812 -5.867188 4.125 -5.984375 C 3.863281 -6.109375 3.539062 -6.125 3.15625 -6.03125 C 2.769531 -5.9375 2.476562 -5.773438 2.28125 -5.546875 C 2.09375 -5.328125 1.976562 -5.078125 1.9375 -4.796875 C 1.90625 -4.523438 1.921875 -4.242188 1.984375 -3.953125 C 2.054688 -3.671875 2.171875 -3.40625 2.328125 -3.15625 C 2.484375 -2.914062 2.691406 -2.734375 2.953125 -2.609375 C 3.222656 -2.492188 3.554688 -2.484375 3.953125 -2.578125 Z M 2.734375 -7.796875 C 3.429688 -7.960938 4.097656 -7.960938 4.734375 -7.796875 C 5.378906 -7.640625 5.929688 -7.34375 6.390625 -6.90625 C 6.859375 -6.46875 7.171875 -5.90625 7.328125 -5.21875 C 7.492188 -4.519531 7.46875 -3.875 7.25 -3.28125 C 7.039062 -2.6875 6.679688 -2.175781 6.171875 -1.75 C 5.671875 -1.332031 5.066406 -1.039062 4.359375 -0.875 C 3.648438 -0.707031 2.972656 -0.695312 2.328125 -0.84375 C 1.679688 -1 1.128906 -1.296875 0.671875 -1.734375 C 0.222656 -2.171875 -0.0820312 -2.738281 -0.25 -3.4375 C -0.40625 -4.125 -0.375 -4.765625 -0.15625 -5.359375 C 0.0507812 -5.960938 0.410156 -6.476562 0.921875 -6.90625 C 1.429688 -7.332031 2.035156 -7.628906 2.734375 -7.796875 Z M 2.734375 -7.796875 "/></g></g><g style="fill:#eef4ee;fill-opacity:1;"><g transform="translate(22.970736, 80.939613)"><path style="stroke:none" d="M 5.3125 -4.75 C 5.25 -5.039062 5.117188 -5.289062 4.921875 -5.5 C 4.722656 -5.71875 4.484375 -5.878906 4.203125 -5.984375 C 3.929688 -6.085938 3.644531 -6.101562 3.34375 -6.03125 C 3.050781 -5.957031 2.800781 -5.8125 2.59375 -5.59375 C 2.394531 -5.382812 2.253906 -5.140625 2.171875 -4.859375 C 2.097656 -4.578125 2.09375 -4.289062 2.15625 -4 C 2.226562 -3.707031 2.363281 -3.453125 2.5625 -3.234375 C 2.757812 -3.015625 2.992188 -2.851562 3.265625 -2.75 C 3.546875 -2.65625 3.832031 -2.644531 4.125 -2.71875 C 4.425781 -2.789062 4.675781 -2.929688 4.875 -3.140625 C 5.082031 -3.347656 5.222656 -3.59375 5.296875 -3.875 C 5.378906 -4.164062 5.382812 -4.457031 5.3125 -4.75 Z M 6.8125 -8.578125 L 8.359375 -1.953125 L 6.09375 -1.4375 L 5.90625 -2.25 C 5.78125 -1.84375 5.507812 -1.515625 5.09375 -1.265625 C 4.6875 -1.015625 4.273438 -0.84375 3.859375 -0.75 C 3.234375 -0.59375 2.632812 -0.617188 2.0625 -0.828125 C 1.488281 -1.046875 0.992188 -1.382812 0.578125 -1.84375 C 0.171875 -2.300781 -0.101562 -2.832031 -0.25 -3.4375 C -0.382812 -4.050781 -0.367188 -4.65625 -0.203125 -5.25 C -0.046875 -5.851562 0.238281 -6.375 0.65625 -6.8125 C 1.082031 -7.25 1.609375 -7.546875 2.234375 -7.703125 C 2.648438 -7.796875 3.078125 -7.816406 3.515625 -7.765625 C 3.953125 -7.722656 4.351562 -7.5625 4.71875 -7.28125 L 4.546875 -8.0625 Z M 6.8125 -8.578125 "/></g></g><g style="fill:#eef4ee;fill-opacity:1;"><g transform="translate(32.237459, 78.767713)"><path style="stroke:none" d="M 3.953125 -2.578125 C 4.347656 -2.671875 4.640625 -2.828125 4.828125 -3.046875 C 5.015625 -3.273438 5.117188 -3.53125 5.140625 -3.8125 C 5.171875 -4.101562 5.148438 -4.390625 5.078125 -4.671875 C 5.015625 -4.960938 4.90625 -5.222656 4.75 -5.453125 C 4.59375 -5.691406 4.382812 -5.867188 4.125 -5.984375 C 3.863281 -6.109375 3.539062 -6.125 3.15625 -6.03125 C 2.769531 -5.9375 2.476562 -5.773438 2.28125 -5.546875 C 2.09375 -5.328125 1.976562 -5.078125 1.9375 -4.796875 C 1.90625 -4.523438 1.921875 -4.242188 1.984375 -3.953125 C 2.054688 -3.671875 2.171875 -3.40625 2.328125 -3.15625 C 2.484375 -2.914062 2.691406 -2.734375 2.953125 -2.609375 C 3.222656 -2.492188 3.554688 -2.484375 3.953125 -2.578125 Z M 2.734375 -7.796875 C 3.429688 -7.960938 4.097656 -7.960938 4.734375 -7.796875 C 5.378906 -7.640625 5.929688 -7.34375 6.390625 -6.90625 C 6.859375 -6.46875 7.171875 -5.90625 7.328125 -5.21875 C 7.492188 -4.519531 7.46875 -3.875 7.25 -3.28125 C 7.039062 -2.6875 6.679688 -2.175781 6.171875 -1.75 C 5.671875 -1.332031 5.066406 -1.039062 4.359375 -0.875 C 3.648438 -0.707031 2.972656 -0.695312 2.328125 -0.84375 C 1.679688 -1 1.128906 -1.296875 0.671875 -1.734375 C 0.222656 -2.171875 -0.0820312 -2.738281 -0.25 -3.4375 C -0.40625 -4.125 -0.375 -4.765625 -0.15625 -5.359375 C 0.0507812 -5.960938 0.410156 -6.476562 0.921875 -6.90625 C 1.429688 -7.332031 2.035156 -7.628906 2.734375 -7.796875 Z M 2.734375 -7.796875 "/></g></g><g style="fill:#eef4ee;fill-opacity:1;"><g transform="translate(40.871335, 76.744137)"><path style="stroke:none" d=""/></g></g><g style="fill:#eef4ee;fill-opacity:1;"><g transform="translate(44.638299, 75.86125)"><path style="stroke:none" d="M 7.5 -5.4375 L 10.015625 -6.015625 C 9.941406 -5.265625 9.722656 -4.554688 9.359375 -3.890625 C 8.992188 -3.234375 8.507812 -2.664062 7.90625 -2.1875 C 7.3125 -1.71875 6.625 -1.390625 5.84375 -1.203125 C 5.113281 -1.035156 4.394531 -1.015625 3.6875 -1.140625 C 2.988281 -1.265625 2.335938 -1.507812 1.734375 -1.875 C 1.140625 -2.25 0.628906 -2.722656 0.203125 -3.296875 C -0.210938 -3.878906 -0.503906 -4.53125 -0.671875 -5.25 C -0.835938 -5.96875 -0.859375 -6.675781 -0.734375 -7.375 C -0.617188 -8.082031 -0.375 -8.734375 0 -9.328125 C 0.363281 -9.929688 0.832031 -10.445312 1.40625 -10.875 C 1.988281 -11.300781 2.644531 -11.597656 3.375 -11.765625 C 4.15625 -11.953125 4.914062 -11.96875 5.65625 -11.8125 C 6.394531 -11.65625 7.070312 -11.363281 7.6875 -10.9375 C 8.3125 -10.507812 8.820312 -9.972656 9.21875 -9.328125 L 6.703125 -8.734375 C 6.378906 -9.160156 5.957031 -9.453125 5.4375 -9.609375 C 4.914062 -9.765625 4.394531 -9.78125 3.875 -9.65625 C 3.3125 -9.53125 2.835938 -9.269531 2.453125 -8.875 C 2.066406 -8.476562 1.796875 -8.007812 1.640625 -7.46875 C 1.484375 -6.925781 1.472656 -6.363281 1.609375 -5.78125 C 1.742188 -5.195312 2.003906 -4.695312 2.390625 -4.28125 C 2.773438 -3.863281 3.222656 -3.566406 3.734375 -3.390625 C 4.253906 -3.222656 4.796875 -3.203125 5.359375 -3.328125 C 5.890625 -3.453125 6.347656 -3.707031 6.734375 -4.09375 C 7.128906 -4.476562 7.382812 -4.925781 7.5 -5.4375 Z M 7.5 -5.4375 "/></g></g><g style="fill:#eef4ee;fill-opacity:1;"><g transform="translate(55.833706, 73.237312)"><path style="stroke:none" d="M 6.8125 -5.5625 L 7.703125 -1.796875 L 5.453125 -1.28125 L 4.5625 -5.046875 C 4.476562 -5.429688 4.328125 -5.707031 4.109375 -5.875 C 3.890625 -6.039062 3.601562 -6.082031 3.25 -6 C 2.90625 -5.925781 2.648438 -5.695312 2.484375 -5.3125 C 2.316406 -4.925781 2.285156 -4.503906 2.390625 -4.046875 L 3.171875 -0.734375 L 0.890625 -0.203125 L -1.765625 -11.5 L 0.515625 -12.03125 L 1.796875 -6.578125 C 1.960938 -6.921875 2.195312 -7.21875 2.5 -7.46875 C 2.800781 -7.726562 3.171875 -7.910156 3.609375 -8.015625 C 4.503906 -8.222656 5.207031 -8.09375 5.71875 -7.625 C 6.238281 -7.15625 6.601562 -6.46875 6.8125 -5.5625 Z M 6.8125 -5.5625 "/></g></g><g style="fill:#eef4ee;fill-opacity:1;"><g transform="translate(64.21143, 71.273772)"><path style="stroke:none" d="M 5.3125 -4.75 C 5.25 -5.039062 5.117188 -5.289062 4.921875 -5.5 C 4.722656 -5.71875 4.484375 -5.878906 4.203125 -5.984375 C 3.929688 -6.085938 3.644531 -6.101562 3.34375 -6.03125 C 3.050781 -5.957031 2.800781 -5.8125 2.59375 -5.59375 C 2.394531 -5.382812 2.253906 -5.140625 2.171875 -4.859375 C 2.097656 -4.578125 2.09375 -4.289062 2.15625 -4 C 2.226562 -3.707031 2.363281 -3.453125 2.5625 -3.234375 C 2.757812 -3.015625 2.992188 -2.851562 3.265625 -2.75 C 3.546875 -2.65625 3.832031 -2.644531 4.125 -2.71875 C 4.425781 -2.789062 4.675781 -2.929688 4.875 -3.140625 C 5.082031 -3.347656 5.222656 -3.59375 5.296875 -3.875 C 5.378906 -4.164062 5.382812 -4.457031 5.3125 -4.75 Z M 6.8125 -8.578125 L 8.359375 -1.953125 L 6.09375 -1.4375 L 5.90625 -2.25 C 5.78125 -1.84375 5.507812 -1.515625 5.09375 -1.265625 C 4.6875 -1.015625 4.273438 -0.84375 3.859375 -0.75 C 3.234375 -0.59375 2.632812 -0.617188 2.0625 -0.828125 C 1.488281 -1.046875 0.992188 -1.382812 0.578125 -1.84375 C 0.171875 -2.300781 -0.101562 -2.832031 -0.25 -3.4375 C -0.382812 -4.050781 -0.367188 -4.65625 -0.203125 -5.25 C -0.046875 -5.851562 0.238281 -6.375 0.65625 -6.8125 C 1.082031 -7.25 1.609375 -7.546875 2.234375 -7.703125 C 2.648438 -7.796875 3.078125 -7.816406 3.515625 -7.765625 C 3.953125 -7.722656 4.351562 -7.5625 4.71875 -7.28125 L 4.546875 -8.0625 Z M 6.8125 -8.578125 "/></g></g><g style="fill:#eef4ee;fill-opacity:1;"><g transform="translate(73.478153, 69.101871)"><path style="stroke:none" d="M 3.171875 -0.734375 L 0.890625 -0.203125 L -1.765625 -11.5 L 0.515625 -12.03125 Z M 3.171875 -0.734375 "/></g></g><g style="fill:#eef4ee;fill-opacity:1;"><g transform="translate(77.54647, 68.148354)"><path style="stroke:none" d="M 1.984375 -4.8125 L 4.953125 -5.515625 C 4.953125 -5.515625 4.925781 -5.570312 4.875 -5.6875 C 4.832031 -5.800781 4.738281 -5.925781 4.59375 -6.0625 C 4.457031 -6.207031 4.273438 -6.316406 4.046875 -6.390625 C 3.816406 -6.472656 3.53125 -6.476562 3.1875 -6.40625 C 2.84375 -6.320312 2.582031 -6.191406 2.40625 -6.015625 C 2.226562 -5.835938 2.113281 -5.65625 2.0625 -5.46875 C 2.007812 -5.28125 1.984375 -5.125 1.984375 -5 C 1.984375 -4.875 1.984375 -4.8125 1.984375 -4.8125 Z M 7.28125 -5.359375 C 7.300781 -5.285156 7.316406 -5.210938 7.328125 -5.140625 C 7.335938 -5.078125 7.347656 -5.007812 7.359375 -4.9375 L 2.203125 -3.734375 C 2.265625 -3.472656 2.378906 -3.234375 2.546875 -3.015625 C 2.722656 -2.804688 2.9375 -2.644531 3.1875 -2.53125 C 3.445312 -2.425781 3.71875 -2.40625 4 -2.46875 C 4.40625 -2.5625 4.695312 -2.742188 4.875 -3.015625 C 5.0625 -3.296875 5.132812 -3.5625 5.09375 -3.8125 L 7.390625 -4.359375 C 7.410156 -3.421875 7.144531 -2.65625 6.59375 -2.0625 C 6.039062 -1.476562 5.316406 -1.082031 4.421875 -0.875 C 3.660156 -0.695312 2.953125 -0.6875 2.296875 -0.84375 C 1.648438 -1 1.101562 -1.296875 0.65625 -1.734375 C 0.21875 -2.171875 -0.0820312 -2.738281 -0.25 -3.4375 C -0.40625 -4.125 -0.378906 -4.769531 -0.171875 -5.375 C 0.0351562 -5.976562 0.394531 -6.492188 0.90625 -6.921875 C 1.425781 -7.347656 2.054688 -7.648438 2.796875 -7.828125 C 3.484375 -7.984375 4.132812 -7.992188 4.75 -7.859375 C 5.375 -7.734375 5.910156 -7.460938 6.359375 -7.046875 C 6.804688 -6.628906 7.113281 -6.066406 7.28125 -5.359375 Z M 7.28125 -5.359375 "/></g></g><g style="fill:#eef4ee;fill-opacity:1;"><g transform="translate(86.165275, 66.12831)"><path style="stroke:none" d=""/></g></g><g style="fill:#eef4ee;fill-opacity:1;"><g transform="translate(89.932239, 65.245423)"><path style="stroke:none" d="M 0.890625 -0.203125 L -1.515625 -10.453125 L 0.765625 -10.984375 L 2.6875 -2.78125 L 6.359375 -3.65625 L 6.84375 -1.609375 Z M 0.890625 -0.203125 "/></g></g><g style="fill:#eef4ee;fill-opacity:1;"><g transform="translate(97.300409, 63.518499)"><path style="stroke:none" d="M 5.3125 -4.75 C 5.25 -5.039062 5.117188 -5.289062 4.921875 -5.5 C 4.722656 -5.71875 4.484375 -5.878906 4.203125 -5.984375 C 3.929688 -6.085938 3.644531 -6.101562 3.34375 -6.03125 C 3.050781 -5.957031 2.800781 -5.8125 2.59375 -5.59375 C 2.394531 -5.382812 2.253906 -5.140625 2.171875 -4.859375 C 2.097656 -4.578125 2.09375 -4.289062 2.15625 -4 C 2.226562 -3.707031 2.363281 -3.453125 2.5625 -3.234375 C 2.757812 -3.015625 2.992188 -2.851562 3.265625 -2.75 C 3.546875 -2.65625 3.832031 -2.644531 4.125 -2.71875 C 4.425781 -2.789062 4.675781 -2.929688 4.875 -3.140625 C 5.082031 -3.347656 5.222656 -3.59375 5.296875 -3.875 C 5.378906 -4.164062 5.382812 -4.457031 5.3125 -4.75 Z M 6.8125 -8.578125 L 8.359375 -1.953125 L 6.09375 -1.4375 L 5.90625 -2.25 C 5.78125 -1.84375 5.507812 -1.515625 5.09375 -1.265625 C 4.6875 -1.015625 4.273438 -0.84375 3.859375 -0.75 C 3.234375 -0.59375 2.632812 -0.617188 2.0625 -0.828125 C 1.488281 -1.046875 0.992188 -1.382812 0.578125 -1.84375 C 0.171875 -2.300781 -0.101562 -2.832031 -0.25 -3.4375 C -0.382812 -4.050781 -0.367188 -4.65625 -0.203125 -5.25 C -0.046875 -5.851562 0.238281 -6.375 0.65625 -6.8125 C 1.082031 -7.25 1.609375 -7.546875 2.234375 -7.703125 C 2.648438 -7.796875 3.078125 -7.816406 3.515625 -7.765625 C 3.953125 -7.722656 4.351562 -7.5625 4.71875 -7.28125 L 4.546875 -8.0625 Z M 6.8125 -8.578125 "/></g></g><g style="fill:#eef4ee;fill-opacity:1;"><g transform="translate(106.567133, 61.346598)"><path style="stroke:none" d=""/></g></g><g style="fill:#eef4ee;fill-opacity:1;"><g transform="translate(110.334097, 60.463711)"><path style="stroke:none" d="M 7.90625 -12.671875 L 6.15625 -1.4375 L 4.21875 -0.984375 L -2.328125 -10.265625 L 0.109375 -10.84375 L 3.578125 -5.5625 L 4.515625 -4.09375 L 4.703125 -5.828125 L 5.453125 -12.09375 Z M 7.90625 -12.671875 "/></g></g><g style="fill:#eef4ee;fill-opacity:1;"><g transform="translate(120.715838, 58.030477)"><path style="stroke:none" d="M -1.296875 -9.125 C -1.378906 -9.488281 -1.328125 -9.828125 -1.140625 -10.140625 C -0.953125 -10.453125 -0.671875 -10.65625 -0.296875 -10.75 C 0.0546875 -10.832031 0.394531 -10.773438 0.71875 -10.578125 C 1.050781 -10.390625 1.257812 -10.113281 1.34375 -9.75 C 1.425781 -9.375 1.363281 -9.023438 1.15625 -8.703125 C 0.957031 -8.378906 0.679688 -8.175781 0.328125 -8.09375 C -0.046875 -8 -0.390625 -8.050781 -0.703125 -8.25 C -1.015625 -8.457031 -1.210938 -8.75 -1.296875 -9.125 Z M 3.234375 -0.765625 L 0.96875 -0.234375 L -0.59375 -6.875 L 1.671875 -7.40625 Z M 3.234375 -0.765625 "/></g></g><g style="fill:#eef4ee;fill-opacity:1;"><g transform="translate(124.934832, 57.041645)"><path style="stroke:none" d="M 1.984375 -4.8125 L 4.953125 -5.515625 C 4.953125 -5.515625 4.925781 -5.570312 4.875 -5.6875 C 4.832031 -5.800781 4.738281 -5.925781 4.59375 -6.0625 C 4.457031 -6.207031 4.273438 -6.316406 4.046875 -6.390625 C 3.816406 -6.472656 3.53125 -6.476562 3.1875 -6.40625 C 2.84375 -6.320312 2.582031 -6.191406 2.40625 -6.015625 C 2.226562 -5.835938 2.113281 -5.65625 2.0625 -5.46875 C 2.007812 -5.28125 1.984375 -5.125 1.984375 -5 C 1.984375 -4.875 1.984375 -4.8125 1.984375 -4.8125 Z M 7.28125 -5.359375 C 7.300781 -5.285156 7.316406 -5.210938 7.328125 -5.140625 C 7.335938 -5.078125 7.347656 -5.007812 7.359375 -4.9375 L 2.203125 -3.734375 C 2.265625 -3.472656 2.378906 -3.234375 2.546875 -3.015625 C 2.722656 -2.804688 2.9375 -2.644531 3.1875 -2.53125 C 3.445312 -2.425781 3.71875 -2.40625 4 -2.46875 C 4.40625 -2.5625 4.695312 -2.742188 4.875 -3.015625 C 5.0625 -3.296875 5.132812 -3.5625 5.09375 -3.8125 L 7.390625 -4.359375 C 7.410156 -3.421875 7.144531 -2.65625 6.59375 -2.0625 C 6.039062 -1.476562 5.316406 -1.082031 4.421875 -0.875 C 3.660156 -0.695312 2.953125 -0.6875 2.296875 -0.84375 C 1.648438 -1 1.101562 -1.296875 0.65625 -1.734375 C 0.21875 -2.171875 -0.0820312 -2.738281 -0.25 -3.4375 C -0.40625 -4.125 -0.378906 -4.769531 -0.171875 -5.375 C 0.0351562 -5.976562 0.394531 -6.492188 0.90625 -6.921875 C 1.425781 -7.347656 2.054688 -7.648438 2.796875 -7.828125 C 3.484375 -7.984375 4.132812 -7.992188 4.75 -7.859375 C 5.375 -7.734375 5.910156 -7.460938 6.359375 -7.046875 C 6.804688 -6.628906 7.113281 -6.066406 7.28125 -5.359375 Z M 7.28125 -5.359375 "/></g></g><g style="fill:#eef4ee;fill-opacity:1;"><g transform="translate(56.559749, 94.789201)"><path style="stroke:none" d="M 6.359375 -3.65625 L 6.84375 -1.609375 L 0.890625 -0.203125 L -1.515625 -10.453125 L 4.4375 -11.859375 L 4.921875 -9.8125 L 1.25 -8.9375 L 1.734375 -6.890625 L 5.25 -7.71875 L 5.71875 -5.6875 L 2.203125 -4.859375 L 2.6875 -2.78125 Z M 6.359375 -3.65625 "/></g></g><g style="fill:#eef4ee;fill-opacity:1;"><g transform="translate(64.304615, 92.973988)"><path style="stroke:none" d="M 6.8125 -5.5625 L 7.703125 -1.796875 L 5.453125 -1.28125 L 4.5625 -5.046875 C 4.476562 -5.429688 4.328125 -5.707031 4.109375 -5.875 C 3.890625 -6.039062 3.601562 -6.082031 3.25 -6 C 2.90625 -5.925781 2.648438 -5.695312 2.484375 -5.3125 C 2.316406 -4.925781 2.285156 -4.503906 2.390625 -4.046875 L 3.171875 -0.734375 L 0.890625 -0.203125 L -0.671875 -6.84375 L 1.609375 -7.375 L 1.796875 -6.578125 C 1.960938 -6.921875 2.195312 -7.21875 2.5 -7.46875 C 2.800781 -7.726562 3.171875 -7.910156 3.609375 -8.015625 C 4.503906 -8.222656 5.207031 -8.09375 5.71875 -7.625 C 6.238281 -7.15625 6.601562 -6.46875 6.8125 -5.5625 Z M 6.8125 -5.5625 "/></g></g><g style="fill:#eef4ee;fill-opacity:1;"><g transform="translate(72.68234, 91.010447)"><path style="stroke:none" d=""/></g></g><g style="fill:#eef4ee;fill-opacity:1;"><g transform="translate(76.449304, 90.12756)"><path style="stroke:none" d="M 2.3125 -4.40625 L 3.171875 -0.734375 L 0.890625 -0.203125 L -1.515625 -10.453125 L 0.1875 -10.859375 L 0.765625 -10.984375 L 2.34375 -11.359375 C 2.894531 -11.492188 3.441406 -11.476562 3.984375 -11.3125 C 4.535156 -11.144531 5.007812 -10.847656 5.40625 -10.421875 C 5.8125 -9.992188 6.085938 -9.457031 6.234375 -8.8125 C 6.367188 -8.226562 6.382812 -7.691406 6.28125 -7.203125 C 6.175781 -6.722656 5.976562 -6.300781 5.6875 -5.9375 C 5.40625 -5.570312 5.0625 -5.28125 4.65625 -5.0625 L 8.484375 -1.984375 L 5.625 -1.3125 L 2.3125 -4.421875 Z M 2.375 -9.484375 L 1.1875 -9.203125 L 1.890625 -6.1875 L 3.078125 -6.46875 C 3.421875 -6.550781 3.707031 -6.753906 3.9375 -7.078125 C 4.164062 -7.398438 4.21875 -7.8125 4.09375 -8.3125 C 3.988281 -8.78125 3.757812 -9.113281 3.40625 -9.3125 C 3.0625 -9.507812 2.71875 -9.566406 2.375 -9.484375 Z M 2.375 -9.484375 "/></g></g><g style="fill:#eef4ee;fill-opacity:1;"><g transform="translate(84.751685, 88.181679)"><path style="stroke:none" d="M 3.953125 -2.578125 C 4.347656 -2.671875 4.640625 -2.828125 4.828125 -3.046875 C 5.015625 -3.273438 5.117188 -3.53125 5.140625 -3.8125 C 5.171875 -4.101562 5.148438 -4.390625 5.078125 -4.671875 C 5.015625 -4.960938 4.90625 -5.222656 4.75 -5.453125 C 4.59375 -5.691406 4.382812 -5.867188 4.125 -5.984375 C 3.863281 -6.109375 3.539062 -6.125 3.15625 -6.03125 C 2.769531 -5.9375 2.476562 -5.773438 2.28125 -5.546875 C 2.09375 -5.328125 1.976562 -5.078125 1.9375 -4.796875 C 1.90625 -4.523438 1.921875 -4.242188 1.984375 -3.953125 C 2.054688 -3.671875 2.171875 -3.40625 2.328125 -3.15625 C 2.484375 -2.914062 2.691406 -2.734375 2.953125 -2.609375 C 3.222656 -2.492188 3.554688 -2.484375 3.953125 -2.578125 Z M 2.734375 -7.796875 C 3.429688 -7.960938 4.097656 -7.960938 4.734375 -7.796875 C 5.378906 -7.640625 5.929688 -7.34375 6.390625 -6.90625 C 6.859375 -6.46875 7.171875 -5.90625 7.328125 -5.21875 C 7.492188 -4.519531 7.46875 -3.875 7.25 -3.28125 C 7.039062 -2.6875 6.679688 -2.175781 6.171875 -1.75 C 5.671875 -1.332031 5.066406 -1.039062 4.359375 -0.875 C 3.648438 -0.707031 2.972656 -0.695312 2.328125 -0.84375 C 1.679688 -1 1.128906 -1.296875 0.671875 -1.734375 C 0.222656 -2.171875 -0.0820312 -2.738281 -0.25 -3.4375 C -0.40625 -4.125 -0.375 -4.765625 -0.15625 -5.359375 C 0.0507812 -5.960938 0.410156 -6.476562 0.921875 -6.90625 C 1.429688 -7.332031 2.035156 -7.628906 2.734375 -7.796875 Z M 2.734375 -7.796875 "/></g></g><g style="fill:#eef4ee;fill-opacity:1;"><g transform="translate(93.385561, 86.158103)"><path style="stroke:none" d="M 5.984375 -6.28125 L 3.765625 -5.765625 C 3.648438 -6.054688 3.46875 -6.226562 3.21875 -6.28125 C 2.96875 -6.34375 2.726562 -6.347656 2.5 -6.296875 C 2.28125 -6.242188 2.085938 -6.140625 1.921875 -5.984375 C 1.753906 -5.828125 1.691406 -5.648438 1.734375 -5.453125 C 1.773438 -5.296875 1.90625 -5.203125 2.125 -5.171875 C 2.351562 -5.148438 2.632812 -5.15625 2.96875 -5.1875 C 3.300781 -5.21875 3.660156 -5.242188 4.046875 -5.265625 C 4.429688 -5.285156 4.804688 -5.253906 5.171875 -5.171875 C 5.535156 -5.097656 5.851562 -4.941406 6.125 -4.703125 C 6.40625 -4.472656 6.597656 -4.128906 6.703125 -3.671875 C 6.828125 -3.140625 6.785156 -2.6875 6.578125 -2.3125 C 6.367188 -1.945312 6.035156 -1.632812 5.578125 -1.375 C 5.117188 -1.113281 4.566406 -0.90625 3.921875 -0.75 C 3.265625 -0.601562 2.648438 -0.554688 2.078125 -0.609375 C 1.515625 -0.660156 1.023438 -0.835938 0.609375 -1.140625 C 0.203125 -1.453125 -0.09375 -1.925781 -0.28125 -2.5625 L 1.96875 -3.078125 C 2.039062 -2.742188 2.175781 -2.519531 2.375 -2.40625 C 2.570312 -2.289062 2.785156 -2.238281 3.015625 -2.25 C 3.253906 -2.269531 3.453125 -2.300781 3.609375 -2.34375 C 3.867188 -2.40625 4.078125 -2.503906 4.234375 -2.640625 C 4.398438 -2.773438 4.460938 -2.9375 4.421875 -3.125 C 4.367188 -3.351562 4.222656 -3.5 3.984375 -3.5625 C 3.753906 -3.632812 3.46875 -3.660156 3.125 -3.640625 C 2.78125 -3.628906 2.414062 -3.613281 2.03125 -3.59375 C 1.65625 -3.570312 1.289062 -3.578125 0.9375 -3.609375 C 0.582031 -3.648438 0.273438 -3.765625 0.015625 -3.953125 C -0.234375 -4.140625 -0.40625 -4.429688 -0.5 -4.828125 C -0.664062 -5.515625 -0.523438 -6.097656 -0.078125 -6.578125 C 0.367188 -7.066406 1.140625 -7.441406 2.234375 -7.703125 C 3.109375 -7.898438 3.878906 -7.898438 4.546875 -7.703125 C 5.210938 -7.503906 5.691406 -7.03125 5.984375 -6.28125 Z M 5.984375 -6.28125 "/></g></g><g style="fill:#eef4ee;fill-opacity:1;"><g transform="translate(100.994822, 84.374672)"><path style="stroke:none" d="M 1.984375 -4.8125 L 4.953125 -5.515625 C 4.953125 -5.515625 4.925781 -5.570312 4.875 -5.6875 C 4.832031 -5.800781 4.738281 -5.925781 4.59375 -6.0625 C 4.457031 -6.207031 4.273438 -6.316406 4.046875 -6.390625 C 3.816406 -6.472656 3.53125 -6.476562 3.1875 -6.40625 C 2.84375 -6.320312 2.582031 -6.191406 2.40625 -6.015625 C 2.226562 -5.835938 2.113281 -5.65625 2.0625 -5.46875 C 2.007812 -5.28125 1.984375 -5.125 1.984375 -5 C 1.984375 -4.875 1.984375 -4.8125 1.984375 -4.8125 Z M 7.28125 -5.359375 C 7.300781 -5.285156 7.316406 -5.210938 7.328125 -5.140625 C 7.335938 -5.078125 7.347656 -5.007812 7.359375 -4.9375 L 2.203125 -3.734375 C 2.265625 -3.472656 2.378906 -3.234375 2.546875 -3.015625 C 2.722656 -2.804688 2.9375 -2.644531 3.1875 -2.53125 C 3.445312 -2.425781 3.71875 -2.40625 4 -2.46875 C 4.40625 -2.5625 4.695312 -2.742188 4.875 -3.015625 C 5.0625 -3.296875 5.132812 -3.5625 5.09375 -3.8125 L 7.390625 -4.359375 C 7.410156 -3.421875 7.144531 -2.65625 6.59375 -2.0625 C 6.039062 -1.476562 5.316406 -1.082031 4.421875 -0.875 C 3.660156 -0.695312 2.953125 -0.6875 2.296875 -0.84375 C 1.648438 -1 1.101562 -1.296875 0.65625 -1.734375 C 0.21875 -2.171875 -0.0820312 -2.738281 -0.25 -3.4375 C -0.40625 -4.125 -0.378906 -4.769531 -0.171875 -5.375 C 0.0351562 -5.976562 0.394531 -6.492188 0.90625 -6.921875 C 1.425781 -7.347656 2.054688 -7.648438 2.796875 -7.828125 C 3.484375 -7.984375 4.132812 -7.992188 4.75 -7.859375 C 5.375 -7.734375 5.910156 -7.460938 6.359375 -7.046875 C 6.804688 -6.628906 7.113281 -6.066406 7.28125 -5.359375 Z M 7.28125 -5.359375 "/></g></g></g></svg>