<?xml version="1.0" encoding="UTF-8" standalone="no"?>
<!-- Created with Inkscape (http://www.inkscape.org/) -->

<svg
   width="121.02572mm"
   height="135.43413mm"
   viewBox="0 0 121.02572 135.43413"
   version="1.1"
   id="svg5"
   xml:space="preserve"
   xmlns="http://www.w3.org/2000/svg"
   xmlns:svg="http://www.w3.org/2000/svg"><defs
     id="defs2" /><g
     id="layer1"
     transform="translate(-41.705976,-48.896803)"><path
       style="fill:#3f5141;fill-opacity:1;stroke-width:0.264583"
       d="m 83.723758,184.08609 c -0.61073,-0.12067 -1.80135,-0.49957 -2.645833,-0.84201 -1.904118,-0.77213 -31.982822,-18.12363 -33.852695,-19.52861 -1.729753,-1.2997 -3.033126,-2.89104 -4.00799,-4.89352 -1.606708,-3.30036 -1.510149,-0.0443 -1.510149,-50.92307 V 61.199933 l 0.635091,-1.93876 c 0.811025,-2.47583 2.165941,-4.55792 4.161927,-6.39562 1.98807,-1.8304 3.733525,-2.77923 6.338088,-3.44536 1.987621,-0.50835 3.039793,-0.52339 36.622191,-0.52339 33.582402,0 34.634572,0.015 36.622192,0.52339 2.65302,0.67853 4.37381,1.6265 6.42644,3.54027 1.89344,1.76535 3.19784,3.76423 4.08187,6.25509 0.5921,1.66834 0.6132,2.04126 0.70522,12.46333 0.1015,11.49686 0.0335,12.29142 -1.17523,13.72789 -2.32069,2.75798 -6.55658,2.13958 -8.06316,-1.17715 -0.44435,-0.97823 -0.4862,-1.94995 -0.49152,-11.41256 -0.006,-10.31285 -0.008,-10.34671 -0.62166,-11.50937 -0.38723,-0.73321 -1.05261,-1.43663 -1.79236,-1.89485 l -1.1765,-0.72876 -29.517052,0.0673 -29.517057,0.0673 14.952276,8.59896 c 13.579041,7.80921 15.127071,8.76906 16.855371,10.45104 1.23252,1.1995 2.19584,2.43411 2.73397,3.5039 1.704382,3.38831 1.618872,1.36942 1.618872,38.223557 v 33.54649 l 10.91406,-0.002 c 6.69119,-8e-4 11.29479,-0.10722 11.89804,-0.27475 1.31616,-0.36554 2.55617,-1.45065 3.14891,-2.75554 0.44036,-0.96946 0.48679,-1.92138 0.49732,-10.1974 0.0105,-8.27602 0.057,-9.22794 0.49733,-10.19741 0.54131,-1.19169 1.84735,-2.41693 2.84258,-2.66671 1.34269,-0.337 3.45982,0.0407 4.4465,0.79329 1.90149,1.45034 1.87088,1.24639 1.87088,12.4677 0,9.0082 -0.0506,10.21932 -0.48649,11.64167 -1.46146,4.76901 -4.8573,8.35165 -9.56767,10.09399 -1.19512,0.44207 -2.5114,0.50212 -13.62604,0.62163 l -12.30313,0.13229 -0.16214,5.02709 c -0.0892,2.76489 -0.30911,5.50333 -0.48872,6.08541 -2.133042,6.91246 -9.839312,11.56156 -16.863732,10.17367 z m 58.494292,-60.28922 c -1.63328,-0.7417 -2.56077,-2.1197 -2.69732,-4.00749 -0.14781,-2.04341 0.4427,-3.03534 3.76772,-6.32902 1.39271,-1.37957 2.53219,-2.59996 2.53219,-2.71198 0,-0.11201 -8.29414,-0.20366 -18.43144,-0.20366 h -18.43144 l -1.08442,-0.63552 c -1.38215,-0.80999 -2.26936,-2.35322 -2.26936,-3.94734 0,-2.12668 0.81986,-3.47379 2.70144,-4.43873 0.93722,-0.48063 1.81656,-0.50341 19.43279,-0.50341 h 18.45116 l -3.0797,-3.118097 c -1.69383,-1.71496 -3.20554,-3.44911 -3.35936,-3.85369 -1.61797,-4.25557 3.01918,-8.2177 6.92103,-5.91356 0.62352,0.3682 4.35561,3.92405 8.29352,7.90188 5.93363,5.993787 7.21373,7.418937 7.47448,8.321457 0.38462,1.33125 0.38647,1.54541 0.0249,2.87972 -0.23858,0.88041 -1.53936,2.31974 -7.73759,8.56175 -4.83868,4.87285 -7.82183,7.67675 -8.50913,7.99783 -1.34338,0.62758 -2.61728,0.62754 -3.99946,-1.4e-4 z"
       id="path3034" /></g></svg>
