<svg xmlns="http://www.w3.org/2000/svg" xmlns:xlink="http://www.w3.org/1999/xlink" width="115" zoomAndPan="magnify" viewBox="0 0 86.25 86.249996" height="115" preserveAspectRatio="xMidYMid meet" version="1.0"><path fill="#3f5141" d="M 73.039062 17.824219 L 12.46875 17.824219 C 12.117188 17.824219 11.773438 17.859375 11.429688 17.925781 C 11.089844 17.996094 10.753906 18.097656 10.433594 18.230469 C 10.109375 18.367188 9.804688 18.53125 9.511719 18.726562 C 9.222656 18.917969 8.953125 19.140625 8.707031 19.386719 C 8.460938 19.636719 8.242188 19.90625 8.046875 20.195312 C 7.851562 20.484375 7.691406 20.792969 7.554688 21.117188 C 7.421875 21.4375 7.320312 21.769531 7.253906 22.113281 C 7.1875 22.457031 7.152344 22.800781 7.152344 23.152344 L 7.152344 55.304688 C 7.152344 55.652344 7.1875 55.996094 7.257812 56.339844 C 7.324219 56.683594 7.425781 57.015625 7.558594 57.335938 C 7.695312 57.65625 7.859375 57.964844 8.050781 58.253906 C 8.246094 58.542969 8.464844 58.8125 8.710938 59.058594 C 8.960938 59.304688 9.226562 59.527344 9.515625 59.71875 C 9.808594 59.914062 10.113281 60.078125 10.4375 60.210938 C 10.757812 60.347656 11.089844 60.445312 11.433594 60.515625 C 11.773438 60.585938 12.121094 60.621094 12.46875 60.621094 L 17.835938 60.621094 L 17.835938 64.214844 L 16.039062 64.214844 C 15.804688 64.214844 15.582031 64.257812 15.363281 64.347656 C 15.148438 64.4375 14.957031 64.566406 14.792969 64.730469 C 14.628906 64.894531 14.5 65.085938 14.414062 65.300781 C 14.324219 65.515625 14.277344 65.742188 14.277344 65.972656 C 14.277344 66.207031 14.324219 66.433594 14.414062 66.648438 C 14.5 66.863281 14.628906 67.054688 14.792969 67.21875 C 14.957031 67.382812 15.148438 67.511719 15.363281 67.601562 C 15.582031 67.6875 15.804688 67.734375 16.039062 67.734375 L 23.164062 67.734375 C 23.398438 67.734375 23.621094 67.6875 23.839844 67.601562 C 24.054688 67.511719 24.242188 67.382812 24.410156 67.21875 C 24.574219 67.054688 24.699219 66.863281 24.789062 66.648438 C 24.878906 66.433594 24.925781 66.207031 24.925781 65.972656 C 24.925781 65.742188 24.878906 65.515625 24.789062 65.300781 C 24.699219 65.085938 24.574219 64.894531 24.410156 64.730469 C 24.242188 64.566406 24.054688 64.4375 23.839844 64.347656 C 23.621094 64.257812 23.398438 64.214844 23.164062 64.214844 L 21.367188 64.214844 L 21.367188 60.570312 L 64.101562 60.570312 L 64.101562 64.164062 L 62.355469 64.164062 C 62.121094 64.164062 61.898438 64.210938 61.679688 64.296875 C 61.464844 64.386719 61.273438 64.515625 61.109375 64.679688 C 60.945312 64.84375 60.816406 65.035156 60.730469 65.25 C 60.640625 65.464844 60.59375 65.691406 60.59375 65.925781 C 60.59375 66.15625 60.640625 66.382812 60.730469 66.597656 C 60.816406 66.8125 60.945312 67.003906 61.109375 67.167969 C 61.273438 67.332031 61.464844 67.460938 61.679688 67.550781 C 61.898438 67.640625 62.121094 67.683594 62.355469 67.683594 L 69.480469 67.683594 C 69.714844 67.683594 69.9375 67.640625 70.15625 67.550781 C 70.371094 67.460938 70.558594 67.332031 70.726562 67.167969 C 70.890625 67.003906 71.015625 66.8125 71.105469 66.597656 C 71.195312 66.382812 71.242188 66.15625 71.242188 65.925781 C 71.242188 65.691406 71.195312 65.464844 71.105469 65.25 C 71.015625 65.035156 70.890625 64.84375 70.726562 64.679688 C 70.558594 64.515625 70.371094 64.386719 70.15625 64.296875 C 69.9375 64.210938 69.714844 64.164062 69.480469 64.164062 L 67.671875 64.164062 L 67.671875 60.570312 L 73.039062 60.570312 C 73.386719 60.570312 73.730469 60.535156 74.070312 60.46875 C 74.410156 60.402344 74.742188 60.300781 75.0625 60.167969 C 75.382812 60.039062 75.6875 59.875 75.976562 59.683594 C 76.265625 59.492188 76.535156 59.273438 76.78125 59.03125 C 77.027344 58.785156 77.246094 58.519531 77.441406 58.234375 C 77.636719 57.945312 77.800781 57.640625 77.9375 57.324219 C 78.070312 57.003906 78.171875 56.671875 78.242188 56.332031 C 78.316406 55.992188 78.351562 55.648438 78.355469 55.304688 L 78.355469 23.152344 C 78.355469 22.800781 78.320312 22.457031 78.253906 22.113281 C 78.1875 21.769531 78.085938 21.4375 77.953125 21.113281 C 77.820312 20.789062 77.65625 20.484375 77.464844 20.191406 C 77.269531 19.902344 77.050781 19.632812 76.800781 19.382812 C 76.554688 19.136719 76.285156 18.914062 75.996094 18.722656 C 75.707031 18.527344 75.398438 18.363281 75.074219 18.230469 C 74.753906 18.09375 74.417969 17.992188 74.078125 17.925781 C 73.734375 17.855469 73.386719 17.824219 73.039062 17.824219 Z M 74.835938 55.304688 C 74.835938 55.542969 74.789062 55.769531 74.699219 55.992188 C 74.605469 56.210938 74.476562 56.40625 74.308594 56.574219 C 74.140625 56.742188 73.945312 56.871094 73.726562 56.964844 C 73.503906 57.054688 73.277344 57.101562 73.039062 57.101562 L 12.46875 57.101562 C 12.230469 57.101562 12 57.054688 11.78125 56.964844 C 11.558594 56.871094 11.367188 56.742188 11.199219 56.574219 C 11.027344 56.40625 10.898438 56.210938 10.808594 55.992188 C 10.714844 55.769531 10.671875 55.542969 10.671875 55.304688 L 10.671875 23.152344 C 10.675781 22.914062 10.722656 22.6875 10.816406 22.46875 C 10.90625 22.253906 11.039062 22.058594 11.207031 21.894531 C 11.375 21.726562 11.566406 21.597656 11.785156 21.507812 C 12.003906 21.414062 12.230469 21.367188 12.46875 21.367188 L 73.039062 21.367188 C 73.277344 21.367188 73.507812 21.414062 73.726562 21.507812 C 73.945312 21.601562 74.140625 21.730469 74.308594 21.902344 C 74.476562 22.070312 74.609375 22.265625 74.699219 22.488281 C 74.789062 22.707031 74.835938 22.9375 74.835938 23.175781 Z M 74.835938 55.304688 " fill-opacity="1" fill-rule="nonzero"/><path fill="#3f5141" d="M 42.734375 25.136719 C 40.832031 25.132812 38.949219 25.3125 37.082031 25.683594 C 35.214844 26.050781 33.402344 26.601562 31.648438 27.328125 C 29.890625 28.054688 28.222656 28.949219 26.640625 30.007812 C 25.0625 31.070312 23.601562 32.273438 22.257812 33.621094 C 22.09375 33.789062 21.964844 33.980469 21.875 34.199219 C 21.785156 34.417969 21.738281 34.644531 21.738281 34.878906 C 21.738281 35.113281 21.785156 35.339844 21.875 35.558594 C 21.964844 35.777344 22.09375 35.96875 22.261719 36.132812 C 22.425781 36.300781 22.621094 36.429688 22.835938 36.519531 C 23.054688 36.609375 23.28125 36.65625 23.515625 36.65625 C 23.753906 36.65625 23.980469 36.609375 24.195312 36.519531 C 24.414062 36.429688 24.605469 36.300781 24.773438 36.136719 C 25.363281 35.546875 25.980469 34.988281 26.621094 34.460938 C 27.265625 33.933594 27.933594 33.4375 28.628906 32.976562 C 29.320312 32.511719 30.035156 32.085938 30.769531 31.695312 C 31.503906 31.300781 32.253906 30.945312 33.023438 30.628906 C 33.792969 30.308594 34.574219 30.027344 35.371094 29.789062 C 36.167969 29.546875 36.976562 29.34375 37.792969 29.179688 C 38.609375 29.019531 39.433594 28.898438 40.261719 28.816406 C 41.089844 28.734375 41.921875 28.691406 42.753906 28.691406 C 43.585938 28.691406 44.417969 28.734375 45.246094 28.816406 C 46.074219 28.898438 46.898438 29.019531 47.714844 29.179688 C 48.53125 29.34375 49.335938 29.546875 50.132812 29.789062 C 50.929688 30.027344 51.714844 30.308594 52.484375 30.628906 C 53.253906 30.945312 54.003906 31.300781 54.738281 31.695312 C 55.472656 32.085938 56.1875 32.511719 56.878906 32.976562 C 57.570312 33.4375 58.238281 33.933594 58.882812 34.460938 C 59.527344 34.988281 60.144531 35.546875 60.734375 36.136719 C 60.898438 36.304688 61.09375 36.429688 61.308594 36.523438 C 61.527344 36.613281 61.753906 36.65625 61.992188 36.65625 C 62.226562 36.65625 62.453125 36.613281 62.671875 36.523438 C 62.890625 36.433594 63.082031 36.304688 63.25 36.136719 C 63.414062 35.96875 63.542969 35.777344 63.632812 35.558594 C 63.722656 35.34375 63.769531 35.113281 63.769531 34.878906 C 63.769531 34.644531 63.722656 34.417969 63.632812 34.199219 C 63.542969 33.980469 63.414062 33.789062 63.246094 33.621094 C 61.902344 32.269531 60.441406 31.066406 58.859375 30.003906 C 57.273438 28.945312 55.601562 28.050781 53.84375 27.320312 C 52.082031 26.59375 50.265625 26.042969 48.398438 25.675781 C 46.527344 25.308594 44.640625 25.128906 42.734375 25.136719 Z M 42.734375 25.136719 " fill-opacity="1" fill-rule="nonzero"/><path fill="#3f5141" d="M 42.734375 32.328125 C 41.304688 32.324219 39.890625 32.460938 38.488281 32.738281 C 37.085938 33.019531 35.722656 33.429688 34.402344 33.980469 C 33.082031 34.527344 31.828125 35.199219 30.640625 35.996094 C 29.453125 36.792969 28.355469 37.699219 27.351562 38.710938 C 27.179688 38.875 27.046875 39.066406 26.957031 39.285156 C 26.863281 39.503906 26.816406 39.730469 26.816406 39.96875 C 26.816406 40.207031 26.863281 40.433594 26.957031 40.652344 C 27.046875 40.871094 27.179688 41.0625 27.351562 41.226562 C 27.515625 41.394531 27.707031 41.523438 27.925781 41.613281 C 28.144531 41.703125 28.371094 41.75 28.605469 41.75 C 28.84375 41.75 29.070312 41.703125 29.289062 41.613281 C 29.503906 41.523438 29.699219 41.394531 29.863281 41.226562 C 30.285156 40.800781 30.730469 40.402344 31.191406 40.019531 C 31.65625 39.640625 32.132812 39.285156 32.632812 38.953125 C 33.128906 38.621094 33.640625 38.3125 34.171875 38.03125 C 34.699219 37.746094 35.238281 37.492188 35.792969 37.261719 C 36.34375 37.03125 36.90625 36.832031 37.480469 36.65625 C 38.050781 36.484375 38.632812 36.339844 39.21875 36.222656 C 39.804688 36.105469 40.398438 36.015625 40.992188 35.957031 C 41.589844 35.898438 42.1875 35.871094 42.785156 35.871094 C 43.382812 35.871094 43.980469 35.898438 44.574219 35.957031 C 45.171875 36.015625 45.761719 36.105469 46.351562 36.222656 C 46.9375 36.339844 47.515625 36.484375 48.089844 36.65625 C 48.664062 36.832031 49.226562 37.03125 49.777344 37.261719 C 50.332031 37.492188 50.871094 37.746094 51.398438 38.03125 C 51.925781 38.3125 52.441406 38.621094 52.9375 38.953125 C 53.433594 39.285156 53.914062 39.640625 54.378906 40.019531 C 54.839844 40.402344 55.28125 40.800781 55.707031 41.226562 C 56.050781 41.574219 56.472656 41.746094 56.960938 41.742188 C 57.449219 41.738281 57.871094 41.566406 58.21875 41.226562 C 58.386719 41.058594 58.515625 40.867188 58.605469 40.648438 C 58.695312 40.433594 58.742188 40.207031 58.742188 39.96875 C 58.742188 39.734375 58.695312 39.507812 58.605469 39.289062 C 58.515625 39.070312 58.386719 38.878906 58.21875 38.710938 C 57.207031 37.691406 56.101562 36.78125 54.90625 35.984375 C 53.710938 35.183594 52.449219 34.507812 51.121094 33.960938 C 49.789062 33.414062 48.417969 33 47.007812 32.726562 C 45.597656 32.453125 44.171875 32.320312 42.734375 32.328125 Z M 42.734375 32.328125 " fill-opacity="1" fill-rule="nonzero"/><path fill="#3f5141" d="M 42.734375 39.480469 C 40.792969 39.472656 38.921875 39.84375 37.125 40.585938 C 35.332031 41.328125 33.75 42.386719 32.378906 43.765625 C 32.210938 43.933594 32.082031 44.125 31.992188 44.339844 C 31.902344 44.558594 31.855469 44.785156 31.855469 45.023438 C 31.855469 45.257812 31.902344 45.484375 31.992188 45.703125 C 32.082031 45.921875 32.210938 46.113281 32.375 46.28125 C 32.542969 46.445312 32.734375 46.574219 32.953125 46.664062 C 33.171875 46.753906 33.398438 46.800781 33.632812 46.800781 C 33.871094 46.800781 34.097656 46.753906 34.316406 46.664062 C 34.53125 46.574219 34.726562 46.445312 34.890625 46.277344 C 35.40625 45.761719 35.96875 45.300781 36.578125 44.898438 C 37.183594 44.492188 37.824219 44.148438 38.5 43.871094 C 39.171875 43.589844 39.867188 43.378906 40.585938 43.238281 C 41.300781 43.09375 42.023438 43.023438 42.753906 43.023438 C 43.484375 43.023438 44.207031 43.09375 44.921875 43.238281 C 45.636719 43.378906 46.332031 43.589844 47.007812 43.871094 C 47.683594 44.148438 48.324219 44.492188 48.929688 44.898438 C 49.535156 45.300781 50.097656 45.761719 50.613281 46.277344 C 50.78125 46.445312 50.972656 46.574219 51.191406 46.664062 C 51.410156 46.753906 51.636719 46.800781 51.871094 46.800781 C 52.109375 46.800781 52.335938 46.753906 52.550781 46.664062 C 52.769531 46.574219 52.960938 46.445312 53.128906 46.277344 C 53.296875 46.113281 53.425781 45.917969 53.515625 45.703125 C 53.605469 45.484375 53.648438 45.257812 53.648438 45.023438 C 53.648438 44.785156 53.605469 44.558594 53.515625 44.339844 C 53.425781 44.125 53.296875 43.933594 53.128906 43.765625 C 51.753906 42.382812 50.164062 41.320312 48.363281 40.574219 C 46.558594 39.832031 44.683594 39.46875 42.734375 39.480469 Z M 42.734375 39.480469 " fill-opacity="1" fill-rule="nonzero"/><path fill="#3f5141" d="M 42.734375 47.046875 C 42.308594 47.046875 41.902344 47.128906 41.511719 47.292969 C 41.121094 47.457031 40.773438 47.6875 40.476562 47.988281 C 40.175781 48.289062 39.945312 48.636719 39.785156 49.027344 C 39.621094 49.417969 39.542969 49.828125 39.542969 50.25 C 39.542969 50.675781 39.621094 51.082031 39.785156 51.472656 C 39.945312 51.867188 40.175781 52.210938 40.476562 52.511719 C 40.777344 52.8125 41.121094 53.042969 41.511719 53.207031 C 41.902344 53.371094 42.3125 53.453125 42.734375 53.457031 C 43.160156 53.457031 43.566406 53.378906 43.960938 53.21875 C 44.351562 53.058594 44.699219 52.828125 45 52.53125 C 45.300781 52.230469 45.535156 51.886719 45.699219 51.496094 C 45.863281 51.105469 45.949219 50.699219 45.953125 50.277344 C 45.957031 49.847656 45.875 49.433594 45.714844 49.039062 C 45.550781 48.640625 45.320312 48.292969 45.019531 47.988281 C 44.714844 47.683594 44.367188 47.453125 43.96875 47.289062 C 43.574219 47.125 43.164062 47.042969 42.734375 47.046875 Z M 42.734375 47.046875 " fill-opacity="1" fill-rule="nonzero"/><path fill="#3f5141" d="M 73.039062 17.824219 L 12.46875 17.824219 C 12.117188 17.824219 11.773438 17.859375 11.429688 17.925781 C 11.089844 17.996094 10.753906 18.097656 10.433594 18.230469 C 10.109375 18.367188 9.804688 18.53125 9.511719 18.726562 C 9.222656 18.917969 8.953125 19.140625 8.707031 19.386719 C 8.460938 19.636719 8.242188 19.90625 8.046875 20.195312 C 7.851562 20.484375 7.691406 20.792969 7.554688 21.117188 C 7.421875 21.4375 7.320312 21.769531 7.253906 22.113281 C 7.1875 22.457031 7.152344 22.800781 7.152344 23.152344 L 7.152344 55.304688 C 7.152344 55.652344 7.1875 55.996094 7.257812 56.339844 C 7.324219 56.683594 7.425781 57.015625 7.558594 57.335938 C 7.695312 57.65625 7.859375 57.964844 8.050781 58.253906 C 8.246094 58.542969 8.464844 58.8125 8.710938 59.058594 C 8.960938 59.304688 9.226562 59.527344 9.515625 59.71875 C 9.808594 59.914062 10.113281 60.078125 10.4375 60.210938 C 10.757812 60.347656 11.089844 60.445312 11.433594 60.515625 C 11.773438 60.585938 12.121094 60.621094 12.46875 60.621094 L 17.835938 60.621094 L 17.835938 64.214844 L 16.039062 64.214844 C 15.804688 64.214844 15.582031 64.257812 15.363281 64.347656 C 15.148438 64.4375 14.957031 64.566406 14.792969 64.730469 C 14.628906 64.894531 14.5 65.085938 14.414062 65.300781 C 14.324219 65.515625 14.277344 65.742188 14.277344 65.972656 C 14.277344 66.207031 14.324219 66.433594 14.414062 66.648438 C 14.5 66.863281 14.628906 67.054688 14.792969 67.21875 C 14.957031 67.382812 15.148438 67.511719 15.363281 67.601562 C 15.582031 67.6875 15.804688 67.734375 16.039062 67.734375 L 23.164062 67.734375 C 23.398438 67.734375 23.621094 67.6875 23.839844 67.601562 C 24.054688 67.511719 24.242188 67.382812 24.410156 67.21875 C 24.574219 67.054688 24.699219 66.863281 24.789062 66.648438 C 24.878906 66.433594 24.925781 66.207031 24.925781 65.972656 C 24.925781 65.742188 24.878906 65.515625 24.789062 65.300781 C 24.699219 65.085938 24.574219 64.894531 24.410156 64.730469 C 24.242188 64.566406 24.054688 64.4375 23.839844 64.347656 C 23.621094 64.257812 23.398438 64.214844 23.164062 64.214844 L 21.367188 64.214844 L 21.367188 60.570312 L 64.101562 60.570312 L 64.101562 64.164062 L 62.355469 64.164062 C 62.121094 64.164062 61.898438 64.210938 61.679688 64.296875 C 61.464844 64.386719 61.273438 64.515625 61.109375 64.679688 C 60.945312 64.84375 60.816406 65.035156 60.730469 65.25 C 60.640625 65.464844 60.59375 65.691406 60.59375 65.925781 C 60.59375 66.15625 60.640625 66.382812 60.730469 66.597656 C 60.816406 66.8125 60.945312 67.003906 61.109375 67.167969 C 61.273438 67.332031 61.464844 67.460938 61.679688 67.550781 C 61.898438 67.640625 62.121094 67.683594 62.355469 67.683594 L 69.480469 67.683594 C 69.714844 67.683594 69.9375 67.640625 70.15625 67.550781 C 70.371094 67.460938 70.558594 67.332031 70.726562 67.167969 C 70.890625 67.003906 71.015625 66.8125 71.105469 66.597656 C 71.195312 66.382812 71.242188 66.15625 71.242188 65.925781 C 71.242188 65.691406 71.195312 65.464844 71.105469 65.25 C 71.015625 65.035156 70.890625 64.84375 70.726562 64.679688 C 70.558594 64.515625 70.371094 64.386719 70.15625 64.296875 C 69.9375 64.210938 69.714844 64.164062 69.480469 64.164062 L 67.671875 64.164062 L 67.671875 60.570312 L 73.039062 60.570312 C 73.386719 60.570312 73.730469 60.535156 74.070312 60.46875 C 74.410156 60.402344 74.742188 60.300781 75.0625 60.167969 C 75.382812 60.039062 75.6875 59.875 75.976562 59.683594 C 76.265625 59.492188 76.535156 59.273438 76.78125 59.03125 C 77.027344 58.785156 77.246094 58.519531 77.441406 58.234375 C 77.636719 57.945312 77.800781 57.640625 77.9375 57.324219 C 78.070312 57.003906 78.171875 56.671875 78.242188 56.332031 C 78.316406 55.992188 78.351562 55.648438 78.355469 55.304688 L 78.355469 23.152344 C 78.355469 22.800781 78.320312 22.457031 78.253906 22.113281 C 78.1875 21.769531 78.085938 21.4375 77.953125 21.113281 C 77.820312 20.789062 77.65625 20.484375 77.464844 20.191406 C 77.269531 19.902344 77.050781 19.632812 76.800781 19.382812 C 76.554688 19.136719 76.285156 18.914062 75.996094 18.722656 C 75.707031 18.527344 75.398438 18.363281 75.074219 18.230469 C 74.753906 18.09375 74.417969 17.992188 74.078125 17.925781 C 73.734375 17.855469 73.386719 17.824219 73.039062 17.824219 Z M 74.835938 55.304688 C 74.835938 55.542969 74.789062 55.769531 74.699219 55.992188 C 74.605469 56.210938 74.476562 56.40625 74.308594 56.574219 C 74.140625 56.742188 73.945312 56.871094 73.726562 56.964844 C 73.503906 57.054688 73.277344 57.101562 73.039062 57.101562 L 12.46875 57.101562 C 12.230469 57.101562 12 57.054688 11.78125 56.964844 C 11.558594 56.871094 11.367188 56.742188 11.199219 56.574219 C 11.027344 56.40625 10.898438 56.210938 10.808594 55.992188 C 10.714844 55.769531 10.671875 55.542969 10.671875 55.304688 L 10.671875 23.152344 C 10.675781 22.914062 10.722656 22.6875 10.816406 22.46875 C 10.90625 22.253906 11.039062 22.058594 11.207031 21.894531 C 11.375 21.726562 11.566406 21.597656 11.785156 21.507812 C 12.003906 21.414062 12.230469 21.367188 12.46875 21.367188 L 73.039062 21.367188 C 73.277344 21.367188 73.507812 21.414062 73.726562 21.507812 C 73.945312 21.601562 74.140625 21.730469 74.308594 21.902344 C 74.476562 22.070312 74.609375 22.265625 74.699219 22.488281 C 74.789062 22.707031 74.835938 22.9375 74.835938 23.175781 Z M 74.835938 55.304688 " fill-opacity="1" fill-rule="nonzero"/><path fill="#3f5141" d="M 42.734375 25.136719 C 40.832031 25.132812 38.949219 25.3125 37.082031 25.683594 C 35.214844 26.050781 33.402344 26.601562 31.648438 27.328125 C 29.890625 28.054688 28.222656 28.949219 26.640625 30.007812 C 25.0625 31.070312 23.601562 32.273438 22.257812 33.621094 C 22.09375 33.789062 21.964844 33.980469 21.875 34.199219 C 21.785156 34.417969 21.738281 34.644531 21.738281 34.878906 C 21.738281 35.113281 21.785156 35.339844 21.875 35.558594 C 21.964844 35.777344 22.09375 35.96875 22.261719 36.132812 C 22.425781 36.300781 22.621094 36.429688 22.835938 36.519531 C 23.054688 36.609375 23.28125 36.65625 23.515625 36.65625 C 23.753906 36.65625 23.980469 36.609375 24.195312 36.519531 C 24.414062 36.429688 24.605469 36.300781 24.773438 36.136719 C 25.363281 35.546875 25.980469 34.988281 26.621094 34.460938 C 27.265625 33.933594 27.933594 33.4375 28.628906 32.976562 C 29.320312 32.511719 30.035156 32.085938 30.769531 31.695312 C 31.503906 31.300781 32.253906 30.945312 33.023438 30.628906 C 33.792969 30.308594 34.574219 30.027344 35.371094 29.789062 C 36.167969 29.546875 36.976562 29.34375 37.792969 29.179688 C 38.609375 29.019531 39.433594 28.898438 40.261719 28.816406 C 41.089844 28.734375 41.921875 28.691406 42.753906 28.691406 C 43.585938 28.691406 44.417969 28.734375 45.246094 28.816406 C 46.074219 28.898438 46.898438 29.019531 47.714844 29.179688 C 48.53125 29.34375 49.335938 29.546875 50.132812 29.789062 C 50.929688 30.027344 51.714844 30.308594 52.484375 30.628906 C 53.253906 30.945312 54.003906 31.300781 54.738281 31.695312 C 55.472656 32.085938 56.1875 32.511719 56.878906 32.976562 C 57.570312 33.4375 58.238281 33.933594 58.882812 34.460938 C 59.527344 34.988281 60.144531 35.546875 60.734375 36.136719 C 60.898438 36.304688 61.09375 36.429688 61.308594 36.523438 C 61.527344 36.613281 61.753906 36.65625 61.992188 36.65625 C 62.226562 36.65625 62.453125 36.613281 62.671875 36.523438 C 62.890625 36.433594 63.082031 36.304688 63.25 36.136719 C 63.414062 35.96875 63.542969 35.777344 63.632812 35.558594 C 63.722656 35.34375 63.769531 35.113281 63.769531 34.878906 C 63.769531 34.644531 63.722656 34.417969 63.632812 34.199219 C 63.542969 33.980469 63.414062 33.789062 63.246094 33.621094 C 61.902344 32.269531 60.441406 31.066406 58.859375 30.003906 C 57.273438 28.945312 55.601562 28.050781 53.84375 27.320312 C 52.082031 26.59375 50.265625 26.042969 48.398438 25.675781 C 46.527344 25.308594 44.640625 25.128906 42.734375 25.136719 Z M 42.734375 25.136719 " fill-opacity="1" fill-rule="nonzero"/><path fill="#3f5141" d="M 42.734375 32.328125 C 41.304688 32.324219 39.890625 32.460938 38.488281 32.738281 C 37.085938 33.019531 35.722656 33.429688 34.402344 33.980469 C 33.082031 34.527344 31.828125 35.199219 30.640625 35.996094 C 29.453125 36.792969 28.355469 37.699219 27.351562 38.710938 C 27.179688 38.875 27.046875 39.066406 26.957031 39.285156 C 26.863281 39.503906 26.816406 39.730469 26.816406 39.96875 C 26.816406 40.207031 26.863281 40.433594 26.957031 40.652344 C 27.046875 40.871094 27.179688 41.0625 27.351562 41.226562 C 27.515625 41.394531 27.707031 41.523438 27.925781 41.613281 C 28.144531 41.703125 28.371094 41.75 28.605469 41.75 C 28.84375 41.75 29.070312 41.703125 29.289062 41.613281 C 29.503906 41.523438 29.699219 41.394531 29.863281 41.226562 C 30.285156 40.800781 30.730469 40.402344 31.191406 40.019531 C 31.65625 39.640625 32.132812 39.285156 32.632812 38.953125 C 33.128906 38.621094 33.640625 38.3125 34.171875 38.03125 C 34.699219 37.746094 35.238281 37.492188 35.792969 37.261719 C 36.34375 37.03125 36.90625 36.832031 37.480469 36.65625 C 38.050781 36.484375 38.632812 36.339844 39.21875 36.222656 C 39.804688 36.105469 40.398438 36.015625 40.992188 35.957031 C 41.589844 35.898438 42.1875 35.871094 42.785156 35.871094 C 43.382812 35.871094 43.980469 35.898438 44.574219 35.957031 C 45.171875 36.015625 45.761719 36.105469 46.351562 36.222656 C 46.9375 36.339844 47.515625 36.484375 48.089844 36.65625 C 48.664062 36.832031 49.226562 37.03125 49.777344 37.261719 C 50.332031 37.492188 50.871094 37.746094 51.398438 38.03125 C 51.925781 38.3125 52.441406 38.621094 52.9375 38.953125 C 53.433594 39.285156 53.914062 39.640625 54.378906 40.019531 C 54.839844 40.402344 55.28125 40.800781 55.707031 41.226562 C 56.050781 41.574219 56.472656 41.746094 56.960938 41.742188 C 57.449219 41.738281 57.871094 41.566406 58.21875 41.226562 C 58.386719 41.058594 58.515625 40.867188 58.605469 40.648438 C 58.695312 40.433594 58.742188 40.207031 58.742188 39.96875 C 58.742188 39.734375 58.695312 39.507812 58.605469 39.289062 C 58.515625 39.070312 58.386719 38.878906 58.21875 38.710938 C 57.207031 37.691406 56.101562 36.78125 54.90625 35.984375 C 53.710938 35.183594 52.449219 34.507812 51.121094 33.960938 C 49.789062 33.414062 48.417969 33 47.007812 32.726562 C 45.597656 32.453125 44.171875 32.320312 42.734375 32.328125 Z M 42.734375 32.328125 " fill-opacity="1" fill-rule="nonzero"/><path fill="#3f5141" d="M 42.734375 39.480469 C 40.792969 39.472656 38.921875 39.84375 37.125 40.585938 C 35.332031 41.328125 33.75 42.386719 32.378906 43.765625 C 32.210938 43.933594 32.082031 44.125 31.992188 44.339844 C 31.902344 44.558594 31.855469 44.785156 31.855469 45.023438 C 31.855469 45.257812 31.902344 45.484375 31.992188 45.703125 C 32.082031 45.921875 32.210938 46.113281 32.375 46.28125 C 32.542969 46.445312 32.734375 46.574219 32.953125 46.664062 C 33.171875 46.753906 33.398438 46.800781 33.632812 46.800781 C 33.871094 46.800781 34.097656 46.753906 34.316406 46.664062 C 34.53125 46.574219 34.726562 46.445312 34.890625 46.277344 C 35.40625 45.761719 35.96875 45.300781 36.578125 44.898438 C 37.183594 44.492188 37.824219 44.148438 38.5 43.871094 C 39.171875 43.589844 39.867188 43.378906 40.585938 43.238281 C 41.300781 43.09375 42.023438 43.023438 42.753906 43.023438 C 43.484375 43.023438 44.207031 43.09375 44.921875 43.238281 C 45.636719 43.378906 46.332031 43.589844 47.007812 43.871094 C 47.683594 44.148438 48.324219 44.492188 48.929688 44.898438 C 49.535156 45.300781 50.097656 45.761719 50.613281 46.277344 C 50.78125 46.445312 50.972656 46.574219 51.191406 46.664062 C 51.410156 46.753906 51.636719 46.800781 51.871094 46.800781 C 52.109375 46.800781 52.335938 46.753906 52.550781 46.664062 C 52.769531 46.574219 52.960938 46.445312 53.128906 46.277344 C 53.296875 46.113281 53.425781 45.917969 53.515625 45.703125 C 53.605469 45.484375 53.648438 45.257812 53.648438 45.023438 C 53.648438 44.785156 53.605469 44.558594 53.515625 44.339844 C 53.425781 44.125 53.296875 43.933594 53.128906 43.765625 C 51.753906 42.382812 50.164062 41.320312 48.363281 40.574219 C 46.558594 39.832031 44.683594 39.46875 42.734375 39.480469 Z M 42.734375 39.480469 " fill-opacity="1" fill-rule="nonzero"/><path fill="#3f5141" d="M 42.734375 47.046875 C 42.308594 47.046875 41.902344 47.128906 41.511719 47.292969 C 41.121094 47.457031 40.773438 47.6875 40.476562 47.988281 C 40.175781 48.289062 39.945312 48.636719 39.785156 49.027344 C 39.621094 49.417969 39.542969 49.828125 39.542969 50.25 C 39.542969 50.675781 39.621094 51.082031 39.785156 51.472656 C 39.945312 51.867188 40.175781 52.210938 40.476562 52.511719 C 40.777344 52.8125 41.121094 53.042969 41.511719 53.207031 C 41.902344 53.371094 42.3125 53.453125 42.734375 53.457031 C 43.160156 53.457031 43.566406 53.378906 43.960938 53.21875 C 44.351562 53.058594 44.699219 52.828125 45 52.53125 C 45.300781 52.230469 45.535156 51.886719 45.699219 51.496094 C 45.863281 51.105469 45.949219 50.699219 45.953125 50.277344 C 45.957031 49.847656 45.875 49.433594 45.714844 49.039062 C 45.550781 48.640625 45.320312 48.292969 45.019531 47.988281 C 44.714844 47.683594 44.367188 47.453125 43.96875 47.289062 C 43.574219 47.125 43.164062 47.042969 42.734375 47.046875 Z M 42.734375 47.046875 " fill-opacity="1" fill-rule="nonzero"/></svg>