<?xml version="1.0" encoding="UTF-8" standalone="no"?>
<!-- Created with Inkscape (http://www.inkscape.org/) -->

<svg
   width="135.32816mm"
   height="120.69328mm"
   viewBox="0 0 135.32816 120.69328"
   version="1.1"
   id="svg5"
   xml:space="preserve"
   xmlns:inkscape="http://www.inkscape.org/namespaces/inkscape"
   xmlns:sodipodi="http://sodipodi.sourceforge.net/DTD/sodipodi-0.dtd"
   xmlns="http://www.w3.org/2000/svg"
   xmlns:svg="http://www.w3.org/2000/svg"><sodipodi:namedview
     id="namedview7"
     pagecolor="#ffffff"
     bordercolor="#000000"
     borderopacity="0.25"
     inkscape:showpageshadow="2"
     inkscape:pageopacity="0.0"
     inkscape:pagecheckerboard="0"
     inkscape:deskcolor="#d1d1d1"
     inkscape:document-units="mm"
     showgrid="false" /><defs
     id="defs2" /><g
     inkscape:label="Camada 1"
     inkscape:groupmode="layer"
     id="layer1"
     transform="translate(-37.646226,-78.889051)"><path
       style="fill:#3f5141;fill-opacity:1;stroke-width:0.264583"
       d="m 90.803262,198.87754 c -4.67023,-1.59065 -7.95958,-5.15953 -9.19449,-9.97584 -0.53563,-2.08903 -0.36507,-5.55594 0.37586,-7.64011 l 0.53157,-1.49525 -4.40257,-0.0923 -4.40257,-0.0923 -2.065993,-0.98649 c -3.825759,-1.82677 -6.412256,-5.23558 -7.106325,-9.36562 -0.78001,-4.64141 1.512049,-9.64625 5.626968,-12.28678 1.423067,-0.91318 4.079967,-1.83507 5.28871,-1.83507 0.4236,0 0.77018,-0.0994 0.77018,-0.22088 0,-0.82387 -18.115129,-67.208035 -18.437404,-67.565165 -0.362875,-0.40212 -1.30855,-0.45799 -8.956932,-0.52917 -8.158034,-0.0759 -8.584793,-0.10466 -9.281363,-0.62509 -2.489757,-1.86018 -2.544438,-5.04495 -0.114495,-6.66848 l 0.912928,-0.60995 9.405822,0.0755 9.405822,0.0755 1.507198,0.70648 c 1.899921,0.89057 3.779168,2.75428 4.570987,4.53319 0.336595,0.7562 1.666544,5.31847 2.955443,10.13839 l 2.343454,8.763485 1.95815,0.1662 c 1.076981,0.0914 15.18589,0.18135 31.353118,0.19984 16.16724,0.0185 37.07451,0.1078 46.4606,0.19844 17.05323,0.16469 17.06644,0.16524 18.18275,0.76175 2.60216,1.39047 4.20586,3.69906 4.48042,6.44975 0.2089,2.09279 -9.59578,44.57586 -10.81645,46.86701 -1.01932,1.91325 -2.42356,3.19353 -4.67032,4.25806 l -1.75244,0.83032 -40.34896,0.13229 c -38.728818,0.12698 -40.377978,0.15198 -41.071896,0.62269 -1.169397,0.79324 -1.862841,2.16057 -1.877309,3.70167 -0.01529,1.62896 0.544436,2.80828 1.736365,3.65843 l 0.863892,0.61617 41.274988,0.13229 c 39.43832,0.12641 41.31032,0.15389 42.06875,0.61765 1.22841,0.75113 1.80596,1.71627 1.91515,3.20037 0.11537,1.56808 -0.51594,2.81732 -1.78879,3.53965 -0.52683,0.29897 -0.73276,0.57929 -0.6203,0.84442 0.77097,1.81759 0.992,2.86578 1.09467,5.19124 0.18638,4.22172 -1.01112,7.41929 -3.85036,10.28126 -2.69894,2.72055 -6.02102,4.10666 -9.84241,4.10666 -3.80326,0 -6.78283,-1.23766 -9.69855,-4.02861 -4.03722,-3.86447 -5.07598,-9.0255 -3.08992,-15.35212 0.13702,-0.43647 -0.56929,-0.46302 -12.32092,-0.46302 -6.85645,0 -12.46627,0.0339 -12.46627,0.0753 0,0.0414 0.23662,0.74854 0.52582,1.57137 1.67736,4.77241 0.34843,10.44191 -3.30399,14.09548 -3.75089,3.75207 -9.248578,5.08334 -14.128588,3.42124 z m 7.15208,-7.96315 c 3.066828,-1.66918 3.987728,-5.37412 2.082518,-8.37833 -2.045478,-3.22537 -6.635078,-3.61747 -9.313288,-0.79564 -1.96676,2.07224 -2.04777,5.5854 -0.18101,7.8501 1.72594,2.09387 4.9417,2.66826 7.41178,1.32387 z m 49.649108,0.29508 c 3.7883,-1.58246 4.78703,-6.26968 1.99709,-9.37276 -2.27758,-2.53322 -5.73047,-2.74367 -8.16698,-0.49777 -1.47794,1.36232 -2.02746,2.56814 -2.02746,4.44888 0,2.39472 1.34688,4.48136 3.4925,5.41074 1.20835,0.52339 3.46547,0.52863 4.70485,0.0109 z M 96.332932,154.49721 c 0,-0.33587 -0.47625,-4.16872 -1.05833,-8.51745 -0.58208,-4.34873 -1.05833,-8.06252 -1.05833,-8.25287 0,-0.27652 -1.43606,-0.34609 -7.14375,-0.34609 -5.29664,0 -7.14375,0.0804 -7.14375,0.31098 0,0.66469 4.30465,16.24593 4.58218,16.5858 0.56579,0.69288 1.40914,0.79688 6.59646,0.81353 l 5.22552,0.0168 z m 19.843748,-8.25287 v -8.86354 h -7.01145 c -3.85631,0 -7.01172,0.0893 -7.01204,0.19844 -10e-4,0.39005 2.12733,16.34988 2.25829,16.93333 0.1336,0.59526 0.1342,0.59531 5.94941,0.59531 h 5.81579 z m 19.71116,8.53281 c 0.14078,-0.40352 2.25064,-16.28335 2.24983,-16.93333 -5.3e-4,-0.42931 -0.51106,-0.46302 -7.01203,-0.46302 h -7.01146 v 8.86354 8.86354 h 5.82914 c 4.42538,0 5.85692,-0.0796 5.94452,-0.33073 z m 18.4908,0.0318 c 0.36081,-0.1644 0.78133,-0.61089 0.93447,-0.99219 0.15315,-0.3813 1.09479,-4.23743 2.09254,-8.56917 l 1.81408,-7.87588 -6.50552,0.0707 -6.50552,0.0707 -1.11165,8.33438 c -0.61141,4.5839 -1.11783,8.54273 -1.12538,8.79739 -0.0126,0.42474 0.38993,0.46302 4.86861,0.46302 3.06512,0 5.12652,-0.11125 5.53837,-0.2989 z M 92.898092,128.84796 c 0.003,-0.32742 -0.49451,-4.35916 -1.10471,-8.95941 l -1.10946,-8.36409 -8.8371,-0.19288 c -4.8604,-0.10608 -8.894445,-0.13553 -8.964538,-0.0654 -0.0701,0.0701 0.95091,4.12349 2.268898,9.00755 1.31798,4.88406 2.39634,8.94524 2.39634,9.02484 0,0.0796 3.45281,0.14473 7.67291,0.14473 h 7.67292 l 0.005,-0.59531 z m 23.278588,-8.40052 v -8.99584 h -8.73125 c -4.80218,0 -8.731248,0.0962 -8.731248,0.2138 0,0.32156 2.078638,15.92653 2.253538,16.91798 l 0.15169,0.85989 h 7.52864 7.52863 z m 24.25132,0.52916 c 0.61351,-4.5839 1.12294,-8.60226 1.13207,-8.92968 l 0.0166,-0.59532 h -8.73125 -8.73125 v 8.9999 8.99989 l 7.59918,-0.0702 7.59918,-0.0702 z m 22.54401,0.0661 c 1.05752,-4.62029 1.9825,-8.60888 2.05551,-8.86354 0.12427,-0.43348 -0.36324,-0.46302 -7.64058,-0.46302 h -7.77332 l -1.11436,8.53281 c -0.61289,4.69305 -1.11151,8.68164 -1.10805,8.86354 0.005,0.25588 1.55123,0.33073 6.83217,0.33073 h 6.82586 z"
       id="path2399" /></g></svg>
