<svg xmlns="http://www.w3.org/2000/svg" xmlns:xlink="http://www.w3.org/1999/xlink" width="279" zoomAndPan="magnify" viewBox="0 0 209.25 159.749995" height="213" preserveAspectRatio="xMidYMid meet" version="1.0"><defs><clipPath id="f98e77e88b"><path d="M 0 67.289062 L 198.613281 67.289062 L 198.613281 101.855469 L 0 101.855469 Z M 0 67.289062 " clip-rule="nonzero"/></clipPath><clipPath id="dd41638dff"><path d="M 17.28125 67.289062 L 181.195312 67.289062 C 190.742188 67.289062 198.480469 75.027344 198.480469 84.570312 C 198.480469 94.117188 190.742188 101.855469 181.195312 101.855469 L 17.28125 101.855469 C 7.738281 101.855469 0 94.117188 0 84.570312 C 0 75.027344 7.738281 67.289062 17.28125 67.289062 Z M 17.28125 67.289062 " clip-rule="nonzero"/></clipPath><clipPath id="8bebb3a2cc"><path d="M 130.339844 21.84375 L 158.285156 21.84375 L 158.285156 38.441406 L 130.339844 38.441406 Z M 130.339844 21.84375 " clip-rule="nonzero"/></clipPath><clipPath id="764c1c0c99"><path d="M 138.640625 21.84375 L 149.941406 21.84375 C 154.523438 21.84375 158.238281 25.558594 158.238281 30.140625 C 158.238281 34.726562 154.523438 38.441406 149.941406 38.441406 L 138.640625 38.441406 C 134.054688 38.441406 130.339844 34.726562 130.339844 30.140625 C 130.339844 25.558594 134.054688 21.84375 138.640625 21.84375 Z M 138.640625 21.84375 " clip-rule="nonzero"/></clipPath><clipPath id="d67126c916"><path d="M 8.683594 81.859375 L 189.800781 81.859375 L 189.800781 145.027344 L 8.683594 145.027344 Z M 8.683594 81.859375 " clip-rule="nonzero"/></clipPath><clipPath id="4ec4e38adf"><path d="M 29.609375 81.859375 L 168.867188 81.859375 C 180.425781 81.859375 189.792969 91.226562 189.792969 102.78125 L 189.792969 124.101562 C 189.792969 135.660156 180.425781 145.027344 168.867188 145.027344 L 29.609375 145.027344 C 18.054688 145.027344 8.683594 135.660156 8.683594 124.101562 L 8.683594 102.78125 C 8.683594 91.226562 18.054688 81.859375 29.609375 81.859375 Z M 29.609375 81.859375 " clip-rule="nonzero"/></clipPath><clipPath id="4c78232d87"><path d="M 0 90 L 67 90 L 67 159.339844 L 0 159.339844 Z M 0 90 " clip-rule="nonzero"/></clipPath><clipPath id="7ff2bae602"><path d="M 132 91 L 208.503906 91 L 208.503906 159.339844 L 132 159.339844 Z M 132 91 " clip-rule="nonzero"/></clipPath><clipPath id="aa49bc5d12"><path d="M 58 0.160156 L 208.503906 0.160156 L 208.503906 152 L 58 152 Z M 58 0.160156 " clip-rule="nonzero"/></clipPath><clipPath id="ed18b54764"><path d="M 65 0.160156 L 110 0.160156 L 110 52 L 65 52 Z M 65 0.160156 " clip-rule="nonzero"/></clipPath><clipPath id="f4b334dfd3"><path d="M 0 67.289062 L 198.613281 67.289062 L 198.613281 101.855469 L 0 101.855469 Z M 0 67.289062 " clip-rule="nonzero"/></clipPath><clipPath id="e02f21e64e"><path d="M 17.28125 67.289062 L 181.195312 67.289062 C 190.742188 67.289062 198.480469 75.027344 198.480469 84.570312 C 198.480469 94.117188 190.742188 101.855469 181.195312 101.855469 L 17.28125 101.855469 C 7.738281 101.855469 0 94.117188 0 84.570312 C 0 75.027344 7.738281 67.289062 17.28125 67.289062 Z M 17.28125 67.289062 " clip-rule="nonzero"/></clipPath><clipPath id="89988a79ba"><path d="M 130.339844 21.84375 L 158.285156 21.84375 L 158.285156 38.441406 L 130.339844 38.441406 Z M 130.339844 21.84375 " clip-rule="nonzero"/></clipPath><clipPath id="fe9291c161"><path d="M 138.640625 21.84375 L 149.941406 21.84375 C 154.523438 21.84375 158.238281 25.558594 158.238281 30.140625 C 158.238281 34.726562 154.523438 38.441406 149.941406 38.441406 L 138.640625 38.441406 C 134.054688 38.441406 130.339844 34.726562 130.339844 30.140625 C 130.339844 25.558594 134.054688 21.84375 138.640625 21.84375 Z M 138.640625 21.84375 " clip-rule="nonzero"/></clipPath><clipPath id="305bde5c51"><path d="M 8.683594 81.859375 L 189.800781 81.859375 L 189.800781 145.027344 L 8.683594 145.027344 Z M 8.683594 81.859375 " clip-rule="nonzero"/></clipPath><clipPath id="437f39230a"><path d="M 29.609375 81.859375 L 168.867188 81.859375 C 180.425781 81.859375 189.792969 91.226562 189.792969 102.78125 L 189.792969 124.101562 C 189.792969 135.660156 180.425781 145.027344 168.867188 145.027344 L 29.609375 145.027344 C 18.054688 145.027344 8.683594 135.660156 8.683594 124.101562 L 8.683594 102.78125 C 8.683594 91.226562 18.054688 81.859375 29.609375 81.859375 Z M 29.609375 81.859375 " clip-rule="nonzero"/></clipPath><clipPath id="237dfef1a5"><path d="M 0 90 L 67 90 L 67 159.339844 L 0 159.339844 Z M 0 90 " clip-rule="nonzero"/></clipPath><clipPath id="69eb24434d"><path d="M 132 91 L 208.503906 91 L 208.503906 159.339844 L 132 159.339844 Z M 132 91 " clip-rule="nonzero"/></clipPath><clipPath id="1e0f885a72"><path d="M 58 0.160156 L 208.503906 0.160156 L 208.503906 152 L 58 152 Z M 58 0.160156 " clip-rule="nonzero"/></clipPath><clipPath id="7b3d6bfb5f"><path d="M 65 0.160156 L 110 0.160156 L 110 52 L 65 52 Z M 65 0.160156 " clip-rule="nonzero"/></clipPath></defs><g clip-path="url(#f98e77e88b)"><g clip-path="url(#dd41638dff)"><path fill="#2a322b" d="M 0 67.289062 L 198.476562 67.289062 L 198.476562 101.855469 L 0 101.855469 Z M 0 67.289062 " fill-opacity="1" fill-rule="nonzero"/></g></g><g clip-path="url(#8bebb3a2cc)"><g clip-path="url(#764c1c0c99)"><path fill="#2a322b" d="M 130.339844 21.84375 L 158.21875 21.84375 L 158.21875 38.441406 L 130.339844 38.441406 Z M 130.339844 21.84375 " fill-opacity="1" fill-rule="nonzero"/></g></g><g clip-path="url(#d67126c916)"><g clip-path="url(#4ec4e38adf)"><path fill="#2a322b" d="M 8.683594 81.859375 L 189.800781 81.859375 L 189.800781 145.027344 L 8.683594 145.027344 Z M 8.683594 81.859375 " fill-opacity="1" fill-rule="nonzero"/></g></g><g clip-path="url(#4c78232d87)"><path stroke-linecap="round" transform="matrix(-0.339277, 0.665868, -0.665868, -0.339277, 28.964796, 130.919611)" fill="none" stroke-linejoin="miter" d="M 4.998824 5.002959 L 35.06803 4.999106 " stroke="#2a322b" stroke-width="10" stroke-opacity="1" stroke-miterlimit="4"/></g><g clip-path="url(#7ff2bae602)"><path stroke-linecap="round" transform="matrix(-0.339277, -0.665868, 0.665868, -0.339277, 183.131443, 159.292338)" fill="none" stroke-linejoin="miter" d="M 5.000434 5.00206 L 35.067356 4.998882 " stroke="#2a322b" stroke-width="10" stroke-opacity="1" stroke-miterlimit="4"/></g><g clip-path="url(#aa49bc5d12)"><path stroke-linecap="round" transform="matrix(-0.49502, -0.559861, 0.559861, -0.49502, 175.97015, 81.852733)" fill="none" stroke-linejoin="miter" d="M 14.329185 14.153288 C 56.780709 57.409575 80.211176 58.27636 84.631427 16.749273 " stroke="#2a322b" stroke-width="20" stroke-opacity="1" stroke-miterlimit="4"/></g><path stroke-linecap="round" transform="matrix(0, -0.747321, 0.747321, 0, 40.047494, 62.309002)" fill="none" stroke-linejoin="miter" d="M 2.634955 15.42928 C 10.402279 -2.52547 18.169603 -2.478427 25.942154 15.570409 " stroke="#2a322b" stroke-width="4" stroke-opacity="1" stroke-miterlimit="4"/><path stroke-linecap="round" transform="matrix(0, 0.747321, -0.747321, 0, 62.950559, 23.61425)" fill="none" stroke-linejoin="miter" d="M 2.63834 15.431902 C 10.405664 -2.522848 18.172988 -2.475805 25.940312 15.573031 " stroke="#2a322b" stroke-width="4" stroke-opacity="1" stroke-miterlimit="4"/><path stroke-linecap="round" transform="matrix(0, -0.747321, 0.747321, 0, 71.432045, 53.958992)" fill="none" stroke-linejoin="miter" d="M 2.637033 15.432181 C 10.404357 -2.522569 18.171681 -2.475526 25.939005 15.568083 " stroke="#2a322b" stroke-width="4" stroke-opacity="1" stroke-miterlimit="4"/><g clip-path="url(#ed18b54764)"><path stroke-linecap="round" transform="matrix(0, 0.747321, -0.747321, 0, 94.335109, 15.264249)" fill="none" stroke-linejoin="miter" d="M 2.63625 15.429 C 10.403574 -2.52575 18.170899 -2.478707 25.938223 15.570129 " stroke="#2a322b" stroke-width="4" stroke-opacity="1" stroke-miterlimit="4"/></g><path stroke-linecap="round" transform="matrix(0, -0.747321, 0.747321, 0, 102.559966, 60.53542)" fill="none" stroke-linejoin="miter" d="M 2.634762 15.433499 C 10.402086 -2.521251 18.16941 -2.479435 25.941962 15.569401 " stroke="#2a322b" stroke-width="4" stroke-opacity="1" stroke-miterlimit="4"/><path stroke-linecap="round" transform="matrix(0, 0.747321, -0.747321, 0, 125.463016, 21.840679)" fill="none" stroke-linejoin="miter" d="M 2.638518 15.43289 C 10.405842 -2.52186 18.173166 -2.474817 25.94049 15.568792 " stroke="#2a322b" stroke-width="4" stroke-opacity="1" stroke-miterlimit="4"/><g clip-path="url(#f4b334dfd3)"><g clip-path="url(#e02f21e64e)"><path fill="#2a322b" d="M 0 67.289062 L 198.476562 67.289062 L 198.476562 101.855469 L 0 101.855469 Z M 0 67.289062 " fill-opacity="1" fill-rule="nonzero"/></g></g><g clip-path="url(#89988a79ba)"><g clip-path="url(#fe9291c161)"><path fill="#2a322b" d="M 130.339844 21.84375 L 158.21875 21.84375 L 158.21875 38.441406 L 130.339844 38.441406 Z M 130.339844 21.84375 " fill-opacity="1" fill-rule="nonzero"/></g></g><g clip-path="url(#305bde5c51)"><g clip-path="url(#437f39230a)"><path fill="#2a322b" d="M 8.683594 81.859375 L 189.800781 81.859375 L 189.800781 145.027344 L 8.683594 145.027344 Z M 8.683594 81.859375 " fill-opacity="1" fill-rule="nonzero"/></g></g><g clip-path="url(#237dfef1a5)"><path stroke-linecap="round" transform="matrix(-0.339277, 0.665868, -0.665868, -0.339277, 28.964796, 130.919611)" fill="none" stroke-linejoin="miter" d="M 4.998824 5.002959 L 35.06803 4.999106 " stroke="#2a322b" stroke-width="10" stroke-opacity="1" stroke-miterlimit="4"/></g><g clip-path="url(#69eb24434d)"><path stroke-linecap="round" transform="matrix(-0.339277, -0.665868, 0.665868, -0.339277, 183.131443, 159.292338)" fill="none" stroke-linejoin="miter" d="M 5.000434 5.00206 L 35.067356 4.998882 " stroke="#2a322b" stroke-width="10" stroke-opacity="1" stroke-miterlimit="4"/></g><g clip-path="url(#1e0f885a72)"><path stroke-linecap="round" transform="matrix(-0.49502, -0.559861, 0.559861, -0.49502, 175.97015, 81.852733)" fill="none" stroke-linejoin="miter" d="M 14.329185 14.153288 C 56.780709 57.409575 80.211176 58.27636 84.631427 16.749273 " stroke="#2a322b" stroke-width="20" stroke-opacity="1" stroke-miterlimit="4"/></g><path stroke-linecap="round" transform="matrix(0, -0.747321, 0.747321, 0, 40.047494, 62.309002)" fill="none" stroke-linejoin="miter" d="M 2.634955 15.42928 C 10.402279 -2.52547 18.169603 -2.478427 25.942154 15.570409 " stroke="#2a322b" stroke-width="4" stroke-opacity="1" stroke-miterlimit="4"/><path stroke-linecap="round" transform="matrix(0, 0.747321, -0.747321, 0, 62.950559, 23.61425)" fill="none" stroke-linejoin="miter" d="M 2.63834 15.431902 C 10.405664 -2.522848 18.172988 -2.475805 25.940312 15.573031 " stroke="#2a322b" stroke-width="4" stroke-opacity="1" stroke-miterlimit="4"/><path stroke-linecap="round" transform="matrix(0, -0.747321, 0.747321, 0, 71.432045, 53.958992)" fill="none" stroke-linejoin="miter" d="M 2.637033 15.432181 C 10.404357 -2.522569 18.171681 -2.475526 25.939005 15.568083 " stroke="#2a322b" stroke-width="4" stroke-opacity="1" stroke-miterlimit="4"/><g clip-path="url(#7b3d6bfb5f)"><path stroke-linecap="round" transform="matrix(0, 0.747321, -0.747321, 0, 94.335109, 15.264249)" fill="none" stroke-linejoin="miter" d="M 2.63625 15.429 C 10.403574 -2.52575 18.170899 -2.478707 25.938223 15.570129 " stroke="#2a322b" stroke-width="4" stroke-opacity="1" stroke-miterlimit="4"/></g><path stroke-linecap="round" transform="matrix(0, -0.747321, 0.747321, 0, 102.559966, 60.53542)" fill="none" stroke-linejoin="miter" d="M 2.634762 15.433499 C 10.402086 -2.521251 18.16941 -2.479435 25.941962 15.569401 " stroke="#2a322b" stroke-width="4" stroke-opacity="1" stroke-miterlimit="4"/><path stroke-linecap="round" transform="matrix(0, 0.747321, -0.747321, 0, 125.463016, 21.840679)" fill="none" stroke-linejoin="miter" d="M 2.638518 15.43289 C 10.405842 -2.52186 18.173166 -2.474817 25.94049 15.568792 " stroke="#2a322b" stroke-width="4" stroke-opacity="1" stroke-miterlimit="4"/></svg>