<svg xmlns="http://www.w3.org/2000/svg" xmlns:xlink="http://www.w3.org/1999/xlink" width="115" zoomAndPan="magnify" viewBox="0 0 86.25 86.249996" height="115" preserveAspectRatio="xMidYMid meet" version="1.0"><defs><clipPath id="72355d18bb"><path d="M 0 0 L 85.507812 0 L 85.507812 85.507812 L 0 85.507812 Z M 0 0 " clip-rule="nonzero"/></clipPath></defs><path fill="#3f5141" d="M 53.441406 60.570312 C 53.445312 59.941406 53.363281 59.328125 53.203125 58.722656 C 53.039062 58.117188 52.804688 57.539062 52.488281 56.996094 C 52.175781 56.453125 51.796875 55.960938 51.355469 55.519531 C 50.910156 55.074219 50.417969 54.699219 49.875 54.382812 C 49.332031 54.070312 48.757812 53.835938 48.152344 53.671875 C 47.546875 53.511719 46.929688 53.429688 46.304688 53.433594 C 45.675781 53.433594 45.058594 53.515625 44.453125 53.679688 C 43.851562 53.84375 43.277344 54.082031 42.734375 54.398438 L 42.734375 49.886719 L 14.253906 49.886719 L 14.253906 71.253906 C 14.253906 71.71875 14.296875 72.183594 14.390625 72.640625 C 14.480469 73.101562 14.617188 73.546875 14.792969 73.976562 C 14.972656 74.410156 15.191406 74.820312 15.453125 75.207031 C 15.710938 75.597656 16.003906 75.957031 16.335938 76.289062 C 16.667969 76.617188 17.027344 76.914062 17.414062 77.175781 C 17.800781 77.433594 18.210938 77.65625 18.644531 77.832031 C 19.074219 78.011719 19.519531 78.148438 19.980469 78.242188 C 20.4375 78.332031 20.898438 78.378906 21.367188 78.378906 L 35.632812 78.378906 C 36.101562 78.378906 36.5625 78.332031 37.019531 78.238281 C 37.476562 78.144531 37.921875 78.011719 38.351562 77.832031 C 38.785156 77.652344 39.191406 77.429688 39.582031 77.171875 C 39.96875 76.910156 40.328125 76.613281 40.65625 76.285156 C 40.984375 75.953125 41.28125 75.59375 41.539062 75.203125 C 41.796875 74.816406 42.015625 74.40625 42.195312 73.976562 C 42.371094 73.542969 42.507812 73.097656 42.597656 72.640625 C 42.6875 72.183594 42.734375 71.71875 42.734375 71.253906 L 42.734375 66.726562 C 43.832031 67.375 45.015625 67.699219 46.292969 67.695312 C 46.761719 67.699219 47.226562 67.652344 47.683594 67.5625 C 48.144531 67.472656 48.59375 67.339844 49.027344 67.160156 C 49.460938 66.984375 49.871094 66.765625 50.261719 66.503906 C 50.652344 66.246094 51.015625 65.949219 51.347656 65.617188 C 51.679688 65.285156 51.976562 64.925781 52.238281 64.535156 C 52.496094 64.148438 52.71875 63.734375 52.898438 63.304688 C 53.078125 62.871094 53.214844 62.421875 53.304688 61.964844 C 53.398438 61.503906 53.441406 61.039062 53.441406 60.570312 Z M 39.191406 71.265625 C 39.191406 71.738281 39.101562 72.191406 38.917969 72.628906 C 38.738281 73.0625 38.480469 73.449219 38.148438 73.78125 C 37.816406 74.113281 37.429688 74.371094 36.992188 74.550781 C 36.558594 74.734375 36.105469 74.824219 35.632812 74.824219 L 21.367188 74.824219 C 20.894531 74.824219 20.441406 74.734375 20.003906 74.550781 C 19.566406 74.371094 19.183594 74.113281 18.847656 73.78125 C 18.511719 73.449219 18.253906 73.0625 18.074219 72.628906 C 17.890625 72.191406 17.800781 71.738281 17.796875 71.265625 L 17.796875 53.457031 L 39.164062 53.457031 Z M 42.734375 60.570312 C 42.730469 60.09375 42.816406 59.640625 42.992188 59.199219 C 43.167969 58.757812 43.425781 58.371094 43.757812 58.03125 C 44.089844 57.695312 44.472656 57.429688 44.910156 57.246094 C 45.34375 57.0625 45.800781 56.964844 46.273438 56.960938 C 46.75 56.957031 47.207031 57.046875 47.644531 57.222656 C 48.082031 57.402344 48.472656 57.65625 48.808594 57.988281 C 49.148438 58.324219 49.410156 58.707031 49.59375 59.144531 C 49.777344 59.582031 49.871094 60.035156 49.875 60.511719 C 49.875 60.984375 49.789062 61.441406 49.609375 61.878906 C 49.429688 62.320312 49.171875 62.707031 48.839844 63.042969 C 48.507812 63.382812 48.121094 63.640625 47.683594 63.824219 C 47.246094 64.007812 46.789062 64.101562 46.316406 64.101562 C 45.84375 64.105469 45.390625 64.019531 44.953125 63.839844 C 44.515625 63.664062 44.128906 63.410156 43.792969 63.078125 C 43.457031 62.746094 43.199219 62.363281 43.015625 61.929688 C 42.832031 61.496094 42.738281 61.042969 42.734375 60.570312 Z M 42.734375 60.570312 " fill-opacity="1" fill-rule="nonzero"/><path fill="#3f5141" d="M 64.101562 7.125 L 49.886719 7.125 C 49.417969 7.125 48.953125 7.167969 48.492188 7.257812 C 48.03125 7.347656 47.585938 7.484375 47.152344 7.660156 C 46.71875 7.839844 46.304688 8.058594 45.914062 8.320312 C 45.523438 8.578125 45.164062 8.875 44.832031 9.203125 C 44.5 9.535156 44.203125 9.894531 43.941406 10.285156 C 43.679688 10.675781 43.460938 11.085938 43.277344 11.519531 C 43.097656 11.953125 42.964844 12.398438 42.871094 12.859375 C 42.78125 13.320312 42.734375 13.785156 42.734375 14.253906 L 42.734375 21.367188 L 37.832031 21.367188 C 37.585938 21.371094 37.347656 21.414062 37.117188 21.496094 C 36.882812 21.582031 36.671875 21.699219 36.480469 21.851562 C 36.289062 22.007812 36.125 22.1875 35.996094 22.394531 C 35.863281 22.605469 35.769531 22.828125 35.710938 23.066406 C 35.65625 23.304688 35.636719 23.546875 35.660156 23.792969 C 35.683594 24.039062 35.75 24.273438 35.851562 24.496094 C 35.953125 24.722656 36.089844 24.921875 36.257812 25.101562 C 36.425781 25.28125 36.621094 25.425781 36.839844 25.539062 L 42.734375 28.507812 L 42.734375 44.507812 C 42.734375 44.742188 42.777344 44.96875 42.867188 45.1875 C 42.957031 45.40625 43.085938 45.597656 43.253906 45.765625 C 43.417969 45.929688 43.609375 46.0625 43.828125 46.152344 C 44.042969 46.242188 44.269531 46.289062 44.507812 46.292969 C 44.742188 46.292969 44.972656 46.246094 45.191406 46.15625 C 45.410156 46.066406 45.601562 45.9375 45.769531 45.769531 C 45.9375 45.601562 46.066406 45.410156 46.15625 45.191406 C 46.246094 44.972656 46.292969 44.742188 46.292969 44.507812 L 46.292969 24.9375 L 67.660156 24.9375 L 67.660156 71.253906 C 67.660156 71.726562 67.570312 72.179688 67.386719 72.617188 C 67.207031 73.054688 66.949219 73.4375 66.617188 73.773438 C 66.285156 74.109375 65.898438 74.367188 65.464844 74.546875 C 65.027344 74.730469 64.574219 74.820312 64.101562 74.824219 L 48.101562 74.824219 C 47.851562 74.800781 47.609375 74.832031 47.375 74.914062 C 47.136719 74.992188 46.925781 75.117188 46.742188 75.289062 C 46.558594 75.457031 46.417969 75.65625 46.316406 75.882812 C 46.21875 76.113281 46.167969 76.351562 46.167969 76.601562 C 46.167969 76.851562 46.21875 77.089844 46.316406 77.320312 C 46.417969 77.546875 46.558594 77.746094 46.742188 77.914062 C 46.925781 78.085938 47.136719 78.210938 47.375 78.289062 C 47.609375 78.371094 47.851562 78.402344 48.101562 78.378906 L 64.101562 78.378906 C 64.570312 78.378906 65.03125 78.335938 65.492188 78.242188 C 65.949219 78.152344 66.394531 78.015625 66.828125 77.835938 C 67.261719 77.660156 67.671875 77.4375 68.0625 77.179688 C 68.449219 76.917969 68.808594 76.625 69.140625 76.292969 C 69.472656 75.960938 69.765625 75.601562 70.027344 75.210938 C 70.285156 74.824219 70.507812 74.414062 70.6875 73.980469 C 70.863281 73.546875 71 73.101562 71.089844 72.644531 C 71.183594 72.183594 71.226562 71.722656 71.226562 71.253906 L 71.226562 14.253906 C 71.226562 13.785156 71.183594 13.320312 71.089844 12.863281 C 71 12.402344 70.863281 11.957031 70.6875 11.527344 C 70.507812 11.09375 70.285156 10.683594 70.027344 10.292969 C 69.765625 9.90625 69.472656 9.542969 69.140625 9.214844 C 68.808594 8.882812 68.449219 8.585938 68.0625 8.328125 C 67.671875 8.066406 67.261719 7.847656 66.828125 7.667969 C 66.394531 7.488281 65.949219 7.355469 65.492188 7.261719 C 65.03125 7.171875 64.570312 7.125 64.101562 7.125 Z M 46.316406 21.367188 L 46.316406 14.253906 C 46.316406 13.78125 46.40625 13.324219 46.589844 12.886719 C 46.769531 12.449219 47.027344 12.0625 47.363281 11.730469 C 47.695312 11.394531 48.082031 11.136719 48.519531 10.957031 C 48.957031 10.773438 49.414062 10.683594 49.886719 10.683594 L 64.101562 10.683594 C 64.574219 10.683594 65.03125 10.773438 65.46875 10.957031 C 65.90625 11.136719 66.289062 11.394531 66.625 11.730469 C 66.960938 12.0625 67.21875 12.449219 67.398438 12.886719 C 67.582031 13.324219 67.671875 13.78125 67.671875 14.253906 L 67.671875 21.367188 Z M 46.316406 21.367188 " fill-opacity="1" fill-rule="nonzero"/><path fill="#3f5141" d="M 24.925781 42.734375 C 25.292969 42.734375 25.652344 42.789062 26 42.898438 C 26.351562 43.011719 26.675781 43.171875 26.976562 43.382812 C 27.277344 43.59375 27.539062 43.847656 27.761719 44.140625 C 27.984375 44.433594 28.15625 44.75 28.28125 45.097656 C 28.363281 45.320312 28.484375 45.519531 28.648438 45.691406 C 28.808594 45.867188 29 46.003906 29.214844 46.101562 C 29.433594 46.199219 29.660156 46.253906 29.898438 46.261719 C 30.132812 46.269531 30.363281 46.230469 30.585938 46.148438 C 30.808594 46.066406 31.007812 45.941406 31.183594 45.78125 C 31.355469 45.617188 31.492188 45.429688 31.589844 45.210938 C 31.6875 44.996094 31.742188 44.769531 31.75 44.53125 C 31.757812 44.292969 31.71875 44.0625 31.636719 43.839844 C 31.386719 43.148438 31.042969 42.511719 30.597656 41.925781 C 30.152344 41.339844 29.628906 40.835938 29.027344 40.414062 C 28.429688 39.992188 27.777344 39.667969 27.078125 39.445312 C 26.375 39.226562 25.660156 39.113281 24.925781 39.113281 C 24.558594 39.113281 24.199219 39.058594 23.847656 38.949219 C 23.5 38.835938 23.171875 38.675781 22.871094 38.464844 C 22.574219 38.253906 22.3125 38 22.089844 37.707031 C 21.867188 37.417969 21.691406 37.097656 21.566406 36.75 C 21.5 36.515625 21.390625 36.300781 21.234375 36.109375 C 21.078125 35.917969 20.890625 35.765625 20.667969 35.652344 C 20.449219 35.539062 20.21875 35.476562 19.972656 35.457031 C 19.726562 35.441406 19.484375 35.476562 19.253906 35.558594 C 19.019531 35.640625 18.8125 35.765625 18.632812 35.933594 C 18.453125 36.101562 18.3125 36.300781 18.214844 36.527344 C 18.117188 36.753906 18.066406 36.988281 18.066406 37.234375 C 18.066406 37.480469 18.113281 37.71875 18.210938 37.945312 C 18.453125 38.644531 18.796875 39.289062 19.238281 39.878906 C 19.683594 40.46875 20.203125 40.980469 20.804688 41.410156 C 21.40625 41.839844 22.058594 42.164062 22.761719 42.390625 C 23.464844 42.617188 24.1875 42.730469 24.925781 42.734375 Z M 24.925781 42.734375 " fill-opacity="1" fill-rule="nonzero"/><g clip-path="url(#72355d18bb)"><path stroke-linecap="round" transform="matrix(0.525758, 0.525758, -0.525758, 0.525758, 13.80139, 14.555733)" fill="none" stroke-linejoin="miter" d="M 2.498536 2.499695 L 125.639143 2.499695 " stroke="#b4c89f" stroke-width="5" stroke-opacity="1" stroke-miterlimit="4"/><path stroke-linecap="round" transform="matrix(0.525758, 0.525758, -0.525758, 0.525758, 15.115786, 11.156589)" fill="none" stroke-linejoin="miter" d="M 2.501119 2.498454 L 125.638011 2.502169 " stroke="#3f5141" stroke-width="5" stroke-opacity="1" stroke-miterlimit="4"/></g></svg>