<svg xmlns="http://www.w3.org/2000/svg" xmlns:xlink="http://www.w3.org/1999/xlink" width="115" zoomAndPan="magnify" viewBox="0 0 86.25 86.249996" height="115" preserveAspectRatio="xMidYMid meet" version="1.0"><path fill="#3f5141" d="M 73.039062 41 L 67.484375 41 L 71.179688 37.292969 C 71.34375 37.125 71.472656 36.933594 71.5625 36.714844 C 71.652344 36.496094 71.695312 36.269531 71.695312 36.035156 C 71.695312 35.800781 71.652344 35.574219 71.5625 35.355469 C 71.472656 35.136719 71.34375 34.945312 71.175781 34.78125 C 71.007812 34.613281 70.816406 34.484375 70.601562 34.394531 C 70.382812 34.304688 70.15625 34.257812 69.921875 34.257812 C 69.683594 34.257812 69.457031 34.304688 69.242188 34.394531 C 69.023438 34.484375 68.832031 34.613281 68.664062 34.777344 L 62.46875 40.976562 L 46.679688 40.976562 L 55.792969 31.863281 L 64.589844 31.863281 C 64.824219 31.863281 65.050781 31.816406 65.265625 31.730469 C 65.480469 31.640625 65.671875 31.511719 65.835938 31.347656 C 66.003906 31.183594 66.128906 30.992188 66.21875 30.777344 C 66.308594 30.5625 66.355469 30.335938 66.355469 30.101562 C 66.355469 29.867188 66.308594 29.644531 66.21875 29.429688 C 66.128906 29.214844 66.003906 29.023438 65.835938 28.859375 C 65.671875 28.691406 65.480469 28.566406 65.265625 28.476562 C 65.050781 28.386719 64.824219 28.34375 64.589844 28.34375 L 59.3125 28.34375 L 63.296875 24.347656 C 63.46875 24.179688 63.597656 23.988281 63.691406 23.773438 C 63.785156 23.554688 63.832031 23.324219 63.832031 23.089844 C 63.832031 22.851562 63.785156 22.625 63.691406 22.40625 C 63.597656 22.1875 63.46875 21.996094 63.296875 21.832031 C 63.128906 21.664062 62.9375 21.535156 62.722656 21.445312 C 62.503906 21.355469 62.277344 21.308594 62.039062 21.308594 C 61.804688 21.308594 61.578125 21.355469 61.359375 21.445312 C 61.140625 21.535156 60.949219 21.664062 60.785156 21.832031 L 56.800781 25.828125 L 56.800781 20.625 C 56.800781 20.390625 56.753906 20.167969 56.664062 19.953125 C 56.578125 19.734375 56.449219 19.546875 56.285156 19.378906 C 56.121094 19.214844 55.929688 19.085938 55.714844 18.996094 C 55.496094 18.910156 55.273438 18.863281 55.039062 18.863281 C 54.804688 18.863281 54.582031 18.910156 54.367188 18.996094 C 54.148438 19.085938 53.960938 19.214844 53.792969 19.378906 C 53.628906 19.546875 53.503906 19.734375 53.414062 19.953125 C 53.324219 20.167969 53.28125 20.390625 53.28125 20.625 L 53.28125 29.425781 L 44.480469 38.222656 L 44.480469 23.015625 L 50.679688 16.816406 C 50.84375 16.652344 50.972656 16.457031 51.066406 16.242188 C 51.15625 16.023438 51.199219 15.796875 51.199219 15.558594 C 51.199219 15.324219 51.15625 15.097656 51.066406 14.878906 C 50.972656 14.660156 50.84375 14.46875 50.679688 14.304688 C 50.511719 14.132812 50.320312 14 50.105469 13.910156 C 49.886719 13.816406 49.65625 13.769531 49.421875 13.769531 C 49.183594 13.769531 48.957031 13.816406 48.738281 13.910156 C 48.519531 14 48.328125 14.132812 48.164062 14.304688 L 44.457031 18.011719 L 44.457031 12.46875 C 44.457031 12.234375 44.410156 12.011719 44.324219 11.796875 C 44.234375 11.578125 44.105469 11.390625 43.941406 11.222656 C 43.777344 11.058594 43.585938 10.933594 43.371094 10.84375 C 43.15625 10.753906 42.929688 10.707031 42.695312 10.707031 C 42.464844 10.707031 42.238281 10.753906 42.023438 10.84375 C 41.808594 10.933594 41.617188 11.058594 41.453125 11.222656 C 41.289062 11.390625 41.160156 11.578125 41.070312 11.796875 C 40.980469 12.011719 40.9375 12.234375 40.9375 12.46875 L 40.9375 18.035156 L 37.292969 14.328125 C 37.125 14.160156 36.933594 14.03125 36.714844 13.941406 C 36.496094 13.851562 36.269531 13.808594 36.035156 13.808594 C 35.800781 13.808594 35.570312 13.851562 35.355469 13.941406 C 35.136719 14.03125 34.945312 14.160156 34.777344 14.328125 C 34.609375 14.496094 34.480469 14.6875 34.390625 14.90625 C 34.300781 15.121094 34.257812 15.347656 34.257812 15.585938 C 34.257812 15.820312 34.300781 16.046875 34.390625 16.265625 C 34.484375 16.484375 34.613281 16.675781 34.777344 16.84375 L 40.976562 23.039062 L 40.976562 38.511719 L 32.011719 29.550781 L 32.011719 20.75 C 32.011719 20.519531 31.96875 20.292969 31.878906 20.078125 C 31.789062 19.863281 31.664062 19.671875 31.496094 19.507812 C 31.332031 19.34375 31.140625 19.214844 30.925781 19.125 C 30.710938 19.035156 30.488281 18.992188 30.253906 18.992188 C 30.019531 18.992188 29.796875 19.035156 29.578125 19.125 C 29.363281 19.214844 29.175781 19.34375 29.007812 19.507812 C 28.84375 19.671875 28.71875 19.863281 28.628906 20.078125 C 28.539062 20.292969 28.492188 20.519531 28.492188 20.75 L 28.492188 25.992188 L 24.507812 22.007812 C 24.34375 21.839844 24.152344 21.714844 23.933594 21.621094 C 23.714844 21.53125 23.488281 21.488281 23.253906 21.488281 C 23.015625 21.488281 22.789062 21.53125 22.574219 21.621094 C 22.355469 21.714844 22.164062 21.839844 21.996094 22.007812 C 21.828125 22.175781 21.699219 22.367188 21.609375 22.585938 C 21.519531 22.800781 21.476562 23.03125 21.476562 23.265625 C 21.476562 23.5 21.519531 23.726562 21.609375 23.945312 C 21.699219 24.164062 21.828125 24.355469 21.996094 24.523438 L 25.980469 28.507812 L 20.789062 28.507812 C 20.554688 28.507812 20.332031 28.550781 20.117188 28.640625 C 19.898438 28.730469 19.710938 28.855469 19.542969 29.023438 C 19.378906 29.1875 19.253906 29.378906 19.164062 29.59375 C 19.074219 29.808594 19.03125 30.03125 19.03125 30.265625 C 19.03125 30.5 19.074219 30.722656 19.164062 30.9375 C 19.253906 31.15625 19.378906 31.34375 19.542969 31.511719 C 19.710938 31.675781 19.898438 31.800781 20.117188 31.890625 C 20.332031 31.980469 20.554688 32.027344 20.789062 32.027344 L 29.585938 32.027344 L 38.535156 40.988281 L 22.523438 40.988281 L 16.339844 34.804688 C 16.171875 34.636719 15.980469 34.507812 15.761719 34.417969 C 15.546875 34.328125 15.316406 34.28125 15.082031 34.28125 C 14.847656 34.28125 14.621094 34.328125 14.402344 34.417969 C 14.183594 34.507812 13.992188 34.636719 13.824219 34.800781 C 13.65625 34.96875 13.53125 35.160156 13.4375 35.378906 C 13.347656 35.597656 13.304688 35.824219 13.304688 36.058594 C 13.304688 36.296875 13.347656 36.523438 13.441406 36.742188 C 13.53125 36.957031 13.660156 37.152344 13.824219 37.316406 L 17.597656 41.023438 L 12.570312 41.023438 C 12.335938 41.023438 12.109375 41.070312 11.894531 41.160156 C 11.679688 41.25 11.488281 41.375 11.324219 41.539062 C 11.160156 41.707031 11.03125 41.894531 10.941406 42.109375 C 10.855469 42.328125 10.808594 42.550781 10.808594 42.785156 C 10.808594 43.019531 10.855469 43.242188 10.941406 43.457031 C 11.03125 43.671875 11.160156 43.863281 11.324219 44.027344 C 11.488281 44.195312 11.679688 44.320312 11.894531 44.410156 C 12.109375 44.5 12.335938 44.542969 12.570312 44.542969 L 17.597656 44.542969 L 13.824219 48.253906 C 13.574219 48.503906 13.414062 48.804688 13.34375 49.15625 C 13.273438 49.507812 13.308594 49.847656 13.445312 50.175781 C 13.585938 50.503906 13.800781 50.769531 14.101562 50.964844 C 14.398438 51.160156 14.726562 51.257812 15.082031 51.257812 C 15.574219 51.257812 15.992188 51.085938 16.339844 50.742188 L 22.535156 44.542969 L 38.183594 44.542969 L 29.386719 53.34375 L 20.953125 53.34375 C 20.71875 53.34375 20.496094 53.386719 20.277344 53.476562 C 20.0625 53.566406 19.875 53.691406 19.707031 53.859375 C 19.542969 54.023438 19.414062 54.214844 19.328125 54.429688 C 19.238281 54.644531 19.191406 54.867188 19.191406 55.101562 C 19.191406 55.335938 19.238281 55.558594 19.328125 55.777344 C 19.414062 55.992188 19.542969 56.179688 19.707031 56.347656 C 19.875 56.511719 20.0625 56.636719 20.277344 56.726562 C 20.496094 56.816406 20.71875 56.863281 20.953125 56.863281 L 25.878906 56.863281 L 21.757812 60.984375 C 21.503906 61.238281 21.34375 61.539062 21.273438 61.886719 C 21.207031 62.238281 21.238281 62.578125 21.378906 62.90625 C 21.515625 63.238281 21.734375 63.5 22.03125 63.695312 C 22.328125 63.894531 22.65625 63.992188 23.015625 63.988281 C 23.503906 63.984375 23.921875 63.816406 24.269531 63.472656 L 28.707031 59.023438 L 28.707031 64.589844 C 28.707031 64.824219 28.753906 65.050781 28.839844 65.265625 C 28.929688 65.480469 29.058594 65.671875 29.222656 65.835938 C 29.386719 66 29.578125 66.128906 29.792969 66.21875 C 30.007812 66.308594 30.234375 66.351562 30.46875 66.351562 C 30.699219 66.351562 30.925781 66.308594 31.140625 66.21875 C 31.355469 66.128906 31.546875 66 31.710938 65.835938 C 31.875 65.671875 32.003906 65.480469 32.09375 65.265625 C 32.183594 65.050781 32.226562 64.824219 32.226562 64.589844 L 32.226562 55.644531 C 32.226562 55.644531 32.226562 55.542969 32.226562 55.480469 L 41.023438 46.679688 L 41.023438 63.019531 L 34.804688 69.128906 C 34.554688 69.382812 34.394531 69.683594 34.324219 70.035156 C 34.257812 70.386719 34.292969 70.726562 34.429688 71.054688 C 34.566406 71.382812 34.785156 71.648438 35.082031 71.847656 C 35.375 72.046875 35.703125 72.144531 36.058594 72.144531 C 36.546875 72.144531 36.96875 71.972656 37.316406 71.628906 L 41.023438 67.859375 L 41.023438 72.886719 C 41.023438 73.121094 41.070312 73.34375 41.160156 73.5625 C 41.25 73.777344 41.375 73.964844 41.539062 74.132812 C 41.707031 74.296875 41.894531 74.421875 42.109375 74.511719 C 42.328125 74.601562 42.550781 74.648438 42.785156 74.648438 C 43.019531 74.648438 43.242188 74.601562 43.457031 74.511719 C 43.671875 74.421875 43.863281 74.296875 44.027344 74.132812 C 44.195312 73.964844 44.320312 73.777344 44.410156 73.5625 C 44.5 73.34375 44.542969 73.121094 44.542969 72.886719 L 44.542969 67.859375 L 48.253906 71.628906 C 48.597656 71.976562 49.019531 72.148438 49.507812 72.144531 C 49.867188 72.144531 50.191406 72.046875 50.488281 71.847656 C 50.785156 71.648438 51.003906 71.382812 51.140625 71.054688 C 51.277344 70.726562 51.3125 70.386719 51.242188 70.035156 C 51.175781 69.683594 51.015625 69.382812 50.765625 69.128906 L 44.570312 62.933594 L 44.570312 47.007812 L 53.519531 55.957031 L 53.519531 64.390625 C 53.519531 64.625 53.5625 64.847656 53.652344 65.0625 C 53.742188 65.277344 53.871094 65.46875 54.035156 65.632812 C 54.199219 65.796875 54.390625 65.925781 54.605469 66.015625 C 54.820312 66.101562 55.046875 66.148438 55.277344 66.148438 C 55.511719 66.148438 55.734375 66.101562 55.949219 66.015625 C 56.167969 65.925781 56.355469 65.796875 56.523438 65.632812 C 56.6875 65.46875 56.8125 65.277344 56.902344 65.0625 C 56.992188 64.847656 57.039062 64.625 57.039062 64.390625 L 57.039062 59.476562 L 61.160156 63.597656 C 61.507812 63.945312 61.925781 64.117188 62.417969 64.113281 C 62.90625 64.113281 63.324219 63.941406 63.675781 63.597656 C 63.839844 63.433594 63.96875 63.242188 64.0625 63.023438 C 64.152344 62.804688 64.195312 62.578125 64.195312 62.34375 C 64.195312 62.105469 64.152344 61.878906 64.0625 61.660156 C 63.96875 61.445312 63.839844 61.25 63.675781 61.085938 L 59.226562 56.636719 L 64.792969 56.636719 C 65.027344 56.636719 65.25 56.589844 65.464844 56.5 C 65.683594 56.414062 65.871094 56.285156 66.039062 56.121094 C 66.203125 55.957031 66.328125 55.765625 66.417969 55.550781 C 66.507812 55.332031 66.550781 55.109375 66.550781 54.875 C 66.550781 54.644531 66.507812 54.417969 66.417969 54.203125 C 66.328125 53.988281 66.203125 53.796875 66.039062 53.632812 C 65.871094 53.464844 65.683594 53.339844 65.464844 53.25 C 65.25 53.160156 65.027344 53.117188 64.792969 53.117188 L 55.644531 53.117188 L 47.007812 44.519531 L 62.503906 44.519531 L 68.6875 50.714844 C 69.039062 51.058594 69.457031 51.230469 69.945312 51.230469 C 70.300781 51.226562 70.625 51.128906 70.917969 50.929688 C 71.210938 50.730469 71.425781 50.46875 71.5625 50.144531 C 71.699219 49.816406 71.734375 49.480469 71.671875 49.132812 C 71.605469 48.78125 71.449219 48.480469 71.203125 48.226562 L 67.433594 44.519531 L 72.988281 44.519531 C 73.222656 44.519531 73.445312 44.472656 73.660156 44.386719 C 73.875 44.296875 74.066406 44.167969 74.230469 44.003906 C 74.398438 43.839844 74.523438 43.648438 74.613281 43.433594 C 74.703125 43.21875 74.746094 42.992188 74.746094 42.757812 C 74.746094 42.527344 74.703125 42.300781 74.613281 42.085938 C 74.523438 41.871094 74.398438 41.679688 74.230469 41.515625 C 74.066406 41.351562 73.875 41.222656 73.660156 41.132812 C 73.445312 41.042969 73.222656 41 72.988281 41 Z M 73.039062 41 " fill-opacity="1" fill-rule="nonzero"/><path fill="#3f5141" d="M 73.039062 41 L 67.484375 41 L 71.179688 37.292969 C 71.34375 37.125 71.472656 36.933594 71.5625 36.714844 C 71.652344 36.496094 71.695312 36.269531 71.695312 36.035156 C 71.695312 35.800781 71.652344 35.574219 71.5625 35.355469 C 71.472656 35.136719 71.34375 34.945312 71.175781 34.78125 C 71.007812 34.613281 70.816406 34.484375 70.601562 34.394531 C 70.382812 34.304688 70.15625 34.257812 69.921875 34.257812 C 69.683594 34.257812 69.457031 34.304688 69.242188 34.394531 C 69.023438 34.484375 68.832031 34.613281 68.664062 34.777344 L 62.46875 40.976562 L 46.679688 40.976562 L 55.792969 31.863281 L 64.589844 31.863281 C 64.824219 31.863281 65.050781 31.816406 65.265625 31.730469 C 65.480469 31.640625 65.671875 31.511719 65.835938 31.347656 C 66.003906 31.183594 66.128906 30.992188 66.21875 30.777344 C 66.308594 30.5625 66.355469 30.335938 66.355469 30.101562 C 66.355469 29.867188 66.308594 29.644531 66.21875 29.429688 C 66.128906 29.214844 66.003906 29.023438 65.835938 28.859375 C 65.671875 28.691406 65.480469 28.566406 65.265625 28.476562 C 65.050781 28.386719 64.824219 28.34375 64.589844 28.34375 L 59.3125 28.34375 L 63.296875 24.347656 C 63.46875 24.179688 63.597656 23.988281 63.691406 23.773438 C 63.785156 23.554688 63.832031 23.324219 63.832031 23.089844 C 63.832031 22.851562 63.785156 22.625 63.691406 22.40625 C 63.597656 22.1875 63.46875 21.996094 63.296875 21.832031 C 63.128906 21.664062 62.9375 21.535156 62.722656 21.445312 C 62.503906 21.355469 62.277344 21.308594 62.039062 21.308594 C 61.804688 21.308594 61.578125 21.355469 61.359375 21.445312 C 61.140625 21.535156 60.949219 21.664062 60.785156 21.832031 L 56.800781 25.828125 L 56.800781 20.625 C 56.800781 20.390625 56.753906 20.167969 56.664062 19.953125 C 56.578125 19.734375 56.449219 19.546875 56.285156 19.378906 C 56.121094 19.214844 55.929688 19.085938 55.714844 18.996094 C 55.496094 18.910156 55.273438 18.863281 55.039062 18.863281 C 54.804688 18.863281 54.582031 18.910156 54.367188 18.996094 C 54.148438 19.085938 53.960938 19.214844 53.792969 19.378906 C 53.628906 19.546875 53.503906 19.734375 53.414062 19.953125 C 53.324219 20.167969 53.28125 20.390625 53.28125 20.625 L 53.28125 29.425781 L 44.480469 38.222656 L 44.480469 23.015625 L 50.679688 16.816406 C 50.84375 16.652344 50.972656 16.457031 51.066406 16.242188 C 51.15625 16.023438 51.199219 15.796875 51.199219 15.558594 C 51.199219 15.324219 51.15625 15.097656 51.066406 14.878906 C 50.972656 14.660156 50.84375 14.46875 50.679688 14.304688 C 50.511719 14.132812 50.320312 14 50.105469 13.910156 C 49.886719 13.816406 49.65625 13.769531 49.421875 13.769531 C 49.183594 13.769531 48.957031 13.816406 48.738281 13.910156 C 48.519531 14 48.328125 14.132812 48.164062 14.304688 L 44.457031 18.011719 L 44.457031 12.46875 C 44.457031 12.234375 44.410156 12.011719 44.324219 11.796875 C 44.234375 11.578125 44.105469 11.390625 43.941406 11.222656 C 43.777344 11.058594 43.585938 10.933594 43.371094 10.84375 C 43.15625 10.753906 42.929688 10.707031 42.695312 10.707031 C 42.464844 10.707031 42.238281 10.753906 42.023438 10.84375 C 41.808594 10.933594 41.617188 11.058594 41.453125 11.222656 C 41.289062 11.390625 41.160156 11.578125 41.070312 11.796875 C 40.980469 12.011719 40.9375 12.234375 40.9375 12.46875 L 40.9375 18.035156 L 37.292969 14.328125 C 37.125 14.160156 36.933594 14.03125 36.714844 13.941406 C 36.496094 13.851562 36.269531 13.808594 36.035156 13.808594 C 35.800781 13.808594 35.570312 13.851562 35.355469 13.941406 C 35.136719 14.03125 34.945312 14.160156 34.777344 14.328125 C 34.609375 14.496094 34.480469 14.6875 34.390625 14.90625 C 34.300781 15.121094 34.257812 15.347656 34.257812 15.585938 C 34.257812 15.820312 34.300781 16.046875 34.390625 16.265625 C 34.484375 16.484375 34.613281 16.675781 34.777344 16.84375 L 40.976562 23.039062 L 40.976562 38.511719 L 32.011719 29.550781 L 32.011719 20.75 C 32.011719 20.519531 31.96875 20.292969 31.878906 20.078125 C 31.789062 19.863281 31.664062 19.671875 31.496094 19.507812 C 31.332031 19.34375 31.140625 19.214844 30.925781 19.125 C 30.710938 19.035156 30.488281 18.992188 30.253906 18.992188 C 30.019531 18.992188 29.796875 19.035156 29.578125 19.125 C 29.363281 19.214844 29.175781 19.34375 29.007812 19.507812 C 28.84375 19.671875 28.71875 19.863281 28.628906 20.078125 C 28.539062 20.292969 28.492188 20.519531 28.492188 20.75 L 28.492188 25.992188 L 24.507812 22.007812 C 24.34375 21.839844 24.152344 21.714844 23.933594 21.621094 C 23.714844 21.53125 23.488281 21.488281 23.253906 21.488281 C 23.015625 21.488281 22.789062 21.53125 22.574219 21.621094 C 22.355469 21.714844 22.164062 21.839844 21.996094 22.007812 C 21.828125 22.175781 21.699219 22.367188 21.609375 22.585938 C 21.519531 22.800781 21.476562 23.03125 21.476562 23.265625 C 21.476562 23.5 21.519531 23.726562 21.609375 23.945312 C 21.699219 24.164062 21.828125 24.355469 21.996094 24.523438 L 25.980469 28.507812 L 20.789062 28.507812 C 20.554688 28.507812 20.332031 28.550781 20.117188 28.640625 C 19.898438 28.730469 19.710938 28.855469 19.542969 29.023438 C 19.378906 29.1875 19.253906 29.378906 19.164062 29.59375 C 19.074219 29.808594 19.03125 30.03125 19.03125 30.265625 C 19.03125 30.5 19.074219 30.722656 19.164062 30.9375 C 19.253906 31.15625 19.378906 31.34375 19.542969 31.511719 C 19.710938 31.675781 19.898438 31.800781 20.117188 31.890625 C 20.332031 31.980469 20.554688 32.027344 20.789062 32.027344 L 29.585938 32.027344 L 38.535156 40.988281 L 22.523438 40.988281 L 16.339844 34.804688 C 16.171875 34.636719 15.980469 34.507812 15.761719 34.417969 C 15.546875 34.328125 15.316406 34.28125 15.082031 34.28125 C 14.847656 34.28125 14.621094 34.328125 14.402344 34.417969 C 14.183594 34.507812 13.992188 34.636719 13.824219 34.800781 C 13.65625 34.96875 13.53125 35.160156 13.4375 35.378906 C 13.347656 35.597656 13.304688 35.824219 13.304688 36.058594 C 13.304688 36.296875 13.347656 36.523438 13.441406 36.742188 C 13.53125 36.957031 13.660156 37.152344 13.824219 37.316406 L 17.597656 41.023438 L 12.570312 41.023438 C 12.335938 41.023438 12.109375 41.070312 11.894531 41.160156 C 11.679688 41.25 11.488281 41.375 11.324219 41.539062 C 11.160156 41.707031 11.03125 41.894531 10.941406 42.109375 C 10.855469 42.328125 10.808594 42.550781 10.808594 42.785156 C 10.808594 43.019531 10.855469 43.242188 10.941406 43.457031 C 11.03125 43.671875 11.160156 43.863281 11.324219 44.027344 C 11.488281 44.195312 11.679688 44.320312 11.894531 44.410156 C 12.109375 44.5 12.335938 44.542969 12.570312 44.542969 L 17.597656 44.542969 L 13.824219 48.253906 C 13.574219 48.503906 13.414062 48.804688 13.34375 49.15625 C 13.273438 49.507812 13.308594 49.847656 13.445312 50.175781 C 13.585938 50.503906 13.800781 50.769531 14.101562 50.964844 C 14.398438 51.160156 14.726562 51.257812 15.082031 51.257812 C 15.574219 51.257812 15.992188 51.085938 16.339844 50.742188 L 22.535156 44.542969 L 38.183594 44.542969 L 29.386719 53.34375 L 20.953125 53.34375 C 20.71875 53.34375 20.496094 53.386719 20.277344 53.476562 C 20.0625 53.566406 19.875 53.691406 19.707031 53.859375 C 19.542969 54.023438 19.414062 54.214844 19.328125 54.429688 C 19.238281 54.644531 19.191406 54.867188 19.191406 55.101562 C 19.191406 55.335938 19.238281 55.558594 19.328125 55.777344 C 19.414062 55.992188 19.542969 56.179688 19.707031 56.347656 C 19.875 56.511719 20.0625 56.636719 20.277344 56.726562 C 20.496094 56.816406 20.71875 56.863281 20.953125 56.863281 L 25.878906 56.863281 L 21.757812 60.984375 C 21.503906 61.238281 21.34375 61.539062 21.273438 61.886719 C 21.207031 62.238281 21.238281 62.578125 21.378906 62.90625 C 21.515625 63.238281 21.734375 63.5 22.03125 63.695312 C 22.328125 63.894531 22.65625 63.992188 23.015625 63.988281 C 23.503906 63.984375 23.921875 63.816406 24.269531 63.472656 L 28.707031 59.023438 L 28.707031 64.589844 C 28.707031 64.824219 28.753906 65.050781 28.839844 65.265625 C 28.929688 65.480469 29.058594 65.671875 29.222656 65.835938 C 29.386719 66 29.578125 66.128906 29.792969 66.21875 C 30.007812 66.308594 30.234375 66.351562 30.46875 66.351562 C 30.699219 66.351562 30.925781 66.308594 31.140625 66.21875 C 31.355469 66.128906 31.546875 66 31.710938 65.835938 C 31.875 65.671875 32.003906 65.480469 32.09375 65.265625 C 32.183594 65.050781 32.226562 64.824219 32.226562 64.589844 L 32.226562 55.644531 C 32.226562 55.644531 32.226562 55.542969 32.226562 55.480469 L 41.023438 46.679688 L 41.023438 63.019531 L 34.804688 69.128906 C 34.554688 69.382812 34.394531 69.683594 34.324219 70.035156 C 34.257812 70.386719 34.292969 70.726562 34.429688 71.054688 C 34.566406 71.382812 34.785156 71.648438 35.082031 71.847656 C 35.375 72.046875 35.703125 72.144531 36.058594 72.144531 C 36.546875 72.144531 36.96875 71.972656 37.316406 71.628906 L 41.023438 67.859375 L 41.023438 72.886719 C 41.023438 73.121094 41.070312 73.34375 41.160156 73.5625 C 41.25 73.777344 41.375 73.964844 41.539062 74.132812 C 41.707031 74.296875 41.894531 74.421875 42.109375 74.511719 C 42.328125 74.601562 42.550781 74.648438 42.785156 74.648438 C 43.019531 74.648438 43.242188 74.601562 43.457031 74.511719 C 43.671875 74.421875 43.863281 74.296875 44.027344 74.132812 C 44.195312 73.964844 44.320312 73.777344 44.410156 73.5625 C 44.5 73.34375 44.542969 73.121094 44.542969 72.886719 L 44.542969 67.859375 L 48.253906 71.628906 C 48.597656 71.976562 49.019531 72.148438 49.507812 72.144531 C 49.867188 72.144531 50.191406 72.046875 50.488281 71.847656 C 50.785156 71.648438 51.003906 71.382812 51.140625 71.054688 C 51.277344 70.726562 51.3125 70.386719 51.242188 70.035156 C 51.175781 69.683594 51.015625 69.382812 50.765625 69.128906 L 44.570312 62.933594 L 44.570312 47.007812 L 53.519531 55.957031 L 53.519531 64.390625 C 53.519531 64.625 53.5625 64.847656 53.652344 65.0625 C 53.742188 65.277344 53.871094 65.46875 54.035156 65.632812 C 54.199219 65.796875 54.390625 65.925781 54.605469 66.015625 C 54.820312 66.101562 55.046875 66.148438 55.277344 66.148438 C 55.511719 66.148438 55.734375 66.101562 55.949219 66.015625 C 56.167969 65.925781 56.355469 65.796875 56.523438 65.632812 C 56.6875 65.46875 56.8125 65.277344 56.902344 65.0625 C 56.992188 64.847656 57.039062 64.625 57.039062 64.390625 L 57.039062 59.476562 L 61.160156 63.597656 C 61.507812 63.945312 61.925781 64.117188 62.417969 64.113281 C 62.90625 64.113281 63.324219 63.941406 63.675781 63.597656 C 63.839844 63.433594 63.96875 63.242188 64.0625 63.023438 C 64.152344 62.804688 64.195312 62.578125 64.195312 62.34375 C 64.195312 62.105469 64.152344 61.878906 64.0625 61.660156 C 63.96875 61.445312 63.839844 61.25 63.675781 61.085938 L 59.226562 56.636719 L 64.792969 56.636719 C 65.027344 56.636719 65.25 56.589844 65.464844 56.5 C 65.683594 56.414062 65.871094 56.285156 66.039062 56.121094 C 66.203125 55.957031 66.328125 55.765625 66.417969 55.550781 C 66.507812 55.332031 66.550781 55.109375 66.550781 54.875 C 66.550781 54.644531 66.507812 54.417969 66.417969 54.203125 C 66.328125 53.988281 66.203125 53.796875 66.039062 53.632812 C 65.871094 53.464844 65.683594 53.339844 65.464844 53.25 C 65.25 53.160156 65.027344 53.117188 64.792969 53.117188 L 55.644531 53.117188 L 47.007812 44.519531 L 62.503906 44.519531 L 68.6875 50.714844 C 69.039062 51.058594 69.457031 51.230469 69.945312 51.230469 C 70.300781 51.226562 70.625 51.128906 70.917969 50.929688 C 71.210938 50.730469 71.425781 50.46875 71.5625 50.144531 C 71.699219 49.816406 71.734375 49.480469 71.671875 49.132812 C 71.605469 48.78125 71.449219 48.480469 71.203125 48.226562 L 67.433594 44.519531 L 72.988281 44.519531 C 73.222656 44.519531 73.445312 44.472656 73.660156 44.386719 C 73.875 44.296875 74.066406 44.167969 74.230469 44.003906 C 74.398438 43.839844 74.523438 43.648438 74.613281 43.433594 C 74.703125 43.21875 74.746094 42.992188 74.746094 42.757812 C 74.746094 42.527344 74.703125 42.300781 74.613281 42.085938 C 74.523438 41.871094 74.398438 41.679688 74.230469 41.515625 C 74.066406 41.351562 73.875 41.222656 73.660156 41.132812 C 73.445312 41.042969 73.222656 41 72.988281 41 Z M 73.039062 41 " fill-opacity="1" fill-rule="nonzero"/></svg>