<svg xmlns="http://www.w3.org/2000/svg" xmlns:xlink="http://www.w3.org/1999/xlink" width="115" zoomAndPan="magnify" viewBox="0 0 86.25 86.249996" height="115" preserveAspectRatio="xMidYMid meet" version="1.0"><path fill="#3f5141" d="M 67.695312 63.210938 C 68.058594 63.417969 68.433594 63.597656 68.824219 63.742188 C 69.214844 63.886719 69.617188 63.996094 70.027344 64.070312 C 70.4375 64.144531 70.851562 64.183594 71.269531 64.183594 C 71.6875 64.183594 72.101562 64.148438 72.511719 64.078125 C 72.925781 64.007812 73.324219 63.902344 73.71875 63.757812 C 74.109375 63.617188 74.488281 63.441406 74.851562 63.234375 C 75.210938 63.027344 75.554688 62.789062 75.875 62.523438 C 76.195312 62.253906 76.488281 61.960938 76.757812 61.640625 C 77.027344 61.324219 77.265625 60.984375 77.472656 60.621094 C 77.683594 60.261719 77.859375 59.882812 78.003906 59.492188 C 78.144531 59.097656 78.253906 58.699219 78.328125 58.285156 C 78.398438 57.875 78.433594 57.460938 78.433594 57.042969 C 78.433594 56.625 78.398438 56.210938 78.328125 55.800781 C 78.253906 55.390625 78.144531 54.988281 78.003906 54.597656 C 77.859375 54.203125 77.683594 53.828125 77.472656 53.46875 C 77.265625 53.105469 77.027344 52.765625 76.757812 52.445312 C 76.488281 52.125 76.195312 51.832031 75.875 51.566406 C 75.554688 51.296875 75.210938 51.058594 74.851562 50.851562 C 74.488281 50.644531 74.109375 50.46875 73.71875 50.328125 C 73.324219 50.1875 72.925781 50.082031 72.511719 50.007812 C 72.101562 49.9375 71.6875 49.902344 71.269531 49.90625 C 70.851562 49.90625 70.4375 49.945312 70.027344 50.019531 C 69.617188 50.09375 69.214844 50.203125 68.824219 50.347656 C 68.433594 50.492188 68.058594 50.667969 67.695312 50.878906 L 67.695312 46.355469 L 46.328125 46.355469 L 46.328125 64.164062 C 46.328125 65.421875 46.636719 66.601562 47.257812 67.695312 L 32.0625 67.695312 L 32.0625 24.960938 L 46.292969 24.960938 C 46.296875 25.425781 46.34375 25.886719 46.4375 26.339844 C 46.53125 26.796875 46.671875 27.238281 46.851562 27.664062 C 47.03125 28.09375 47.25 28.5 47.511719 28.882812 C 47.773438 29.269531 48.066406 29.625 48.398438 29.953125 C 48.726562 30.277344 49.085938 30.570312 49.472656 30.828125 C 49.859375 31.085938 50.269531 31.300781 50.699219 31.476562 C 51.125 31.65625 51.570312 31.789062 52.023438 31.878906 C 52.480469 31.96875 52.941406 32.011719 53.40625 32.011719 L 60.53125 32.011719 C 60.996094 32.011719 61.457031 31.96875 61.914062 31.878906 C 62.367188 31.789062 62.8125 31.65625 63.242188 31.476562 C 63.671875 31.300781 64.082031 31.085938 64.46875 30.828125 C 64.855469 30.570312 65.214844 30.28125 65.542969 29.953125 C 65.875 29.625 66.171875 29.269531 66.429688 28.886719 C 66.691406 28.5 66.914062 28.09375 67.09375 27.664062 C 67.277344 27.238281 67.414062 26.796875 67.507812 26.339844 C 67.605469 25.886719 67.652344 25.425781 67.660156 24.960938 L 67.660156 14.277344 C 67.660156 13.808594 67.613281 13.347656 67.523438 12.886719 C 67.429688 12.429688 67.296875 11.984375 67.117188 11.550781 C 66.9375 11.117188 66.71875 10.707031 66.457031 10.320312 C 66.199219 9.929688 65.902344 9.570312 65.570312 9.238281 C 65.242188 8.90625 64.878906 8.613281 64.492188 8.351562 C 64.101562 8.09375 63.691406 7.875 63.257812 7.695312 C 62.828125 7.515625 62.382812 7.378906 61.921875 7.289062 C 61.464844 7.199219 61 7.152344 60.53125 7.152344 L 14.214844 7.152344 C 13.746094 7.152344 13.285156 7.199219 12.824219 7.289062 C 12.367188 7.378906 11.921875 7.515625 11.488281 7.695312 C 11.054688 7.875 10.644531 8.09375 10.257812 8.351562 C 9.867188 8.613281 9.507812 8.90625 9.175781 9.238281 C 8.84375 9.570312 8.550781 9.929688 8.289062 10.320312 C 8.03125 10.707031 7.808594 11.117188 7.632812 11.550781 C 7.453125 11.984375 7.316406 12.429688 7.226562 12.886719 C 7.132812 13.347656 7.089844 13.808594 7.089844 14.277344 L 7.089844 71.253906 C 7.089844 71.722656 7.132812 72.183594 7.226562 72.644531 C 7.316406 73.101562 7.453125 73.546875 7.632812 73.980469 C 7.808594 74.414062 8.03125 74.824219 8.289062 75.210938 C 8.550781 75.601562 8.84375 75.960938 9.175781 76.292969 C 9.507812 76.625 9.867188 76.917969 10.257812 77.179688 C 10.644531 77.4375 11.054688 77.660156 11.488281 77.835938 C 11.921875 78.015625 12.367188 78.152344 12.824219 78.242188 C 13.285156 78.335938 13.746094 78.378906 14.214844 78.378906 L 71.265625 78.378906 C 71.738281 78.378906 72.191406 78.289062 72.628906 78.109375 C 73.0625 77.929688 73.449219 77.671875 73.78125 77.339844 C 74.113281 77.003906 74.371094 76.621094 74.550781 76.183594 C 74.734375 75.75 74.824219 75.292969 74.824219 74.824219 L 74.824219 71.253906 C 74.820312 70.78125 74.730469 70.328125 74.546875 69.890625 C 74.367188 69.457031 74.109375 69.070312 73.773438 68.738281 C 73.4375 68.402344 73.054688 68.148438 72.617188 67.96875 C 72.179688 67.785156 71.726562 67.695312 71.253906 67.695312 L 66.765625 67.695312 C 67.386719 66.601562 67.695312 65.421875 67.695312 64.164062 Z M 71.265625 53.480469 C 71.738281 53.480469 72.195312 53.570312 72.632812 53.753906 C 73.070312 53.933594 73.457031 54.191406 73.792969 54.527344 C 74.125 54.863281 74.382812 55.25 74.566406 55.6875 C 74.746094 56.125 74.835938 56.582031 74.835938 57.054688 C 74.835938 57.527344 74.742188 57.984375 74.5625 58.421875 C 74.378906 58.859375 74.121094 59.246094 73.785156 59.578125 C 73.449219 59.914062 73.0625 60.171875 72.625 60.351562 C 72.1875 60.53125 71.730469 60.621094 71.257812 60.621094 C 70.785156 60.617188 70.328125 60.527344 69.890625 60.34375 C 69.453125 60.164062 69.066406 59.902344 68.734375 59.566406 C 68.398438 59.230469 68.144531 58.84375 67.964844 58.40625 C 67.785156 57.96875 67.695312 57.511719 67.695312 57.039062 C 67.695312 56.566406 67.785156 56.109375 67.96875 55.671875 C 68.148438 55.238281 68.40625 54.851562 68.742188 54.519531 C 69.078125 54.183594 69.464844 53.929688 69.902344 53.746094 C 70.339844 53.566406 70.792969 53.480469 71.265625 53.480469 Z M 60.53125 28.429688 L 53.40625 28.429688 C 52.941406 28.429688 52.492188 28.339844 52.058594 28.164062 C 51.628906 27.984375 51.246094 27.734375 50.914062 27.40625 C 50.582031 27.082031 50.324219 26.703125 50.140625 26.277344 C 49.957031 25.847656 49.859375 25.402344 49.847656 24.9375 L 64.101562 24.9375 C 64.09375 25.402344 63.996094 25.851562 63.8125 26.28125 C 63.625 26.710938 63.367188 27.089844 63.035156 27.414062 C 62.699219 27.742188 62.316406 27.992188 61.882812 28.167969 C 61.449219 28.34375 61 28.433594 60.53125 28.429688 Z M 71.253906 74.824219 L 14.214844 74.824219 C 13.742188 74.820312 13.289062 74.730469 12.851562 74.546875 C 12.417969 74.367188 12.03125 74.109375 11.699219 73.773438 C 11.367188 73.4375 11.109375 73.054688 10.929688 72.617188 C 10.75 72.179688 10.660156 71.726562 10.660156 71.253906 L 10.660156 14.253906 C 10.660156 13.78125 10.75 13.328125 10.929688 12.890625 C 11.109375 12.453125 11.367188 12.066406 11.699219 11.734375 C 12.03125 11.398438 12.417969 11.140625 12.851562 10.957031 C 13.289062 10.777344 13.742188 10.683594 14.214844 10.683594 L 60.53125 10.683594 C 61.003906 10.683594 61.460938 10.773438 61.898438 10.957031 C 62.335938 11.136719 62.722656 11.394531 63.054688 11.730469 C 63.390625 12.0625 63.648438 12.449219 63.828125 12.886719 C 64.011719 13.324219 64.101562 13.78125 64.101562 14.253906 L 64.101562 21.367188 L 32.0625 21.367188 C 31.589844 21.367188 31.136719 21.457031 30.703125 21.636719 C 30.265625 21.820312 29.882812 22.074219 29.546875 22.410156 C 29.214844 22.742188 28.957031 23.128906 28.777344 23.5625 C 28.597656 24 28.507812 24.453125 28.507812 24.925781 L 28.507812 67.734375 C 28.511719 68.203125 28.605469 68.652344 28.789062 69.082031 C 28.96875 69.515625 29.226562 69.894531 29.5625 70.226562 C 29.894531 70.554688 30.277344 70.808594 30.710938 70.984375 C 31.144531 71.164062 31.59375 71.253906 32.0625 71.253906 L 52.714844 71.253906 C 52.953125 71.265625 53.191406 71.265625 53.429688 71.253906 L 60.570312 71.253906 C 60.8125 71.265625 61.054688 71.265625 61.296875 71.253906 L 71.253906 71.253906 Z M 53.003906 67.695312 C 52.570312 67.644531 52.164062 67.519531 51.78125 67.320312 C 51.394531 67.117188 51.058594 66.855469 50.769531 66.53125 C 50.480469 66.207031 50.257812 65.84375 50.105469 65.4375 C 49.949219 65.03125 49.875 64.609375 49.875 64.175781 L 49.875 49.921875 L 64.101562 49.921875 L 64.101562 64.175781 C 64.101562 64.609375 64.023438 65.03125 63.871094 65.4375 C 63.714844 65.84375 63.496094 66.207031 63.207031 66.53125 C 62.917969 66.855469 62.582031 67.117188 62.195312 67.320312 C 61.8125 67.519531 61.402344 67.644531 60.972656 67.695312 Z M 53.003906 67.695312 " fill-opacity="1" fill-rule="nonzero"/><path fill="#3f5141" d="M 54.046875 40.988281 C 54.414062 40.988281 54.773438 41.042969 55.121094 41.15625 C 55.472656 41.265625 55.796875 41.425781 56.097656 41.636719 C 56.398438 41.851562 56.660156 42.101562 56.882812 42.394531 C 57.105469 42.6875 57.277344 43.003906 57.402344 43.351562 C 57.484375 43.574219 57.609375 43.773438 57.769531 43.945312 C 57.933594 44.121094 58.121094 44.257812 58.335938 44.355469 C 58.554688 44.453125 58.78125 44.507812 59.019531 44.515625 C 59.257812 44.523438 59.488281 44.484375 59.710938 44.402344 C 59.933594 44.320312 60.128906 44.195312 60.304688 44.035156 C 60.476562 43.871094 60.613281 43.683594 60.710938 43.464844 C 60.8125 43.25 60.863281 43.023438 60.871094 42.785156 C 60.878906 42.546875 60.84375 42.316406 60.757812 42.09375 C 60.503906 41.40625 60.15625 40.773438 59.707031 40.195312 C 59.261719 39.617188 58.738281 39.121094 58.136719 38.703125 C 57.535156 38.285156 56.886719 37.96875 56.191406 37.753906 C 55.492188 37.535156 54.777344 37.429688 54.046875 37.429688 C 53.679688 37.429688 53.320312 37.371094 52.972656 37.261719 C 52.621094 37.148438 52.296875 36.988281 51.996094 36.777344 C 51.695312 36.566406 51.433594 36.3125 51.210938 36.023438 C 50.988281 35.730469 50.816406 35.414062 50.691406 35.066406 C 50.605469 34.84375 50.484375 34.644531 50.324219 34.472656 C 50.160156 34.296875 49.972656 34.164062 49.753906 34.0625 C 49.539062 33.964844 49.3125 33.914062 49.074219 33.902344 C 48.835938 33.894531 48.605469 33.933594 48.382812 34.015625 C 48.160156 34.101562 47.964844 34.222656 47.789062 34.386719 C 47.617188 34.546875 47.480469 34.738281 47.382812 34.953125 C 47.28125 35.167969 47.230469 35.398438 47.222656 35.632812 C 47.214844 35.871094 47.25 36.101562 47.335938 36.324219 C 47.589844 37.007812 47.9375 37.640625 48.386719 38.21875 C 48.832031 38.796875 49.355469 39.292969 49.957031 39.710938 C 50.558594 40.128906 51.207031 40.445312 51.902344 40.664062 C 52.601562 40.882812 53.316406 40.988281 54.046875 40.988281 Z M 54.046875 40.988281 " fill-opacity="1" fill-rule="nonzero"/><path fill="#3f5141" d="M 19.59375 46.316406 C 19.359375 46.316406 19.128906 46.359375 18.910156 46.449219 C 18.691406 46.539062 18.496094 46.664062 18.328125 46.832031 C 18.160156 47 18.027344 47.191406 17.9375 47.410156 C 17.84375 47.628906 17.796875 47.855469 17.796875 48.09375 C 17.796875 48.328125 17.839844 48.558594 17.929688 48.777344 C 18.019531 48.996094 18.148438 49.191406 18.316406 49.359375 C 18.484375 49.527344 18.675781 49.65625 18.894531 49.75 C 19.113281 49.839844 19.339844 49.886719 19.578125 49.886719 C 19.816406 49.886719 20.042969 49.839844 20.261719 49.75 C 20.480469 49.660156 20.675781 49.53125 20.84375 49.363281 C 21.011719 49.199219 21.140625 49.003906 21.230469 48.785156 C 21.320312 48.566406 21.367188 48.339844 21.367188 48.101562 C 21.367188 47.867188 21.324219 47.640625 21.234375 47.421875 C 21.144531 47.203125 21.015625 47.011719 20.847656 46.84375 C 20.683594 46.675781 20.492188 46.546875 20.273438 46.457031 C 20.058594 46.363281 19.832031 46.316406 19.59375 46.316406 Z M 19.59375 46.316406 " fill-opacity="1" fill-rule="nonzero"/><path fill="#3f5141" d="M 19.59375 53.441406 C 19.359375 53.441406 19.128906 53.484375 18.910156 53.574219 C 18.691406 53.664062 18.496094 53.792969 18.328125 53.957031 C 18.160156 54.125 18.027344 54.316406 17.9375 54.535156 C 17.84375 54.753906 17.796875 54.984375 17.796875 55.21875 C 17.796875 55.457031 17.839844 55.683594 17.929688 55.902344 C 18.019531 56.125 18.148438 56.316406 18.316406 56.484375 C 18.484375 56.652344 18.675781 56.785156 18.894531 56.875 C 19.113281 56.964844 19.339844 57.011719 19.578125 57.011719 C 19.816406 57.011719 20.042969 56.96875 20.261719 56.878906 C 20.480469 56.789062 20.675781 56.660156 20.84375 56.492188 C 21.011719 56.324219 21.140625 56.128906 21.230469 55.910156 C 21.320312 55.691406 21.367188 55.464844 21.367188 55.226562 C 21.367188 54.992188 21.324219 54.765625 21.234375 54.546875 C 21.144531 54.328125 21.015625 54.136719 20.847656 53.96875 C 20.683594 53.804688 20.492188 53.675781 20.273438 53.582031 C 20.058594 53.492188 19.832031 53.445312 19.59375 53.441406 Z M 19.59375 53.441406 " fill-opacity="1" fill-rule="nonzero"/><path fill="#3f5141" d="M 19.59375 32.089844 C 19.246094 32.089844 18.898438 32.121094 18.554688 32.191406 C 18.207031 32.257812 17.875 32.359375 17.550781 32.496094 C 17.226562 32.628906 16.917969 32.792969 16.628906 32.988281 C 16.335938 33.183594 16.066406 33.40625 15.816406 33.652344 C 15.570312 33.902344 15.347656 34.171875 15.152344 34.460938 C 14.957031 34.753906 14.792969 35.0625 14.660156 35.386719 C 14.527344 35.710938 14.425781 36.042969 14.355469 36.386719 C 14.289062 36.730469 14.253906 37.078125 14.253906 37.429688 C 14.253906 37.78125 14.289062 38.128906 14.355469 38.472656 C 14.425781 38.816406 14.527344 39.152344 14.660156 39.472656 C 14.792969 39.796875 14.957031 40.105469 15.152344 40.398438 C 15.347656 40.691406 15.570312 40.960938 15.816406 41.207031 C 16.066406 41.457031 16.335938 41.675781 16.628906 41.871094 C 16.917969 42.066406 17.226562 42.230469 17.550781 42.367188 C 17.875 42.5 18.207031 42.601562 18.554688 42.667969 C 18.898438 42.738281 19.246094 42.773438 19.59375 42.773438 C 19.945312 42.773438 20.292969 42.738281 20.636719 42.667969 C 20.980469 42.601562 21.316406 42.5 21.640625 42.367188 C 21.964844 42.230469 22.269531 42.066406 22.5625 41.871094 C 22.855469 41.675781 23.125 41.457031 23.371094 41.207031 C 23.621094 40.960938 23.839844 40.691406 24.035156 40.398438 C 24.230469 40.105469 24.394531 39.796875 24.53125 39.472656 C 24.664062 39.152344 24.765625 38.816406 24.835938 38.472656 C 24.902344 38.128906 24.9375 37.78125 24.9375 37.429688 C 24.9375 37.078125 24.902344 36.730469 24.835938 36.386719 C 24.765625 36.042969 24.664062 35.710938 24.53125 35.386719 C 24.394531 35.0625 24.230469 34.753906 24.035156 34.460938 C 23.839844 34.171875 23.621094 33.902344 23.371094 33.652344 C 23.125 33.40625 22.855469 33.183594 22.5625 32.988281 C 22.269531 32.792969 21.964844 32.628906 21.640625 32.496094 C 21.316406 32.359375 20.980469 32.257812 20.636719 32.191406 C 20.292969 32.121094 19.945312 32.089844 19.59375 32.089844 Z M 19.59375 32.089844 " fill-opacity="1" fill-rule="nonzero"/><path fill="#3f5141" d="M 67.695312 63.210938 C 68.058594 63.417969 68.433594 63.597656 68.824219 63.742188 C 69.214844 63.886719 69.617188 63.996094 70.027344 64.070312 C 70.4375 64.144531 70.851562 64.183594 71.269531 64.183594 C 71.6875 64.183594 72.101562 64.148438 72.511719 64.078125 C 72.925781 64.007812 73.324219 63.902344 73.71875 63.757812 C 74.109375 63.617188 74.488281 63.441406 74.851562 63.234375 C 75.210938 63.027344 75.554688 62.789062 75.875 62.523438 C 76.195312 62.253906 76.488281 61.960938 76.757812 61.640625 C 77.027344 61.324219 77.265625 60.984375 77.472656 60.621094 C 77.683594 60.261719 77.859375 59.882812 78.003906 59.492188 C 78.144531 59.097656 78.253906 58.699219 78.328125 58.285156 C 78.398438 57.875 78.433594 57.460938 78.433594 57.042969 C 78.433594 56.625 78.398438 56.210938 78.328125 55.800781 C 78.253906 55.390625 78.144531 54.988281 78.003906 54.597656 C 77.859375 54.203125 77.683594 53.828125 77.472656 53.46875 C 77.265625 53.105469 77.027344 52.765625 76.757812 52.445312 C 76.488281 52.125 76.195312 51.832031 75.875 51.566406 C 75.554688 51.296875 75.210938 51.058594 74.851562 50.851562 C 74.488281 50.644531 74.109375 50.46875 73.71875 50.328125 C 73.324219 50.1875 72.925781 50.082031 72.511719 50.007812 C 72.101562 49.9375 71.6875 49.902344 71.269531 49.90625 C 70.851562 49.90625 70.4375 49.945312 70.027344 50.019531 C 69.617188 50.09375 69.214844 50.203125 68.824219 50.347656 C 68.433594 50.492188 68.058594 50.667969 67.695312 50.878906 L 67.695312 46.355469 L 46.328125 46.355469 L 46.328125 64.164062 C 46.328125 65.421875 46.636719 66.601562 47.257812 67.695312 L 32.0625 67.695312 L 32.0625 24.960938 L 46.292969 24.960938 C 46.296875 25.425781 46.34375 25.886719 46.4375 26.339844 C 46.53125 26.796875 46.671875 27.238281 46.851562 27.664062 C 47.03125 28.09375 47.25 28.5 47.511719 28.882812 C 47.773438 29.269531 48.066406 29.625 48.398438 29.953125 C 48.726562 30.277344 49.085938 30.570312 49.472656 30.828125 C 49.859375 31.085938 50.269531 31.300781 50.699219 31.476562 C 51.125 31.65625 51.570312 31.789062 52.023438 31.878906 C 52.480469 31.96875 52.941406 32.011719 53.40625 32.011719 L 60.53125 32.011719 C 60.996094 32.011719 61.457031 31.96875 61.914062 31.878906 C 62.367188 31.789062 62.8125 31.65625 63.242188 31.476562 C 63.671875 31.300781 64.082031 31.085938 64.46875 30.828125 C 64.855469 30.570312 65.214844 30.28125 65.542969 29.953125 C 65.875 29.625 66.171875 29.269531 66.429688 28.886719 C 66.691406 28.5 66.914062 28.09375 67.09375 27.664062 C 67.277344 27.238281 67.414062 26.796875 67.507812 26.339844 C 67.605469 25.886719 67.652344 25.425781 67.660156 24.960938 L 67.660156 14.277344 C 67.660156 13.808594 67.613281 13.347656 67.523438 12.886719 C 67.429688 12.429688 67.296875 11.984375 67.117188 11.550781 C 66.9375 11.117188 66.71875 10.707031 66.457031 10.320312 C 66.199219 9.929688 65.902344 9.570312 65.570312 9.238281 C 65.242188 8.90625 64.878906 8.613281 64.492188 8.351562 C 64.101562 8.09375 63.691406 7.875 63.257812 7.695312 C 62.828125 7.515625 62.382812 7.378906 61.921875 7.289062 C 61.464844 7.199219 61 7.152344 60.53125 7.152344 L 14.214844 7.152344 C 13.746094 7.152344 13.285156 7.199219 12.824219 7.289062 C 12.367188 7.378906 11.921875 7.515625 11.488281 7.695312 C 11.054688 7.875 10.644531 8.09375 10.257812 8.351562 C 9.867188 8.613281 9.507812 8.90625 9.175781 9.238281 C 8.84375 9.570312 8.550781 9.929688 8.289062 10.320312 C 8.03125 10.707031 7.808594 11.117188 7.632812 11.550781 C 7.453125 11.984375 7.316406 12.429688 7.226562 12.886719 C 7.132812 13.347656 7.089844 13.808594 7.089844 14.277344 L 7.089844 71.253906 C 7.089844 71.722656 7.132812 72.183594 7.226562 72.644531 C 7.316406 73.101562 7.453125 73.546875 7.632812 73.980469 C 7.808594 74.414062 8.03125 74.824219 8.289062 75.210938 C 8.550781 75.601562 8.84375 75.960938 9.175781 76.292969 C 9.507812 76.625 9.867188 76.917969 10.257812 77.179688 C 10.644531 77.4375 11.054688 77.660156 11.488281 77.835938 C 11.921875 78.015625 12.367188 78.152344 12.824219 78.242188 C 13.285156 78.335938 13.746094 78.378906 14.214844 78.378906 L 71.265625 78.378906 C 71.738281 78.378906 72.191406 78.289062 72.628906 78.109375 C 73.0625 77.929688 73.449219 77.671875 73.78125 77.339844 C 74.113281 77.003906 74.371094 76.621094 74.550781 76.183594 C 74.734375 75.75 74.824219 75.292969 74.824219 74.824219 L 74.824219 71.253906 C 74.820312 70.78125 74.730469 70.328125 74.546875 69.890625 C 74.367188 69.457031 74.109375 69.070312 73.773438 68.738281 C 73.4375 68.402344 73.054688 68.148438 72.617188 67.96875 C 72.179688 67.785156 71.726562 67.695312 71.253906 67.695312 L 66.765625 67.695312 C 67.386719 66.601562 67.695312 65.421875 67.695312 64.164062 Z M 71.265625 53.480469 C 71.738281 53.480469 72.195312 53.570312 72.632812 53.753906 C 73.070312 53.933594 73.457031 54.191406 73.792969 54.527344 C 74.125 54.863281 74.382812 55.25 74.566406 55.6875 C 74.746094 56.125 74.835938 56.582031 74.835938 57.054688 C 74.835938 57.527344 74.742188 57.984375 74.5625 58.421875 C 74.378906 58.859375 74.121094 59.246094 73.785156 59.578125 C 73.449219 59.914062 73.0625 60.171875 72.625 60.351562 C 72.1875 60.53125 71.730469 60.621094 71.257812 60.621094 C 70.785156 60.617188 70.328125 60.527344 69.890625 60.34375 C 69.453125 60.164062 69.066406 59.902344 68.734375 59.566406 C 68.398438 59.230469 68.144531 58.84375 67.964844 58.40625 C 67.785156 57.96875 67.695312 57.511719 67.695312 57.039062 C 67.695312 56.566406 67.785156 56.109375 67.96875 55.671875 C 68.148438 55.238281 68.40625 54.851562 68.742188 54.519531 C 69.078125 54.183594 69.464844 53.929688 69.902344 53.746094 C 70.339844 53.566406 70.792969 53.480469 71.265625 53.480469 Z M 60.53125 28.429688 L 53.40625 28.429688 C 52.941406 28.429688 52.492188 28.339844 52.058594 28.164062 C 51.628906 27.984375 51.246094 27.734375 50.914062 27.40625 C 50.582031 27.082031 50.324219 26.703125 50.140625 26.277344 C 49.957031 25.847656 49.859375 25.402344 49.847656 24.9375 L 64.101562 24.9375 C 64.09375 25.402344 63.996094 25.851562 63.8125 26.28125 C 63.625 26.710938 63.367188 27.089844 63.035156 27.414062 C 62.699219 27.742188 62.316406 27.992188 61.882812 28.167969 C 61.449219 28.34375 61 28.433594 60.53125 28.429688 Z M 71.253906 74.824219 L 14.214844 74.824219 C 13.742188 74.820312 13.289062 74.730469 12.851562 74.546875 C 12.417969 74.367188 12.03125 74.109375 11.699219 73.773438 C 11.367188 73.4375 11.109375 73.054688 10.929688 72.617188 C 10.75 72.179688 10.660156 71.726562 10.660156 71.253906 L 10.660156 14.253906 C 10.660156 13.78125 10.75 13.328125 10.929688 12.890625 C 11.109375 12.453125 11.367188 12.066406 11.699219 11.734375 C 12.03125 11.398438 12.417969 11.140625 12.851562 10.957031 C 13.289062 10.777344 13.742188 10.683594 14.214844 10.683594 L 60.53125 10.683594 C 61.003906 10.683594 61.460938 10.773438 61.898438 10.957031 C 62.335938 11.136719 62.722656 11.394531 63.054688 11.730469 C 63.390625 12.0625 63.648438 12.449219 63.828125 12.886719 C 64.011719 13.324219 64.101562 13.78125 64.101562 14.253906 L 64.101562 21.367188 L 32.0625 21.367188 C 31.589844 21.367188 31.136719 21.457031 30.703125 21.636719 C 30.265625 21.820312 29.882812 22.074219 29.546875 22.410156 C 29.214844 22.742188 28.957031 23.128906 28.777344 23.5625 C 28.597656 24 28.507812 24.453125 28.507812 24.925781 L 28.507812 67.734375 C 28.511719 68.203125 28.605469 68.652344 28.789062 69.082031 C 28.96875 69.515625 29.226562 69.894531 29.5625 70.226562 C 29.894531 70.554688 30.277344 70.808594 30.710938 70.984375 C 31.144531 71.164062 31.59375 71.253906 32.0625 71.253906 L 52.714844 71.253906 C 52.953125 71.265625 53.191406 71.265625 53.429688 71.253906 L 60.570312 71.253906 C 60.8125 71.265625 61.054688 71.265625 61.296875 71.253906 L 71.253906 71.253906 Z M 53.003906 67.695312 C 52.570312 67.644531 52.164062 67.519531 51.78125 67.320312 C 51.394531 67.117188 51.058594 66.855469 50.769531 66.53125 C 50.480469 66.207031 50.257812 65.84375 50.105469 65.4375 C 49.949219 65.03125 49.875 64.609375 49.875 64.175781 L 49.875 49.921875 L 64.101562 49.921875 L 64.101562 64.175781 C 64.101562 64.609375 64.023438 65.03125 63.871094 65.4375 C 63.714844 65.84375 63.496094 66.207031 63.207031 66.53125 C 62.917969 66.855469 62.582031 67.117188 62.195312 67.320312 C 61.8125 67.519531 61.402344 67.644531 60.972656 67.695312 Z M 53.003906 67.695312 " fill-opacity="1" fill-rule="nonzero"/><path fill="#3f5141" d="M 54.046875 40.988281 C 54.414062 40.988281 54.773438 41.042969 55.121094 41.15625 C 55.472656 41.265625 55.796875 41.425781 56.097656 41.636719 C 56.398438 41.851562 56.660156 42.101562 56.882812 42.394531 C 57.105469 42.6875 57.277344 43.003906 57.402344 43.351562 C 57.484375 43.574219 57.609375 43.773438 57.769531 43.945312 C 57.933594 44.121094 58.121094 44.257812 58.335938 44.355469 C 58.554688 44.453125 58.78125 44.507812 59.019531 44.515625 C 59.257812 44.523438 59.488281 44.484375 59.710938 44.402344 C 59.933594 44.320312 60.128906 44.195312 60.304688 44.035156 C 60.476562 43.871094 60.613281 43.683594 60.710938 43.464844 C 60.8125 43.25 60.863281 43.023438 60.871094 42.785156 C 60.878906 42.546875 60.84375 42.316406 60.757812 42.09375 C 60.503906 41.40625 60.15625 40.773438 59.707031 40.195312 C 59.261719 39.617188 58.738281 39.121094 58.136719 38.703125 C 57.535156 38.285156 56.886719 37.96875 56.191406 37.753906 C 55.492188 37.535156 54.777344 37.429688 54.046875 37.429688 C 53.679688 37.429688 53.320312 37.371094 52.972656 37.261719 C 52.621094 37.148438 52.296875 36.988281 51.996094 36.777344 C 51.695312 36.566406 51.433594 36.3125 51.210938 36.023438 C 50.988281 35.730469 50.816406 35.414062 50.691406 35.066406 C 50.605469 34.84375 50.484375 34.644531 50.324219 34.472656 C 50.160156 34.296875 49.972656 34.164062 49.753906 34.0625 C 49.539062 33.964844 49.3125 33.914062 49.074219 33.902344 C 48.835938 33.894531 48.605469 33.933594 48.382812 34.015625 C 48.160156 34.101562 47.964844 34.222656 47.789062 34.386719 C 47.617188 34.546875 47.480469 34.738281 47.382812 34.953125 C 47.28125 35.167969 47.230469 35.398438 47.222656 35.632812 C 47.214844 35.871094 47.25 36.101562 47.335938 36.324219 C 47.589844 37.007812 47.9375 37.640625 48.386719 38.21875 C 48.832031 38.796875 49.355469 39.292969 49.957031 39.710938 C 50.558594 40.128906 51.207031 40.445312 51.902344 40.664062 C 52.601562 40.882812 53.316406 40.988281 54.046875 40.988281 Z M 54.046875 40.988281 " fill-opacity="1" fill-rule="nonzero"/><path fill="#3f5141" d="M 19.59375 46.316406 C 19.359375 46.316406 19.128906 46.359375 18.910156 46.449219 C 18.691406 46.539062 18.496094 46.664062 18.328125 46.832031 C 18.160156 47 18.027344 47.191406 17.9375 47.410156 C 17.84375 47.628906 17.796875 47.855469 17.796875 48.09375 C 17.796875 48.328125 17.839844 48.558594 17.929688 48.777344 C 18.019531 48.996094 18.148438 49.191406 18.316406 49.359375 C 18.484375 49.527344 18.675781 49.65625 18.894531 49.75 C 19.113281 49.839844 19.339844 49.886719 19.578125 49.886719 C 19.816406 49.886719 20.042969 49.839844 20.261719 49.75 C 20.480469 49.660156 20.675781 49.53125 20.84375 49.363281 C 21.011719 49.199219 21.140625 49.003906 21.230469 48.785156 C 21.320312 48.566406 21.367188 48.339844 21.367188 48.101562 C 21.367188 47.867188 21.324219 47.640625 21.234375 47.421875 C 21.144531 47.203125 21.015625 47.011719 20.847656 46.84375 C 20.683594 46.675781 20.492188 46.546875 20.273438 46.457031 C 20.058594 46.363281 19.832031 46.316406 19.59375 46.316406 Z M 19.59375 46.316406 " fill-opacity="1" fill-rule="nonzero"/><path fill="#3f5141" d="M 19.59375 53.441406 C 19.359375 53.441406 19.128906 53.484375 18.910156 53.574219 C 18.691406 53.664062 18.496094 53.792969 18.328125 53.957031 C 18.160156 54.125 18.027344 54.316406 17.9375 54.535156 C 17.84375 54.753906 17.796875 54.984375 17.796875 55.21875 C 17.796875 55.457031 17.839844 55.683594 17.929688 55.902344 C 18.019531 56.125 18.148438 56.316406 18.316406 56.484375 C 18.484375 56.652344 18.675781 56.785156 18.894531 56.875 C 19.113281 56.964844 19.339844 57.011719 19.578125 57.011719 C 19.816406 57.011719 20.042969 56.96875 20.261719 56.878906 C 20.480469 56.789062 20.675781 56.660156 20.84375 56.492188 C 21.011719 56.324219 21.140625 56.128906 21.230469 55.910156 C 21.320312 55.691406 21.367188 55.464844 21.367188 55.226562 C 21.367188 54.992188 21.324219 54.765625 21.234375 54.546875 C 21.144531 54.328125 21.015625 54.136719 20.847656 53.96875 C 20.683594 53.804688 20.492188 53.675781 20.273438 53.582031 C 20.058594 53.492188 19.832031 53.445312 19.59375 53.441406 Z M 19.59375 53.441406 " fill-opacity="1" fill-rule="nonzero"/><path fill="#3f5141" d="M 19.59375 32.089844 C 19.246094 32.089844 18.898438 32.121094 18.554688 32.191406 C 18.207031 32.257812 17.875 32.359375 17.550781 32.496094 C 17.226562 32.628906 16.917969 32.792969 16.628906 32.988281 C 16.335938 33.183594 16.066406 33.40625 15.816406 33.652344 C 15.570312 33.902344 15.347656 34.171875 15.152344 34.460938 C 14.957031 34.753906 14.792969 35.0625 14.660156 35.386719 C 14.527344 35.710938 14.425781 36.042969 14.355469 36.386719 C 14.289062 36.730469 14.253906 37.078125 14.253906 37.429688 C 14.253906 37.78125 14.289062 38.128906 14.355469 38.472656 C 14.425781 38.816406 14.527344 39.152344 14.660156 39.472656 C 14.792969 39.796875 14.957031 40.105469 15.152344 40.398438 C 15.347656 40.691406 15.570312 40.960938 15.816406 41.207031 C 16.066406 41.457031 16.335938 41.675781 16.628906 41.871094 C 16.917969 42.066406 17.226562 42.230469 17.550781 42.367188 C 17.875 42.5 18.207031 42.601562 18.554688 42.667969 C 18.898438 42.738281 19.246094 42.773438 19.59375 42.773438 C 19.945312 42.773438 20.292969 42.738281 20.636719 42.667969 C 20.980469 42.601562 21.316406 42.5 21.640625 42.367188 C 21.964844 42.230469 22.269531 42.066406 22.5625 41.871094 C 22.855469 41.675781 23.125 41.457031 23.371094 41.207031 C 23.621094 40.960938 23.839844 40.691406 24.035156 40.398438 C 24.230469 40.105469 24.394531 39.796875 24.53125 39.472656 C 24.664062 39.152344 24.765625 38.816406 24.835938 38.472656 C 24.902344 38.128906 24.9375 37.78125 24.9375 37.429688 C 24.9375 37.078125 24.902344 36.730469 24.835938 36.386719 C 24.765625 36.042969 24.664062 35.710938 24.53125 35.386719 C 24.394531 35.0625 24.230469 34.753906 24.035156 34.460938 C 23.839844 34.171875 23.621094 33.902344 23.371094 33.652344 C 23.125 33.40625 22.855469 33.183594 22.5625 32.988281 C 22.269531 32.792969 21.964844 32.628906 21.640625 32.496094 C 21.316406 32.359375 20.980469 32.257812 20.636719 32.191406 C 20.292969 32.121094 19.945312 32.089844 19.59375 32.089844 Z M 19.59375 32.089844 " fill-opacity="1" fill-rule="nonzero"/></svg>